<?xml version="1.0" encoding="UTF-8" standalone="no"?>
<!-- Created with Inkscape (http://www.inkscape.org/) -->

<svg
   xmlns:dc="http://purl.org/dc/elements/1.1/"
   xmlns:cc="http://creativecommons.org/ns#"
   xmlns:rdf="http://www.w3.org/1999/02/22-rdf-syntax-ns#"
   xmlns:svg="http://www.w3.org/2000/svg"
   xmlns="http://www.w3.org/2000/svg"
   xmlns:sodipodi="http://sodipodi.sourceforge.net/DTD/sodipodi-0.dtd"
   xmlns:inkscape="http://www.inkscape.org/namespaces/inkscape"
   width="118.29799mm"
   height="132.82034mm"
   viewBox="0 0 419.1661 470.62326"
   id="svg2"
   version="1.1"
   inkscape:version="0.91 r13725"
   sodipodi:docname="Logo.svg"
   inkscape:export-filename="C:\Users\zvorskyi\Desktop\logo2.png"
   inkscape:export-xdpi="90"
   inkscape:export-ydpi="90">
  <defs
     id="defs4" />
  <sodipodi:namedview
     id="base"
     pagecolor="#ffffff"
     bordercolor="#666666"
     borderopacity="1.0"
     inkscape:pageopacity="0.0"
     inkscape:pageshadow="2"
     inkscape:zoom="0.49497475"
     inkscape:cx="57.484283"
     inkscape:cy="323.49341"
     inkscape:document-units="px"
     inkscape:current-layer="layer1"
     showgrid="false"
     fit-margin-top="0"
     fit-margin-left="0"
     fit-margin-right="0"
     fit-margin-bottom="0"
     inkscape:window-width="1366"
     inkscape:window-height="706"
     inkscape:window-x="1912"
     inkscape:window-y="28"
     inkscape:window-maximized="1" />
  <metadata
     id="metadata7">
    <rdf:RDF>
      <cc:Work
         rdf:about="">
        <dc:format>image/svg+xml</dc:format>
        <dc:type
           rdf:resource="http://purl.org/dc/dcmitype/StillImage" />
        <dc:title></dc:title>
      </cc:Work>
    </rdf:RDF>
  </metadata>
  <g
     inkscape:label="Layer 1"
     inkscape:groupmode="layer"
     id="layer1"
     transform="translate(-100.32967,-129.88271)">
    <path
       style="fill:#010101"
       d="m 150.06248,518.77332 c -11.89182,-1.66847 -26.40192,-8.26496 -36.43529,-16.56399 -10.03461,-8.30007 -14.065557,-17.23474 -13.17824,-29.20995 0.68398,-9.23087 5.75083,-25.38714 7.96183,-25.38714 0.40372,0 5.10687,2.42416 10.45139,5.38708 15.87394,8.80022 28.11691,13.41244 44.42701,16.73674 10.94632,2.23107 30.86605,2.71071 43.33189,1.0434 12.15578,-1.62585 21.23189,-3.78533 20.90072,-4.97288 -0.14062,-0.50424 -1.30194,-3.86643 -2.58071,-7.47156 -3.07083,-8.65735 -3.90832,-26.13577 -1.80282,-37.62558 4.36819,-23.83743 18.3469,-45.48739 40.88802,-63.32663 14.98925,-11.86265 38.70165,-24.02699 63.39843,-32.52309 6.19901,-2.13255 11.59572,-4.15032 11.99274,-4.48396 0.39703,-0.33379 1.13112,-3.96833 1.63132,-8.07713 1.22558,-10.06686 2.90276,-16.43282 7.17661,-27.2399 4.25097,-10.74922 15.38031,-30.10448 20.99665,-36.51576 3.80008,-4.33786 4.12469,-5.13835 7.34593,-18.11348 3.95367,-15.92534 6.20625,-21.37043 11.72844,-28.35078 6.39993,-8.08993 20.47384,-18.28932 22.67951,-16.43579 0.98724,0.82962 3.86821,14.23683 3.89772,18.13907 0.0302,3.97839 0.70651,4.39043 3.26926,1.99169 5.26119,-4.9245 20.2016,-12.79069 24.29369,-12.79069 2.85321,0 3.18616,1.26785 3.25296,12.38714 l 0.057,9.49113 3.67481,2.13336 c 4.68894,2.72212 13.01613,11.16454 13.7386,13.92875 0.3047,1.16581 1.03516,2.42537 1.6233,2.79905 0.58811,0.3735 6.95351,2.66141 14.14535,5.08385 27.44579,9.24468 40.62919,15.82455 40.56695,20.24714 -0.009,0.54841 -5.38468,5.61225 -11.94883,11.25295 -16.90741,14.5289 -21.3812,16.26085 -46.85683,18.13966 -17.36979,1.28102 -18.80118,2.05245 -15.68978,8.45594 2.06019,4.24004 2.45697,8.95498 1.51372,17.98759 -0.77367,7.40896 -0.64237,10.02286 0.95118,18.93748 1.53416,8.58218 1.77712,12.79223 1.42769,24.74076 -0.36381,12.44124 -0.73896,15.37736 -2.75957,21.598 -2.21383,6.81542 -2.33858,8.16926 -2.33903,25.38715 -5.2e-4,19.86188 0.8345,27.04071 5.33288,45.8484 3.83579,16.03733 7.64124,27.26538 11.68648,34.48105 2.7951,4.98576 4.51008,6.88754 9.65525,10.70701 6.18729,4.5931 11.16528,11.0755 11.16528,14.53964 0,3.3647 -1.41415,3.53779 -30.8932,3.78101 l -27.9139,0.2305 -4.97919,-4.62371 c -2.73855,-2.54308 -6.94945,-5.46278 -9.35761,-6.48826 -5.44782,-2.31986 -6.82922,-4.06562 -8.42988,-10.65335 -3.0455,-12.53418 -4.18416,-53.45672 -1.84264,-66.22409 1.85144,-10.09517 1.72833,-12.2064 -0.9018,-15.46332 -1.23997,-1.53549 -2.25449,-3.37954 -2.25449,-4.09785 0,-2.6307 4.36117,-6.7899 8.5186,-8.12416 4.004,-1.28503 4.14504,-1.27566 10.46959,0.69439 l 6.41095,1.9969 2.49237,-1.4914 c 1.37081,-0.82022 3.9751,-2.87051 5.78731,-4.55621 4.02547,-3.74433 4.327,-6.73687 1.01229,-10.04725 -1.25548,-1.25382 -2.09122,-2.83769 -1.85719,-3.51961 0.23391,-0.68196 0.69221,-3.1532 1.01819,-5.49173 0.70483,-5.05648 -0.32268,-7.10819 -6.22898,-12.43769 -3.0758,-2.77543 -4.15608,-4.42694 -4.62889,-7.07649 -0.84511,-4.7358 -3.59967,-10.63536 -6.24138,-13.36743 -2.02211,-2.09126 -2.36259,-2.18931 -4.24861,-1.22327 -1.86312,0.95427 -2.17769,0.88513 -3.44463,-0.75744 -5.07922,-6.58489 -9.78182,-8.47414 -13.6971,-5.50279 -2.30619,1.75014 -6.48241,8.58692 -8.04324,13.16718 -1.55449,4.56189 -1.94554,4.9111 -8.9756,8.0155 -20.30885,8.9682 -35.16966,27.14269 -40.11802,49.0637 -0.75643,3.35105 -1.47146,6.14884 -1.58896,6.21729 -0.11752,0.0686 -3.86585,1.05315 -8.32978,2.1882 -12.45047,3.16581 -22.43181,7.5983 -28.68019,12.73623 -2.96126,2.43496 -5.45307,4.33181 -5.53735,4.21518 -0.0844,-0.1168 -1.27845,-3.45177 -2.65377,-7.4114 -1.3753,-3.95963 -4.30779,-11.09373 -6.51665,-15.85357 -4.54511,-9.79405 -5.5515,-15.20249 -3.99851,-21.48889 1.87049,-7.57155 7.85189,-11.16689 18.52889,-11.13749 7.8989,0.0231 14.8797,3.81606 14.8797,8.08763 0,0.93975 -1.01454,3.97365 -2.25453,6.74203 -1.23994,2.76837 -2.25447,6.0268 -2.25447,7.24098 0,3.07507 2.20204,7.18398 4.37336,8.16051 4.69911,2.11339 12.7272,0.0906 15.92694,-4.01324 2.15194,-2.75998 3.1483,-10.26098 2.1517,-16.19902 -1.82552,-10.87715 -9.10787,-19.52759 -20.3807,-24.20942 -6.17946,-2.56648 -7.65326,-2.86312 -15.49714,-3.11933 -10.50202,-0.34304 -17.15768,1.40187 -23.19959,6.08196 -9.16083,7.09603 -12.47122,14.66133 -12.36502,28.2581 0.0778,9.96364 -0.31168,8.68436 11.01803,36.19009 5.60764,13.61404 5.79217,16.57086 1.82288,29.21308 -4.99826,15.9196 -4.48711,28.98476 1.52406,38.95335 2.93481,4.86692 10.91354,11.6315 17.49129,14.82952 l 4.95988,2.41145 -8.00564,0.0154 -8.00564,0.0154 -10.02284,-5.87316 c -5.51256,-3.23022 -12.46106,-7.8493 -15.44114,-10.26464 -6.31407,-5.11758 -3.96026,-5.42169 -22.1016,2.85578 -32.33854,14.7553 -57.10206,20.07856 -79.06768,16.9967 z m 228.35066,-6.57117 c -0.93625,-4.65681 -4.1242,-8.58992 -8.55453,-10.55399 -3.65615,-1.62087 -4.71156,-1.73345 -11.94884,-1.27431 -5.76049,0.3654 -7.93845,0.26287 -7.93845,-0.37428 0,-0.48292 1.25977,-2.75384 2.79947,-5.04653 2.41772,-3.59997 2.92891,-5.36415 3.74842,-12.93608 0.62538,-5.778 1.39829,-9.14523 2.26668,-9.87499 0.91812,-0.77155 2.84846,-1.0392 6.36563,-0.88271 l 5.04793,0.22433 1.94756,5.68368 c 3.00276,8.76314 7.28756,17.5525 13.56995,27.83583 3.15543,5.16503 5.73713,9.54048 5.73713,9.72321 0,0.18271 -2.805,0.33225 -6.23332,0.33225 l -6.23333,0 -0.5743,-2.85648 z"
       id="path4180"
       inkscape:connector-curvature="0" />
    <text
       xml:space="preserve"
       style="font-style:normal;font-weight:normal;font-size:40px;line-height:125%;font-family:sans-serif;letter-spacing:0px;word-spacing:0px;fill:#000000;fill-opacity:1;stroke:none;stroke-width:1px;stroke-linecap:butt;stroke-linejoin:miter;stroke-opacity:1"
       x="192.07112"
       y="599.81384"
       id="text4182"
       sodipodi:linespacing="125%"><tspan
         sodipodi:role="line"
         id="tspan4184"
         x="192.07112"
         y="599.81384"
         style="font-size:52.5px">VET CARE</tspan></text>
    <text
       xml:space="preserve"
       style="font-style:normal;font-weight:normal;font-size:40px;line-height:125%;font-family:sans-serif;letter-spacing:0px;word-spacing:0px;fill:#000000;fill-opacity:1;stroke:none;stroke-width:1px;stroke-linecap:butt;stroke-linejoin:miter;stroke-opacity:1"
       x="227.76971"
       y="168.05287"
       id="text4182-4"
       sodipodi:linespacing="125%"><tspan
         sodipodi:role="line"
         id="tspan4184-2"
         x="227.76971"
         y="168.05287"
         style="font-size:52.5px">FAMILY</tspan></text>
  </g>
</svg>
