<?xml version="1.0" encoding="UTF-8" standalone="no"?>
<!-- Created with Inkscape (http://www.inkscape.org/) -->

<svg
   xmlns:dc="http://purl.org/dc/elements/1.1/"
   xmlns:cc="http://creativecommons.org/ns#"
   xmlns:rdf="http://www.w3.org/1999/02/22-rdf-syntax-ns#"
   xmlns:svg="http://www.w3.org/2000/svg"
   xmlns="http://www.w3.org/2000/svg"
   xmlns:sodipodi="http://sodipodi.sourceforge.net/DTD/sodipodi-0.dtd"
   xmlns:inkscape="http://www.inkscape.org/namespaces/inkscape"
   width="120.885"
   height="120.88625"
   id="svg5440"
   version="1.1"
   inkscape:version="0.48.4 r9939"
   sodipodi:docname="New document 15">
  <defs
     id="defs5442" />
  <sodipodi:namedview
     id="base"
     pagecolor="#ffffff"
     bordercolor="#666666"
     borderopacity="1.0"
     inkscape:pageopacity="0.0"
     inkscape:pageshadow="2"
     inkscape:zoom="0.35"
     inkscape:cx="192.58536"
     inkscape:cy="-48.12827"
     inkscape:document-units="px"
     inkscape:current-layer="layer1"
     showgrid="false"
     fit-margin-top="0"
     fit-margin-left="0"
     fit-margin-right="0"
     fit-margin-bottom="0"
     inkscape:window-width="1855"
     inkscape:window-height="1056"
     inkscape:window-x="65"
     inkscape:window-y="24"
     inkscape:window-maximized="1" />
  <metadata
     id="metadata5445">
    <rdf:RDF>
      <cc:Work
         rdf:about="">
        <dc:format>image/svg+xml</dc:format>
        <dc:type
           rdf:resource="http://purl.org/dc/dcmitype/StillImage" />
        <dc:title></dc:title>
      </cc:Work>
    </rdf:RDF>
  </metadata>
  <g
     inkscape:label="Layer 1"
     inkscape:groupmode="layer"
     id="layer1"
     transform="translate(-182.41464,-363.34766)">
    <g
       style="display:inline"
       id="g5408"
       transform="matrix(1.25,0,0,-1.25,92.142856,1038.0765)">
      <path
         inkscape:connector-curvature="0"
         id="path4382"
         style="fill:#e13809;fill-opacity:1;fill-rule:nonzero;stroke:none;display:inline"
         d="m 120.57143,443.07407 c -26.705001,0 -48.354001,21.648 -48.354001,48.354 0,26.706 21.649,48.355 48.354001,48.355 26.705,0 48.354,-21.649 48.354,-48.355 0,-26.706 -21.649,-48.354 -48.354,-48.354" />
      <g
         style="fill:#ffffff;fill-opacity:1"
         transform="matrix(0.32597402,0,0,-0.26560846,84.68052,519.88574)"
         id="g5100">
        <g
           style="fill:#ffffff;fill-opacity:1"
           id="g5038">
          <path
             style="fill:#ffffff;fill-opacity:1"
             inkscape:connector-curvature="0"
             d="m 85.336,56.755 c 0.964,-5.543 2.302,-10.772 4.026,-15.391 -8.403,4.17 -15.248,11.015 -19.418,19.418 4.62,-1.725 9.849,-3.064 15.392,-4.027 z"
             id="path5040" />
          <path
             style="fill:#ffffff;fill-opacity:1"
             inkscape:connector-curvature="0"
             d="m 65.515,79.752 c 0.622,1.966 6.696,5.865 18.169,8.428 -0.165,-2.809 -0.251,-5.629 -0.251,-8.428 0,-2.799 0.086,-5.618 0.251,-8.427 -11.471,2.563 -17.545,6.461 -18.169,8.427 z"
             id="path5042" />
          <path
             style="fill:#ffffff;fill-opacity:1"
             inkscape:connector-curvature="0"
             d="m 131.331,56.755 c 5.543,0.964 10.772,2.302 15.391,4.026 -4.17,-8.403 -11.015,-15.248 -19.418,-19.417 1.725,4.619 3.064,9.848 4.027,15.391 z"
             id="path5044" />
          <path
             style="fill:#ffffff;fill-opacity:1"
             inkscape:connector-curvature="0"
             d="m 85.336,102.75 c -5.543,-0.964 -10.772,-2.302 -15.391,-4.026 4.17,8.403 11.015,15.248 19.417,19.418 -1.724,-4.62 -3.063,-9.849 -4.026,-15.392 z"
             id="path5046" />
          <path
             style="fill:#ffffff;fill-opacity:1"
             inkscape:connector-curvature="0"
             d="m 97.84,90.246 c 3.256,0.258 6.748,0.407 10.493,0.407 3.746,0 7.238,-0.149 10.494,-0.407 0.258,-3.256 0.407,-6.749 0.407,-10.494 0,-3.745 -0.149,-7.237 -0.407,-10.493 -3.256,-0.258 -6.749,-0.407 -10.495,-0.407 -3.745,0 -7.237,0.149 -10.493,0.407 -0.258,3.256 -0.407,6.748 -0.407,10.493 0.001,3.746 0.15,7.238 0.408,10.494 z"
             id="path5048" />
          <path
             style="fill:#ffffff;fill-opacity:1"
             inkscape:connector-curvature="0"
             d="m 108.333,54.852 c 2.799,0 5.619,0.086 8.428,0.251 -2.563,-11.473 -6.462,-17.546 -8.428,-18.169 -1.966,0.624 -5.864,6.698 -8.427,18.169 2.809,-0.165 5.628,-0.251 8.427,-0.251 z"
             id="path5050" />
          <path
             style="fill:#ffffff;fill-opacity:1"
             inkscape:connector-curvature="0"
             d="m 133.234,79.752 c 0,2.799 -0.086,5.619 -0.251,8.428 11.473,-2.563 17.546,-6.462 18.169,-8.428 -0.624,-1.966 -6.698,-5.864 -18.169,-8.426 0.165,2.808 0.251,5.627 0.251,8.426 z"
             id="path5052" />
          <path
             style="fill:#ffffff;fill-opacity:1"
             inkscape:connector-curvature="0"
             d="m 108.333,104.653 c -2.798,0 -5.618,-0.086 -8.426,-0.251 2.563,11.47 6.461,17.544 8.426,18.169 1.966,-0.622 5.865,-6.696 8.428,-18.169 -2.809,0.165 -5.629,0.251 -8.428,0.251 z"
             id="path5054" />
          <path
             style="fill:#ffffff;fill-opacity:1"
             inkscape:connector-curvature="0"
             d="m 131.331,102.75 c -0.964,5.543 -2.302,10.772 -4.026,15.391 8.403,-4.17 15.248,-11.015 19.418,-19.418 -4.62,1.725 -9.849,3.063 -15.392,4.027 z"
             id="path5056" />
          <polygon
             style="fill:#ffffff;fill-opacity:1"
             points="97.789,176 93.463,164.054 89.038,176 "
             id="polygon5058" />
          <path
             style="fill:#ffffff;fill-opacity:1"
             inkscape:connector-curvature="0"
             d="M 196,16.07 C 196,7.195 188.805,0 179.93,0 H 36.07 C 27.195,0 20,7.195 20,16.07 v 183.86 c 0,8.875 7.195,16.07 16.07,16.07 h 143.86 c 8.875,0 16.07,-7.195 16.07,-16.07 V 16.07 z m -87.667,6.849 c 31.338,0 56.834,25.495 56.834,56.833 0,31.338 -25.496,56.834 -56.834,56.834 C 76.995,136.586 51.5,111.09 51.5,79.752 51.5,48.414 76.995,22.919 108.333,22.919 z M 63.277,176 H 59 v 13 h -9 v -34 h 13.474 c 7.621,0 13.619,2.413 13.619,10.377 0,8.063 -6.539,10.623 -13.816,10.623 z m 39.527,13 -2.704,-6 H 86.629 l -2.557,6 h -9.145 l 14.602,-34 h 8.161 l 14.454,34 h -9.34 z m 26.925,-20.843 c 4.72,1.524 10.815,3.54 10.815,10.472 0,8.014 -6.44,11.603 -13.323,11.603 -4.965,0 -9.98,-1.819 -13.028,-5.015 l 5.507,-5.604 c 1.671,2.114 4.769,3.688 7.521,3.688 2.557,0 4.818,-0.983 4.818,-3.786 0,-2.654 -2.655,-3.49 -7.228,-4.965 -4.425,-1.426 -8.898,-3.688 -8.898,-9.98 0,-7.719 6.981,-10.915 13.471,-10.915 3.934,0 8.358,1.476 11.406,4.277 l -5.358,5.654 c -1.426,-1.819 -4.032,-2.999 -6.195,-2.999 -2.163,0 -4.867,0.737 -4.867,3.49 -0.001,2.31 2.065,3.048 5.359,4.08 z m 29.054,0 c 4.72,1.524 10.815,3.54 10.815,10.472 0,8.014 -6.44,11.603 -13.323,11.603 -4.965,0 -9.98,-1.819 -13.028,-5.015 l 5.507,-5.604 c 1.671,2.114 4.769,3.688 7.521,3.688 2.557,0 4.818,-0.983 4.818,-3.786 0,-2.654 -2.655,-3.49 -7.228,-4.965 -4.425,-1.426 -8.898,-3.688 -8.898,-9.98 0,-7.719 6.981,-10.915 13.471,-10.915 3.934,0 8.358,1.476 11.406,4.277 l -5.358,5.654 c -1.426,-1.819 -4.032,-2.999 -6.195,-2.999 -2.163,0 -4.867,0.737 -4.867,3.49 0,2.31 2.065,3.048 5.359,4.08 z"
             id="path5060" />
          <path
             style="fill:#ffffff;fill-opacity:1"
             inkscape:connector-curvature="0"
             d="M 62.786,161 H 59 v 9 h 3.639 c 3.146,0 6.047,-1.329 6.047,-4.623 0,-3.342 -2.901,-4.377 -5.9,-4.377 z"
             id="path5062" />
        </g>
        <g
           style="fill:#ffffff;fill-opacity:1"
           id="g5064" />
        <g
           style="fill:#ffffff;fill-opacity:1"
           id="g5066" />
        <g
           style="fill:#ffffff;fill-opacity:1"
           id="g5068" />
        <g
           style="fill:#ffffff;fill-opacity:1"
           id="g5070" />
        <g
           style="fill:#ffffff;fill-opacity:1"
           id="g5072" />
        <g
           style="fill:#ffffff;fill-opacity:1"
           id="g5074" />
        <g
           style="fill:#ffffff;fill-opacity:1"
           id="g5076" />
        <g
           style="fill:#ffffff;fill-opacity:1"
           id="g5078" />
        <g
           style="fill:#ffffff;fill-opacity:1"
           id="g5080" />
        <g
           style="fill:#ffffff;fill-opacity:1"
           id="g5082" />
        <g
           style="fill:#ffffff;fill-opacity:1"
           id="g5084" />
        <g
           style="fill:#ffffff;fill-opacity:1"
           id="g5086" />
        <g
           style="fill:#ffffff;fill-opacity:1"
           id="g5088" />
        <g
           style="fill:#ffffff;fill-opacity:1"
           id="g5090" />
        <g
           style="fill:#ffffff;fill-opacity:1"
           id="g5092" />
      </g>
    </g>
  </g>
</svg>
