<?xml version="1.0" encoding="UTF-8" standalone="no"?>
<!-- Created with Inkscape (http://www.inkscape.org/) -->

<svg
   xmlns:dc="http://purl.org/dc/elements/1.1/"
   xmlns:cc="http://creativecommons.org/ns#"
   xmlns:rdf="http://www.w3.org/1999/02/22-rdf-syntax-ns#"
   xmlns:svg="http://www.w3.org/2000/svg"
   xmlns="http://www.w3.org/2000/svg"
   xmlns:sodipodi="http://sodipodi.sourceforge.net/DTD/sodipodi-0.dtd"
   xmlns:inkscape="http://www.inkscape.org/namespaces/inkscape"
   width="35.985092mm"
   height="35.985447mm"
   viewBox="0 0 127.50623 127.5075"
   id="svg11407"
   version="1.1"
   inkscape:version="0.91 r13725"
   sodipodi:docname="24h.svg">
  <defs
     id="defs11409" />
  <sodipodi:namedview
     id="base"
     pagecolor="#ffffff"
     bordercolor="#666666"
     borderopacity="1.0"
     inkscape:pageopacity="0.0"
     inkscape:pageshadow="2"
     inkscape:zoom="0.98994949"
     inkscape:cx="-152.31356"
     inkscape:cy="-29.329854"
     inkscape:document-units="px"
     inkscape:current-layer="layer1"
     showgrid="false"
     fit-margin-top="0"
     fit-margin-left="0"
     fit-margin-right="0"
     fit-margin-bottom="0"
     inkscape:window-width="1366"
     inkscape:window-height="706"
     inkscape:window-x="1912"
     inkscape:window-y="-8"
     inkscape:window-maximized="1" />
  <metadata
     id="metadata11412">
    <rdf:RDF>
      <cc:Work
         rdf:about="">
        <dc:format>image/svg+xml</dc:format>
        <dc:type
           rdf:resource="http://purl.org/dc/dcmitype/StillImage" />
        <dc:title></dc:title>
      </cc:Work>
    </rdf:RDF>
  </metadata>
  <g
     inkscape:label="Layer 1"
     inkscape:groupmode="layer"
     id="layer1"
     transform="translate(-50.532592,-320.03702)">
    <g
       transform="matrix(1.25,0,0,-1.25,178.03884,383.79077)"
       id="g5208"
       style="fill:#0741d4;fill-opacity:1">
      <path
         inkscape:connector-curvature="0"
         id="path5210"
         style="fill:#0741d4;fill-opacity:1;fill-rule:nonzero;stroke:none"
         d="m 0,0 c 0,-28.168 -22.835,-51.003 -51.003,-51.003 -28.168,0 -51.002,22.835 -51.002,51.003 0,28.168 22.834,51.003 51.002,51.003 C -22.835,51.003 0,28.168 0,0" />
    </g>
    <g
       id="g12258"
       transform="matrix(0.62142374,0,0,0.58378174,62.737846,336.23489)"
       style="fill:#ffffff;fill-opacity:1">
      <g
         id="g12218"
         style="fill:#ffffff;fill-opacity:1">
        <path
           id="path12220"
           d="m 129.818,58.36 -18.879,0 0,-5.544 c 0,-4.241 -1.909,-11.349 -14.76,-11.349 -12.85,0 -14.753,7.107 -14.753,11.349 l 0,5.544 -2.87,0 C 77.232,37.841 60.174,21.56 39.341,21.56 17.649,21.56 0,39.209 0,60.902 0,81.991 16.695,99.215 37.557,100.149 l 0,19.742 c 0,1.667 1.363,3.026 3.026,3.026 l 11.919,0 c 1.427,5.887 6.7,10.284 13.012,10.284 6.325,0 11.597,-4.409 13.013,-10.284 l 35.255,0 c 1.425,5.887 6.696,10.284 13.01,10.284 6.324,0 11.597,-4.409 12.997,-10.284 l 11.946,0 c 1.661,0 3.026,-1.359 3.026,-3.026 l 0,-36.564 C 154.785,69.57 143.596,58.36 129.818,58.36 Z M 87.485,52.816 c 0,-1.723 0,-5.296 8.706,-5.296 8.707,0 8.707,3.573 8.707,5.296 l 0,5.544 -17.401,0 0,-5.544 -0.012,0 z m -12.031,23.703 0.954,0 0,12.613 -9.714,0 c 3.685,-3.565 6.676,-7.838 8.76,-12.613 z m 7.007,0 18.914,0 0,12.613 -18.914,0 0,-12.613 z M 6.07,60.902 c 0,-18.356 14.934,-33.29 33.29,-33.29 18.347,0 33.29,14.934 33.29,33.29 0,18.347 -14.942,33.289 -33.29,33.289 -18.356,0 -33.29,-14.936 -33.29,-33.289 z m 59.469,66.253 c -4.067,0 -7.376,-3.315 -7.376,-7.382 0,-4.067 3.31,-7.377 7.376,-7.377 4.066,0 7.379,3.311 7.379,7.377 0,4.066 -3.319,7.382 -7.379,7.382 z m 61.276,0 c -4.066,0 -7.383,-3.315 -7.383,-7.382 0,-4.067 3.316,-7.377 7.383,-7.377 4.067,0 7.377,3.311 7.377,7.377 0,4.066 -3.31,7.382 -7.377,7.382 z m 21.917,-10.29 -8.818,0 c -1.342,-6.005 -6.686,-10.521 -13.099,-10.521 -6.413,0 -11.757,4.517 -13.087,10.521 l -35.091,0 c -1.339,-6.005 -6.688,-10.521 -13.098,-10.521 -6.41,0 -11.759,4.517 -13.086,10.521 l -8.819,0 0,-16.869 c 5.532,-0.603 10.713,-2.364 15.321,-5.036 0.331,0.13 0.694,0.225 1.076,0.225 l 44.378,0 c 1.678,0 3.025,-1.371 3.025,-3.026 l 0,-18.667 c 0,-1.664 -1.348,-3.026 -3.025,-3.026 l -26.928,0 c 0.496,-1.959 0.866,-3.981 1.052,-6.053 l 51.303,0 c 10.427,0 18.914,8.479 18.914,18.914 l 0,33.538 -0.018,0 z m -18.914,-46.399 -10.285,0 c -1.661,0 -3.026,1.362 -3.026,3.026 l 0,18.666 c 0,1.655 1.365,3.026 3.026,3.026 l 20.12,0 c 1.673,0 3.026,-1.371 3.026,-3.026 l 0,-8.831 C 142.68,76.24 136.911,70.466 129.818,70.466 Z m 6.809,18.666 -14.067,0 0,-12.613 7.259,0 c 3.759,0 6.809,3.062 6.809,6.809 l 0,5.804 z m -99.041,-24.24 -17.552,0 0,-0.012 c 0,-2.344 0.6,-4.365 1.785,-6.041 1.194,-1.699 3.425,-3.679 6.715,-6.005 1.463,-1.017 2.503,-1.954 3.109,-2.813 0.612,-0.854 0.896,-1.797 0.896,-2.852 0,-1.138 -0.331,-2.057 -0.993,-2.754 -0.647,-0.694 -1.525,-1.04 -2.613,-1.04 -1.156,0 -2.06,0.437 -2.695,1.303 -0.647,0.884 -0.955,2.057 -0.907,3.559 l -4.944,0 c -0.104,-2.79 0.629,-5.013 2.178,-6.646 1.551,-1.641 3.685,-2.456 6.416,-2.456 2.53,0 4.619,0.757 6.209,2.255 1.617,1.513 2.397,3.452 2.397,5.843 0,1.947 -0.446,3.57 -1.374,4.847 -0.908,1.298 -2.613,2.731 -5.119,4.336 -2.338,1.469 -3.91,2.813 -4.752,3.998 l -0.024,0.045 11.257,0 0.011,4.433 0,0 z m 12.809,0 4.974,0 0,-5.677 2.899,0 0,-4.031 -2.899,0 0,-16.051 -2.825,0 -2.846,0 -9.508,15.699 0,2.198 0,2.185 10.205,0 0,5.677 z m -6.469,-9.708 0.21,-0.357 6.253,-10.368 0,10.72 -6.463,0.005 0,0 z m -12.924,13.866 1.386,0 0,13.261 -1.386,0 -1.386,0 0,-6.005 -5.187,0 0,6.005 -1.386,0 -1.386,0 0,-13.261 1.386,0 1.386,0 0,4.974 5.181,0 0,-4.974 1.392,0 z m 11.331,8.39 c 0.346,0.26 0.52,0.686 0.532,1.283 l 0.024,1.234 c 0,0.509 0.038,1.005 0.085,1.454 0.062,0.462 0.127,0.757 0.189,0.887 l 3.062,0 0,-0.354 c -0.213,-0.112 -0.37,-0.26 -0.449,-0.426 -0.071,-0.177 -0.121,-0.484 -0.127,-0.922 l -0.071,-2.175 c -0.033,-1.064 -0.414,-1.821 -1.183,-2.27 -0.127,-0.083 -0.271,-0.148 -0.428,-0.222 0.284,-0.106 0.543,-0.233 0.78,-0.399 0.854,-0.579 1.289,-1.513 1.289,-2.79 0,-1.103 -0.387,-1.998 -1.156,-2.663 C 44.1,69.412 43.083,69.06 41.818,69.06 l -5.319,0 -1.386,0 0,13.256 1.386,0 1.386,0 0,-5.243 2.761,0 c 0.786,-0.011 1.353,0.119 1.687,0.367 z m -4.448,-6.096 3.322,0 c 0.671,0 1.179,0.139 1.525,0.425 0.352,0.295 0.508,0.73 0.508,1.312 0,0.606 -0.168,1.028 -0.532,1.324 -0.357,0.298 -0.89,0.438 -1.61,0.438 l -3.213,0 0,-3.499 z m 13.308,0.097 c -0.399,0.319 -0.591,0.745 -0.591,1.3 0,0.387 0.198,0.697 0.629,0.907 0.399,0.225 1.265,0.485 2.601,0.783 1.924,0.423 3.228,0.919 3.887,1.487 0.641,0.559 0.969,1.451 0.969,2.692 0,1.254 -0.485,2.234 -1.466,2.968 -0.981,0.732 -2.317,1.099 -3.984,1.099 -1.67,0 -2.982,-0.372 -3.928,-1.152 -0.943,-0.779 -1.439,-1.885 -1.513,-3.327 l 2.663,0 c 0.027,0.709 0.293,1.241 0.771,1.643 0.47,0.366 1.138,0.567 2.007,0.567 0.884,0 1.593,-0.13 2.078,-0.438 0.497,-0.283 0.756,-0.662 0.756,-1.17 0,-0.496 -0.189,-0.875 -0.55,-1.111 -0.357,-0.23 -1.102,-0.479 -2.228,-0.727 -2.113,-0.467 -3.523,-0.976 -4.232,-1.528 -0.695,-0.544 -1.052,-1.383 -1.052,-2.53 0,-1.3 0.455,-2.317 1.386,-3.074 0.937,-0.745 2.189,-1.132 3.783,-1.132 1.489,0 2.686,0.387 3.638,1.167 0.931,0.783 1.445,1.835 1.56,3.168 l -2.704,0 c -0.05,-0.633 -0.322,-1.141 -0.831,-1.502 -0.508,-0.369 -1.167,-0.558 -1.971,-0.558 -0.726,0.001 -1.273,0.158 -1.678,0.468 z"
           inkscape:connector-curvature="0"
           style="fill:#ffffff;fill-opacity:1" />
      </g>
      <g
         id="g12222"
         style="fill:#ffffff;fill-opacity:1" />
      <g
         id="g12224"
         style="fill:#ffffff;fill-opacity:1" />
      <g
         id="g12226"
         style="fill:#ffffff;fill-opacity:1" />
      <g
         id="g12228"
         style="fill:#ffffff;fill-opacity:1" />
      <g
         id="g12230"
         style="fill:#ffffff;fill-opacity:1" />
      <g
         id="g12232"
         style="fill:#ffffff;fill-opacity:1" />
      <g
         id="g12234"
         style="fill:#ffffff;fill-opacity:1" />
      <g
         id="g12236"
         style="fill:#ffffff;fill-opacity:1" />
      <g
         id="g12238"
         style="fill:#ffffff;fill-opacity:1" />
      <g
         id="g12240"
         style="fill:#ffffff;fill-opacity:1" />
      <g
         id="g12242"
         style="fill:#ffffff;fill-opacity:1" />
      <g
         id="g12244"
         style="fill:#ffffff;fill-opacity:1" />
      <g
         id="g12246"
         style="fill:#ffffff;fill-opacity:1" />
      <g
         id="g12248"
         style="fill:#ffffff;fill-opacity:1" />
      <g
         id="g12250"
         style="fill:#ffffff;fill-opacity:1" />
    </g>
  </g>
</svg>
