<?xml version="1.0" encoding="UTF-8" standalone="no"?>
<!-- Created with Inkscape (http://www.inkscape.org/) -->

<svg
   xmlns:dc="http://purl.org/dc/elements/1.1/"
   xmlns:cc="http://creativecommons.org/ns#"
   xmlns:rdf="http://www.w3.org/1999/02/22-rdf-syntax-ns#"
   xmlns:svg="http://www.w3.org/2000/svg"
   xmlns="http://www.w3.org/2000/svg"
   xmlns:sodipodi="http://sodipodi.sourceforge.net/DTD/sodipodi-0.dtd"
   xmlns:inkscape="http://www.inkscape.org/namespaces/inkscape"
   width="35.9851mm"
   height="35.985451mm"
   viewBox="0 0 127.50626 127.5075"
   id="svg10781"
   version="1.1"
   inkscape:version="0.91 r13725"
   sodipodi:docname="diagnostics.svg">
  <defs
     id="defs10783" />
  <sodipodi:namedview
     id="base"
     pagecolor="#ffffff"
     bordercolor="#666666"
     borderopacity="1.0"
     inkscape:pageopacity="0.0"
     inkscape:pageshadow="2"
     inkscape:zoom="0.35"
     inkscape:cx="180.08974"
     inkscape:cy="-367.67482"
     inkscape:document-units="px"
     inkscape:current-layer="layer1"
     showgrid="false"
     fit-margin-top="0"
     fit-margin-left="0"
     fit-margin-right="0"
     fit-margin-bottom="0"
     inkscape:window-width="1366"
     inkscape:window-height="706"
     inkscape:window-x="-8"
     inkscape:window-y="-8"
     inkscape:window-maximized="1" />
  <metadata
     id="metadata10786">
    <rdf:RDF>
      <cc:Work
         rdf:about="">
        <dc:format>image/svg+xml</dc:format>
        <dc:type
           rdf:resource="http://purl.org/dc/dcmitype/StillImage" />
        <dc:title></dc:title>
      </cc:Work>
    </rdf:RDF>
  </metadata>
  <g
     inkscape:label="Layer 1"
     inkscape:groupmode="layer"
     id="layer1"
     transform="translate(-121.96116,-37.179883)">
    <g
       transform="matrix(1.25,0,0,-1.25,266.61027,46.647919)"
       id="g5160">
      <path
         inkscape:connector-curvature="0"
         id="path5162"
         style="fill:#434343;fill-opacity:1;fill-rule:nonzero;stroke:none"
         d="m -13.714286,-43.428571 c 0,-28.168 -22.835,-51.003 -51.003,-51.003 -28.168,0 -51.002004,22.835 -51.002004,51.003 0,28.168 22.834004,51.0029996 51.002004,51.0029996 28.168,0 51.003,-22.8349996 51.003,-51.0029996" />
    </g>
    <g
       id="g11370"
       transform="matrix(0.23052662,0,0,0.15672871,121.71464,52.062202)"
       style="fill:#ffffff;fill-opacity:1">
      <g
         id="g11330"
         style="fill:#ffffff;fill-opacity:1">
        <path
           id="path11332"
           d="m 464.529,317.111 c 0,-75.049 -40.443,-140.178 -99.302,-172.021 -4.445,-31.794 -31.736,-56.355 -64.728,-56.355 -7.368,0 -14.432,1.279 -21.047,3.529 l 0,-29.168 c 0,-7.21 -5.456,-13.089 -12.459,-13.868 l 0,-22.74 c 0,-0.536 -0.109,-1.041 -0.155,-1.559 l 11.323,0 c 5.151,0 9.341,-4.189 9.341,-9.353 l 0,-6.229 C 287.502,4.183 283.313,0 278.161,0 l -72.19,0 c -5.163,0 -9.353,4.183 -9.353,9.347 l 0,6.229 c 0,5.164 4.189,9.353 9.353,9.353 l 11.311,0 c -0.052,0.518 -0.159,1.022 -0.159,1.559 l 0,22.746 c -6.999,0.779 -12.455,6.646 -12.455,13.868 l 0,205.664 c 0,7.614 6.064,13.771 13.63,13.99 l 0,94.297 0.484,0 c 2.195,2.666 11.779,7.014 23.27,7.014 11.512,0 21.096,-4.348 23.285,-7.014 l 0.472,0 0,-94.297 c 7.563,-0.207 13.643,-6.37 13.643,-13.984 l 0,-52.68 c 6.615,2.25 13.679,3.528 21.047,3.528 23.468,0 44.024,-12.458 55.582,-31.063 39.786,26.536 66.378,74.229 66.378,128.554 0,33.686 -10.236,64.825 -27.469,89.949 l -46.972,18.761 0,-1.225 -186.192,0 0,20.247 186.194,0 0,-8.957 35.451,-14.163 c -25.245,28.412 -60.636,46.137 -99.776,46.137 l 0,0.348 -41.629,0 0,48.299 -133.996,0 0,56.093 292.146,0 0,-56.094 -74.008,0 0,-12.008 C 405.465,484.051 464.529,407.821 464.529,317.111 Z M 300.5,205.597 c -28.354,0 -51.42,-23.065 -51.42,-51.417 0,-28.351 23.066,-51.417 51.42,-51.417 22.457,0 41.553,14.499 48.543,34.62 -6.126,-2.539 -12.386,-4.752 -18.81,-6.573 -6.924,-8.811 -17.658,-14.489 -29.745,-14.489 -20.911,0 -37.857,16.953 -37.857,37.859 0,20.907 16.953,37.854 37.857,37.854 12.921,0 24.319,-6.491 31.164,-16.38 4.231,1.696 8.354,3.611 12.373,5.73 -9.085,14.51 -25.172,24.213 -43.525,24.213 z"
           inkscape:connector-curvature="0"
           style="fill:#ffffff;fill-opacity:1" />
      </g>
      <g
         id="g11334"
         style="fill:#ffffff;fill-opacity:1" />
      <g
         id="g11336"
         style="fill:#ffffff;fill-opacity:1" />
      <g
         id="g11338"
         style="fill:#ffffff;fill-opacity:1" />
      <g
         id="g11340"
         style="fill:#ffffff;fill-opacity:1" />
      <g
         id="g11342"
         style="fill:#ffffff;fill-opacity:1" />
      <g
         id="g11344"
         style="fill:#ffffff;fill-opacity:1" />
      <g
         id="g11346"
         style="fill:#ffffff;fill-opacity:1" />
      <g
         id="g11348"
         style="fill:#ffffff;fill-opacity:1" />
      <g
         id="g11350"
         style="fill:#ffffff;fill-opacity:1" />
      <g
         id="g11352"
         style="fill:#ffffff;fill-opacity:1" />
      <g
         id="g11354"
         style="fill:#ffffff;fill-opacity:1" />
      <g
         id="g11356"
         style="fill:#ffffff;fill-opacity:1" />
      <g
         id="g11358"
         style="fill:#ffffff;fill-opacity:1" />
      <g
         id="g11360"
         style="fill:#ffffff;fill-opacity:1" />
      <g
         id="g11362"
         style="fill:#ffffff;fill-opacity:1" />
    </g>
  </g>
</svg>
