<?xml version="1.0" encoding="UTF-8" standalone="no"?>
<!-- Created with Inkscape (http://www.inkscape.org/) -->

<svg
   xmlns:dc="http://purl.org/dc/elements/1.1/"
   xmlns:cc="http://creativecommons.org/ns#"
   xmlns:rdf="http://www.w3.org/1999/02/22-rdf-syntax-ns#"
   xmlns:svg="http://www.w3.org/2000/svg"
   xmlns="http://www.w3.org/2000/svg"
   xmlns:sodipodi="http://sodipodi.sourceforge.net/DTD/sodipodi-0.dtd"
   xmlns:inkscape="http://www.inkscape.org/namespaces/inkscape"
   width="35.985096mm"
   height="35.985447mm"
   viewBox="0 0 127.50624 127.5075"
   id="svg11407"
   version="1.1"
   inkscape:version="0.91 r13725"
   sodipodi:docname="dietolog.svg">
  <defs
     id="defs11409" />
  <sodipodi:namedview
     id="base"
     pagecolor="#ffffff"
     bordercolor="#666666"
     borderopacity="1.0"
     inkscape:pageopacity="0.0"
     inkscape:pageshadow="2"
     inkscape:zoom="1.4"
     inkscape:cx="85.789229"
     inkscape:cy="-20.175746"
     inkscape:document-units="px"
     inkscape:current-layer="layer1"
     showgrid="false"
     fit-margin-top="0"
     fit-margin-left="0"
     fit-margin-right="0"
     fit-margin-bottom="0"
     inkscape:window-width="1920"
     inkscape:window-height="1058"
     inkscape:window-x="-8"
     inkscape:window-y="-8"
     inkscape:window-maximized="1" />
  <metadata
     id="metadata11412">
    <rdf:RDF>
      <cc:Work
         rdf:about="">
        <dc:format>image/svg+xml</dc:format>
        <dc:type
           rdf:resource="http://purl.org/dc/dcmitype/StillImage" />
        <dc:title></dc:title>
      </cc:Work>
    </rdf:RDF>
  </metadata>
  <g
     inkscape:label="Layer 1"
     inkscape:groupmode="layer"
     id="layer1"
     transform="translate(-46.961164,-326.46559)">
    <g
       transform="matrix(1.25,0,0,-1.25,174.46741,390.21934)"
       id="g5208"
       style="fill:#b1415a;fill-opacity:1">
      <path
         inkscape:connector-curvature="0"
         id="path5210"
         style="fill:#b1415a;fill-opacity:1;fill-rule:nonzero;stroke:none"
         d="m 0,0 c 0,-28.168 -22.835,-51.003 -51.003,-51.003 -28.168,0 -51.002,22.835 -51.002,51.003 0,28.168 22.834,51.003 51.002,51.003 C -22.835,51.003 0,28.168 0,0" />
    </g>
    <g
       id="g12652"
       transform="matrix(0.13129417,0,0,0.12555198,72.158628,350.27533)"
       style="fill:#ffffff;fill-opacity:1">
      <g
         id="g12608"
         style="fill:#ffffff;fill-opacity:1">
        <g
           id="g12610"
           style="fill:#ffffff;fill-opacity:1">
          <path
             id="path12612"
             d="M 542.989,60.754 C 523.288,41.138 500.268,25.945 474.571,15.598 449.826,5.634 423.685,0.582 396.873,0.582 c -27.255,0 -53.798,5.211 -78.891,15.489 -26.057,10.672 -49.3,26.317 -69.084,46.501 -29.653,30.252 -49.055,68.189 -56.189,109.823 -1.566,6.223 -7.995,31.437 -16.427,60.055 -16.26,55.186 -26.292,77.115 -30.824,85.275 -6.446,11.607 -9.012,25.232 -7.226,38.365 0.679,4.988 1.979,9.871 3.842,14.525 l -68.309,68.309 c -1.948,-0.17 -3.911,-0.256 -5.884,-0.256 -15.101,-0.002 -29.9,5.186 -41.673,14.605 -12.34,9.875 -20.762,23.635 -24.358,39.795 -1.788,8.033 -1.797,16.516 -0.027,24.531 3.065,13.881 9.834,26.217 19.577,35.678 5.184,5.033 11.08,9.146 17.481,12.232 3.087,6.402 7.2,12.299 12.234,17.482 9.459,9.742 21.797,16.512 35.678,19.576 3.995,0.883 8.097,1.33 12.194,1.33 4.143,0 8.295,-0.457 12.341,-1.357 10.336,-2.301 19.692,-6.576 27.802,-12.707 8.121,-6.139 14.581,-13.803 19.202,-22.779 5.863,-11.389 8.266,-24.01 7.153,-36.445 l 68.302,-68.303 c 7.279,2.895 14.942,4.367 22.791,4.367 10.583,0 21.059,-2.746 30.294,-7.941 8.196,-4.611 30.19,-14.758 85.406,-30.904 28.621,-8.369 53.598,-14.637 59.64,-16.133 20.342,-3.48 39.954,-9.941 58.323,-19.219 19.587,-9.893 37.443,-22.834 53.074,-38.465 19.788,-19.787 35.11,-42.885 45.542,-68.65 10.067,-24.864 15.156,-51.122 15.128,-78.043 -0.029,-26.92 -5.175,-53.165 -15.295,-78.005 C 578.2,103.57 562.824,80.503 542.989,60.754 Z M 423.175,369.729 c 0,0 -90.345,21.979 -140.207,43.395 -6.481,2.783 -12.28,5.557 -17.105,8.271 -2.913,1.639 -6.113,2.439 -9.289,2.439 -4.864,0 -9.669,-1.879 -13.29,-5.498 L 230.226,405.279 214.667,389.72 199.108,374.161 185.996,361.05 c -5.966,-5.967 -7.188,-15.15 -3.091,-22.525 2.632,-4.738 5.333,-10.434 8.056,-16.801 21.233,-49.68 43.698,-140.509 43.698,-140.509 l 0.008,-0.005 c 5.23,-32.38 20.165,-63.496 44.821,-88.65 32.09,-32.737 74.723,-49.137 117.382,-49.137 41.957,0 83.938,15.877 115.89,47.689 64.42,64.141 64.506,168.36 0.258,232.608 -25.359,25.359 -56.948,40.688 -89.841,46 l -0.002,0.009 z M 124.07,511.438 c -4.133,4.133 -5.361,10.361 -3.08,15.742 5.45,12.855 -0.875,29.518 -18.973,33.545 -0.997,0.221 -2.015,0.332 -3.033,0.332 -0.993,0 -1.985,-0.105 -2.958,-0.32 -12.058,-2.662 -18.903,-10.922 -20.537,-19.943 -1.104,-6.092 -5.801,-10.789 -11.894,-11.893 -9.02,-1.635 -17.28,-8.48 -19.942,-20.537 -0.435,-1.971 -0.426,-4.021 0.013,-5.99 3.095,-13.912 13.652,-20.867 24.21,-20.865 3.179,0 6.359,0.631 9.334,1.891 1.801,0.764 3.697,1.135 5.578,1.135 3.738,0 7.415,-1.463 10.165,-4.213 l 75.866,-75.867 15.558,15.559 15.558,15.559 -75.865,75.865 z"
             inkscape:connector-curvature="0"
             style="fill:#ffffff;fill-opacity:1" />
          <path
             id="path12614"
             d="m 98.985,604.399 c -4.133,0 -8.272,-0.451 -12.302,-1.342 -13.977,-3.086 -26.4,-9.903 -35.929,-19.716 -5.011,-5.16 -9.131,-11.032 -12.25,-17.457 C 32.083,562.769 26.211,558.648 21.049,553.636 11.236,544.108 4.418,531.684 1.332,517.707 -0.454,509.622 -0.444,501.064 1.359,492.96 4.98,476.689 13.464,462.83 25.893,452.883 37.752,443.394 52.66,438.168 67.87,438.168 c 1.903,0 3.818,0.08 5.704,0.238 l 67.912,-67.912 c -1.825,-4.632 -3.087,-9.453 -3.751,-14.337 -1.8,-13.239 0.787,-26.974 7.285,-38.676 4.522,-8.141 14.534,-30.032 30.782,-85.173 8.354,-28.353 14.681,-53.12 16.421,-60.036 7.142,-41.685 26.618,-79.753 56.317,-110.051 19.832,-20.232 43.131,-35.916 69.252,-46.614 25.154,-10.302 51.76,-15.526 79.08,-15.526 26.876,0 53.081,5.064 77.885,15.052 25.761,10.373 48.835,25.602 68.584,45.265 19.884,19.797 35.296,42.919 45.81,68.726 10.145,24.899 15.303,51.208 15.332,78.193 0.028,26.989 -5.073,53.31 -15.164,78.231 -10.458,25.829 -25.817,48.982 -45.652,68.816 -15.669,15.669 -33.568,28.642 -53.202,38.558 -18.404,9.297 -38.075,15.778 -58.465,19.267 -6.803,1.686 -31.314,7.854 -59.583,16.119 -55.171,16.134 -77.125,26.26 -85.302,30.86 -9.31,5.237 -19.87,8.006 -30.539,8.006 -7.789,0 -15.415,-1.44 -22.669,-4.281 l -67.905,67.905 c 1.082,12.586 -1.416,25.197 -7.227,36.485 -4.655,9.044 -11.164,16.766 -19.345,22.949 -8.168,6.175 -17.587,10.479 -27.996,12.797 -4.083,0.909 -8.271,1.37 -12.449,1.37 z M 67.88,439.169 c -14.992,0 -29.678,5.148 -41.361,14.496 -12.25,9.803 -20.612,23.466 -24.183,39.513 -1.772,7.963 -1.782,16.371 -0.027,24.315 3.043,13.784 9.765,26.034 19.437,35.427 5.127,4.978 10.965,9.062 17.351,12.141 l 0.157,0.075 0.076,0.158 c 3.081,6.389 7.166,12.226 12.143,17.351 9.391,9.672 21.642,16.394 35.427,19.437 7.961,1.76 16.337,1.748 24.318,-0.027 10.268,-2.285 19.557,-6.53 27.609,-12.617 8.061,-6.094 14.473,-13.7 19.06,-22.609 5.76,-11.189 8.215,-23.698 7.099,-36.172 l -0.021,-0.233 0.166,-0.165 68.535,-68.535 0.306,0.121 c 7.229,2.875 14.834,4.332 22.606,4.332 10.498,0 20.888,-2.724 30.049,-7.877 8.213,-4.621 30.245,-14.787 85.511,-30.948 28.288,-8.272 52.816,-14.444 59.66,-16.139 20.328,-3.479 39.903,-9.93 58.218,-19.18 19.539,-9.868 37.353,-22.778 52.946,-38.372 19.739,-19.738 35.025,-42.78 45.432,-68.484 10.043,-24.802 15.12,-50.997 15.092,-77.855 -0.029,-26.856 -5.163,-53.038 -15.258,-77.817 C 577.765,103.824 562.427,80.813 542.639,61.111 522.985,41.543 500.022,26.387 474.387,16.065 449.701,6.125 423.623,1.086 396.875,1.086 c -27.189,0 -53.668,5.199 -78.701,15.452 -25.994,10.646 -49.181,26.253 -68.917,46.388 -29.555,30.152 -48.938,68.036 -56.053,109.557 -1.749,6.958 -8.081,31.742 -16.44,60.112 -16.274,55.234 -26.324,77.199 -30.867,85.377 -6.394,11.514 -8.939,25.028 -7.167,38.055 0.668,4.91 1.95,9.758 3.811,14.407 l 0.123,0.306 -68.707,68.707 -0.232,-0.021 c -1.936,-0.171 -3.901,-0.257 -5.845,-0.257 z m 31.105,122.389 c -1.037,0 -2.068,-0.111 -3.066,-0.332 -11.243,-2.482 -19.063,-10.087 -20.921,-20.343 -1.071,-5.909 -5.581,-10.419 -11.491,-11.489 -10.254,-1.858 -17.859,-9.68 -20.341,-20.922 -0.446,-2.021 -0.441,-4.167 0.014,-6.206 2.873,-12.913 12.565,-21.257 24.694,-21.257 l 0,0.5 0.004,-0.5 c 3.299,0 6.505,0.649 9.529,1.931 1.714,0.727 3.525,1.095 5.383,1.095 3.705,0 7.189,-1.444 9.811,-4.066 l 76.22,-76.221 31.823,31.824 -76.219,76.221 c -4.017,4.017 -5.184,9.98 -2.973,15.193 2.837,6.693 2.559,14.234 -0.765,20.69 -3.527,6.852 -10.119,11.659 -18.56,13.538 -1.032,0.228 -2.089,0.344 -3.142,0.344 z M 67.873,482.009 c -8.84,0 -20.356,5.362 -23.718,20.474 -0.423,1.898 -0.428,3.896 -0.013,5.774 2.393,10.835 9.699,18.368 19.543,20.152 6.324,1.146 11.15,5.972 12.296,12.296 1.783,9.846 9.316,17.151 20.152,19.544 1.871,0.414 3.872,0.41 5.775,-0.012 8.146,-1.812 14.499,-6.437 17.887,-13.019 3.188,-6.191 3.455,-13.424 0.733,-19.843 -2.37,-5.59 -1.12,-11.985 3.187,-16.291 l 75.512,-75.514 -30.409,-30.41 -75.513,75.514 c -2.811,2.812 -6.546,4.359 -10.518,4.359 -1.993,0 -3.935,-0.396 -5.773,-1.175 -2.9,-1.228 -5.975,-1.851 -9.139,-1.851 l -0.002,0 z m 188.702,-57.674 c -5.157,0 -10.002,-2.005 -13.643,-5.645 l -57.287,-57.285 c -6.063,-6.063 -7.368,-15.571 -3.174,-23.122 2.507,-4.513 5.209,-10.149 8.033,-16.754 20.975,-49.076 43.448,-139.525 43.673,-140.433 l 0.016,-0.062 c 5.462,-33.686 21.001,-64.398 44.942,-88.823 31.155,-31.783 72.968,-49.287 117.739,-49.287 43.979,0 85.261,16.988 116.242,47.835 31.245,31.11 48.479,72.521 48.527,116.607 0.048,44.087 -17.095,85.536 -48.269,116.709 -24.623,24.623 -55.754,40.572 -90.029,46.126 l -0.051,0.015 c -0.903,0.219 -90.875,22.213 -140.127,43.367 -6.72,2.887 -12.459,5.661 -17.058,8.248 -2.912,1.638 -6.209,2.504 -9.534,2.504 z m -21.477,-242.8 c -1.193,4.789 -23.144,92.352 -43.674,140.387 -2.837,6.636 -5.555,12.305 -8.079,16.848 -3.978,7.161 -2.741,16.179 3.007,21.929 l 57.287,57.285 c 3.452,3.451 8.046,5.352 12.936,5.352 3.154,0 6.282,-0.821 9.043,-2.375 4.629,-2.604 10.4,-5.396 17.153,-8.295 48.12,-20.668 134.987,-42.122 140.06,-43.366 l 0.011,-0.022 0.257,-0.048 c 34.102,-5.508 65.073,-21.366 89.567,-45.86 30.984,-30.985 48.022,-72.182 47.976,-116.001 C 560.594,163.551 543.464,122.39 512.41,91.47 481.617,60.811 440.586,43.926 396.873,43.926 c -44.499,0 -86.06,17.397 -117.025,48.987 -23.818,24.299 -39.27,54.861 -44.685,88.38 l -0.065,0.242 z"
             inkscape:connector-curvature="0"
             style="fill:#ffffff;fill-opacity:1" />
        </g>
      </g>
      <g
         id="g12616"
         style="fill:#ffffff;fill-opacity:1" />
      <g
         id="g12618"
         style="fill:#ffffff;fill-opacity:1" />
      <g
         id="g12620"
         style="fill:#ffffff;fill-opacity:1" />
      <g
         id="g12622"
         style="fill:#ffffff;fill-opacity:1" />
      <g
         id="g12624"
         style="fill:#ffffff;fill-opacity:1" />
      <g
         id="g12626"
         style="fill:#ffffff;fill-opacity:1" />
      <g
         id="g12628"
         style="fill:#ffffff;fill-opacity:1" />
      <g
         id="g12630"
         style="fill:#ffffff;fill-opacity:1" />
      <g
         id="g12632"
         style="fill:#ffffff;fill-opacity:1" />
      <g
         id="g12634"
         style="fill:#ffffff;fill-opacity:1" />
      <g
         id="g12636"
         style="fill:#ffffff;fill-opacity:1" />
      <g
         id="g12638"
         style="fill:#ffffff;fill-opacity:1" />
      <g
         id="g12640"
         style="fill:#ffffff;fill-opacity:1" />
      <g
         id="g12642"
         style="fill:#ffffff;fill-opacity:1" />
      <g
         id="g12644"
         style="fill:#ffffff;fill-opacity:1" />
    </g>
  </g>
</svg>
