<?xml version="1.0" encoding="UTF-8" standalone="no"?>
<!-- Created with Inkscape (http://www.inkscape.org/) -->

<svg
   xmlns:dc="http://purl.org/dc/elements/1.1/"
   xmlns:cc="http://creativecommons.org/ns#"
   xmlns:rdf="http://www.w3.org/1999/02/22-rdf-syntax-ns#"
   xmlns:svg="http://www.w3.org/2000/svg"
   xmlns="http://www.w3.org/2000/svg"
   xmlns:sodipodi="http://sodipodi.sourceforge.net/DTD/sodipodi-0.dtd"
   xmlns:inkscape="http://www.inkscape.org/namespaces/inkscape"
   width="35.985096mm"
   height="35.985451mm"
   viewBox="0 0 127.50625 127.5075"
   id="svg10130"
   version="1.1"
   inkscape:version="0.91 r13725"
   sodipodi:docname="family doctor.svg">
  <defs
     id="defs10132" />
  <sodipodi:namedview
     id="base"
     pagecolor="#ffffff"
     bordercolor="#666666"
     borderopacity="1.0"
     inkscape:pageopacity="0.0"
     inkscape:pageshadow="2"
     inkscape:zoom="0.7"
     inkscape:cx="133.00245"
     inkscape:cy="35.446595"
     inkscape:document-units="px"
     inkscape:current-layer="layer1"
     showgrid="false"
     fit-margin-top="0"
     fit-margin-left="0"
     fit-margin-right="0"
     fit-margin-bottom="0"
     inkscape:window-width="721"
     inkscape:window-height="435"
     inkscape:window-x="577"
     inkscape:window-y="84"
     inkscape:window-maximized="0" />
  <metadata
     id="metadata10135">
    <rdf:RDF>
      <cc:Work
         rdf:about="">
        <dc:format>image/svg+xml</dc:format>
        <dc:type
           rdf:resource="http://purl.org/dc/dcmitype/StillImage" />
        <dc:title></dc:title>
      </cc:Work>
    </rdf:RDF>
  </metadata>
  <g
     inkscape:label="Layer 1"
     inkscape:groupmode="layer"
     id="layer1"
     transform="translate(-321.96116,-114.32274)">
    <g
       transform="matrix(1.25,0,0,-1.25,449.46741,178.07649)"
       id="g5208">
      <path
         inkscape:connector-curvature="0"
         id="path5210"
         style="fill:#f2aa00;fill-opacity:1;fill-rule:nonzero;stroke:none"
         d="m 0,0 c 0,-28.168 -22.835,-51.003 -51.003,-51.003 -28.168,0 -51.002,22.835 -51.002,51.003 0,28.168 22.834,51.003 51.002,51.003 C -22.835,51.003 0,28.168 0,0" />
    </g>
    <g
       id="g10729"
       transform="matrix(0.20143453,0,0,0.17819774,339.60368,134.88935)"
       style="fill:#ffffff;fill-opacity:1;stroke:#ffffff;stroke-opacity:1">
      <g
         id="g10679"
         style="fill:#ffffff;fill-opacity:1;stroke:#ffffff;stroke-opacity:1">
        <path
           id="path10681"
           d="m 441.078,445.659 -50.976,0 0,-15.367 c 0,-27.619 -5.806,-50.267 -17.24,-67.629 0.03,-0.273 0.049,-0.551 0.049,-0.832 l 0,-227.304 c 0,-46.964 -16.068,-82.726 -47.757,-106.29 C 301.055,10.317 267.801,0.327 231.357,0.014 231.258,0.011 231.162,0 231.063,0 230.818,0 230.575,0.005 230.33,0.006 230.085,0.005 229.842,0 229.597,0 c -0.099,0 -0.196,0.011 -0.294,0.015 -36.444,0.313 -69.698,10.303 -93.797,28.223 -31.689,23.564 -47.757,59.326 -47.757,106.29 l 0,227.304 c 0,0.281 0.019,0.559 0.049,0.832 -11.434,17.362 -17.24,40.01 -17.24,67.629 l 0,15.367 -50.977,0 c -4.142,0 -7.5,3.357 -7.5,7.5 0,4.142 3.358,7.5 7.5,7.5 l 421.497,0 c 4.142,0 7.5,-3.358 7.5,-7.5 0,-4.143 -3.358,-7.501 -7.5,-7.501 z m -65.976,0 -104.823,0 0,-104.573 36.217,0 0,29.061 c -6.453,2.338 -11.751,7.259 -15.274,14.326 -3.188,6.392 -3.938,12.439 -4.013,13.107 -0.031,0.278 -0.047,0.558 -0.047,0.837 l 0,20.417 c 0,4.143 3.358,7.5 7.5,7.5 4.142,0 7.5,-3.357 7.5,-7.5 l 0,-19.917 c 0.33,-2.17 2.56,-14.093 11.834,-15.229 9.263,1.135 11.498,13.026 11.834,15.232 l 0,19.914 c 0,4.143 3.358,7.5 7.5,7.5 4.142,0 7.5,-3.357 7.5,-7.5 l 0,-20.417 c 0,-0.279 -0.016,-0.559 -0.047,-0.837 -0.075,-0.668 -0.825,-6.716 -4.013,-13.107 -3.524,-7.067 -8.821,-11.988 -15.274,-14.326 l 0,-26.962 c 8.665,2.281 20.098,7.044 30.144,17.019 15.569,15.457 23.463,39.038 23.463,70.088 l 0,15.367 z m -144.076,-149.858 -1.394,0 C 196.864,293.616 171.727,279.43 154.919,253.632 143.184,235.621 139.652,217.79 139.111,214.719 l 0,-82.915 c 16.352,-1.352 54.045,-8.435 88.873,-43.685 12.007,14.432 42.852,44.3 92.46,44.3 0.367,0 0.734,-0.002 1.103,-0.006 l 0,82.315 c -0.529,3.06 -3.935,20.471 -15.509,38.441 -16.803,26.093 -42.038,40.435 -75.012,42.632 z m -2.124,14.984 c 0.161,0.011 0.323,0.016 0.485,0.016 l 1.886,0 c 0.162,0 0.324,-0.005 0.485,-0.016 8.5,-0.551 16.299,-1.832 23.473,-3.668 l 0,26.469 c 0,0.282 0.019,0.56 0.049,0.833 l 0,38.673 -24.945,26.923 -24.904,-26.919 0,-39.51 0,-26.469 c 7.172,1.836 14.971,3.117 23.471,3.668 z m -23.473,84.398 19.395,20.965 c 1.419,1.534 3.413,2.406 5.503,2.407 0.001,0 0.002,0 0.003,0 2.088,0 4.082,-0.871 5.501,-2.402 l 19.448,-20.99 0,50.497 -49.85,0 0,-50.477 z M 144.457,40.274 c 21.758,-16.181 52.233,-25.133 85.873,-25.262 33.64,0.129 64.115,9.081 85.873,25.262 27.675,20.579 41.708,52.291 41.708,94.253 l 0,211.075 C 335.168,326.13 308.916,326.057 307.802,326.085 l -37.572,0 0,-22.734 c 0,-0.396 -0.04,-0.783 -0.099,-1.163 24.057,-9.941 39.261,-26.522 48.519,-40.897 14.433,-22.41 17.689,-43.977 17.82,-44.884 0.052,-0.357 0.078,-0.716 0.078,-1.076 l 0,-90.733 c 0,-2.085 -0.868,-4.076 -2.396,-5.495 -1.528,-1.419 -3.582,-2.139 -5.657,-1.984 -2.69,0.198 -5.399,0.3 -8.05,0.3 -55.651,0 -85.259,-44.545 -85.543,-44.98 -1.27,-1.972 -3.389,-3.236 -5.728,-3.417 -2.341,-0.182 -4.626,0.743 -6.184,2.495 -39.382,44.313 -85.486,45.592 -90.613,45.592 -0.291,0 -0.465,-0.004 -0.495,-0.005 -2.029,-0.061 -4.012,0.684 -5.477,2.097 -1.466,1.414 -2.294,3.362 -2.294,5.398 l 0,90.733 c 0,0.36 0.026,0.72 0.078,1.076 0.131,0.907 3.387,22.474 17.82,44.884 9.258,14.375 24.462,30.956 48.519,40.897 -0.059,0.38 -0.099,0.767 -0.099,1.163 l 0,22.734 -37.518,0 c -1.148,-0.001 -27.419,0.05 -50.163,19.517 l 0,-211.076 c 10e-4,-41.962 14.033,-73.673 41.709,-94.253 z m 5.539,345.398 c 7.26,0 13.167,5.906 13.167,13.167 0,7.26 -5.907,13.166 -13.167,13.166 -7.26,0 -13.167,-5.906 -13.167,-13.166 0,-7.261 5.906,-13.167 13.167,-13.167 z m -64.439,44.62 c 0,-67.679 38.011,-84.016 56.938,-87.955 l 0,29.356 c -11.901,3.293 -20.667,14.212 -20.667,27.146 0,15.531 12.636,28.166 28.167,28.166 15.531,0 28.167,-12.635 28.167,-28.166 0,-12.934 -8.766,-23.853 -20.667,-27.146 l 0,-30.607 32.934,0 0,104.573 -104.872,0 0,-15.367 z"
           inkscape:connector-curvature="0"
           style="fill:#ffffff;fill-opacity:1;stroke:#ffffff;stroke-opacity:1" />
        <circle
           id="circle10683"
           r="8.9510002"
           cy="166.99699"
           cx="177.092"
           style="fill:#ffffff;fill-opacity:1;stroke:#ffffff;stroke-opacity:1" />
        <circle
           id="circle10685"
           r="8.9510002"
           cy="166.99699"
           cx="283.56699"
           style="fill:#ffffff;fill-opacity:1;stroke:#ffffff;stroke-opacity:1" />
        <path
           id="path10687"
           d="m 229.03,215.379 2.6,0 c 8.026,0 14.556,-6.529 14.556,-14.556 0,-4.143 -3.358,-7.5 -7.5,-7.5 -3.993,0 -7.257,3.12 -7.487,7.056 l -1.737,0 c -0.229,-3.936 -3.494,-7.056 -7.487,-7.056 -4.142,0 -7.5,3.357 -7.5,7.5 -0.001,8.027 6.529,14.556 14.555,14.556 z"
           inkscape:connector-curvature="0"
           style="fill:#ffffff;fill-opacity:1;stroke:#ffffff;stroke-opacity:1" />
        <circle
           id="circle10689"
           r="4.6659999"
           cy="398.83899"
           cx="149.996"
           style="fill:#ffffff;fill-opacity:1;stroke:#ffffff;stroke-opacity:1" />
        <path
           id="path10691"
           d="m 275.694,235.177 c -3.225,-2.6 -7.946,-2.097 -10.546,1.13 -0.08,0.099 -9.088,9.939 -32.971,9.939 -24.794,0 -36.889,-10.282 -37.493,-10.811 -3.061,-2.752 -7.774,-2.52 -10.553,0.527 -2.791,3.061 -2.571,7.805 0.489,10.595 0.658,0.6 16.468,14.688 47.557,14.688 31.226,0 43.365,-13.934 44.646,-15.522 2.601,-3.224 2.095,-7.946 -1.129,-10.546 z"
           inkscape:connector-curvature="0"
           style="fill:#ffffff;fill-opacity:1;stroke:#ffffff;stroke-opacity:1" />
      </g>
      <g
         id="g10693"
         style="fill:#ffffff;fill-opacity:1;stroke:#ffffff;stroke-opacity:1" />
      <g
         id="g10695"
         style="fill:#ffffff;fill-opacity:1;stroke:#ffffff;stroke-opacity:1" />
      <g
         id="g10697"
         style="fill:#ffffff;fill-opacity:1;stroke:#ffffff;stroke-opacity:1" />
      <g
         id="g10699"
         style="fill:#ffffff;fill-opacity:1;stroke:#ffffff;stroke-opacity:1" />
      <g
         id="g10701"
         style="fill:#ffffff;fill-opacity:1;stroke:#ffffff;stroke-opacity:1" />
      <g
         id="g10703"
         style="fill:#ffffff;fill-opacity:1;stroke:#ffffff;stroke-opacity:1" />
      <g
         id="g10705"
         style="fill:#ffffff;fill-opacity:1;stroke:#ffffff;stroke-opacity:1" />
      <g
         id="g10707"
         style="fill:#ffffff;fill-opacity:1;stroke:#ffffff;stroke-opacity:1" />
      <g
         id="g10709"
         style="fill:#ffffff;fill-opacity:1;stroke:#ffffff;stroke-opacity:1" />
      <g
         id="g10711"
         style="fill:#ffffff;fill-opacity:1;stroke:#ffffff;stroke-opacity:1" />
      <g
         id="g10713"
         style="fill:#ffffff;fill-opacity:1;stroke:#ffffff;stroke-opacity:1" />
      <g
         id="g10715"
         style="fill:#ffffff;fill-opacity:1;stroke:#ffffff;stroke-opacity:1" />
      <g
         id="g10717"
         style="fill:#ffffff;fill-opacity:1;stroke:#ffffff;stroke-opacity:1" />
      <g
         id="g10719"
         style="fill:#ffffff;fill-opacity:1;stroke:#ffffff;stroke-opacity:1" />
      <g
         id="g10721"
         style="fill:#ffffff;fill-opacity:1;stroke:#ffffff;stroke-opacity:1" />
    </g>
  </g>
</svg>
