<?xml version="1.0" encoding="UTF-8" standalone="no"?>
<!-- Created with Inkscape (http://www.inkscape.org/) -->

<svg
   xmlns:dc="http://purl.org/dc/elements/1.1/"
   xmlns:cc="http://creativecommons.org/ns#"
   xmlns:rdf="http://www.w3.org/1999/02/22-rdf-syntax-ns#"
   xmlns:svg="http://www.w3.org/2000/svg"
   xmlns="http://www.w3.org/2000/svg"
   xmlns:sodipodi="http://sodipodi.sourceforge.net/DTD/sodipodi-0.dtd"
   xmlns:inkscape="http://www.inkscape.org/namespaces/inkscape"
   width="35.985096mm"
   height="35.985447mm"
   viewBox="0 0 127.50624 127.5075"
   id="svg11407"
   version="1.1"
   inkscape:version="0.91 r13725"
   sodipodi:docname="feeding.svg">
  <defs
     id="defs11409" />
  <sodipodi:namedview
     id="base"
     pagecolor="#ffffff"
     bordercolor="#666666"
     borderopacity="1.0"
     inkscape:pageopacity="0.0"
     inkscape:pageshadow="2"
     inkscape:zoom="1.4"
     inkscape:cx="85.789229"
     inkscape:cy="94.109968"
     inkscape:document-units="px"
     inkscape:current-layer="layer1"
     showgrid="false"
     fit-margin-top="0"
     fit-margin-left="0"
     fit-margin-right="0"
     fit-margin-bottom="0"
     inkscape:window-width="1920"
     inkscape:window-height="1058"
     inkscape:window-x="-8"
     inkscape:window-y="-8"
     inkscape:window-maximized="1" />
  <metadata
     id="metadata11412">
    <rdf:RDF>
      <cc:Work
         rdf:about="">
        <dc:format>image/svg+xml</dc:format>
        <dc:type
           rdf:resource="http://purl.org/dc/dcmitype/StillImage" />
        <dc:title></dc:title>
      </cc:Work>
    </rdf:RDF>
  </metadata>
  <g
     inkscape:label="Layer 1"
     inkscape:groupmode="layer"
     id="layer1"
     transform="translate(-46.961164,-326.46559)">
    <g
       transform="matrix(1.25,0,0,-1.25,174.46741,390.21934)"
       id="g5208"
       style="fill:#c53174;fill-opacity:1">
      <path
         inkscape:connector-curvature="0"
         id="path5210"
         style="fill:#c53174;fill-opacity:1;fill-rule:nonzero;stroke:none"
         d="m 0,0 c 0,-28.168 -22.835,-51.003 -51.003,-51.003 -28.168,0 -51.002,22.835 -51.002,51.003 0,28.168 22.834,51.003 51.002,51.003 C -22.835,51.003 0,28.168 0,0" />
    </g>
    <g
       id="g12906"
       transform="matrix(0.28128005,0,0,0.17508696,45.015293,348.90524)">
      <g
         id="g12866">
        <path
           id="path12868"
           d="m 313.749,106.417 c 2.293,-3.892 3.646,-8.408 3.646,-13.243 0,-14.411 -11.686,-26.093 -26.096,-26.093 l -24.908,0 c 0.018,-0.411 0.065,-0.824 0.065,-1.241 l 0,-32.297 C 266.457,15.016 251.449,0 232.919,0 214.392,0 199.37,15.016 199.37,33.543 l 0,32.297 c 0,0.417 0.059,0.831 0.071,1.241 l -24.905,0 c -14.411,0 -26.093,11.683 -26.093,26.093 0,4.841 1.339,9.357 3.644,13.243 -19.86,10.374 -33.452,31.159 -33.452,55.08 l 0,242.237 c 0,34.253 27.866,62.116 62.11,62.116 l 104.349,0 c 34.259,0 62.122,-27.863 62.122,-62.116 l 0,-242.243 c -0.012,-23.915 -13.607,-44.7 -33.467,-55.074 z m -28.661,334.585 -104.349,0 c -20.548,0 -37.258,-16.716 -37.258,-37.268 l 0,-242.243 c 0,-20.558 16.716,-37.267 37.258,-37.267 l 104.349,0 c 20.552,0 37.267,16.716 37.267,37.267 l 0,34.372 -48.852,0 c -6.414,0 -11.598,5.187 -11.598,11.591 0,6.41 5.184,11.597 11.598,11.597 l 48.852,0 0,53.011 -48.852,0 c -6.414,0 -11.598,5.189 -11.598,11.585 0,6.413 5.184,11.597 11.598,11.597 l 48.852,0 0,54.663 -48.852,0 c -6.414,0 -11.598,5.184 -11.598,11.597 0,6.396 5.184,11.586 11.598,11.586 l 48.852,0 0,30.646 c -0.001,20.55 -16.715,37.266 -37.267,37.266 z"
           inkscape:connector-curvature="0" />
      </g>
      <g
         id="g12870" />
      <g
         id="g12872" />
      <g
         id="g12874" />
      <g
         id="g12876" />
      <g
         id="g12878" />
      <g
         id="g12880" />
      <g
         id="g12882" />
      <g
         id="g12884" />
      <g
         id="g12886" />
      <g
         id="g12888" />
      <g
         id="g12890" />
      <g
         id="g12892" />
      <g
         id="g12894" />
      <g
         id="g12896" />
      <g
         id="g12898" />
    </g>
  </g>
</svg>
