<?xml version="1.0" encoding="UTF-8" standalone="no"?>
<!-- Created with Inkscape (http://www.inkscape.org/) -->

<svg
   xmlns:dc="http://purl.org/dc/elements/1.1/"
   xmlns:cc="http://creativecommons.org/ns#"
   xmlns:rdf="http://www.w3.org/1999/02/22-rdf-syntax-ns#"
   xmlns:svg="http://www.w3.org/2000/svg"
   xmlns="http://www.w3.org/2000/svg"
   xmlns:sodipodi="http://sodipodi.sourceforge.net/DTD/sodipodi-0.dtd"
   xmlns:inkscape="http://www.inkscape.org/namespaces/inkscape"
   width="35.985096mm"
   height="35.985451mm"
   viewBox="0 0 127.50625 127.5075"
   id="svg7675"
   version="1.1"
   inkscape:version="0.91 r13725"
   sodipodi:docname="food.svg">
  <defs
     id="defs7677" />
  <sodipodi:namedview
     id="base"
     pagecolor="#ffffff"
     bordercolor="#666666"
     borderopacity="1.0"
     inkscape:pageopacity="0.0"
     inkscape:pageshadow="2"
     inkscape:zoom="0.98994949"
     inkscape:cx="96.488692"
     inkscape:cy="22.613575"
     inkscape:document-units="px"
     inkscape:current-layer="layer1"
     showgrid="false"
     inkscape:window-width="962"
     inkscape:window-height="667"
     inkscape:window-x="709"
     inkscape:window-y="194"
     inkscape:window-maximized="0"
     fit-margin-top="0"
     fit-margin-left="0"
     fit-margin-right="0"
     fit-margin-bottom="0" />
  <metadata
     id="metadata7680">
    <rdf:RDF>
      <cc:Work
         rdf:about="">
        <dc:format>image/svg+xml</dc:format>
        <dc:type
           rdf:resource="http://purl.org/dc/dcmitype/StillImage" />
        <dc:title></dc:title>
      </cc:Work>
    </rdf:RDF>
  </metadata>
  <g
     inkscape:label="Layer 1"
     inkscape:groupmode="layer"
     id="layer1"
     transform="translate(-293.38973,-334.32274)">
    <g
       transform="matrix(1.25,0,0,-1.25,420.89598,398.07649)"
       id="g5116">
      <path
         inkscape:connector-curvature="0"
         id="path5118"
         style="fill:#ed4b00;fill-opacity:1;fill-rule:nonzero;stroke:none"
         d="m 0,0 c 0,-28.168 -22.835,-51.003 -51.003,-51.003 -28.168,0 -51.002,22.835 -51.002,51.003 0,28.168 22.834,51.003 51.002,51.003 C -22.835,51.003 0,28.168 0,0" />
    </g>
    <g
       transform="matrix(1.25,0,0,-1.25,338.05335,370.23299)"
       id="g5120">
      <path
         inkscape:connector-curvature="0"
         id="path5122"
         style="fill:#f2aa00;fill-opacity:1;fill-rule:nonzero;stroke:none"
         d="m 0,0 0,-44.55 c 0,-3.256 7.045,-5.895 15.736,-5.895 8.691,0 15.736,2.639 15.736,5.895 L 31.472,0 0,0 Z" />
    </g>
    <g
       transform="matrix(1.25,0,0,-1.25,377.39348,387.01974)"
       id="g5124">
      <path
         inkscape:connector-curvature="0"
         id="path5126"
         style="fill:#ffffff;fill-opacity:1;fill-rule:nonzero;stroke:none"
         d="m 0,0 0,-17.725 c 0,-3.261 -7.044,-5.899 -15.736,-5.899 -8.692,0 -15.736,2.638 -15.736,5.899 l 0,17.725 c 0,-3.261 7.044,-5.899 15.736,-5.899 C -7.044,-5.899 0,-3.261 0,0" />
    </g>
    <g
       transform="matrix(1.25,0,0,-1.25,377.39348,370.23299)"
       id="g5128">
      <path
         inkscape:connector-curvature="0"
         id="path5130"
         style="fill:#ffffff;fill-opacity:1;fill-rule:nonzero;stroke:none"
         d="m 0,0 c 0,3.256 -7.045,5.896 -15.736,5.896 -8.691,0 -15.736,-2.64 -15.736,-5.896 0,-3.256 7.045,-5.896 15.736,-5.896 C -7.045,-5.896 0,-3.256 0,0" />
    </g>
    <g
       transform="matrix(1.25,0,0,-1.25,340.8156,405.73074)"
       id="g5132">
      <path
         inkscape:connector-curvature="0"
         id="path5134"
         style="fill:#000000;fill-opacity:1;fill-rule:nonzero;stroke:none"
         d="m 0,0 c -0.063,-0.358 -0.126,-0.716 -0.189,-1.073 0.349,0.127 0.666,0.335 0.953,0.623 0.287,0.29 0.52,0.62 0.702,0.988 0.343,0.708 0.566,1.433 0.68,2.173 0.13,0.85 0.121,1.538 -0.021,2.062 C 1.981,5.314 1.761,5.691 1.464,5.907 1.279,6.045 1.061,6.133 0.807,6.175 0.806,6.172 0.806,6.168 0.805,6.164 0.684,5.49 0.545,4.466 0.398,3.091 0.251,1.717 0.121,0.686 0,0 M 2.652,2.073 C 2.65,1.992 2.649,1.912 2.647,1.832 2.574,1.299 2.331,0.694 1.906,0.02 1.425,-0.75 0.904,-1.268 0.35,-1.527 c -0.314,-0.15 -0.623,-0.201 -0.921,-0.15 -0.158,0.029 -0.295,0.086 -0.411,0.174 -0.116,0.087 -0.162,0.195 -0.138,0.322 0.217,0.137 0.391,0.559 0.521,1.266 0.077,0.416 0.151,1.041 0.229,1.875 0.077,0.833 0.156,1.454 0.233,1.862 C -0.049,4.228 0.039,4.634 0.126,5.04 0.163,5.237 0.17,5.509 0.149,5.859 0.127,6.208 0.131,6.452 0.157,6.589 0.207,6.849 0.521,6.92 1.099,6.817 1.157,6.807 1.214,6.797 1.271,6.787 2.042,6.652 2.532,6.138 2.758,5.227 2.917,4.593 2.925,3.749 2.773,2.695 2.747,2.521 2.722,2.347 2.697,2.174 2.672,2.143 2.657,2.109 2.652,2.073" />
    </g>
    <g
       transform="matrix(1.25,0,0,-1.25,348.0316,399.33711)"
       id="g5136">
      <path
         inkscape:connector-curvature="0"
         id="path5138"
         style="fill:#000000;fill-opacity:1;fill-rule:nonzero;stroke:none"
         d="M 0,0 C -0.057,0.202 -0.136,0.361 -0.239,0.479 -0.341,0.597 -0.448,0.662 -0.56,0.675 -0.672,0.688 -0.769,0.662 -0.851,0.593 -0.934,0.524 -1.009,0.422 -1.077,0.287 -1.145,0.152 -1.209,0.005 -1.27,-0.151 -1.33,-0.309 -1.384,-0.49 -1.431,-0.699 c -0.048,-0.21 -0.091,-0.399 -0.128,-0.57 -0.033,-0.168 -0.067,-0.354 -0.101,-0.559 -0.052,-0.341 -0.092,-0.607 -0.12,-0.797 -0.002,-0.016 -0.004,-0.033 -0.007,-0.05 -0.064,-0.504 -0.093,-1.052 -0.082,-1.645 0.01,-0.593 0.039,-1.082 0.085,-1.465 0.046,-0.383 0.132,-0.713 0.259,-0.992 0.126,-0.277 0.288,-0.428 0.483,-0.449 0.171,-0.019 0.33,0.107 0.475,0.378 0.147,0.276 0.265,0.621 0.358,1.037 0.158,0.744 0.252,1.267 0.285,1.572 0.032,0.304 0.055,0.526 0.067,0.667 0.012,0.14 0.027,0.343 0.044,0.613 0.017,0.268 0.026,0.52 0.026,0.757 0.001,0.237 -0.002,0.498 -0.01,0.786 C 0.196,-1.129 0.174,-0.871 0.138,-0.643 0.102,-0.417 0.057,-0.201 0,0 M 0.64,-4.252 C 0.56,-4.727 0.479,-5.201 0.397,-5.675 0.395,-5.692 0.393,-5.708 0.392,-5.725 0.319,-5.931 0.271,-6.154 0.247,-6.399 0.224,-6.642 0.154,-6.873 0.036,-7.091 c -0.117,-0.217 -0.283,-0.404 -0.497,-0.558 -0.215,-0.155 -0.44,-0.219 -0.675,-0.193 -0.234,0.026 -0.44,0.121 -0.615,0.284 -0.176,0.162 -0.312,0.361 -0.408,0.596 -0.097,0.234 -0.173,0.509 -0.228,0.825 -0.055,0.315 -0.088,0.621 -0.1,0.916 -0.012,0.295 -0.012,0.605 -0.002,0.928 0.018,0.496 0.047,0.878 0.086,1.148 0.038,0.269 0.069,0.501 0.091,0.694 0.022,0.193 0.042,0.368 0.059,0.522 0.011,0.077 0.022,0.163 0.035,0.257 0.013,0.092 0.026,0.193 0.041,0.3 0.033,0.216 0.066,0.409 0.099,0.58 0.033,0.173 0.076,0.355 0.127,0.553 0.052,0.197 0.107,0.368 0.165,0.517 0.058,0.147 0.128,0.29 0.211,0.429 0.087,0.141 0.177,0.254 0.272,0.34 0.213,0.189 0.439,0.269 0.679,0.24 C -0.383,1.259 -0.182,1.193 -0.021,1.088 0.14,0.981 0.27,0.827 0.368,0.624 0.466,0.419 0.55,0.223 0.621,0.034 0.692,-0.156 0.737,-0.414 0.757,-0.742 0.777,-1.071 0.794,-1.335 0.806,-1.537 0.818,-1.743 0.812,-2.035 0.788,-2.412 0.756,-2.92 0.728,-3.315 0.701,-3.599 0.681,-3.817 0.661,-4.035 0.64,-4.252" />
    </g>
    <g
       transform="matrix(1.25,0,0,-1.25,353.20248,406.67724)"
       id="g5140">
      <path
         inkscape:connector-curvature="0"
         id="path5142"
         style="fill:#000000;fill-opacity:1;fill-rule:nonzero;stroke:none"
         d="m 0,0 c -0.164,-0.007 -0.328,-0.014 -0.492,-0.02 -0.286,0.015 -0.422,0.131 -0.409,0.346 0.01,0.184 0.285,0.288 0.821,0.318 C 0.026,0.65 0.141,0.65 0.267,0.645 0.392,0.64 0.497,0.576 0.581,0.454 0.666,0.332 0.705,0.172 0.698,-0.026 0.69,-0.225 0.72,-0.549 0.789,-1 0.857,-1.451 0.89,-1.755 0.885,-1.91 0.876,-2.188 0.765,-2.323 0.553,-2.315 0.341,-2.307 0.202,-2.222 0.138,-2.06 c 0,0.004 0,0.008 0,0.012 -0.051,-0.017 -0.147,-0.055 -0.289,-0.115 -0.265,-0.114 -0.527,-0.164 -0.783,-0.15 -0.185,0.011 -0.368,0.055 -0.549,0.134 -0.386,0.162 -0.67,0.414 -0.853,0.755 -0.199,0.36 -0.319,0.702 -0.363,1.022 -0.045,0.319 -0.071,0.571 -0.081,0.754 -0.013,0.186 -0.018,0.399 -0.014,0.637 0.005,0.301 0.025,0.662 0.06,1.083 0.022,0.278 0.043,0.557 0.065,0.836 0.061,0.732 0.13,1.254 0.206,1.567 0.076,0.314 0.148,0.57 0.216,0.77 0.068,0.198 0.142,0.373 0.222,0.526 0.08,0.151 0.175,0.298 0.283,0.438 0.109,0.144 0.23,0.26 0.364,0.347 0.287,0.195 0.604,0.281 0.954,0.26 C -0.075,6.794 0.094,6.678 0.084,6.463 0.08,6.382 0.047,6.318 -0.015,6.274 -0.078,6.228 -0.15,6.208 -0.233,6.213 -0.343,6.237 -0.452,6.262 -0.562,6.287 -0.85,6.3 -1.087,6.143 -1.276,5.813 -1.479,5.452 -1.619,5.106 -1.693,4.772 -1.767,4.44 -1.824,4.171 -1.862,3.966 -1.909,3.765 -1.945,3.536 -1.972,3.277 -2.015,2.92 -2.048,2.562 -2.071,2.203 -2.09,1.969 -2.11,1.734 -2.129,1.5 -2.184,0.775 -2.187,0.256 -2.138,-0.056 c 0.048,-0.312 0.106,-0.561 0.172,-0.748 0.06,-0.19 0.141,-0.348 0.241,-0.473 0.336,-0.265 0.639,-0.418 0.904,-0.463 0.38,-0.021 0.704,0.123 0.966,0.431 C 0.162,-0.633 0.113,-0.198 0,0" />
    </g>
    <g
       transform="matrix(1.25,0,0,-1.25,360.1221,408.67299)"
       id="g5144">
      <path
         inkscape:connector-curvature="0"
         id="path5146"
         style="fill:#000000;fill-opacity:1;fill-rule:nonzero;stroke:none"
         d="m 0,0 c -0.01,-0.024 -0.02,-0.049 -0.029,-0.073 0.017,-0.043 0.027,-0.102 0.029,-0.174 0.001,-0.073 -0.036,-0.139 -0.115,-0.2 -0.078,-0.062 -0.182,-0.093 -0.312,-0.096 -0.247,-0.005 -0.375,0.236 -0.382,0.721 -0.01,0.723 -0.074,2.088 -0.182,4.096 -0.108,2.007 -0.197,3.07 -0.277,3.188 0,0.393 0.269,0.604 0.806,0.641 0.082,0.005 0.193,0.01 0.332,0.014 C 0.011,8.12 0.121,8.097 0.203,8.048 0.285,7.999 0.329,7.895 0.334,7.736 0.34,7.576 0.235,7.493 0.02,7.487 -0.074,7.488 -0.168,7.489 -0.263,7.49 -0.477,7.485 -0.584,7.441 -0.582,7.355 -0.575,7.003 -0.537,6.487 -0.465,5.809 -0.393,5.13 -0.35,4.628 -0.339,4.302 -0.288,4.311 -0.22,4.327 -0.134,4.352 0.07,4.408 0.22,4.439 0.318,4.441 0.417,4.445 0.499,4.411 0.566,4.341 0.634,4.271 0.669,4.192 0.672,4.103 0.681,3.855 0.349,3.717 -0.326,3.701 -0.316,3.29 -0.264,2.674 -0.166,1.854 -0.067,1.033 -0.01,0.415 0,0" />
    </g>
    <g
       transform="matrix(1.25,0,0,-1.25,363.88398,399.63624)"
       id="g5148">
      <path
         inkscape:connector-curvature="0"
         id="path5150"
         style="fill:#000000;fill-opacity:1;fill-rule:nonzero;stroke:none"
         d="M 0,0 C -0.091,0.188 -0.197,0.332 -0.319,0.43 -0.44,0.527 -0.557,0.573 -0.669,0.566 -0.782,0.559 -0.873,0.516 -0.942,0.433 -1.01,0.351 -1.066,0.238 -1.11,0.092 c -0.043,-0.145 -0.08,-0.3 -0.112,-0.464 -0.031,-0.166 -0.052,-0.355 -0.062,-0.569 -0.01,-0.215 -0.018,-0.408 -0.025,-0.583 -0.003,-0.171 -0.003,-0.359 -0.001,-0.568 0.01,-0.345 0.017,-0.613 0.023,-0.805 10e-4,-0.017 10e-4,-0.034 0.002,-0.051 0.026,-0.507 0.094,-1.051 0.209,-1.634 0.115,-0.582 0.229,-1.058 0.342,-1.426 0.113,-0.37 0.255,-0.68 0.429,-0.932 0.173,-0.25 0.359,-0.37 0.555,-0.357 0.171,0.011 0.305,0.164 0.4,0.457 0.096,0.296 0.151,0.658 0.169,1.083 0.024,0.76 0.024,1.292 0.003,1.598 C 0.801,-3.854 0.783,-3.632 0.771,-3.491 0.758,-3.351 0.736,-3.148 0.706,-2.88 0.675,-2.613 0.64,-2.363 0.598,-2.13 0.557,-1.897 0.508,-1.64 0.45,-1.358 0.391,-1.076 0.325,-0.827 0.25,-0.609 0.174,-0.392 0.091,-0.188 0,0 M 1.38,-4.073 C 1.384,-4.554 1.388,-5.035 1.391,-5.516 1.392,-5.533 1.394,-5.549 1.395,-5.566 1.359,-5.781 1.351,-6.01 1.372,-6.255 1.391,-6.498 1.363,-6.738 1.286,-6.973 1.209,-7.207 1.078,-7.421 0.895,-7.611 0.711,-7.8 0.501,-7.904 0.266,-7.919 c -0.236,-0.016 -0.454,0.041 -0.655,0.17 -0.202,0.13 -0.37,0.301 -0.507,0.515 -0.136,0.214 -0.259,0.471 -0.368,0.772 -0.11,0.3 -0.196,0.596 -0.26,0.884 -0.064,0.289 -0.119,0.594 -0.165,0.914 -0.07,0.49 -0.109,0.872 -0.119,1.144 -0.009,0.273 -0.02,0.506 -0.032,0.7 -0.013,0.194 -0.024,0.369 -0.034,0.524 -0.004,0.078 -0.007,0.164 -0.011,0.259 -0.004,0.093 -0.008,0.195 -0.013,0.302 -0.006,0.219 -0.007,0.416 -0.005,0.589 0.003,0.176 0.012,0.363 0.028,0.566 0.015,0.204 0.039,0.382 0.07,0.538 0.031,0.155 0.075,0.308 0.132,0.46 0.061,0.154 0.13,0.282 0.207,0.382 0.176,0.224 0.384,0.343 0.626,0.357 0.242,0.015 0.451,-0.015 0.628,-0.09 0.177,-0.076 0.331,-0.205 0.464,-0.388 0.132,-0.184 0.25,-0.362 0.353,-0.536 0.103,-0.174 0.193,-0.421 0.271,-0.74 0.078,-0.32 0.141,-0.577 0.188,-0.774 0.048,-0.201 0.094,-0.489 0.137,-0.865 0.058,-0.505 0.1,-0.899 0.124,-1.183 0.018,-0.218 0.037,-0.436 0.055,-0.654" />
    </g>
    <g
       transform="matrix(1.25,0,0,-1.25,368.48535,399.19487)"
       id="g5152">
      <path
         inkscape:connector-curvature="0"
         id="path5154"
         style="fill:#000000;fill-opacity:1;fill-rule:nonzero;stroke:none"
         d="M 0,0 C -0.101,0.183 -0.214,0.321 -0.341,0.412 -0.468,0.504 -0.587,0.543 -0.699,0.53 -0.811,0.518 -0.899,0.47 -0.964,0.384 -1.028,0.298 -1.078,0.182 -1.114,0.035 -1.15,-0.112 -1.179,-0.27 -1.202,-0.435 c -0.023,-0.167 -0.034,-0.357 -0.033,-0.571 0.001,-0.215 0.002,-0.408 0.005,-0.583 0.006,-0.172 0.015,-0.36 0.029,-0.568 0.026,-0.344 0.048,-0.611 0.063,-0.803 0.002,-0.017 0.004,-0.034 0.005,-0.051 0.052,-0.505 0.149,-1.045 0.294,-1.621 0.144,-0.574 0.283,-1.044 0.415,-1.407 0.132,-0.362 0.29,-0.665 0.476,-0.907 0.186,-0.242 0.378,-0.352 0.574,-0.328 0.17,0.02 0.296,0.179 0.376,0.476 0.081,0.302 0.117,0.666 0.113,1.091 -0.014,0.76 -0.042,1.292 -0.079,1.596 C 0.999,-3.807 0.971,-3.587 0.95,-3.447 0.93,-3.307 0.898,-3.106 0.854,-2.84 0.81,-2.575 0.761,-2.327 0.708,-2.096 0.655,-1.866 0.592,-1.612 0.52,-1.333 0.447,-1.055 0.368,-0.809 0.281,-0.595 0.194,-0.383 0.101,-0.183 0,0 M 1.59,-3.996 C 1.619,-4.476 1.647,-4.957 1.675,-5.437 1.677,-5.453 1.68,-5.47 1.682,-5.486 1.657,-5.703 1.661,-5.933 1.694,-6.176 1.726,-6.417 1.71,-6.659 1.645,-6.897 1.58,-7.135 1.461,-7.355 1.287,-7.554 1.113,-7.753 0.908,-7.867 0.674,-7.895 0.439,-7.923 0.218,-7.877 0.01,-7.758 c -0.208,0.118 -0.385,0.281 -0.533,0.487 -0.147,0.207 -0.283,0.457 -0.408,0.752 -0.125,0.295 -0.227,0.585 -0.305,0.87 -0.079,0.285 -0.15,0.586 -0.213,0.904 -0.095,0.486 -0.153,0.865 -0.177,1.136 -0.023,0.272 -0.046,0.504 -0.068,0.697 -0.023,0.193 -0.043,0.368 -0.061,0.522 -0.008,0.078 -0.016,0.163 -0.025,0.258 -0.008,0.093 -0.018,0.194 -0.028,0.301 -0.017,0.219 -0.028,0.414 -0.035,0.588 -0.007,0.175 -0.007,0.364 -0.002,0.567 0.005,0.204 0.02,0.384 0.043,0.541 0.023,0.156 0.059,0.312 0.108,0.466 0.053,0.157 0.115,0.288 0.187,0.393 0.165,0.233 0.366,0.361 0.607,0.388 0.242,0.027 0.452,0.008 0.633,-0.057 C -0.086,0.988 0.075,0.867 0.217,0.691 0.359,0.514 0.485,0.342 0.598,0.174 0.709,0.005 0.813,-0.236 0.907,-0.551 1.001,-0.866 1.077,-1.12 1.135,-1.314 1.193,-1.512 1.253,-1.798 1.316,-2.17 1.4,-2.672 1.462,-3.063 1.501,-3.346 1.53,-3.562 1.56,-3.779 1.59,-3.996" />
    </g>
    <g
       transform="matrix(1.25,0,0,-1.25,372.88848,405.99524)"
       id="g5156">
      <path
         inkscape:connector-curvature="0"
         id="path5158"
         style="fill:#000000;fill-opacity:1;fill-rule:nonzero;stroke:none"
         d="m 0,0 c 0.057,-0.359 0.114,-0.718 0.172,-1.076 0.288,0.233 0.52,0.534 0.697,0.901 C 1.045,0.191 1.158,0.579 1.21,0.987 1.303,1.768 1.277,2.526 1.143,3.263 0.989,4.109 0.756,4.756 0.45,5.205 0.137,5.67 -0.194,5.954 -0.545,6.061 -0.764,6.131 -1,6.143 -1.253,6.1 c 0,-0.003 10e-4,-0.007 10e-4,-0.011 0.106,-0.677 0.309,-1.69 0.619,-3.037 C -0.323,1.705 -0.109,0.688 0,0 M 1.831,2.825 C 1.856,2.749 1.88,2.673 1.905,2.597 2.009,2.069 1.978,1.417 1.796,0.642 1.592,-0.244 1.268,-0.903 0.829,-1.329 0.581,-1.574 0.307,-1.722 0.008,-1.771 c -0.158,-0.025 -0.307,-0.015 -0.445,0.029 -0.138,0.046 -0.217,0.132 -0.236,0.261 0.162,0.199 0.187,0.656 0.08,1.366 -0.064,0.418 -0.197,1.033 -0.396,1.847 -0.199,0.813 -0.327,1.425 -0.388,1.835 -0.049,0.413 -0.099,0.826 -0.149,1.238 -0.029,0.198 -0.111,0.458 -0.245,0.781 -0.134,0.323 -0.211,0.555 -0.231,0.694 -0.037,0.261 0.235,0.431 0.815,0.522 0.058,0.009 0.115,0.019 0.172,0.028 C -0.242,6.954 0.389,6.628 0.901,5.841 1.259,5.293 1.542,4.499 1.742,3.453 1.775,3.281 1.808,3.108 1.841,2.935 1.827,2.898 1.824,2.861 1.831,2.825" />
    </g>
  </g>
</svg>
