<?xml version="1.0" encoding="UTF-8" standalone="no"?>
<!-- Created with Inkscape (http://www.inkscape.org/) -->

<svg
   xmlns:dc="http://purl.org/dc/elements/1.1/"
   xmlns:cc="http://creativecommons.org/ns#"
   xmlns:rdf="http://www.w3.org/1999/02/22-rdf-syntax-ns#"
   xmlns:svg="http://www.w3.org/2000/svg"
   xmlns="http://www.w3.org/2000/svg"
   xmlns:sodipodi="http://sodipodi.sourceforge.net/DTD/sodipodi-0.dtd"
   xmlns:inkscape="http://www.inkscape.org/namespaces/inkscape"
   width="35.985096mm"
   height="35.985447mm"
   viewBox="0 0 127.50624 127.5075"
   id="svg11407"
   version="1.1"
   inkscape:version="0.91 r13725"
   sodipodi:docname="help_choose.svg">
  <defs
     id="defs11409" />
  <sodipodi:namedview
     id="base"
     pagecolor="#ffffff"
     bordercolor="#666666"
     borderopacity="1.0"
     inkscape:pageopacity="0.0"
     inkscape:pageshadow="2"
     inkscape:zoom="1.4"
     inkscape:cx="-42.7822"
     inkscape:cy="-20.175746"
     inkscape:document-units="px"
     inkscape:current-layer="layer1"
     showgrid="false"
     fit-margin-top="0"
     fit-margin-left="0"
     fit-margin-right="0"
     fit-margin-bottom="0"
     inkscape:window-width="1366"
     inkscape:window-height="706"
     inkscape:window-x="1912"
     inkscape:window-y="-8"
     inkscape:window-maximized="1" />
  <metadata
     id="metadata11412">
    <rdf:RDF>
      <cc:Work
         rdf:about="">
        <dc:format>image/svg+xml</dc:format>
        <dc:type
           rdf:resource="http://purl.org/dc/dcmitype/StillImage" />
        <dc:title />
      </cc:Work>
    </rdf:RDF>
  </metadata>
  <g
     inkscape:label="Layer 1"
     inkscape:groupmode="layer"
     id="layer1"
     transform="translate(-46.961164,-326.46559)">
    <g
       transform="matrix(1.25,0,0,-1.25,174.46741,390.21934)"
       id="g5208"
       style="fill:#50415a;fill-opacity:1">
      <path
         inkscape:connector-curvature="0"
         id="path5210"
         style="fill:#50415a;fill-opacity:1;fill-rule:nonzero;stroke:none"
         d="m 0,0 c 0,-28.168 -22.835,-51.003 -51.003,-51.003 -28.168,0 -51.002,22.835 -51.002,51.003 0,28.168 22.834,51.003 51.002,51.003 C -22.835,51.003 0,28.168 0,0" />
    </g>
    <g
       id="g12718"
       transform="matrix(0.23676038,0,0,0.26594705,73.062054,346.92647)"
       style="fill:#ffffff;fill-opacity:1">
      <g
         id="g12674"
         style="fill:#ffffff;fill-opacity:1">
        <circle
           id="circle12676"
           r="27.179001"
           cy="32.625"
           cx="139.976"
           style="fill:#ffffff;fill-opacity:1" />
        <path
           id="path12678"
           d="m 63.787,19.952 c -1.469,-3.246 -3.855,-5.985 -6.823,-7.895 -2.009,0.323 -4.049,0.547 -6.119,0.64 -3.939,0.177 -8.061,-0.394 -12.119,-1.52 -3.669,1.886 -6.625,4.966 -8.342,8.735 C 18.81,20.968 9.55,30.026 8.188,41.508 c -0.088,0.744 0.146,1.489 0.643,2.049 0.497,0.56 1.21,0.883 1.959,0.883 l 9.969,0 c 1.385,0 2.526,-1.075 2.613,-2.457 0.346,-5.545 2.168,-10.993 5.416,-15.708 -0.027,0.407 -0.062,0.812 -0.062,1.226 0,10.134 8.215,18.35 18.349,18.35 10.134,0 18.35,-8.215 18.35,-18.35 0,-0.242 -0.027,-0.477 -0.036,-0.716 3.034,4.597 4.748,9.851 5.082,15.198 0.086,1.382 1.228,2.457 2.613,2.457 l 9.969,0 c 0.749,0 1.462,-0.323 1.959,-0.883 0.497,-0.56 0.731,-1.305 0.643,-2.049 C 84.306,30.135 75.206,21.148 63.787,19.952 Z"
           inkscape:connector-curvature="0"
           style="fill:#ffffff;fill-opacity:1" />
        <path
           id="path12680"
           d="m 312.029,225.483 c -0.537,-0.353 -1.185,-0.505 -1.828,-0.505 l -8.13,0 c 0,-8.131 -6.592,-14.723 -14.723,-14.723 -6.553,0 -12.101,4.285 -14.01,10.203 -0.048,0.04 -0.104,0.067 -0.15,0.111 -3.752,3.632 -9.69,9.752 -10.594,12.918 -1.259,4.41 1.076,8.992 5.264,10.627 -35.338,-5.736 -61.051,-38.887 -68.791,-50.032 3.569,-2.415 5.799,-6.603 5.481,-11.212 l -7,-101.446 c -0.464,-6.725 -6.178,-11.81 -12.85,-11.618 l -83.408,0 -36.834,-15.96 c -1.397,-0.605 -2.849,-0.429 -4.262,-0.429 -7.228,0 -16.444,0 -23.893,0 -3.066,0 -6.177,0.75 -7.692,3.592 l -27.725,51.99 c -1.802,3.378 -0.797,7.704 2.497,9.656 1.14,0.676 2.384,0.995 3.61,0.995 2.529,0 4.976,-1.36 6.249,-3.748 l 10.184,-19.097 -3.941,26.952 c -0.605,2.214 -0.143,4.583 1.25,6.407 0.143,0.187 0.298,0.36 0.456,0.531 -4.288,2.032 -7.244,6.419 -7.159,11.501 0.114,6.881 5.991,12.282 12.873,12.289 l 1.469,0.002 0,5.623 c 0,4.523 3.413,8.471 7.926,8.764 4.945,0.32 9.057,-3.596 9.057,-8.473 l 0,-5.896 5.569,0.006 0,5.6 c 0,4.523 3.413,8.471 7.926,8.764 4.945,0.32 9.057,-3.596 9.057,-8.473 l 0,-5.873 13.317,0.014 c 0.005,0 0.008,0 0.013,0 5.869,0 10.949,-4.085 12.209,-9.818 l 8.558,-38.964 2.575,0 0.25,186.885 c 0,8.077 6.207,15.027 14.275,15.407 8.614,0.406 15.725,-6.458 15.725,-14.983 l 0,-94.5 c 0,-2.761 2.239,-5 5,-5 l 0,0 c 2.761,0 5,2.239 5,5 l 0,94.077 c 0,8.077 6.207,15.027 14.275,15.407 8.614,0.406 15.725,-6.458 15.725,-14.983 l 0.25,-174.119 4.529,65.644 c 0.455,6.595 5.946,11.641 12.458,11.641 0.289,0 0.581,-0.011 0.873,-0.03 0.088,-0.006 0.172,-0.023 0.26,-0.031 6.762,10.175 32.919,45.927 71.025,53.416 -2.284,2.222 -4.965,4.077 -7.977,5.428 l -20.347,9.12 c -7.878,3.534 -13.447,10.59 -15.204,18.82 -2.159,-4.189 -1.52,-9.958 -1.477,-10.326 0.303,-2.458 -1.44,-4.7 -3.899,-5.01 -2.452,-0.314 -4.713,1.435 -5.023,3.897 -0.844,6.685 0.561,19.531 11.094,23.573 2.63,6.522 9.014,11.143 16.467,11.143 0.606,0 24.532,0 24.532,0 2.348,0 4.445,-1.716 4.669,-4.053 0.257,-2.681 -1.846,-4.939 -4.475,-4.939 l -9.302,0 c 0.54,-0.947 0.991,-1.948 1.352,-2.992 l 19.189,-8.708 0,16.197 c 0,2.483 2.013,4.496 4.496,4.496 l 8.834,0 c 2.348,0 4.445,-1.716 4.669,-4.053 0.257,-2.681 -1.846,-4.939 -4.475,-4.939 l -4.532,0 0,-16.357 c 5.168,-3.922 8.317,-10.084 8.317,-16.746 l 0,-1.513 0,-11.818 c 0,-3.796 3.077,-6.872 6.872,-6.872 l 3.851,0 c 3.558,0 6.745,-2.2 8.007,-5.526 l 3.44,-9.067 c 0.522,-1.378 0.059,-2.989 -1.273,-3.864 z M 82.151,79.602 l -7.092,32.29 -5.937,-40.603 13.79,5.975 c -0.322,0.74 -0.581,1.52 -0.761,2.338 z m 67.719,49.664 -7.026,11.055 c -1.404,2.209 -4.628,2.209 -6.032,0 l -7.026,-11.055 c -0.512,-0.806 -0.681,-1.782 -0.468,-2.713 l 6.319,-33.503 -4.149,-4.149 c -1.382,-1.382 -1.382,-3.622 0,-5.004 l 5.838,-5.838 c 1.382,-1.382 3.622,-1.382 5.004,0 l 5.838,5.838 c 1.382,1.382 1.382,3.622 0,5.004 l -4.149,4.149 6.319,33.503 c 0.213,0.93 0.044,1.907 -0.468,2.713 z"
           inkscape:connector-curvature="0"
           style="fill:#ffffff;fill-opacity:1" />
      </g>
      <g
         id="g12682"
         style="fill:#ffffff;fill-opacity:1" />
      <g
         id="g12684"
         style="fill:#ffffff;fill-opacity:1" />
      <g
         id="g12686"
         style="fill:#ffffff;fill-opacity:1" />
      <g
         id="g12688"
         style="fill:#ffffff;fill-opacity:1" />
      <g
         id="g12690"
         style="fill:#ffffff;fill-opacity:1" />
      <g
         id="g12692"
         style="fill:#ffffff;fill-opacity:1" />
      <g
         id="g12694"
         style="fill:#ffffff;fill-opacity:1" />
      <g
         id="g12696"
         style="fill:#ffffff;fill-opacity:1" />
      <g
         id="g12698"
         style="fill:#ffffff;fill-opacity:1" />
      <g
         id="g12700"
         style="fill:#ffffff;fill-opacity:1" />
      <g
         id="g12702"
         style="fill:#ffffff;fill-opacity:1" />
      <g
         id="g12704"
         style="fill:#ffffff;fill-opacity:1" />
      <g
         id="g12706"
         style="fill:#ffffff;fill-opacity:1" />
      <g
         id="g12708"
         style="fill:#ffffff;fill-opacity:1" />
      <g
         id="g12710"
         style="fill:#ffffff;fill-opacity:1" />
    </g>
  </g>
</svg>
