<?xml version="1.0" encoding="UTF-8" standalone="no"?>
<!-- Created with Inkscape (http://www.inkscape.org/) -->

<svg
   xmlns:dc="http://purl.org/dc/elements/1.1/"
   xmlns:cc="http://creativecommons.org/ns#"
   xmlns:rdf="http://www.w3.org/1999/02/22-rdf-syntax-ns#"
   xmlns:svg="http://www.w3.org/2000/svg"
   xmlns="http://www.w3.org/2000/svg"
   xmlns:sodipodi="http://sodipodi.sourceforge.net/DTD/sodipodi-0.dtd"
   xmlns:inkscape="http://www.inkscape.org/namespaces/inkscape"
   width="35.9851mm"
   height="35.985451mm"
   viewBox="0 0 127.50626 127.5075"
   id="svg2"
   version="1.1"
   inkscape:version="0.91 r13725"
   sodipodi:docname="hospital2.svg">
  <defs
     id="defs4" />
  <sodipodi:namedview
     id="base"
     pagecolor="#ffffff"
     bordercolor="#666666"
     borderopacity="1.0"
     inkscape:pageopacity="0.0"
     inkscape:pageshadow="2"
     inkscape:zoom="15.839192"
     inkscape:cx="67.564874"
     inkscape:cy="86.147259"
     inkscape:document-units="px"
     inkscape:current-layer="layer1"
     showgrid="false"
     inkscape:window-width="1366"
     inkscape:window-height="706"
     inkscape:window-x="-8"
     inkscape:window-y="-8"
     inkscape:window-maximized="1"
     fit-margin-top="0"
     fit-margin-left="0"
     fit-margin-right="0"
     fit-margin-bottom="0" />
  <metadata
     id="metadata7">
    <rdf:RDF>
      <cc:Work
         rdf:about="">
        <dc:format>image/svg+xml</dc:format>
        <dc:type
           rdf:resource="http://purl.org/dc/dcmitype/StillImage" />
        <dc:title />
      </cc:Work>
    </rdf:RDF>
  </metadata>
  <g
     inkscape:label="Layer 1"
     inkscape:groupmode="layer"
     id="layer1"
     transform="translate(-83.389737,-340.03702)">
    <path
       inkscape:connector-curvature="0"
       id="path5258"
       style="fill:#25a1d1;fill-opacity:1;fill-rule:nonzero;stroke:none"
       d="m 210.89599,403.79077 c 0,35.21 -28.54375,63.75375 -63.75375,63.75375 -35.21,0 -63.752503,-28.54375 -63.752503,-63.75375 0,-35.21 28.542503,-63.75375 63.752503,-63.75375 35.21,0 63.75375,28.54375 63.75375,63.75375" />
    <path
       style="color:#000000;clip-rule:nonzero;display:inline;overflow:visible;visibility:visible;opacity:1;isolation:auto;mix-blend-mode:normal;color-interpolation:sRGB;color-interpolation-filters:linearRGB;solid-color:#000000;solid-opacity:1;fill:#ff0000;fill-opacity:1;fill-rule:nonzero;stroke:#ff0000;stroke-width:2.96294498;stroke-linecap:butt;stroke-linejoin:miter;stroke-miterlimit:4;stroke-dasharray:none;stroke-dashoffset:0;stroke-opacity:1;color-rendering:auto;image-rendering:auto;shape-rendering:auto;text-rendering:auto;enable-background:accumulate"
       id="path5334"
       sodipodi:type="arc"
       sodipodi:cx="147.2494"
       sodipodi:cy="378.44897"
       sodipodi:rx="5.9001913"
       sodipodi:ry="9.2177792"
       sodipodi:start="0"
       sodipodi:end="6.2711828"
       d="m 153.1496,378.44897 a 5.9001913,9.2177792 0 0 1 -5.88249,9.21774 5.9001913,9.2177792 0 0 1 -5.91779,-9.16242 5.9001913,9.2177792 0 0 1 5.84697,-9.27272 5.9001913,9.2177792 0 0 1 5.95288,9.10677 l -5.89977,0.11063 z" />
    <g
       id="g5327">
      <path
         d="m 184.42857,443.99224 0,-0.9317 -38.42857,0 -38.42857,0 0,0.9317 0,0.93171 38.42857,0 38.42857,0 z m -2.62013,-34.0805 0,-32.77607 -11.79055,0.0732 -11.79056,0.0732 -3e-5,-5.99359 -3e-5,-5.99355 1.67397,0.15887 c 2.11498,0.20073 2.42192,0.4821 -6.54072,-5.99579 l -7.05019,-5.09565 -3.72146,2.73747 c -2.04679,1.5056 -5.16252,3.76156 -6.92383,5.01325 -1.76131,1.25165 -3.46439,2.54676 -3.78463,2.87792 -0.54939,0.5682 -0.4919,0.59227 1.01894,0.42658 l 1.60119,-0.17565 -0.0867,5.92692 -0.0867,5.92688 -10.83053,0.0378 c -5.95679,0.0208 -11.25629,0.008 -11.77668,-0.0287 l -0.94616,-0.0663 0,32.8246 0,32.82459 35.51731,0 35.51732,0 0,-32.77607 z m -45.21759,31.78732 c -0.10889,-0.13943 -0.19799,-0.47708 -0.19799,-0.7504 0,-0.40421 1.82309,-0.4969 9.77405,-0.4969 9.15188,0 9.76781,0.0415 9.67602,0.6522 -0.0906,0.60277 -0.81604,0.65961 -9.57605,0.75035 -5.21292,0.054 -9.56713,-0.0161 -9.67603,-0.15525 z m 4.46002,-9.819 0,-7.08096 5.53138,0 5.53139,0 0,7.08096 0,7.08097 -5.53139,0 -5.53138,0 z m 18.92316,1.49074 0,-2.2361 1.74675,0 1.74675,0 0,2.2361 0,2.23609 -1.74675,0 -1.74675,0 z m 4.07575,0.0186 0,-2.25469 1.76129,0 1.76128,0 -0.0873,2.14292 -0.0873,2.14292 -1.67397,0.11177 -1.67398,0.11177 z m 7.47223,1.96903 c -0.10675,-0.13662 -0.19408,-1.14287 -0.19408,-2.23609 l 0,-1.98763 1.74675,0 1.74675,0 0,2.2361 0,2.23609 -1.55267,0 c -0.85397,0 -1.64001,-0.11181 -1.74675,-0.24847 z m 3.88167,-1.98762 0,-2.2361 1.74676,0 1.74675,0 0,2.2361 0,2.23609 -1.74675,0 -1.74676,0 z m -61.71861,-0.74537 0,-2.23609 1.74675,0 1.74675,0 0,2.23609 0,2.23609 -1.74675,0 -1.74675,0 z m 4.07575,0 0,-2.23609 1.74676,0 1.74675,0 0,2.23609 0,2.23609 -1.74675,0 -1.74676,0 z m 7.56927,0 0,-2.23609 1.60119,0 1.60119,0 0,2.23609 0,2.23609 -1.60119,0 -1.60119,0 z m 3.78463,0 0,-2.23609 1.74675,0 1.74676,0 0,2.23609 0,2.23609 -1.74676,0 -1.74675,0 z m 30.85931,-4.84487 0,-2.2361 1.74675,0 1.74675,0 0,2.2361 0,2.23609 -1.74675,0 -1.74675,0 z m 4.07575,-0.0186 0,-2.25469 1.67398,0.11177 1.67397,0.11177 0.0873,2.14292 0.0873,2.14292 -1.76128,0 -1.76129,0 z m 7.3364,0.11177 0.0873,-2.14292 1.67398,-0.11177 1.67397,-0.11177 0,2.25469 0,2.25469 -1.76128,0 -1.76129,0 z m 4.0175,-0.11177 0,-2.25469 1.67397,0.11177 1.67398,0.11177 0.0873,2.14292 0.0873,2.14292 -1.76129,0 -1.76128,0 z m -61.71861,-0.54042 0,-2.04976 1.74675,0 1.74675,0 0,2.04976 0,2.04975 -1.74675,0 -1.74675,0 z m 4.07575,0 0,-2.04976 1.74676,0 1.74675,0 0,2.04976 0,2.04975 -1.74675,0 -1.74676,0 z m 7.56927,0 0,-2.04976 1.60119,0 1.60119,0 0,2.04976 0,2.04975 -1.60119,0 -1.60119,0 z m 3.78463,0 0,-2.04976 1.74675,0 1.74676,0 0,2.04976 0,2.04975 -1.74676,0 -1.74675,0 z m 30.91756,-7.54682 0.0873,-2.14292 1.60119,0 1.60119,0 0.0873,2.14292 0.0873,2.14292 -1.77581,0 -1.77581,0 z m 4.0175,-0.11177 0,-2.25469 1.67398,0.11177 1.67397,0.11177 0.0873,2.14292 0.0873,2.14292 -1.76128,0 -1.76129,0 z m 7.3364,0.11177 0.0873,-2.14292 1.67398,-0.0461 1.67397,-0.0462 0,2.18906 0,2.18902 -1.76128,0 -1.76129,0 z m 4.07575,0 0.0873,-2.14292 1.67397,-0.11177 1.67397,-0.11177 0,2.25469 0,2.25469 -1.76128,0 -1.76128,0 z m -61.77686,-0.65219 0,-2.04976 1.74675,0 1.74675,0 0,2.04976 0,2.04975 -1.74675,0 -1.74675,0 z m 4.07575,0 0,-2.04976 1.74676,0 1.74675,0 0,2.04976 0,2.04975 -1.74675,0 -1.74676,0 z m 7.56927,0 0,-2.04976 1.60119,0 1.60119,0 0,2.04976 0,2.04975 -1.60119,0 -1.60119,0 z m 3.78463,0 0,-2.04976 1.74675,0 1.74676,0 0,2.04976 0,2.04975 -1.74676,0 -1.74675,0 z m 7.86039,0 0,-2.04976 1.70184,0 1.70183,0 0.0523,2.04976 0.0523,2.04975 -1.75415,0 -1.75416,0 z m 4.07576,0 0,-2.04976 1.60119,0 1.60119,0 0,2.04976 0,2.04975 -1.60119,0 -1.60119,0 z m 7.27814,0 0,-2.04976 1.74675,0 1.74675,0 0,2.04976 0,2.04975 -1.74675,0 -1.74675,0 z m 4.07575,0 0,-2.04976 1.74676,0 1.74675,0 0,2.04976 0,2.04975 -1.74675,0 -1.74676,0 z m 7.56927,-4.65854 0,-2.23609 1.74675,0 1.74675,0 0,2.23609 0,2.2361 -1.74675,0 -1.74675,0 z m 4.07575,0.0186 0,-2.25469 1.76129,0 1.76128,0 -0.0873,2.14293 -0.0873,2.14292 -1.67397,0.11177 -1.67398,0.11176 z m 7.38205,1.65389 c -0.0929,-0.31 -0.0808,-1.31624 0.027,-2.23609 l 0.19591,-1.67249 1.58335,0 1.58336,0 0,2.23609 0,2.23609 -1.61033,0 c -1.16866,0 -1.65667,-0.15458 -1.77929,-0.5636 z m 3.97185,-1.67249 0,-2.23609 1.74676,0 1.74675,0 0,2.23609 0,2.23609 -1.74675,0 -1.74676,0 z m -61.71861,-0.74536 0,-2.2361 1.74675,0 1.74675,0 0,2.2361 0,2.23609 -1.74675,0 -1.74675,0 z m 4.07575,0 0,-2.2361 1.74676,0 1.74675,0 0,2.2361 0,2.23609 -1.74675,0 -1.74676,0 z m 7.47223,1.98763 c -0.10675,-0.13663 -0.19409,-1.15088 -0.19409,-2.25388 l 0,-2.0054 1.81954,0.11095 1.81953,0.11095 0.0203,2.14292 0.0203,2.14292 -1.64573,0 c -0.90516,0 -1.73308,-0.1118 -1.83982,-0.24846 z m 3.88167,-1.98763 0,-2.2361 1.74675,0 1.74676,0 0,2.2361 0,2.23609 -1.74676,0 -1.74675,0 z m 7.86039,0 0,-2.2361 1.60119,0 1.60119,0 0,2.2361 0,2.23609 -1.60119,0 -1.60119,0 z m 3.96134,1.64658 c -0.0972,-0.32423 -0.17671,-1.33047 -0.17671,-2.23609 l 0,-1.64659 1.7209,0 1.72089,0 0.0986,2.23677 0.0986,2.23677 -1.64283,0 c -1.22913,-3.8e-4 -1.68731,-0.14912 -1.81953,-0.59019 z m 7.39256,-1.64658 0,-2.2361 1.74675,0 1.74675,0 0,2.2361 0,2.23609 -1.74675,0 -1.74675,0 z m 4.07575,0 0,-2.2361 1.74676,0 1.74675,0 0,2.2361 0,2.23609 -1.74675,0 -1.74676,0 z m -38.71969,-8.19901 0,-2.2361 1.74675,0 1.74675,0 0,2.2361 0,2.23609 -1.74675,0 -1.74675,0 z m 4.07575,0 0,-2.2361 1.74676,0 1.74675,0 0,2.2361 0,2.23609 -1.74675,0 -1.74676,0 z m 7.39256,1.64658 c 0.0972,-0.32423 0.17671,-1.33048 0.17671,-2.23609 l 0,-1.64659 1.57533,0 1.57533,0 0.0986,2.23676 0.0986,2.23677 -1.85068,0 c -1.56785,0 -1.82367,-0.0908 -1.67397,-0.59018 z m 3.96134,-1.64658 0,-2.2361 1.74675,0 1.74676,0 0,2.2361 0,2.23609 -1.74676,0 -1.74675,0 z m 7.81346,0.016 0.0986,-2.25212 1.56979,0 c 1.75636,0 2.00151,0.41148 1.77634,2.98146 l -0.11428,1.30438 -1.71456,0.1092 -1.71456,0.10916 z m 4.12269,-0.016 0,-2.2361 1.57533,0 1.57533,0 0.0986,2.23676 0.0986,2.23677 -1.67397,0 -1.67397,0 0,-2.23609 z m 7.27814,0 0,-2.2361 1.74675,0 1.74675,0 0,2.2361 0,2.23609 -1.74675,0 -1.74675,0 z m 4.07575,-0.0186 0,-2.25469 1.67397,0.11177 1.67398,0.11176 0.0491,2.14293 0.0491,2.14292 -1.72309,0 -1.7231,0 z m 7.62752,0.11177 0.0873,-2.14293 1.67397,-0.11176 1.67397,-0.11177 0,2.25469 0,2.25469 -1.76128,0 -1.76128,0 z m 4.0175,-0.0932 0,-2.23609 1.74676,0 1.74675,0 0,2.23609 0,2.23609 -1.74675,0 -1.74676,0 z m 7.37458,0.0932 0.0491,-2.14293 1.67398,-0.11176 1.67397,-0.11177 0,2.25469 0,2.25469 -1.7231,0 -1.7231,0 z m 3.97932,-0.0932 0,-2.23609 1.74676,0 1.74675,0 0,2.23609 0,2.23609 -1.74675,0 -1.74676,0 z m -61.52453,-3.22993 c -0.10675,-0.13662 -0.19408,-1.14287 -0.19408,-2.23609 l 0,-1.98763 1.74675,0 1.74675,0 0,2.2361 0,2.23609 -1.55267,0 c -0.85396,0 -1.64,-0.11181 -1.74675,-0.24847 z m 3.88167,-1.98762 0,-2.2361 1.74676,0 1.74675,0 0,2.2361 0,2.23609 -1.74675,0 -1.74676,0 z m 7.56927,0 0,-2.2361 1.60119,0 1.60119,0 0,2.2361 0,2.23609 -1.60119,0 -1.60119,0 z m 3.97871,1.98762 c -0.10674,-0.13662 -0.19408,-1.14287 -0.19408,-2.23609 l 0,-1.98763 1.74675,0 1.74676,0 0,2.2361 0,2.23609 -1.55267,0 c -0.85397,0 -1.64001,-0.11181 -1.74676,-0.24847 z m 7.66631,-2.00622 0,-2.25469 1.67397,0.11176 1.67398,0.11177 0.0166,1.67707 c 0.0249,2.50898 -0.0438,2.60878 -1.79453,2.60878 l -1.57003,0 z m 4.02884,0.0179 -0.0986,-2.23676 1.67397,0 1.67397,0 0,2.23609 0,2.23609 -1.57533,0 -1.57534,0 -0.0986,-2.2368 z m 7.32506,0 0,-2.2361 1.74675,0 1.74675,0 0,2.2361 0,2.2361 -1.74675,0 -1.74675,0 z m 4.07575,0.0186 0,-2.25469 1.7485,0 1.7485,0 -0.0745,2.14293 -0.0745,2.14292 -1.67398,0.11177 -1.67397,0.11177 z m 7.56927,-0.0186 0,-2.2361 1.74675,0 1.74675,0 0,2.2361 0,2.2361 -1.74675,0 -1.74675,0 z m 4.07575,0.0186 0,-2.25469 1.76129,0 1.76128,0 -0.0873,2.14293 -0.0873,2.14292 -1.67397,0.11177 -1.67398,0.11177 z m 7.47223,1.96904 c -0.10675,-0.13671 -0.19408,-1.14294 -0.19408,-2.23617 l 0,-1.98763 1.74675,0 1.74675,0 0,2.2361 0,2.23609 -1.55267,0 c -0.85397,0 -1.64001,-0.11181 -1.74675,-0.24847 z m 3.88167,-1.9877 0,-2.2361 1.74676,0 1.74675,0 0,2.2361 0,2.23609 -1.74675,0 -1.74676,0 z m -61.71861,-8.19902 0,-2.23609 1.74675,0 1.74675,0 0,2.23609 0,2.2361 -1.74675,0 -1.74675,0 z m 4.07575,0 0,-2.23609 1.74676,0 1.74675,0 0,2.23609 0,2.2361 -1.74675,0 -1.74676,0 z m 7.56927,0 0,-2.23609 1.60119,0 1.60119,0 0,2.23609 0,2.2361 -1.60119,0 -1.60119,0 z m 3.97871,1.98763 c -0.10674,-0.13663 -0.19408,-1.14287 -0.19408,-2.2361 l 0,-1.98762 1.74675,0 1.74676,0 0,2.23609 0,2.2361 -1.55267,0 c -0.85397,0 -1.64001,-0.11181 -1.74676,-0.24847 z m 30.66523,-1.98763 0,-2.23609 1.74675,0 1.74675,0 0,2.23609 0,2.2361 -1.74675,0 -1.74675,0 z m 4.07575,0.0186 0,-2.25469 1.76129,0 1.76128,0 -0.0873,2.14292 -0.0873,2.14292 -1.67397,0.11177 -1.67398,0.11177 z m 7.47223,1.96903 c -0.10675,-0.13663 -0.19408,-1.14287 -0.19408,-2.2361 l 0,-1.98762 1.74675,0 1.74675,0 0,2.23609 0,2.23609 -1.55267,0 c -0.85397,0 -1.64001,-0.1118 -1.74675,-0.24846 z m 3.88167,-1.98763 0,-2.23609 1.74676,0 1.74675,0 0,2.23609 0,2.23609 -1.74675,0 -1.74676,0 z m -31.05036,-0.74324 c -3.99727,-1.07042 -7.31141,-5.70853 -7.82278,-10.94796 -0.49958,-5.11868 1.90384,-10.55485 5.68483,-12.85813 1.33627,-0.81405 2.0106,-0.97576 4.07575,-0.97744 2.97177,-0.004 5.03872,1.04441 6.98702,3.53851 1.94711,2.49257 2.76569,5.13992 2.76569,8.94438 0,2.71354 -0.11665,3.47186 -0.81347,5.28839 -1.95815,5.10456 -6.66628,8.13983 -10.87704,7.01225 z m 5.76387,-2.21098 c 4.51405,-2.97176 6.24334,-9.43318 4.05062,-15.135 -1.53142,-3.98219 -4.3788,-6.24638 -7.8508,-6.24276 -2.63655,0.004 -4.57415,1.11871 -6.41199,3.69294 -1.82164,2.5515 -2.47171,4.91508 -2.28205,8.29722 0.27255,4.86022 2.59097,8.57314 6.33915,10.15205 1.34162,0.56513 4.7851,0.13748 6.15507,-0.76445 z m -5.79613,-2.38434 c -0.10675,-0.13663 -0.19408,-1.47124 -0.19408,-2.96578 l 0,-2.71733 -2.0563,-0.10886 -2.25622,-0.10882 -0.0904,-1.39757 -0.0904,-3.39756 2.34657,0 2.34659,0 0,-0.98145 0,-4.98146 1.16449,0 3.16451,0 0,4.98146 0,0.98145 0.329,0 4.32901,0 0,3.49074 0,1.49072 -4.32901,0 -0.329,0 0,2.98146 0,2.98146 -2.97042,0 c -0.53373,0 -1.25769,-0.1118 -1.36443,-0.24846 z m -30.57774,-0.1585 0.0873,-2.14293 1.67397,-0.11177 1.67397,-0.11176 0,2.25469 0,2.25469 -1.76128,0 -1.76128,0 z m 4.0175,-0.11177 0,-2.25469 1.67397,0.11176 1.67398,0.11177 0.0873,2.14293 0.0873,2.14292 -1.76129,0 -1.76128,0 z m 7.56927,0.0986 0,-2.15604 1.60119,-0.0858 1.60119,-0.0858 0,2.24183 0,2.24184 -1.60119,0 -1.60119,0 z m 3.84288,0.013 0.0873,-2.14293 1.67398,-0.11176 1.67397,-0.11177 0,2.25469 0,2.25469 -1.76128,0 -1.76129,0 z m 30.85931,0 0.0873,-2.14293 1.60119,0 1.60119,0 0.0873,2.14293 0.0873,2.14292 -1.77581,0 -1.77581,0 z m 4.0175,-0.11173 0,-2.25469 1.67398,0.11177 1.67397,0.11176 0.0873,2.14293 0.0873,2.14292 -1.76128,0 -1.76129,0 z m 7.3364,0.11177 0.0873,-2.14293 1.67398,-0.11176 1.67397,-0.11177 0,2.25469 0,2.25469 -1.76128,0 -1.76129,0 z m 4.0175,-0.0932 0,-2.2361 1.74676,0 1.74675,0 0,2.2361 0,2.23609 -1.74675,0 -1.74676,0 z m -63.46537,-7.08095 c 0,-0.24198 3.92447,-0.37268 11.19116,-0.37268 7.14673,0 11.25617,0.13468 11.37107,0.37268 0.11878,0.24601 -3.68456,0.37268 -11.19115,0.37268 -7.38664,0 -11.37108,-0.13059 -11.37108,-0.37268 z m 46.28896,0 c 0,-0.24202 3.9302,-0.37268 11.20834,-0.37268 7.27813,0 11.20833,0.13066 11.20833,0.37268 0,0.24198 -3.9302,0.37268 -11.20833,0.37268 -7.27814,0 -11.20834,-0.1307 -11.20834,-0.37268 z M 143.671,360.67668 c 0.24017,-0.20974 0.89521,-0.69151 1.45563,-1.07056 l 1.01894,-0.68913 1.45562,1.07321 1.45563,1.07322 -2.91125,-0.004 c -2.07609,0 -2.78599,-0.11206 -2.47457,-0.38405 z"
         style="fill:#ffffff;fill-opacity:1"
         id="path4147"
         inkscape:connector-curvature="0"
         sodipodi:nodetypes="cccccccccccccccsscsccccccscccccccccsssscccccccccccccccccccccccccccccscccccscccccccccccccccccccccccccccccccccccccccccccccccccccccccccccccccccccccccccccccccccccccccccccccccccccccccccccccccccccccccccccccccccccccccccccccccccccccccccccccccccccccccccccccccccccccccccccccccccccccccccccccccccccccccccccccccccccccccccccccccccccccccccccscccccccccccccccccccccccccccccscccccscccccccccccccccccccccscccccccccccccccccccccccccccccccccccccccccccccscccccscccccccccccccsscccccccccccccccccccccccccccccccccccccccccccccccccccccccccccccccccccccscccccsccccccccccccccccccccscccccsccccccscccccccccccccccccccccccccccccccccccccccccccccccccscccccscccccccccccccccccccccccccccccccccccccccscccccsccccccccccccccccccccscccccsccccccccccssccsssscscsscccscccccccccccccccccccccsccccccccccccccccccccccccccccccccccccccccccccccccccccccccccccccccccccccccccsscssssssscccccccc" />
    </g>
  </g>
</svg>
