<?xml version="1.0" encoding="UTF-8" standalone="no"?>
<!-- Created with Inkscape (http://www.inkscape.org/) -->

<svg
   xmlns:dc="http://purl.org/dc/elements/1.1/"
   xmlns:cc="http://creativecommons.org/ns#"
   xmlns:rdf="http://www.w3.org/1999/02/22-rdf-syntax-ns#"
   xmlns:svg="http://www.w3.org/2000/svg"
   xmlns="http://www.w3.org/2000/svg"
   xmlns:sodipodi="http://sodipodi.sourceforge.net/DTD/sodipodi-0.dtd"
   xmlns:inkscape="http://www.inkscape.org/namespaces/inkscape"
   width="35.985096mm"
   height="35.985451mm"
   viewBox="0 0 127.50625 127.5075"
   id="svg6359"
   version="1.1"
   inkscape:version="0.91 r13725"
   sodipodi:docname="hospital.svg">
  <defs
     id="defs6361" />
  <sodipodi:namedview
     id="base"
     pagecolor="#ffffff"
     bordercolor="#666666"
     borderopacity="1.0"
     inkscape:pageopacity="0.0"
     inkscape:pageshadow="2"
     inkscape:zoom="2.8"
     inkscape:cx="-13.759056"
     inkscape:cy="74.585092"
     inkscape:document-units="px"
     inkscape:current-layer="layer1"
     showgrid="false"
     inkscape:window-width="1366"
     inkscape:window-height="706"
     inkscape:window-x="-8"
     inkscape:window-y="-8"
     inkscape:window-maximized="1"
     fit-margin-top="0"
     fit-margin-left="0"
     fit-margin-right="0"
     fit-margin-bottom="0" />
  <metadata
     id="metadata6364">
    <rdf:RDF>
      <cc:Work
         rdf:about="">
        <dc:format>image/svg+xml</dc:format>
        <dc:type
           rdf:resource="http://purl.org/dc/dcmitype/StillImage" />
        <dc:title />
      </cc:Work>
    </rdf:RDF>
  </metadata>
  <g
     inkscape:label="Layer 1"
     inkscape:groupmode="layer"
     id="layer1"
     transform="translate(-341.96116,-348.60845)">
    <path
       inkscape:connector-curvature="0"
       id="path5230"
       style="fill:#a3d8d6;fill-opacity:1;fill-rule:nonzero;stroke:none"
       d="m 469.46741,412.3622 c 0,35.21 -28.54375,63.75375 -63.75375,63.75375 -35.21,0 -63.7525,-28.54375 -63.7525,-63.75375 0,-35.21 28.5425,-63.75375 63.7525,-63.75375 35.21,0 63.75375,28.54375 63.75375,63.75375" />
    <g
       transform="matrix(1.25,0,0,-1.25,441.89503,411.642)"
       id="g5232">
      <path
         inkscape:connector-curvature="0"
         id="path5234"
         style="fill:#434343;fill-opacity:1;fill-rule:nonzero;stroke:none"
         d="m 0,0 -59.578,0 c -1.203,0 -1.806,1.455 -0.955,2.307 L -29.789,33.051 0.955,2.307 C 1.807,1.455 1.204,0 0,0" />
    </g>
    <path
       inkscape:connector-curvature="0"
       id="path5238"
       style="fill:#ed4b00;fill-opacity:1;fill-rule:nonzero;stroke:none"
       d="m 442.95016,411.91445 -37.2375,-35.1325 -37.2575,35.1325 9.83,2.33625 0,39.8725 52.68875,0 0,-39.91875 11.97625,-2.29 z" />
    <path
       inkscape:connector-curvature="0"
       id="path5242"
       style="fill:#434343;fill-opacity:1;fill-rule:nonzero;stroke:none"
       d="m 420.09028,454.12345 -30.92125,0 0,-33.7025 c 0,-8.53875 6.9225,-15.46125 15.46125,-15.46125 8.5375,0 15.46,6.9225 15.46,15.46125 l 0,33.7025 z" />
    <path
       inkscape:connector-curvature="0"
       id="path5230-2"
       style="fill:#ffffff;fill-opacity:1;fill-rule:nonzero;stroke:none"
       d="m 413.03546,396.56249 c 0,4.58798 -3.71904,8.30732 -8.30665,8.30732 -4.58761,0 -8.30649,-3.71934 -8.30649,-8.30732 0,-4.58798 3.71888,-8.30732 8.30649,-8.30732 4.58761,0 8.30665,3.71934 8.30665,8.30732" />
    <g
       id="g5639"
       transform="translate(120.85686,-13.028437)">
      <path
         inkscape:connector-curvature="0"
         id="path5622"
         d="m 277.8183,409.68739 c 4.00003,0 7.99998,0 12,0"
         style="fill:none;fill-rule:evenodd;stroke:#ff0000;stroke-width:2.89827538;stroke-linecap:butt;stroke-linejoin:miter;stroke-miterlimit:4;stroke-dasharray:none;stroke-opacity:1" />
      <path
         inkscape:connector-curvature="0"
         id="path5622-3"
         d="m 283.6893,403.68739 c 0,4.00003 0,7.99998 0,12"
         style="fill:none;fill-rule:evenodd;stroke:#ff0000;stroke-width:2.89827538;stroke-linecap:butt;stroke-linejoin:miter;stroke-miterlimit:4;stroke-dasharray:none;stroke-opacity:1" />
    </g>
  </g>
</svg>
