<?xml version="1.0" encoding="UTF-8" standalone="no"?>
<!-- Generator: Adobe Illustrator 17.1.0, SVG Export Plug-In . SVG Version: 6.00 Build 0)  -->

<svg
   xmlns:dc="http://purl.org/dc/elements/1.1/"
   xmlns:cc="http://creativecommons.org/ns#"
   xmlns:rdf="http://www.w3.org/1999/02/22-rdf-syntax-ns#"
   xmlns:svg="http://www.w3.org/2000/svg"
   xmlns="http://www.w3.org/2000/svg"
   xmlns:sodipodi="http://sodipodi.sourceforge.net/DTD/sodipodi-0.dtd"
   xmlns:inkscape="http://www.inkscape.org/namespaces/inkscape"
   version="1.1"
   id="Capa_1"
   x="0px"
   y="0px"
   viewBox="0 0 127.50625 127.5075"
   xml:space="preserve"
   inkscape:version="0.91 r13725"
   sodipodi:docname="mind.svg"
   width="127.50625"
   height="127.5075"><metadata
     id="metadata49"><rdf:RDF><cc:Work
         rdf:about=""><dc:format>image/svg+xml</dc:format><dc:type
           rdf:resource="http://purl.org/dc/dcmitype/StillImage" /><dc:title></dc:title></cc:Work></rdf:RDF></metadata><defs
     id="defs47" /><sodipodi:namedview
     pagecolor="#ffffff"
     bordercolor="#666666"
     borderopacity="1"
     objecttolerance="10"
     gridtolerance="10"
     guidetolerance="10"
     inkscape:pageopacity="0"
     inkscape:pageshadow="2"
     inkscape:window-width="1920"
     inkscape:window-height="1058"
     id="namedview45"
     showgrid="false"
     fit-margin-top="0"
     fit-margin-left="0"
     fit-margin-right="0"
     fit-margin-bottom="0"
     inkscape:zoom="1.84375"
     inkscape:cx="165.10691"
     inkscape:cy="117.11075"
     inkscape:window-x="-8"
     inkscape:window-y="-8"
     inkscape:window-maximized="1"
     inkscape:current-layer="g3" /><g
     id="g3"
     transform="translate(430.72523,-55.712168)"><g
       transform="translate(-383.87331,-192.63597)"
       id="layer1"
       inkscape:label="Layer 1"
       style="fill:#00b19b;fill-opacity:1"><g
         id="g5340"
         transform="matrix(1.25,0,0,-1.25,280.08242,335.11282)"
         style="fill:#00b19b;fill-opacity:1"><path
           d="m -159.54247,18.408746 c 0,-28.168 -22.835,-51.003 -51.003,-51.003 -28.168,0 -51.002,22.835 -51.002,51.003 0,28.168 22.834,51.003 51.002,51.003 28.168,0 51.003,-22.835 51.003,-51.003"
           style="fill:#00b19b;fill-opacity:1;fill-rule:nonzero;stroke:none"
           id="path5342"
           inkscape:connector-curvature="0" /></g></g><path
       d="m -349.49206,145.03173 c -1.72246,0 -3.06171,0.98515 -4.4797,2.0281 -1.67451,1.23186 -3.40612,2.50565 -6.07566,2.50565 -3.1344,0 -5.03774,-1.4695 -5.03774,-2.11575 l 0,-1.43058 c 0.79973,-0.35968 1.98656,-0.93792 3.18275,-1.68391 3.06151,-1.90909 4.6138,-3.93453 4.6138,-6.02025 0,-4.24641 -3.58505,-6.88449 -9.35585,-6.88449 -5.77082,0 -9.35587,2.63808 -9.35587,6.88449 0,2.08572 1.5523,4.11116 4.61381,6.02025 1.19599,0.74599 2.38301,1.32423 3.18274,1.68391 l 0,1.43058 c 0,0.64625 -1.90333,2.11575 -5.03773,2.11575 -2.66954,0 -4.40115,-1.27379 -6.07566,-2.50565 -1.418,-1.04295 -2.75725,-2.0281 -4.4797,-2.0281 -0.86113,0 -1.55931,0.67667 -1.55931,1.51125 0,0.83459 0.69818,1.51125 1.55931,1.51125 0.67304,0 1.5634,0.65494 2.5943,1.41321 1.79028,1.31686 4.2421,3.12054 7.96106,3.12054 2.7093,0 5.11297,-0.83724 6.59705,-2.1218 1.48406,1.28456 3.88774,2.1218 6.59704,2.1218 3.71895,0 6.17077,-1.80368 7.96106,-3.12054 1.03089,-0.75846 1.92126,-1.41321 2.5943,-1.41321 0.86112,0 1.5593,-0.67666 1.5593,-1.51125 0,-0.83458 -0.69818,-1.51125 -1.5593,-1.51125 z m -23.38965,-6.71674 c 0,-3.48569 4.36178,-3.86199 6.23725,-3.86199 5.62949,0 6.23723,2.70079 6.23723,3.86199 0,1.69997 -3.53261,3.92188 -6.23723,5.07742 -2.70522,-1.15611 -6.23725,-3.37764 -6.23725,-5.07742 z"
       id="path5"
       inkscape:connector-curvature="0"
       style="fill:#ffffff;fill-opacity:1" /><path
       d="m -377.55963,118.96271 c 0,-3.33325 -2.79799,-6.045 -6.23724,-6.045 -3.43925,0 -6.23724,2.71175 -6.23724,6.045 0,3.33324 2.79799,6.04499 6.23724,6.04499 3.43925,0 6.23724,-2.71175 6.23724,-6.04499 z m -9.35586,0 c 0,-1.66653 1.39909,-3.0225 3.11862,-3.0225 1.71953,0 3.11862,1.35597 3.11862,3.0225 0,1.66653 -1.39909,3.0225 -3.11862,3.0225 -1.71953,0 -3.11862,-1.35597 -3.11862,-3.0225 z"
       id="path7"
       inkscape:connector-curvature="0"
       style="fill:#ffffff;fill-opacity:1" /><path
       d="m -349.49206,112.91771 c -3.43926,0 -6.23724,2.71175 -6.23724,6.045 0,3.33324 2.79798,6.04499 6.23724,6.04499 3.43925,0 6.23724,-2.71175 6.23724,-6.04499 0,-3.33325 -2.79799,-6.045 -6.23724,-6.045 z m 0,9.0675 c -1.71953,0 -3.11863,-1.35597 -3.11863,-3.0225 0,-1.66653 1.3991,-3.0225 3.11863,-3.0225 1.71952,0 3.11862,1.35597 3.11862,3.0225 0,1.66653 -1.3991,3.0225 -3.11862,3.0225 z"
       id="path9"
       inkscape:connector-curvature="0"
       style="fill:#ffffff;fill-opacity:1" /><path
       d="m -323.5015,92.28786 c -6.28635,-8.867251 -10.81985,-10.728543 -13.51609,-10.728543 -4.38321,0 -7.73866,2.418189 -9.10227,6.506301 -2.13217,0.970598 -3.74273,0.569744 -6.72043,-0.178517 -3.01415,-0.757134 -7.14183,-1.794037 -13.80417,-1.794037 -6.66235,0 -10.79004,1.036903 -13.80418,1.794037 -2.9779,0.748261 -4.58827,1.149115 -6.72043,0.178517 -1.36362,-4.088112 -4.71906,-6.506301 -9.10228,-6.506301 -2.69624,0 -7.22973,1.861292 -13.51609,10.728543 -3.24863,4.582479 -6.75493,11.02833 -6.75493,13.45143 0,0.68818 0.42705,1.07261 0.7703,1.38128 0.88608,0.79718 3.58251,3.2233 3.91133,7.79143 0.20525,2.85134 1.15389,5.90123 2.60307,8.36816 1.60044,2.72459 3.65249,4.5037 5.77841,5.00922 0.35338,0.0841 0.78259,0.14904 1.26558,0.14904 0.39782,0 0.83189,-0.044 1.28935,-0.15792 0.17932,5.48337 1.43613,10.16163 3.8322,14.26145 2.30641,3.94625 5.73573,7.52073 10.79179,11.24898 0.40776,0.30055 0.9849,1.04691 1.59595,1.83673 2.61886,3.38482 7.00189,9.0503 18.05993,9.0503 11.05803,0 15.44105,-5.66548 18.05991,-9.05049 0.61106,-0.79 1.18839,-1.53618 1.59596,-1.83673 5.05606,-3.72844 8.48518,-7.30292 10.79178,-11.24897 2.39608,-4.09964 3.65288,-8.77809 3.8322,-14.26146 0.45766,0.11391 0.89173,0.15792 1.28936,0.15792 0.48299,0 0.91239,-0.065 1.26557,-0.14905 4.66194,-1.10887 7.98035,-7.80729 8.38129,-13.37737 0.32901,-4.56813 3.02525,-6.99406 3.91133,-7.79143 0.34324,-0.30867 0.7703,-0.6931 0.7703,-1.38128 1.9e-4,-2.42291 -3.50611,-8.868761 -6.75474,-13.45124 z m -1.03771,22.41369 c -0.17386,2.41479 -0.97652,4.99638 -2.20233,7.08304 -1.15545,1.96707 -2.5446,3.26788 -3.81135,3.56919 -1.23166,0.29337 -2.43544,-0.47076 -3.57686,-2.27084 -1.64507,-2.59463 -0.60579,-8.17151 0.39918,-13.56459 1.46771,-7.8753 3.1311,-16.801297 -2.23955,-21.52244 -0.63796,-0.560672 -1.62402,-0.514009 -2.20252,0.10409 -0.57851,0.61829 -0.53037,1.573966 0.10739,2.134639 4.08929,3.594693 2.65394,11.297331 1.26577,18.746271 -1.16013,6.22559 -2.25613,12.10586 0.0127,15.68412 0.45628,0.71973 0.92544,1.30798 1.39675,1.78912 -0.044,0.14036 -0.0682,0.28884 -0.0682,0.44261 0,12.11171 -5.36421,18.54906 -13.41863,24.48845 -0.75373,0.55576 -1.42521,1.42397 -2.20292,2.42895 -2.41556,3.12262 -6.0661,7.8413 -15.56463,7.8413 -9.49854,0 -13.14908,-4.71868 -15.56464,-7.8413 -0.77771,-1.00498 -1.44919,-1.87319 -2.20291,-2.42895 -8.05442,-5.93939 -13.41863,-12.37674 -13.41863,-24.48845 0,-0.15396 -0.0242,-0.30244 -0.0682,-0.44223 0.4713,-0.48114 0.94046,-1.0694 1.39676,-1.78912 2.26879,-3.57827 1.17279,-9.45872 0.0127,-15.68412 -1.38818,-7.44913 -2.82371,-15.151771 1.26577,-18.746272 0.63776,-0.560673 0.68609,-1.516349 0.1074,-2.13464 -0.5787,-0.61829 -1.56477,-0.664762 -2.20252,-0.104089 -5.37065,4.720951 -3.70726,13.646951 -2.23957,21.522441 1.00498,5.39308 2.04426,10.96977 0.39919,13.56459 -1.14122,1.79989 -2.34462,2.56439 -3.57686,2.27084 -1.26694,-0.30131 -2.6559,-1.60212 -3.81134,-3.5692 -1.22582,-2.08665 -2.02847,-4.66824 -2.20233,-7.08303 -0.26509,-3.68215 -1.80529,-6.87599 -4.57911,-9.4997 0.45999,-1.70564 2.58007,-6.220866 6.11172,-11.202509 4.18069,-5.897263 8.27252,-9.417908 10.94576,-9.417908 1.85421,0 5.13656,0.638503 6.28772,4.915338 10e-4,0.0049 0.003,0.0097 0.004,0.01454 0.008,0.02777 0.0173,0.05516 0.0269,0.08255 0.007,0.02041 0.0134,0.04138 0.0212,0.06139 0.009,0.02382 0.0207,0.04703 0.0314,0.07065 0.0102,0.02212 0.0195,0.04478 0.0304,0.0663 0.0105,0.0202 0.0226,0.03946 0.0341,0.05931 0.0132,0.02321 0.0259,0.04665 0.0403,0.06896 0.0125,0.01948 0.0269,0.03776 0.0405,0.05667 0.0152,0.02118 0.0296,0.04286 0.0458,0.06309 0.0164,0.02058 0.0347,0.03984 0.0524,0.0597 0.0152,0.01701 0.0296,0.03474 0.0454,0.0512 0.0191,0.01965 0.04,0.03798 0.0602,0.05667 0.0164,0.01509 0.0321,0.03095 0.0491,0.04533 0.0193,0.01624 0.0401,0.03134 0.0604,0.04687 0.0201,0.01531 0.0398,0.03117 0.0606,0.04555 0.0187,0.01284 0.0386,0.02453 0.0581,0.03666 0.0242,0.01531 0.0483,0.03062 0.0733,0.0444 0.005,0.0027 0.009,0.0059 0.0139,0.0083 1.67509,0.90618 3.12934,1.234879 4.57385,1.234879 1.58367,0 3.15585,-0.395004 4.99466,-0.857064 3.01044,-0.756383 6.75707,-1.697511 13.0218,-1.697511 6.26471,0 10.01134,0.941128 13.02159,1.697319 1.83921,0.462066 3.41099,0.857069 4.99466,0.857069 1.44451,0 2.89896,-0.328698 4.57385,-1.234879 0.004,-0.0022 0.009,-0.0055 0.0134,-0.0081 0.0261,-0.01438 0.051,-0.0304 0.0764,-0.04626 0.0183,-0.01153 0.0374,-0.02267 0.055,-0.03474 0.0222,-0.01548 0.0433,-0.0321 0.0647,-0.04873 0.0189,-0.01454 0.0384,-0.02832 0.0563,-0.04346 0.0189,-0.01602 0.0366,-0.03364 0.0548,-0.05043 0.0183,-0.01718 0.0374,-0.03364 0.0548,-0.05137 0.0181,-0.01871 0.0345,-0.03874 0.0519,-0.05837 0.0154,-0.01756 0.0316,-0.03457 0.0462,-0.05268 0.018,-0.02228 0.0339,-0.0461 0.0505,-0.06952 0.0119,-0.01679 0.0248,-0.03304 0.0361,-0.05043 0.0154,-0.0236 0.0289,-0.04857 0.0428,-0.0733 0.0105,-0.01833 0.0218,-0.03627 0.0316,-0.05516 0.0115,-0.02212 0.021,-0.04555 0.0314,-0.06839 0.0103,-0.02288 0.0214,-0.04555 0.0306,-0.06876 0.008,-0.0202 0.0142,-0.04116 0.0214,-0.06177 0.009,-0.02739 0.0189,-0.05461 0.0267,-0.08218 0.001,-0.0049 0.004,-0.0097 0.004,-0.01454 1.15097,-4.276457 4.43332,-4.91496 6.28753,-4.91496 2.67324,0 6.76506,3.520645 10.94557,9.417722 3.53164,4.981643 5.65172,9.496874 6.11172,11.202514 -2.77382,2.62352 -4.31402,5.81735 -4.57891,9.49951 z"
       id="path11"
       inkscape:connector-curvature="0"
       style="fill:#ffffff;fill-opacity:1" /><path
       d="m -362.23844,153.72935 c -2.92371,0.49455 -5.88854,0.49455 -8.81225,0 -0.84865,-0.14376 -1.65618,0.40671 -1.80412,1.22902 -0.14813,0.8223 0.41965,1.60513 1.26792,1.74851 1.63981,0.27751 3.29111,0.41616 4.94223,0.41616 1.65111,0 3.30262,-0.13865 4.94223,-0.41616 0.84846,-0.14338 1.41605,-0.92621 1.26791,-1.74851 -0.14813,-0.82231 -0.95488,-1.37278 -1.80392,-1.22902 z"
       id="path13"
       inkscape:connector-curvature="0"
       style="fill:#ffffff;fill-opacity:1" /></g><g
     id="g15"
     transform="translate(430.72523,-55.712168)" /><g
     id="g17"
     transform="translate(430.72523,-55.712168)" /><g
     id="g19"
     transform="translate(430.72523,-55.712168)" /><g
     id="g21"
     transform="translate(430.72523,-55.712168)" /><g
     id="g23"
     transform="translate(430.72523,-55.712168)" /><g
     id="g25"
     transform="translate(430.72523,-55.712168)" /><g
     id="g27"
     transform="translate(430.72523,-55.712168)" /><g
     id="g29"
     transform="translate(430.72523,-55.712168)" /><g
     id="g31"
     transform="translate(430.72523,-55.712168)" /><g
     id="g33"
     transform="translate(430.72523,-55.712168)" /><g
     id="g35"
     transform="translate(430.72523,-55.712168)" /><g
     id="g37"
     transform="translate(430.72523,-55.712168)" /><g
     id="g39"
     transform="translate(430.72523,-55.712168)" /><g
     id="g41"
     transform="translate(430.72523,-55.712168)" /><g
     id="g43"
     transform="translate(430.72523,-55.712168)" /><g
     id="g4224"
     transform="matrix(0.06704834,0,0,0.06272674,49.597557,34.617637)"
     style="fill:#ffffff;fill-opacity:1;stroke:none;stroke-width:15.76304626;stroke-miterlimit:4;stroke-dasharray:none;stroke-opacity:1"><g
       id="g4178"
       style="fill:#ffffff;fill-opacity:1;stroke:none;stroke-width:15.76304626;stroke-miterlimit:4;stroke-dasharray:none;stroke-opacity:1"><g
         id="g4180"
         style="fill:#ffffff;fill-opacity:1;stroke:none;stroke-width:15.76304626;stroke-miterlimit:4;stroke-dasharray:none;stroke-opacity:1"><path
           id="path4182"
           d="m 188.634,234.066 c 8.462,-5.287 16.126,-11.735 22.767,-19.127 l 23.942,13.826 21.8,-37.76 -23.894,-13.796 c 3.038,-9.275 4.825,-19.113 5.16,-29.311 l 27.183,-4.793 -7.574,-42.938 -27.178,4.793 C 227.084,95.651 222.045,86.995 215.934,79.216 L 233.7,58.046 200.3,30.022 182.549,51.174 c -8.67,-4.646 -18.059,-8.119 -27.954,-10.203 l 0,-27.586 -43.6,0 0,27.586 c -9.896,2.084 -19.285,5.557 -27.956,10.203 l -17.75,-21.152 -33.4,28.025 17.764,21.17 c -6.11,7.779 -11.149,16.436 -14.905,25.744 L 7.57,100.168 0,143.106 l 27.179,4.793 c 0.335,10.199 2.123,20.035 5.161,29.313 l -23.896,13.795 21.801,37.759 23.943,-13.822 c 6.639,7.389 14.303,13.838 22.766,19.125 l -9.451,25.963 40.972,14.91 9.438,-25.928 c 4.864,0.688 9.831,1.053 14.882,1.053 5.051,0 10.019,-0.363 14.883,-1.053 l 9.437,25.93 40.97,-14.914 -9.451,-25.964 z m -55.841,-34.001 c -30.702,0 -55.68,-24.977 -55.68,-55.68 0,-30.701 24.978,-55.68 55.68,-55.68 30.702,0 55.68,24.979 55.68,55.68 0,30.703 -24.977,55.68 -55.68,55.68 z"
           inkscape:connector-curvature="0"
           style="fill:#ffffff;fill-opacity:1;stroke:none;stroke-width:15.76304626;stroke-miterlimit:4;stroke-dasharray:none;stroke-opacity:1" /><path
           id="path4184"
           d="m 376.041,266.807 -18.795,6.08 c -3.584,-6.229 -8.014,-11.869 -13.115,-16.779 l 10.504,-16.764 -26.447,-16.57 -10.498,16.75 c -6.604,-2.438 -13.602,-3.973 -20.826,-4.471 l -2.725,-19.559 -30.912,4.309 2.725,19.559 c -6.809,2.453 -13.125,5.847 -18.812,9.996 l -14.672,-13.244 -20.912,23.168 14.684,13.259 c -3.562,6.118 -6.277,12.752 -8.02,19.726 l -19.744,-0.714 -1.129,31.188 19.743,0.716 c 1.246,7.198 3.486,13.991 6.558,20.271 l -15.578,12.143 19.185,24.615 15.609,-12.164 c 5.438,4.582 11.511,8.396 18.031,11.311 l -4.138,19.344 30.522,6.52 4.133,-19.314 c 3.516,0.01 7.072,-0.229 10.652,-0.727 3.582,-0.498 7.07,-1.25 10.447,-2.215 l 9.256,17.451 27.574,-14.623 -9.266,-17.471 c 5.48,-4.586 10.271,-9.918 14.252,-15.812 l 18.338,7.436 11.727,-28.924 -18.303,-7.422 c 1.234,-6.875 1.529,-14.027 0.764,-21.293 l 18.799,-6.084 -9.611,-29.692 z m -78.912,83.199 c -21.771,3.031 -41.949,-12.209 -44.98,-33.977 -3.037,-21.769 12.207,-41.949 33.977,-44.979 21.768,-3.036 41.941,12.207 44.98,33.978 3.029,21.767 -12.21,41.941 -33.977,44.978 z"
           inkscape:connector-curvature="0"
           style="fill:#ffffff;fill-opacity:1;stroke:none;stroke-width:15.76304626;stroke-miterlimit:4;stroke-dasharray:none;stroke-opacity:1" /><path
           id="path4186"
           d="m 418.146,158.647 0.732,-24.629 -15.586,-0.463 c -0.977,-5.428 -2.723,-10.803 -5.285,-15.971 l 12.24,-9.67 -15.271,-19.33 -12.238,9.666 c -4.365,-3.627 -9.193,-6.584 -14.318,-8.816 l 3.164,-15.291 -24.123,-4.996 -3.17,15.281 c -5.559,0.008 -11.156,0.797 -16.641,2.412 l -7.391,-13.727 -21.695,11.684 7.391,13.729 c -4.363,3.686 -8.107,7.934 -11.176,12.566 l -14.496,-5.77 -9.111,22.893 14.508,5.779 c -0.955,5.508 -1.141,11.158 -0.514,16.799 l -14.809,4.898 7.732,23.395 14.809,-4.896 c 2.9,4.986 6.426,9.396 10.426,13.201 l -8.191,13.268 20.963,12.946 8.209,-13.292 c 5.285,1.896 10.828,3.051 16.453,3.414 l 2.252,15.453 24.383,-3.561 -2.246,-15.434 c 2.602,-0.957 5.17,-2.109 7.684,-3.463 2.516,-1.352 4.891,-2.867 7.123,-4.51 l 11.648,10.371 16.387,-18.398 -11.656,-10.383 c 2.795,-4.9 4.875,-10.164 6.203,-15.619 l 15.61,0.464 z m -58.71,13.197 c -15.281,8.227 -34.404,2.492 -42.627,-12.783 -8.23,-15.277 -2.494,-34.404 12.787,-42.627 15.273,-8.229 34.395,-2.49 42.625,12.787 8.222,15.278 2.49,34.395 -12.785,42.623 z"
           inkscape:connector-curvature="0"
           style="fill:#ffffff;fill-opacity:1;stroke:none;stroke-width:15.76304626;stroke-miterlimit:4;stroke-dasharray:none;stroke-opacity:1" /></g></g><g
       id="g4188"
       style="fill:#ffffff;fill-opacity:1;stroke:none;stroke-width:15.76304626;stroke-miterlimit:4;stroke-dasharray:none;stroke-opacity:1" /><g
       id="g4190"
       style="fill:#ffffff;fill-opacity:1;stroke:none;stroke-width:15.76304626;stroke-miterlimit:4;stroke-dasharray:none;stroke-opacity:1" /><g
       id="g4192"
       style="fill:#ffffff;fill-opacity:1;stroke:none;stroke-width:15.76304626;stroke-miterlimit:4;stroke-dasharray:none;stroke-opacity:1" /><g
       id="g4194"
       style="fill:#ffffff;fill-opacity:1;stroke:none;stroke-width:15.76304626;stroke-miterlimit:4;stroke-dasharray:none;stroke-opacity:1" /><g
       id="g4196"
       style="fill:#ffffff;fill-opacity:1;stroke:none;stroke-width:15.76304626;stroke-miterlimit:4;stroke-dasharray:none;stroke-opacity:1" /><g
       id="g4198"
       style="fill:#ffffff;fill-opacity:1;stroke:none;stroke-width:15.76304626;stroke-miterlimit:4;stroke-dasharray:none;stroke-opacity:1" /><g
       id="g4200"
       style="fill:#ffffff;fill-opacity:1;stroke:none;stroke-width:15.76304626;stroke-miterlimit:4;stroke-dasharray:none;stroke-opacity:1" /><g
       id="g4202"
       style="fill:#ffffff;fill-opacity:1;stroke:none;stroke-width:15.76304626;stroke-miterlimit:4;stroke-dasharray:none;stroke-opacity:1" /><g
       id="g4204"
       style="fill:#ffffff;fill-opacity:1;stroke:none;stroke-width:15.76304626;stroke-miterlimit:4;stroke-dasharray:none;stroke-opacity:1" /><g
       id="g4206"
       style="fill:#ffffff;fill-opacity:1;stroke:none;stroke-width:15.76304626;stroke-miterlimit:4;stroke-dasharray:none;stroke-opacity:1" /><g
       id="g4208"
       style="fill:#ffffff;fill-opacity:1;stroke:none;stroke-width:15.76304626;stroke-miterlimit:4;stroke-dasharray:none;stroke-opacity:1" /><g
       id="g4210"
       style="fill:#ffffff;fill-opacity:1;stroke:none;stroke-width:15.76304626;stroke-miterlimit:4;stroke-dasharray:none;stroke-opacity:1" /><g
       id="g4212"
       style="fill:#ffffff;fill-opacity:1;stroke:none;stroke-width:15.76304626;stroke-miterlimit:4;stroke-dasharray:none;stroke-opacity:1" /><g
       id="g4214"
       style="fill:#ffffff;fill-opacity:1;stroke:none;stroke-width:15.76304626;stroke-miterlimit:4;stroke-dasharray:none;stroke-opacity:1" /><g
       id="g4216"
       style="fill:#ffffff;fill-opacity:1;stroke:none;stroke-width:15.76304626;stroke-miterlimit:4;stroke-dasharray:none;stroke-opacity:1" /></g></svg>