<?xml version="1.0" encoding="UTF-8" standalone="no"?>
<!-- Created with Inkscape (http://www.inkscape.org/) -->

<svg
   xmlns:dc="http://purl.org/dc/elements/1.1/"
   xmlns:cc="http://creativecommons.org/ns#"
   xmlns:rdf="http://www.w3.org/1999/02/22-rdf-syntax-ns#"
   xmlns:svg="http://www.w3.org/2000/svg"
   xmlns="http://www.w3.org/2000/svg"
   xmlns:sodipodi="http://sodipodi.sourceforge.net/DTD/sodipodi-0.dtd"
   xmlns:inkscape="http://www.inkscape.org/namespaces/inkscape"
   width="35.985096mm"
   height="35.985447mm"
   viewBox="0 0 127.50624 127.5075"
   id="svg11407"
   version="1.1"
   inkscape:version="0.91 r13725"
   sodipodi:docname="pologi.svg">
  <defs
     id="defs11409" />
  <sodipodi:namedview
     id="base"
     pagecolor="#ffffff"
     bordercolor="#666666"
     borderopacity="1.0"
     inkscape:pageopacity="0.0"
     inkscape:pageshadow="2"
     inkscape:zoom="1.4"
     inkscape:cx="85.789229"
     inkscape:cy="94.109968"
     inkscape:document-units="px"
     inkscape:current-layer="layer1"
     showgrid="false"
     fit-margin-top="0"
     fit-margin-left="0"
     fit-margin-right="0"
     fit-margin-bottom="0"
     inkscape:window-width="1920"
     inkscape:window-height="1058"
     inkscape:window-x="-8"
     inkscape:window-y="-8"
     inkscape:window-maximized="1" />
  <metadata
     id="metadata11412">
    <rdf:RDF>
      <cc:Work
         rdf:about="">
        <dc:format>image/svg+xml</dc:format>
        <dc:type
           rdf:resource="http://purl.org/dc/dcmitype/StillImage" />
        <dc:title></dc:title>
      </cc:Work>
    </rdf:RDF>
  </metadata>
  <g
     inkscape:label="Layer 1"
     inkscape:groupmode="layer"
     id="layer1"
     transform="translate(-46.961164,-326.46559)">
    <g
       transform="matrix(1.25,0,0,-1.25,174.46741,390.21934)"
       id="g5208"
       style="fill:#50c95a;fill-opacity:1">
      <path
         inkscape:connector-curvature="0"
         id="path5210"
         style="fill:#50c95a;fill-opacity:1;fill-rule:nonzero;stroke:none"
         d="m 0,0 c 0,-28.168 -22.835,-51.003 -51.003,-51.003 -28.168,0 -51.002,22.835 -51.002,51.003 0,28.168 22.834,51.003 51.002,51.003 C -22.835,51.003 0,28.168 0,0" />
    </g>
    <g
       id="g12778"
       transform="matrix(0.41864451,0,0,0.35676493,64.639815,346.86006)"
       style="fill:#ffffff;fill-opacity:1">
      <path
         id="path12740"
         d="m 212.608,136.226 c 1.822,-1.163 3.122,-3.092 3.412,-5.375 0.478,-3.765 -1.931,-7.293 -5.611,-8.219 l -2.13,-0.536 3.18,-9.426 c 0.772,-2.289 0.395,-4.81 -1.015,-6.771 -1.408,-1.963 -3.676,-3.126 -6.092,-3.126 l -12.712,0 c -2.415,0 -4.684,1.163 -6.092,3.125 -1.409,1.963 -1.787,4.483 -1.015,6.771 l 1.273,3.776 -6.902,-1.736 c -3.038,-3.842 -8.611,-7.94 -17.032,-7.94 -6.53,0 -11.355,3.653 -15.613,6.876 -4.605,3.487 -8.583,6.498 -15.044,6.498 -6.704,0 -10.482,-0.763 -12.253,-2.473 -2.185,-2.11 -3.292,-7.339 -3.292,-15.541 0,-11.77 0.062,-19.475 0.113,-23.867 0.071,-6.277 -3.217,-12.197 -8.583,-15.45 L 44.366,24.73 c -1.792,-1.085 -3.957,-1.373 -5.969,-0.791 -2.013,0.581 -3.69,1.978 -4.627,3.851 -1.484,2.968 -3.818,12.199 6.53,33.759 4.204,8.76 8.021,13.822 10.807,17.519 3.818,5.065 5.105,6.771 4.917,14.653 -0.332,13.957 -18.748,16.432 -22.437,16.786 -10.665,1.026 -15.806,1.64 -16.02,1.666 -2.336,0.28 -4.405,1.64 -5.588,3.673 -1.184,2.034 -1.345,4.505 -0.435,6.674 0.184,0.438 1.919,4.391 6.103,9.292 l -12.4,3.904 c -3.95,1.243 -6.145,5.455 -4.9,9.406 1.008,3.201 3.964,5.249 7.151,5.249 0.746,0 1.505,-0.112 2.255,-0.349 l 21.608,-6.804 c 8.894,5.239 21.359,9.413 38.539,9.413 28.077,0 37.173,-2.624 46.803,-5.402 4.692,-1.354 9.124,-2.634 16.274,-3.738 13.968,-2.159 22.61,-2.628 28.329,-2.938 3.665,-0.199 6.313,-0.343 8.68,-0.836 3.444,-0.718 6.02,-1.709 7.713,-2.505 l 5.028,0.032 c -6.092,9.582 -12.807,23.191 -12.807,36.644 0,22.575 18.29,28.54 27.962,28.54 l 0.113,-0.001 0.113,0.001 c 1.794,0 8.137,-0.269 14.443,-3.718 8.719,-4.768 13.52,-13.583 13.52,-24.822 0.001,-13.94 -7.207,-28.042 -13.463,-37.662 z m -48.038,-7.216 -0.666,0 c -4.143,0 -7.5,-3.357 -7.5,-7.5 0,-4.143 3.357,-7.5 7.5,-7.5 l 0.666,0 c 4.143,0 7.5,3.357 7.5,7.5 0,4.143 -3.357,7.5 -7.5,7.5 z"
         inkscape:connector-curvature="0"
         style="fill:#ffffff;fill-opacity:1" />
      <g
         id="g12742"
         style="fill:#ffffff;fill-opacity:1" />
      <g
         id="g12744"
         style="fill:#ffffff;fill-opacity:1" />
      <g
         id="g12746"
         style="fill:#ffffff;fill-opacity:1" />
      <g
         id="g12748"
         style="fill:#ffffff;fill-opacity:1" />
      <g
         id="g12750"
         style="fill:#ffffff;fill-opacity:1" />
      <g
         id="g12752"
         style="fill:#ffffff;fill-opacity:1" />
      <g
         id="g12754"
         style="fill:#ffffff;fill-opacity:1" />
      <g
         id="g12756"
         style="fill:#ffffff;fill-opacity:1" />
      <g
         id="g12758"
         style="fill:#ffffff;fill-opacity:1" />
      <g
         id="g12760"
         style="fill:#ffffff;fill-opacity:1" />
      <g
         id="g12762"
         style="fill:#ffffff;fill-opacity:1" />
      <g
         id="g12764"
         style="fill:#ffffff;fill-opacity:1" />
      <g
         id="g12766"
         style="fill:#ffffff;fill-opacity:1" />
      <g
         id="g12768"
         style="fill:#ffffff;fill-opacity:1" />
      <g
         id="g12770"
         style="fill:#ffffff;fill-opacity:1" />
    </g>
  </g>
</svg>
