<?xml version="1.0" encoding="UTF-8" standalone="no"?>
<!-- Created with Inkscape (http://www.inkscape.org/) -->

<svg
   xmlns:dc="http://purl.org/dc/elements/1.1/"
   xmlns:cc="http://creativecommons.org/ns#"
   xmlns:rdf="http://www.w3.org/1999/02/22-rdf-syntax-ns#"
   xmlns:svg="http://www.w3.org/2000/svg"
   xmlns="http://www.w3.org/2000/svg"
   xmlns:sodipodi="http://sodipodi.sourceforge.net/DTD/sodipodi-0.dtd"
   xmlns:inkscape="http://www.inkscape.org/namespaces/inkscape"
   width="35.985092mm"
   height="35.985447mm"
   viewBox="0 0 127.50623 127.5075"
   id="svg11407"
   version="1.1"
   inkscape:version="0.91 r13725"
   sodipodi:docname="specialists.svg">
  <defs
     id="defs11409" />
  <sodipodi:namedview
     id="base"
     pagecolor="#ffffff"
     bordercolor="#666666"
     borderopacity="1.0"
     inkscape:pageopacity="0.0"
     inkscape:pageshadow="2"
     inkscape:zoom="0.98994949"
     inkscape:cx="-152.31356"
     inkscape:cy="-29.329854"
     inkscape:document-units="px"
     inkscape:current-layer="layer1"
     showgrid="false"
     fit-margin-top="0"
     fit-margin-left="0"
     fit-margin-right="0"
     fit-margin-bottom="0"
     inkscape:window-width="1366"
     inkscape:window-height="706"
     inkscape:window-x="1912"
     inkscape:window-y="-8"
     inkscape:window-maximized="1" />
  <metadata
     id="metadata11412">
    <rdf:RDF>
      <cc:Work
         rdf:about="">
        <dc:format>image/svg+xml</dc:format>
        <dc:type
           rdf:resource="http://purl.org/dc/dcmitype/StillImage" />
        <dc:title></dc:title>
      </cc:Work>
    </rdf:RDF>
  </metadata>
  <g
     inkscape:label="Layer 1"
     inkscape:groupmode="layer"
     id="layer1"
     transform="translate(-50.532592,-320.03702)">
    <g
       transform="matrix(1.25,0,0,-1.25,178.03884,383.79077)"
       id="g5208"
       style="fill:#07ffd4;fill-opacity:1">
      <path
         inkscape:connector-curvature="0"
         id="path5210"
         style="fill:#07ffd4;fill-opacity:1;fill-rule:nonzero;stroke:none"
         d="m 0,0 c 0,-28.168 -22.835,-51.003 -51.003,-51.003 -28.168,0 -51.002,22.835 -51.002,51.003 0,28.168 22.834,51.003 51.002,51.003 C -22.835,51.003 0,28.168 0,0" />
    </g>
    <g
       id="g12012"
       transform="matrix(0.18902335,0,0,0.19828388,90.670967,394.23244)">
      <path
         id="path11974"
         d="m 153.074,170.291 c -7.045,13.19 -14.576,23.687 -20.284,28.58 -6.012,5.153 -12.752,7.767 -20.032,7.767 -14.676,0 -31.813,-10.481 -52.389,-32.042 C 41.101,154.407 35.11,131.21 33.477,115.305 31.609,97.12 34.72,79.16 41.402,69.551 c 0.078,-0.112 0.161,-0.22 0.25,-0.323 0.217,-0.253 0.836,-0.968 1.696,-1.939 13.403,3.252 34.674,10.711 48.272,26.948 12.1,14.447 17.531,28.163 21.895,39.185 3.657,9.237 6.815,17.214 12.677,23.075 7.855,7.853 19.107,11.848 26.882,13.794 z M 97.754,89.099 c 10.469,12.5 16.193,24.306 20.422,34.482 6.04,-1.26 20.358,-5.36 31.97,-17.362 9.172,-9.479 14.138,-25.945 16.646,-37.592 -4.027,-6.218 -9.3,-9.001 -14.394,-11.05 -1.104,-0.443 -2.057,-0.827 -2.695,-1.199 -1.93,-1.126 -3.262,-10.092 -0.746,-23.999 1.158,-6.4 2.194,-8.687 2.272,-8.854 0.573,-1.092 0.611,-2.391 0.098,-3.517 -0.526,-1.155 -1.569,-1.991 -2.81,-2.255 l -11,-2.334 c -2.126,-0.453 -4.217,0.874 -4.721,2.984 -2.63,11.017 -7.923,29.937 -10.933,33.807 -0.286,0.368 -0.844,0.985 -1.366,0.985 -1.133,0 -3.331,-2.222 -3.481,-5.387 -0.264,-5.531 1.829,-33.267 2.658,-43.486 0.09,-1.113 -0.289,-2.214 -1.046,-3.035 C 117.871,0.466 116.804,0 115.687,0 l -9.333,0 c -2.103,0 -3.847,1.629 -3.991,3.727 -0.021,0.303 -2.092,30.35 -3.978,40.097 -0.784,4.05 -2.414,12.477 -4.98,12.477 -0.345,0 -0.957,-0.093 -1.915,-0.534 C 86.85,53.628 83.272,37.528 81.925,31.466 80.05,23.031 80.02,14.749 80.02,14.668 c 0,-1.241 -0.576,-2.412 -1.56,-3.17 -0.984,-0.757 -2.263,-1.014 -3.463,-0.697 l -11.333,3 c -2.12,0.562 -3.393,2.725 -2.854,4.851 0.026,0.102 2.607,10.313 4.342,19.591 1.056,5.65 -1.338,11.347 -6.101,14.512 -1.081,0.719 -2.116,1.417 -3.02,2.045 -1.806,1.254 -4.161,3.459 -6.444,5.778 14.412,3.978 34.459,12.154 48.167,28.521 z m 58.141,22.682 c -12.347,12.761 -27.064,17.6 -34.683,19.344 3.345,8.442 6.066,15.142 10.637,19.713 7.15,7.149 18.178,10.586 24.956,12.109 9.455,-19.578 17.164,-43.386 16.882,-63.671 -0.1,-7.208 -0.775,-13.091 -1.871,-17.949 -3.199,10.693 -8.209,22.484 -15.921,30.454 z"
         inkscape:connector-curvature="0"
         style="fill:#ffffff;fill-opacity:1" />
      <g
         id="g11976" />
      <g
         id="g11978" />
      <g
         id="g11980" />
      <g
         id="g11982" />
      <g
         id="g11984" />
      <g
         id="g11986" />
      <g
         id="g11988" />
      <g
         id="g11990" />
      <g
         id="g11992" />
      <g
         id="g11994" />
      <g
         id="g11996" />
      <g
         id="g11998" />
      <g
         id="g12000" />
      <g
         id="g12002" />
      <g
         id="g12004" />
    </g>
    <g
       id="g12069"
       transform="matrix(0.21508321,0,0,0.22418427,61.705717,344.46909)"
       style="fill:#ffffff;fill-opacity:1">
      <path
         id="path12031"
         d="m 189.037,74.668 c -7.97,-32.176 -34.188,-32.853 -48.274,-33.216 -2.92,-0.075 -5.442,-0.14 -7.13,-0.438 -8.423,-1.487 -13.116,-7.29 -14.345,-17.741 l -1.306,-11.096 c -0.23,-1.956 -1.849,-3.453 -3.816,-3.53 L 97.522,7.994 c -1.102,-0.05 -2.163,0.366 -2.949,1.133 -0.786,0.766 -1.223,1.822 -1.208,2.919 0.014,1.013 0.457,25.028 10.605,43.634 5.42,9.936 15.738,34.799 -5.449,51.042 -9.796,7.51 -18.104,10.859 -26.936,10.86 -5.97,0 -12.088,-1.415 -20.025,-3.697 -3.727,-1.072 -7.666,-1.615 -11.705,-1.615 -15.869,0 -29.768,8.159 -34.586,20.302 -5.796,14.609 -5.345,20.325 -5.196,21.322 0.293,1.958 1.976,3.408 3.956,3.408 l 16.971,0 c 2.209,0 4,-1.791 4,-4 0,-0.41 0.17,-10.033 14.928,-10.033 6.74,0 8.533,3.229 11.946,10.532 3.37,7.212 7.564,16.188 20.119,21.465 10.001,4.204 22.022,8.5 35.35,8.501 10e-4,0 10e-4,0 0.002,0 15.681,0 30.543,-5.967 45.435,-18.24 33.293,-27.441 44.814,-56.312 36.257,-90.859 z"
         inkscape:connector-curvature="0"
         style="fill:#ffffff;fill-opacity:1" />
      <g
         id="g12033"
         style="fill:#ffffff;fill-opacity:1" />
      <g
         id="g12035"
         style="fill:#ffffff;fill-opacity:1" />
      <g
         id="g12037"
         style="fill:#ffffff;fill-opacity:1" />
      <g
         id="g12039"
         style="fill:#ffffff;fill-opacity:1" />
      <g
         id="g12041"
         style="fill:#ffffff;fill-opacity:1" />
      <g
         id="g12043"
         style="fill:#ffffff;fill-opacity:1" />
      <g
         id="g12045"
         style="fill:#ffffff;fill-opacity:1" />
      <g
         id="g12047"
         style="fill:#ffffff;fill-opacity:1" />
      <g
         id="g12049"
         style="fill:#ffffff;fill-opacity:1" />
      <g
         id="g12051"
         style="fill:#ffffff;fill-opacity:1" />
      <g
         id="g12053"
         style="fill:#ffffff;fill-opacity:1" />
      <g
         id="g12055"
         style="fill:#ffffff;fill-opacity:1" />
      <g
         id="g12057"
         style="fill:#ffffff;fill-opacity:1" />
      <g
         id="g12059"
         style="fill:#ffffff;fill-opacity:1" />
      <g
         id="g12061"
         style="fill:#ffffff;fill-opacity:1" />
    </g>
    <g
       id="g12187"
       transform="matrix(0.10129844,0,0,0.08366879,120.94265,348.47826)"
       style="fill:#ffffff;fill-opacity:1">
      <g
         id="g12145"
         style="fill:#ffffff;fill-opacity:1">
        <g
           id="g12147"
           style="fill:#ffffff;fill-opacity:1">
          <path
             id="path12149"
             d="m 114.166,276.635 c -2.334,43.284 -4.727,112.757 0.453,157.343 2.499,21.544 23.692,26.542 36.803,9.286 15.13,-19.913 35.548,-52.578 58.478,-104.795 8.714,-19.841 21.335,-19.832 30.152,-0.027 23.688,53.21 45.448,86.135 61.599,105.932 13.701,16.804 35.397,11.161 37.906,-10.379 5.173,-44.595 2.772,-114.067 0.448,-157.359 -1.162,-21.652 6.849,-54.203 14.551,-74.466 20.094,-52.794 19.536,-106.01 19.076,-118.794 0.031,-0.974 0.144,-1.927 0.144,-2.909 C 373.774,36.022 337.744,0 293.31,0 265.935,0 241.779,13.711 227.234,34.61 212.694,13.703 188.538,0 161.157,0 116.723,0 80.692,36.022 80.692,80.465 c 0,0 -4.105,61.144 18.927,121.704 7.7,20.255 15.701,52.813 14.547,74.466 z M 127.861,53.373 c 13.072,-14.148 32.188,-21.319 56.839,-21.319 4.332,0 7.851,3.514 7.851,7.848 0,4.332 -3.519,7.851 -7.851,7.851 -20.089,0 -35.327,5.47 -45.296,16.272 -15.34,16.609 -13.621,40.429 -13.605,40.675 0.353,4.316 -2.875,8.099 -7.198,8.444 -0.216,0.016 -0.427,0.026 -0.637,0.026 -4.052,0 -7.49,-3.12 -7.821,-7.225 -0.101,-1.261 -2.221,-30.976 17.718,-52.572 z"
             inkscape:connector-curvature="0"
             style="fill:#ffffff;fill-opacity:1" />
        </g>
      </g>
      <g
         id="g12151"
         style="fill:#ffffff;fill-opacity:1" />
      <g
         id="g12153"
         style="fill:#ffffff;fill-opacity:1" />
      <g
         id="g12155"
         style="fill:#ffffff;fill-opacity:1" />
      <g
         id="g12157"
         style="fill:#ffffff;fill-opacity:1" />
      <g
         id="g12159"
         style="fill:#ffffff;fill-opacity:1" />
      <g
         id="g12161"
         style="fill:#ffffff;fill-opacity:1" />
      <g
         id="g12163"
         style="fill:#ffffff;fill-opacity:1" />
      <g
         id="g12165"
         style="fill:#ffffff;fill-opacity:1" />
      <g
         id="g12167"
         style="fill:#ffffff;fill-opacity:1" />
      <g
         id="g12169"
         style="fill:#ffffff;fill-opacity:1" />
      <g
         id="g12171"
         style="fill:#ffffff;fill-opacity:1" />
      <g
         id="g12173"
         style="fill:#ffffff;fill-opacity:1" />
      <g
         id="g12175"
         style="fill:#ffffff;fill-opacity:1" />
      <g
         id="g12177"
         style="fill:#ffffff;fill-opacity:1" />
      <g
         id="g12179"
         style="fill:#ffffff;fill-opacity:1" />
    </g>
  </g>
</svg>
