<?xml version="1.0" encoding="UTF-8" standalone="no"?>
<!-- Created with Inkscape (http://www.inkscape.org/) -->

<svg
   xmlns:dc="http://purl.org/dc/elements/1.1/"
   xmlns:cc="http://creativecommons.org/ns#"
   xmlns:rdf="http://www.w3.org/1999/02/22-rdf-syntax-ns#"
   xmlns:svg="http://www.w3.org/2000/svg"
   xmlns="http://www.w3.org/2000/svg"
   xmlns:sodipodi="http://sodipodi.sourceforge.net/DTD/sodipodi-0.dtd"
   xmlns:inkscape="http://www.inkscape.org/namespaces/inkscape"
   width="35.985096mm"
   height="35.985451mm"
   viewBox="0 0 127.50625 127.5075"
   id="svg6970"
   version="1.1"
   inkscape:version="0.91 r13725"
   sodipodi:docname="training.svg">
  <defs
     id="defs6972" />
  <sodipodi:namedview
     id="base"
     pagecolor="#ffffff"
     bordercolor="#666666"
     borderopacity="1.0"
     inkscape:pageopacity="0.0"
     inkscape:pageshadow="2"
     inkscape:zoom="1.4"
     inkscape:cx="-7.4347586"
     inkscape:cy="24.795645"
     inkscape:document-units="px"
     inkscape:current-layer="layer1"
     showgrid="false"
     inkscape:window-width="721"
     inkscape:window-height="690"
     inkscape:window-x="629"
     inkscape:window-y="0"
     inkscape:window-maximized="0"
     fit-margin-top="0"
     fit-margin-left="0"
     fit-margin-right="0"
     fit-margin-bottom="0" />
  <metadata
     id="metadata6975">
    <rdf:RDF>
      <cc:Work
         rdf:about="">
        <dc:format>image/svg+xml</dc:format>
        <dc:type
           rdf:resource="http://purl.org/dc/dcmitype/StillImage" />
        <dc:title></dc:title>
      </cc:Work>
    </rdf:RDF>
  </metadata>
  <g
     inkscape:label="Layer 1"
     inkscape:groupmode="layer"
     id="layer1"
     transform="translate(-373.38973,-394.32274)">
    <g
       transform="matrix(1.25,0,0,-1.25,500.89598,458.07649)"
       id="g5256">
      <path
         inkscape:connector-curvature="0"
         id="path5258"
         style="fill:#f2aa00;fill-opacity:1;fill-rule:nonzero;stroke:none"
         d="m 0,0 c 0,-28.168 -22.835,-51.003 -51.003,-51.003 -28.168,0 -51.002,22.835 -51.002,51.003 0,28.168 22.834,51.003 51.002,51.003 C -22.835,51.003 0,28.168 0,0" />
    </g>
    <g
       transform="matrix(1.25,0,0,-1.25,442.98986,468.14237)"
       id="g5264">
      <path
         inkscape:connector-curvature="0"
         id="path5266"
         style="fill:#ffffff;fill-opacity:1;fill-rule:nonzero;stroke:none"
         d="m 0,0 14.169,-14.169 1.085,8.866 8.867,1.086 L 9.952,9.952 0,0 Z M 14.912,-16.327 -1.414,0 9.952,11.366 26.278,-4.96 16.152,-6.2 14.912,-16.327 Z" />
    </g>
    <g
       transform="matrix(1.25,0,0,-1.25,398.45061,473.41399)"
       id="g5272">
      <path
         inkscape:connector-curvature="0"
         id="path5274"
         style="fill:#ffffff;fill-opacity:1;fill-rule:nonzero;stroke:none"
         d="M 0,0 8.867,-1.085 9.952,-9.952 24.122,4.217 14.169,14.169 0,0 Z M 9.209,-12.109 7.97,-1.983 -2.157,-0.743 14.169,15.583 25.536,4.217 9.209,-12.109 Z" />
    </g>
    <g
       transform="matrix(1.25,0,0,-1.25,466.76386,447.93437)"
       id="g5276">
      <path
         inkscape:connector-curvature="0"
         id="path5278"
         style="fill:#ed4b00;fill-opacity:1;fill-rule:nonzero;stroke:none"
         d="m 0,0 -4.3,-3.465 2.862,-4.722 -5.228,-1.778 1.067,-5.418 -5.521,0.115 -0.842,-5.458 -5.149,1.993 -2.664,-4.836 -4.154,3.64 -4.155,-3.64 -2.663,4.837 -5.15,-1.993 -0.842,5.458 -5.521,-0.114 1.068,5.417 -5.228,1.778 2.862,4.722 -4.299,3.464 4.299,3.465 -2.862,4.722 5.229,1.778 -1.067,5.418 5.52,-0.115 0.842,5.458 5.149,-1.993 2.664,4.836 4.154,-3.64 4.155,3.64 2.664,-4.837 5.15,1.993 0.841,-5.458 5.521,0.114 L -6.665,9.964 -1.437,8.186 -4.3,3.464 0,0 Z" />
    </g>
    <g
       transform="matrix(1.25,0,0,-1.25,474.40791,473.90299)"
       id="g5260">
      <path
         inkscape:connector-curvature="0"
         id="path5262"
         style="fill:#ed4b00;fill-opacity:1;fill-rule:nonzero;stroke:none"
         d="M 0,0 -9.497,-1.162 -10.659,-10.659 -25.907,4.589 -15.248,15.248 0,0 Z" />
    </g>
    <g
       transform="matrix(1.25,0,0,-1.25,455.80353,447.95874)"
       id="g5284">
      <path
         inkscape:connector-curvature="0"
         id="path5286"
         style="fill:#ed4b00;fill-opacity:1;fill-rule:nonzero;stroke:none"
         d="m 0,0 c 0,-8.409 -6.817,-15.226 -15.226,-15.226 -8.409,0 -15.226,6.817 -15.226,15.226 0,8.409 6.817,15.226 15.226,15.226 C -6.817,15.226 0,8.409 0,0" />
    </g>
    <g
       transform="matrix(1.25,0,0,-1.25,436.85273,429.52724)"
       id="g5288">
      <path
         inkscape:connector-curvature="0"
         id="path5290"
         style="fill:#ffffff;fill-opacity:1;fill-rule:nonzero;stroke:none"
         d="m 0,0 c -8.12,0 -14.726,-6.606 -14.726,-14.726 0,-8.12 6.606,-14.726 14.726,-14.726 8.12,0 14.726,6.606 14.726,14.726 C 14.726,-6.606 8.12,0 0,0 m 0,-30.452 c -8.671,0 -15.726,7.055 -15.726,15.726 C -15.726,-6.055 -8.671,1 0,1 8.671,1 15.726,-6.055 15.726,-14.726 15.726,-23.397 8.671,-30.452 0,-30.452" />
    </g>
    <g
       transform="matrix(1.25,0,0,-1.25,434.53461,458.66487)"
       id="g5296">
      <path
         inkscape:connector-curvature="0"
         id="path5298"
         style="fill:#ffffff;fill-opacity:1;fill-rule:nonzero;stroke:none"
         d="m 0,0 4.69,0 0,16.471 -7.83,-2.436 0,-3.247 L 0,11.765 0,0 Z m 5.69,-1 -6.69,0 0,11.406 -3.14,-0.977 0,5.342 9.83,3.058 0,-18.829 z" />
    </g>
    <g
       transform="matrix(1.25,0,0,-1.25,397.02066,473.90299)"
       id="g5268">
      <path
         inkscape:connector-curvature="0"
         id="path5270"
         style="fill:#ed4b00;fill-opacity:1;fill-rule:nonzero;stroke:none"
         d="M 0,0 9.497,-1.162 10.659,-10.659 25.907,4.589 15.248,15.248 0,0 Z" />
    </g>
    <g
       transform="matrix(1.25,0,0,-1.25,429.90341,440.68586)"
       id="g5292">
      <path
         inkscape:connector-curvature="0"
         id="path5294"
         style="fill:#ed4b00;fill-opacity:1;fill-rule:nonzero;stroke:none"
         d="m 0,0 0,-4.294 3.139,0.977 0,-11.586 5.691,0 0,13.356 0,4.294 L 0,0 Z" />
    </g>
  </g>
</svg>
