<?xml version="1.0" encoding="UTF-8" standalone="no"?>
<!-- Created with Inkscape (http://www.inkscape.org/) -->

<svg
   xmlns:dc="http://purl.org/dc/elements/1.1/"
   xmlns:cc="http://creativecommons.org/ns#"
   xmlns:rdf="http://www.w3.org/1999/02/22-rdf-syntax-ns#"
   xmlns:svg="http://www.w3.org/2000/svg"
   xmlns="http://www.w3.org/2000/svg"
   xmlns:sodipodi="http://sodipodi.sourceforge.net/DTD/sodipodi-0.dtd"
   xmlns:inkscape="http://www.inkscape.org/namespaces/inkscape"
   width="35.985092mm"
   height="35.985447mm"
   viewBox="0 0 127.50623 127.5075"
   id="svg11407"
   version="1.1"
   inkscape:version="0.91 r13725"
   sodipodi:docname="transporting.svg">
  <defs
     id="defs11409" />
  <sodipodi:namedview
     id="base"
     pagecolor="#ffffff"
     bordercolor="#666666"
     borderopacity="1.0"
     inkscape:pageopacity="0.0"
     inkscape:pageshadow="2"
     inkscape:zoom="1.979899"
     inkscape:cx="273.88073"
     inkscape:cy="-66.826628"
     inkscape:document-units="px"
     inkscape:current-layer="layer1"
     showgrid="false"
     fit-margin-top="0"
     fit-margin-left="0"
     fit-margin-right="0"
     fit-margin-bottom="0"
     inkscape:window-width="1920"
     inkscape:window-height="1058"
     inkscape:window-x="-8"
     inkscape:window-y="-8"
     inkscape:window-maximized="1" />
  <metadata
     id="metadata11412">
    <rdf:RDF>
      <cc:Work
         rdf:about="">
        <dc:format>image/svg+xml</dc:format>
        <dc:type
           rdf:resource="http://purl.org/dc/dcmitype/StillImage" />
        <dc:title></dc:title>
      </cc:Work>
    </rdf:RDF>
  </metadata>
  <g
     inkscape:label="Layer 1"
     inkscape:groupmode="layer"
     id="layer1"
     transform="translate(-50.532592,-320.03702)">
    <g
       transform="matrix(1.25,0,0,-1.25,178.03884,383.79077)"
       id="g5208"
       style="fill:#b141d4;fill-opacity:1">
      <path
         inkscape:connector-curvature="0"
         id="path5210"
         style="fill:#b141d4;fill-opacity:1;fill-rule:nonzero;stroke:none"
         d="m 0,0 c 0,-28.168 -22.835,-51.003 -51.003,-51.003 -28.168,0 -51.002,22.835 -51.002,51.003 0,28.168 22.834,51.003 51.002,51.003 C -22.835,51.003 0,28.168 0,0" />
    </g>
    <g
       id="g12466"
       transform="matrix(0.22801178,0,0,0.24889633,45.915104,252.30828)"
       style="fill:#ffffff;fill-opacity:1">
      <g
         id="g12422"
         style="fill:#ffffff;fill-opacity:1">
        <g
           id="g12508"
           style="fill:#ffffff;fill-opacity:1">
          <g
             transform="matrix(0.81689839,0,0,1.0073477,129.03149,283.53119)"
             id="g12394"
             style="fill:#ffffff;fill-opacity:1">
            <g
               id="g12338"
               style="fill:#ffffff;fill-opacity:1">
              <g
                 id="g12340"
                 style="fill:#ffffff;fill-opacity:1">
                <path
                   inkscape:connector-curvature="0"
                   d="m 69.539,299.125 c 19.694,0 35.656,15.962 35.656,35.654 0,19.696 -15.961,35.658 -35.656,35.658 -19.69,0 -35.656,-15.962 -35.656,-35.658 0,-19.692 15.966,-35.654 35.656,-35.654 z"
                   id="path12344"
                   style="fill:#ffffff;fill-opacity:1" />
                <path
                   inkscape:connector-curvature="0"
                   d="m 320.594,299.125 c 19.693,0 35.654,15.962 35.654,35.654 0,19.696 -15.961,35.658 -35.654,35.658 -19.688,0 -35.658,-15.962 -35.658,-35.658 0,-19.692 15.969,-35.654 35.658,-35.654 z"
                   id="path12346"
                   style="fill:#ffffff;fill-opacity:1" />
                <path
                   sodipodi:nodetypes="ccscsccssscsccccscssccsssccssscccccsscscc"
                   inkscape:connector-curvature="0"
                   d="m 375.14,102.627 c -93.64567,1.57547 -185.97924,0 -248.566,0 -7.276,0 -13.17,10.223 -13.17,22.822 l 0,22.828 -15.341,0 c -8.472,0 -24.533,10.628 -35.886,23.742 L 20.556,220.106 C 9.201,233.223 0,257.901 0,275.246 l 0,14.21 c 0,17.344 6.51,31.402 14.541,31.402 l 14.539,0 c 5.446,-17.349 21.664,-29.943 40.823,-29.943 19.154,0 35.364,12.595 40.82,29.943 l 2.687,0 21.396,0 145.325,0 c 5.459,-17.349 21.673,-29.943 40.832,-29.943 19.155,0 35.369,12.595 40.823,29.943 l 22.378,0 c 12.371,0 22.386,-14.059 22.386,-31.402 l 0,-155.442 c -0.009,-17.326 -14.071,-31.387 -31.41,-31.387 z M 114.616,213.959 c 0,8.66 -7.033,15.701 -15.701,15.701 l -35.325,0 c -8.668,0 -10.864,-5.102 -4.891,-11.393 l 24.509,-25.848 c 5.965,-6.294 15.417,-11.389 21.109,-11.389 5.692,0 10.299,7.035 10.299,15.701 z m 225.651,7.07 0.017,0 -54.51,53.479 -56.172,-53.479 0.016,0 c -8.548,-7.27 -14.006,-18.086 -14.006,-30.192 0,-21.88 17.737,-39.616 39.617,-39.616 11.839,0 22.442,5.228 29.699,13.473 7.27,-8.245 17.865,-13.473 29.707,-13.473 21.889,0 39.613,17.735 39.613,39.616 0.009,12.115 -5.441,22.93 -13.981,30.192 z"
                   id="path12356"
                   style="fill:#ffffff;fill-opacity:1" />
              </g>
            </g>
            <g
               id="g12358"
               style="fill:#ffffff;fill-opacity:1" />
            <g
               id="g12360"
               style="fill:#ffffff;fill-opacity:1" />
            <g
               id="g12362"
               style="fill:#ffffff;fill-opacity:1" />
            <g
               id="g12364"
               style="fill:#ffffff;fill-opacity:1" />
            <g
               id="g12366"
               style="fill:#ffffff;fill-opacity:1" />
            <g
               id="g12368"
               style="fill:#ffffff;fill-opacity:1" />
            <g
               id="g12370"
               style="fill:#ffffff;fill-opacity:1" />
            <g
               id="g12372"
               style="fill:#ffffff;fill-opacity:1" />
            <g
               id="g12374"
               style="fill:#ffffff;fill-opacity:1" />
            <g
               id="g12376"
               style="fill:#ffffff;fill-opacity:1" />
            <g
               id="g12378"
               style="fill:#ffffff;fill-opacity:1" />
            <g
               id="g12380"
               style="fill:#ffffff;fill-opacity:1" />
            <g
               id="g12382"
               style="fill:#ffffff;fill-opacity:1" />
            <g
               id="g12384"
               style="fill:#ffffff;fill-opacity:1" />
            <g
               id="g12386"
               style="fill:#ffffff;fill-opacity:1" />
          </g>
          <path
             inkscape:transform-center-y="63.625143"
             inkscape:transform-center-x="69.076161"
             sodipodi:nodetypes="cscscccccccccsssscccsssssccscsssccc"
             inkscape:connector-curvature="0"
             d="m 319.5389,459.48403 c 0.4121,-0.26808 0.90797,-0.3816 1.39924,-0.37865 l 6.21147,0.0374 c 0.042,-6.23189 5.11246,-11.25389 11.3247,-11.21649 5.00662,0.0301 9.22327,3.33985 10.65122,7.8844 0.0365,0.0309 0.0791,0.0518 0.11404,0.0858 5.15958,4.32086 6.69878,22.28549 3.95062,18.07023 4.9837,8.84052 15.10591,11.28754 24.31311,15.49567 6.00071,2.74482 10.21909,8.17841 11.51896,14.49425 1.67116,-3.20066 1.21274,-7.62516 1.18179,-7.90741 -0.2188,-1.88529 1.12446,-3.59562 3.00479,-3.8219 1.875,-0.22938 3.59341,1.12152 3.81754,3.00991 0.61031,5.1275 -0.52948,14.96666 -8.59777,18.01612 -2.04306,4.98659 -6.94442,8.49892 -12.63866,8.46463 l -18.74293,-0.11287 c -1.79393,-0.0108 -3.38721,-1.33566 -3.54628,-3.12785 -0.1825,-2.05599 1.43589,-3.77693 3.44449,-3.76483 l 7.10691,0.0428 c -0.40767,-0.7283 -0.74708,-1.49758 -1.01749,-2.29939 l -14.6158,-6.7624 -0.0837,12.41394 c -0.0128,1.90306 -1.56119,3.43663 -3.45825,3.42521 l -6.74935,-0.0406 c -1.79392,-0.0108 -3.3872,-1.33565 -3.54628,-3.12784 -0.1825,-2.056 1.43589,-3.77693 3.4445,-3.76483 l 3.46254,0.0208 0.0845,-12.53658 c -3.92819,-3.02973 -6.30227,-7.76699 -6.26787,-12.87298 l 0.008,-1.15962 0.061,-9.05772 c 0.0196,-2.90939 -2.31539,-5.2811 -5.21484,-5.29857 l -2.94225,-0.0177 c -2.71837,-0.0164 -5.14195,-1.7172 -6.08896,-4.27217 l -2.5814,-6.96508 c -0.39171,-1.05856 -0.0296,-2.29115 0.99255,-2.95565 z"
             id="path12428"
             style="fill:#ffffff;fill-opacity:1" />
        </g>
      </g>
      <g
         id="g12430"
         style="fill:#ffffff;fill-opacity:1" />
      <g
         id="g12432"
         style="fill:#ffffff;fill-opacity:1" />
      <g
         id="g12434"
         style="fill:#ffffff;fill-opacity:1" />
      <g
         id="g12436"
         style="fill:#ffffff;fill-opacity:1" />
      <g
         id="g12438"
         style="fill:#ffffff;fill-opacity:1" />
      <g
         id="g12440"
         style="fill:#ffffff;fill-opacity:1" />
      <g
         id="g12442"
         style="fill:#ffffff;fill-opacity:1" />
      <g
         id="g12444"
         style="fill:#ffffff;fill-opacity:1" />
      <g
         id="g12446"
         style="fill:#ffffff;fill-opacity:1" />
      <g
         id="g12448"
         style="fill:#ffffff;fill-opacity:1" />
      <g
         id="g12450"
         style="fill:#ffffff;fill-opacity:1" />
      <g
         id="g12452"
         style="fill:#ffffff;fill-opacity:1" />
      <g
         id="g12454"
         style="fill:#ffffff;fill-opacity:1" />
      <g
         id="g12456"
         style="fill:#ffffff;fill-opacity:1" />
      <g
         id="g12458"
         style="fill:#ffffff;fill-opacity:1" />
    </g>
  </g>
</svg>
