<?xml version="1.0" encoding="UTF-8" standalone="no"?>
<!-- Created with Inkscape (http://www.inkscape.org/) -->

<svg
   xmlns:dc="http://purl.org/dc/elements/1.1/"
   xmlns:cc="http://creativecommons.org/ns#"
   xmlns:rdf="http://www.w3.org/1999/02/22-rdf-syntax-ns#"
   xmlns:svg="http://www.w3.org/2000/svg"
   xmlns="http://www.w3.org/2000/svg"
   xmlns:sodipodi="http://sodipodi.sourceforge.net/DTD/sodipodi-0.dtd"
   xmlns:inkscape="http://www.inkscape.org/namespaces/inkscape"
   width="35.985096mm"
   height="35.985451mm"
   viewBox="0 0 127.50625 127.5075"
   id="svg9439"
   version="1.1"
   inkscape:version="0.91 r13725"
   sodipodi:docname="вакцинация.svg">
  <defs
     id="defs9441" />
  <sodipodi:namedview
     id="base"
     pagecolor="#ffffff"
     bordercolor="#666666"
     borderopacity="1.0"
     inkscape:pageopacity="0.0"
     inkscape:pageshadow="2"
     inkscape:zoom="0.98994949"
     inkscape:cx="64.992632"
     inkscape:cy="7.9544852"
     inkscape:document-units="px"
     inkscape:current-layer="layer1"
     showgrid="false"
     fit-margin-top="0"
     fit-margin-left="0"
     fit-margin-right="0"
     fit-margin-bottom="0"
     inkscape:window-width="1366"
     inkscape:window-height="706"
     inkscape:window-x="-8"
     inkscape:window-y="-8"
     inkscape:window-maximized="1" />
  <metadata
     id="metadata9444">
    <rdf:RDF>
      <cc:Work
         rdf:about="">
        <dc:format>image/svg+xml</dc:format>
        <dc:type
           rdf:resource="http://purl.org/dc/dcmitype/StillImage" />
        <dc:title></dc:title>
      </cc:Work>
    </rdf:RDF>
  </metadata>
  <g
     inkscape:label="Layer 1"
     inkscape:groupmode="layer"
     id="layer1"
     transform="translate(-73.38973,-51.4656)">
    <g
       transform="matrix(1.25,0,0,-1.25,200.89598,115.21935)"
       id="g5168">
      <path
         inkscape:connector-curvature="0"
         id="path5170"
         style="fill:#a3d8d6;fill-opacity:1;fill-rule:nonzero;stroke:none"
         d="m 0,0 c 0,-28.168 -22.835,-51.003 -51.003,-51.003 -28.168,0 -51.002,22.835 -51.002,51.003 0,28.168 22.834,51.003 51.002,51.003 C -22.835,51.003 0,28.168 0,0" />
    </g>
    <g
       id="g10091"
       transform="matrix(0.23045421,0,0,0.20449219,91.877508,74.307657)"
       inkscape:transform-center-x="46.090839"
       inkscape:transform-center-y="-2.3370524"
       style="fill:#ffffff;fill-opacity:1;stroke:#ffffff;stroke-width:6.98803234;stroke-miterlimit:4;stroke-dasharray:none;stroke-opacity:1">
      <g
         id="g10048"
         style="fill:#ffffff;fill-opacity:1;stroke:#ffffff;stroke-width:6.98803234;stroke-miterlimit:4;stroke-dasharray:none;stroke-opacity:1">
        <g
           id="Layer_5_42_"
           style="fill:#ffffff;fill-opacity:1;stroke:#ffffff;stroke-width:6.98803234;stroke-miterlimit:4;stroke-dasharray:none;stroke-opacity:1">
          <g
             id="g10051"
             style="fill:#ffffff;fill-opacity:1;stroke:#ffffff;stroke-width:6.98803234;stroke-miterlimit:4;stroke-dasharray:none;stroke-opacity:1">
            <path
               id="path10053"
               d="m 372.237,2.05 c -2.732,-2.733 -7.165,-2.733 -9.899,0 l -35.971,35.971 c -0.875,0.875 -1.531,0.367 -1.851,0.107 C 312.061,27.997 297.58,22.683 282.21,22.683 c -20.41,0 -41.367,9.28 -59.379,26.202 -0.238,0.184 -0.471,0.377 -0.688,0.596 -0.116,0.116 -0.22,0.238 -0.325,0.36 -0.58,0.558 -1.157,1.123 -1.73,1.696 l -30.261,30.261 c -0.002,0.002 -0.004,0.003 -0.006,0.005 -0.002,0.002 -0.004,0.004 -0.006,0.006 l -32.313,32.313 c 0,0 -0.001,0.001 -0.002,0.002 -0.001,0.001 -0.001,0.001 -0.002,0.002 l -32.312,32.312 c -0.003,0.003 -0.006,0.005 -0.009,0.008 -0.003,0.003 -0.005,0.006 -0.008,0.009 l -20.27,20.269 0,0 c 0,0 -3.866,3.866 -5.154,5.155 -2.667,2.667 -4.605,-0.104 -4.605,-0.104 l -3.516,-3.517 c -4.408,-4.408 -10.27,-6.836 -16.504,-6.836 -6.234,0 -12.096,2.428 -16.505,6.836 -9.1,9.1 -9.1,23.907 0,33.007 0,0 35.358,35.356 47.143,47.144 1.407,1.408 -0.219,2.661 -0.219,2.661 l -52.063,52.062 c 0,0 -1.438,1.063 -2.688,-0.187 -4.298,-4.297 -17.189,-17.19 -17.189,-17.19 -3.718,-3.718 -8.661,-5.765 -13.918,-5.765 -5.258,0 -10.201,2.047 -13.92,5.766 -7.674,7.675 -7.674,20.162 0,27.837 l 54.935,54.934 c 3.718,3.718 8.661,5.765 13.919,5.765 5.258,0 10.201,-2.047 13.919,-5.765 7.674,-7.675 7.674,-20.163 0,-27.837 0,0 -12.911,-12.91 -17.213,-17.213 -1.438,-1.438 -0.166,-2.667 -0.166,-2.667 l 52.532,-52.53 c 0,0 0.949,-0.995 2.043,0.099 11.823,11.823 47.293,47.292 47.293,47.292 4.408,4.408 10.27,6.836 16.504,6.836 6.234,0 12.096,-2.428 16.504,-6.836 9.1,-9.101 9.1,-23.908 0,-33.007 l -4.473,-4.472 c 0,0 -1.189,-1.608 0.185,-2.982 1.455,-1.456 5.822,-5.822 5.822,-5.822 l 0,0 115.188,-115.187 c 16.22,-16.22 26.315,-35.575 28.426,-54.498 2.041,-18.296 -3.171,-35.421 -15.079,-49.986 -0.243,-0.297 -0.754,-0.873 0.184,-1.811 L 372.24,11.949 c 2.73,-2.733 2.73,-7.165 -0.003,-9.899 z m -59.386,142.251 c 0,0 -84.6,84.6 -112.8,112.8 -2.625,2.625 -4.503,0.271 -4.503,0.271 L 117.007,178.83 c 0,0 -2.237,-2.177 0.388,-4.802 2.455,-2.456 8.7,-8.701 11.427,-11.427 1.438,-1.437 2.647,0.037 2.647,0.037 l 36.241,36.241 c 1.367,1.367 3.158,2.05 4.95,2.05 1.791,0 3.583,-0.684 4.95,-2.05 2.733,-2.733 2.733,-7.166 0,-9.899 0,0 -27.567,-27.562 -36.752,-36.752 -0.854,-0.854 0.118,-1.782 0.118,-1.782 0,0 15.329,-15.328 20.438,-20.438 0.938,-0.938 1.866,-0.203 1.866,-0.203 l 20.984,20.985 c 1.367,1.367 3.159,2.05 4.95,2.05 1.791,0 3.583,-0.684 4.95,-2.05 2.733,-2.733 2.733,-7.166 0,-9.899 l -21.257,-21.256 c 0,0 -0.619,-0.502 0.1,-1.221 5.44,-5.44 15.914,-15.914 21.219,-21.219 0.594,-0.594 1.012,-0.076 1.012,-0.076 l 37.114,37.115 c 1.367,1.367 3.159,2.05 4.95,2.05 1.791,0 3.583,-0.684 4.95,-2.05 2.733,-2.733 2.733,-7.166 0,-9.899 L 205.26,87.342 c 0,0 -0.581,-0.601 0.091,-1.272 4.78,-4.781 17.969,-17.969 21.078,-21.078 0.813,-0.813 1.27,-0.055 1.27,-0.055 l 21.209,21.208 c 1.367,1.367 3.159,2.05 4.95,2.05 1.791,0 3.583,-0.684 4.95,-2.05 2.733,-2.733 2.733,-7.166 0,-9.899 L 238.365,55.802 c -1.031,-1.031 -0.276,-1.656 0.104,-1.961 13.861,-11.122 29.082,-17.16 43.74,-17.16 14.369,0 27.33,5.676 38.524,16.87 30.583,30.583 14.868,68 -7.882,90.75 z"
               inkscape:connector-curvature="0"
               style="fill:#ffffff;fill-opacity:1;stroke:#ffffff;stroke-width:6.98803234;stroke-miterlimit:4;stroke-dasharray:none;stroke-opacity:1" />
          </g>
        </g>
      </g>
      <g
         id="g10055"
         style="fill:#ffffff;fill-opacity:1;stroke:#ffffff;stroke-width:6.98803234;stroke-miterlimit:4;stroke-dasharray:none;stroke-opacity:1" />
      <g
         id="g10057"
         style="fill:#ffffff;fill-opacity:1;stroke:#ffffff;stroke-width:6.98803234;stroke-miterlimit:4;stroke-dasharray:none;stroke-opacity:1" />
      <g
         id="g10059"
         style="fill:#ffffff;fill-opacity:1;stroke:#ffffff;stroke-width:6.98803234;stroke-miterlimit:4;stroke-dasharray:none;stroke-opacity:1" />
      <g
         id="g10061"
         style="fill:#ffffff;fill-opacity:1;stroke:#ffffff;stroke-width:6.98803234;stroke-miterlimit:4;stroke-dasharray:none;stroke-opacity:1" />
      <g
         id="g10063"
         style="fill:#ffffff;fill-opacity:1;stroke:#ffffff;stroke-width:6.98803234;stroke-miterlimit:4;stroke-dasharray:none;stroke-opacity:1" />
      <g
         id="g10065"
         style="fill:#ffffff;fill-opacity:1;stroke:#ffffff;stroke-width:6.98803234;stroke-miterlimit:4;stroke-dasharray:none;stroke-opacity:1" />
      <g
         id="g10067"
         style="fill:#ffffff;fill-opacity:1;stroke:#ffffff;stroke-width:6.98803234;stroke-miterlimit:4;stroke-dasharray:none;stroke-opacity:1" />
      <g
         id="g10069"
         style="fill:#ffffff;fill-opacity:1;stroke:#ffffff;stroke-width:6.98803234;stroke-miterlimit:4;stroke-dasharray:none;stroke-opacity:1" />
      <g
         id="g10071"
         style="fill:#ffffff;fill-opacity:1;stroke:#ffffff;stroke-width:6.98803234;stroke-miterlimit:4;stroke-dasharray:none;stroke-opacity:1" />
      <g
         id="g10073"
         style="fill:#ffffff;fill-opacity:1;stroke:#ffffff;stroke-width:6.98803234;stroke-miterlimit:4;stroke-dasharray:none;stroke-opacity:1" />
      <g
         id="g10075"
         style="fill:#ffffff;fill-opacity:1;stroke:#ffffff;stroke-width:6.98803234;stroke-miterlimit:4;stroke-dasharray:none;stroke-opacity:1" />
      <g
         id="g10077"
         style="fill:#ffffff;fill-opacity:1;stroke:#ffffff;stroke-width:6.98803234;stroke-miterlimit:4;stroke-dasharray:none;stroke-opacity:1" />
      <g
         id="g10079"
         style="fill:#ffffff;fill-opacity:1;stroke:#ffffff;stroke-width:6.98803234;stroke-miterlimit:4;stroke-dasharray:none;stroke-opacity:1" />
      <g
         id="g10081"
         style="fill:#ffffff;fill-opacity:1;stroke:#ffffff;stroke-width:6.98803234;stroke-miterlimit:4;stroke-dasharray:none;stroke-opacity:1" />
      <g
         id="g10083"
         style="fill:#ffffff;fill-opacity:1;stroke:#ffffff;stroke-width:6.98803234;stroke-miterlimit:4;stroke-dasharray:none;stroke-opacity:1" />
    </g>
  </g>
</svg>
