<?xml version="1.0" encoding="UTF-8" standalone="no"?>
<!-- Created with Inkscape (http://www.inkscape.org/) -->

<svg
   xmlns:dc="http://purl.org/dc/elements/1.1/"
   xmlns:cc="http://creativecommons.org/ns#"
   xmlns:rdf="http://www.w3.org/1999/02/22-rdf-syntax-ns#"
   xmlns:svg="http://www.w3.org/2000/svg"
   xmlns="http://www.w3.org/2000/svg"
   xmlns:sodipodi="http://sodipodi.sourceforge.net/DTD/sodipodi-0.dtd"
   xmlns:inkscape="http://www.inkscape.org/namespaces/inkscape"
   width="35.985096mm"
   height="35.985447mm"
   viewBox="0 0 127.50624 127.5075"
   id="svg11407"
   version="1.1"
   inkscape:version="0.91 r13725"
   sodipodi:docname="zooteap.svg">
  <defs
     id="defs11409">
    <clipPath
       id="clipPath12962"
       clipPathUnits="userSpaceOnUse">
      <path
         inkscape:connector-curvature="0"
         id="path12964"
         d="m 0,799.92 799.92,0 L 799.92,0 0,0 0,799.92 Z" />
    </clipPath>
    <clipPath
       id="clipPath13578"
       clipPathUnits="userSpaceOnUse">
      <path
         inkscape:connector-curvature="0"
         id="path13580"
         d="m 0,799.92 799.92,0 L 799.92,0 0,0 0,799.92 Z" />
    </clipPath>
  </defs>
  <sodipodi:namedview
     id="base"
     pagecolor="#ffffff"
     bordercolor="#666666"
     borderopacity="1.0"
     inkscape:pageopacity="0.0"
     inkscape:pageshadow="2"
     inkscape:zoom="2.8"
     inkscape:cx="-528.4126"
     inkscape:cy="377.42718"
     inkscape:document-units="px"
     inkscape:current-layer="g12938"
     showgrid="false"
     fit-margin-top="0"
     fit-margin-left="0"
     fit-margin-right="0"
     fit-margin-bottom="0"
     inkscape:window-width="1920"
     inkscape:window-height="1058"
     inkscape:window-x="-8"
     inkscape:window-y="-8"
     inkscape:window-maximized="1"
     showguides="true"
     inkscape:guide-bbox="true" />
  <metadata
     id="metadata11412">
    <rdf:RDF>
      <cc:Work
         rdf:about="">
        <dc:format>image/svg+xml</dc:format>
        <dc:type
           rdf:resource="http://purl.org/dc/dcmitype/StillImage" />
        <dc:title></dc:title>
      </cc:Work>
    </rdf:RDF>
  </metadata>
  <g
     inkscape:label="Layer 1"
     inkscape:groupmode="layer"
     id="layer1"
     transform="translate(-46.961164,-326.46559)">
    <g
       id="g12938"
       transform="translate(-192.85715,-11.428572)">
      <g
         transform="matrix(1.25,0,0,-1.25,-162.50003,70.044493)"
         id="g5208"
         style="fill:#273174;fill-opacity:0.26205787">
        <path
           inkscape:connector-curvature="0"
           id="path5210"
           style="fill:#273174;fill-opacity:0.26205787;fill-rule:nonzero;stroke:none"
           d="m 0,0 c 0,-28.168 -22.835,-51.003 -51.003,-51.003 -28.168,0 -51.002,22.835 -51.002,51.003 0,28.168 22.834,51.003 51.002,51.003 C -22.835,51.003 0,28.168 0,0" />
      </g>
      <path
         inkscape:connector-curvature="0"
         id="path13696"
         style="fill:#737373;fill-opacity:1;fill-rule:evenodd;stroke:none"
         d="m -234.18528,72.029639 c -1.2657,-9.836364 -9.99979,-10.450882 -15.56921,-7.254105 -1.13946,6.639392 9.49319,11.92634 15.56921,7.254105" />
      <path
         style="fill:#bec2bc;fill-opacity:1;stroke:#000000;stroke-width:0.80488557;stroke-opacity:1"
         d="m -225.37805,66.359242 c -0.43007,-0.0542 -0.96774,-0.404471 -1.19479,-0.778297 -0.40268,-0.662955 -0.74386,-0.786709 -1.93651,-0.70246 -0.76044,0.05371 -1.63926,-1.336378 -1.1004,-1.740596 0.55018,-0.412714 0.48046,-1.030932 -0.17783,-1.576584 -0.85662,-0.710046 -0.16304,-1.811313 1.27681,-2.027325 0.89892,-0.134853 1.13915,-0.313843 1.13915,-0.848721 0,-0.985261 1.77654,-1.409163 2.62226,-0.625707 0.5355,0.496071 0.72517,0.518975 1.72501,0.208304 1.43398,-0.445565 2.81696,0.07115 2.52871,0.944849 -0.22355,0.677608 0.0767,1.059604 1.17302,1.492715 1.10131,0.435058 1.05602,1.339664 -0.10754,2.14858 -0.78367,0.544824 -0.87251,0.748504 -0.53362,1.223504 0.33719,0.472615 0.26127,0.658128 -0.44474,1.086979 -0.59843,0.363514 -1.03729,0.44245 -1.47742,0.265747 -0.85919,-0.344934 -0.90295,-0.335806 -1.86253,0.388138 -0.49837,0.375985 -1.16983,0.59886 -1.62958,0.540882 z m 1.2734,-0.807594 c 0.23229,-0.311369 0.86603,-0.468347 1.96126,-0.485799 l 1.61805,-0.0258 0.0108,-1.081933 c 0.008,-0.804243 0.22175,-1.18701 0.83267,-1.491279 1.08331,-0.539583 1.0407,-1.111539 -0.11221,-1.505584 -0.93616,-0.319969 -1.55525,-1.338738 -1.12839,-1.856845 0.40351,-0.489751 -0.92075,-0.81101 -2.0385,-0.494521 -0.85351,0.241674 -1.17592,0.205034 -1.77511,-0.201741 -0.86903,-0.589951 -2.26548,-0.374824 -2.26548,0.349007 0,0.619225 -0.70935,1.14723 -1.54126,1.14723 -0.95937,0 -1.5502,0.960929 -0.8564,1.392863 0.6138,0.382118 0.70966,1.316062 0.19741,1.923417 -0.46226,0.548094 0.243,1.493153 0.96021,1.286699 0.75628,-0.217691 1.0855,0.02929 2.1651,0.9488 0.62192,0.529677 1.49737,0.731474 1.97185,0.09548 z m -1.33428,-2.470553 c -0.45236,-0.237667 -0.82248,-0.722062 -0.82248,-1.076416 0,-1.48302 2.83967,-1.755671 3.5014,-0.336196 0.31755,0.681211 0.24781,0.866335 -0.49678,1.318618 -1.04791,0.636522 -1.14187,0.640579 -2.18214,0.094 z m 2.26385,-0.724399 c 0.27929,-0.334313 0.25156,-0.584418 -0.10002,-0.902212 -0.70331,-0.635679 -2.14563,-0.559421 -2.43684,0.128865 -0.50344,1.189858 1.64243,1.844027 2.53686,0.773347 z m -14.09588,-2.636148 c -0.25442,-0.077 -0.46259,-0.445037 -0.46259,-0.817825 0,-0.535258 -0.24021,-0.713859 -1.14212,-0.849167 -1.50821,-0.226275 -2.19709,-1.261612 -1.32204,-1.986928 0.72074,-0.597424 0.78597,-1.196511 0.17977,-1.651243 -0.79127,-0.593578 0.22353,-1.72867 1.54549,-1.72867 0.84455,0 1.21069,-0.164557 1.45981,-0.65606 0.50327,-0.992945 1.87493,-1.138362 2.90181,-0.30762 0.96139,0.777752 0.99185,0.784422 1.90606,0.417403 0.89637,-0.359855 2.05091,0.560013 1.75788,1.400563 -0.14101,0.404495 0.0811,0.811334 0.6938,1.270959 1.1878,0.891016 1.14627,1.641005 -0.1165,2.104192 -0.80703,0.296034 -1.00729,0.55151 -0.96747,1.234279 0.0637,1.092829 -1.19713,1.641653 -2.63919,1.148771 -0.75171,-0.256928 -1.04994,-0.229983 -1.60193,0.144751 -0.67734,0.459829 -1.31975,0.540857 -2.19278,0.276595 z m 1.89166,-0.510148 c 0.25202,-0.492663 1.75638,-0.553067 2.36695,-0.09505 0.59687,0.447739 1.56997,-0.19039 1.56997,-1.029529 0,-0.631005 0.86238,-1.512658 1.47958,-1.512658 0.71764,0 0.5317,-1.015532 -0.29443,-1.608096 -0.66855,-0.479536 -0.8289,-0.811237 -0.65025,-1.345165 0.3118,-0.931899 -0.37255,-1.573103 -1.28708,-1.205963 -0.76224,0.306014 -1.87692,0.08024 -2.31927,-0.469702 -0.42567,-0.529238 -1.72004,-0.453167 -2.00567,0.117864 -0.34588,0.691499 -1.29786,1.18 -1.99445,1.023467 -0.9062,-0.203638 -1.57943,0.552646 -1.09562,1.230766 0.56406,0.790628 0.48984,1.450006 -0.20621,1.831799 -0.49017,0.268863 -0.52211,0.442101 -0.17201,0.932809 0.23647,0.331449 0.72384,0.602632 1.08305,0.602632 0.82975,0 1.54126,0.527567 1.54126,1.1428 0,0.771789 1.62494,1.086282 1.98418,0.384024 z m -0.2261,-2.273356 c -0.79229,-0.155331 -1.26225,-1.397983 -0.75756,-2.003066 0.54275,-0.650688 2.37565,-0.734914 2.95948,-0.135997 0.66736,0.684651 0.60249,1.128707 -0.2593,1.775184 -0.75813,0.568694 -0.82964,0.58209 -1.94262,0.363879 z m 2.12415,-0.914845 c 0.34921,-0.423853 -0.50687,-1.392263 -1.23075,-1.392263 -1.43755,0 -2.10223,1.402551 -0.90321,1.905891 0.64728,0.271735 1.69461,0.01964 2.13396,-0.513628 z m 10.92053,0.632165 c -0.59745,-0.0731 -1.12181,-0.427123 -1.48027,-0.999411 -0.45933,-0.733315 -0.79563,-0.901125 -1.94923,-0.972653 -0.99081,-0.06142 -1.56516,-0.282282 -1.98542,-0.763416 -0.54215,-0.620693 -0.54162,-0.733851 0.006,-1.361197 0.78269,-0.896079 0.75913,-1.070428 -0.2704,-2.001103 -0.79944,-0.72267 -0.82861,-0.85603 -0.36901,-1.68691 0.39928,-0.721835 0.71176,-0.90222 1.56289,-0.90222 1.26148,0 1.78412,-0.402572 1.95437,-1.505413 0.17909,-1.160114 1.86802,-1.573615 3.04361,-0.745169 0.96095,0.677211 1.96833,0.73441 2.9652,0.168386 0.61609,-0.349819 0.83319,-0.34104 1.76381,0.07132 0.85369,0.378296 1.04572,0.643078 0.9819,1.354008 -0.0921,1.025918 0.52333,1.697847 1.66703,1.820011 0.63132,0.0675 0.82994,0.302517 0.91736,1.085787 0.0921,0.825224 -0.0605,1.084277 -0.87423,1.484245 -0.88375,0.434376 -0.96099,0.600961 -0.74608,1.609151 0.1966,0.922269 0.0968,1.238741 -0.55471,1.758965 -0.64498,0.515008 -0.96531,0.585627 -1.70253,0.375376 -1.46481,-0.417777 -1.96673,-0.308805 -2.63492,0.572069 -0.34673,0.457078 -0.79695,0.813119 -1.00048,0.791221 -0.20354,-0.02191 -0.7864,-0.09079 -1.29525,-0.15306 z m 1.72081,-0.783594 c 0.37646,-0.735928 2.01345,-1.217451 2.99653,-0.88145 0.70965,0.242542 1.0019,0.193034 1.62667,-0.275637 0.61911,-0.464413 0.6854,-0.67812 0.35433,-1.142159 -0.51912,-0.72762 0.0109,-1.84638 1.07757,-2.274622 1.06781,-0.428681 0.88794,-1.7666 -0.2539,-1.888578 -1.07115,-0.114423 -2.04418,-1.264209 -1.76811,-2.089295 0.31086,-0.929165 -1.20073,-1.690764 -2.23251,-1.124812 -1.04182,0.571452 -2.60814,0.478789 -3.19948,-0.189278 -0.43304,-0.489231 -0.65944,-0.531462 -1.52541,-0.284473 -0.68309,0.194811 -1.01691,0.490148 -1.01691,0.89964 0,0.825939 -1.03294,1.624948 -2.10068,1.624948 -0.57593,0 -1.02063,0.238535 -1.29895,0.696765 -0.36023,0.593067 -0.30398,0.791943 0.37801,1.336499 0.92258,0.736675 1.02204,1.520529 0.2884,2.273138 -0.76966,0.78959 -0.0271,1.854338 1.22924,1.762624 1.30978,-0.09563 2.5608,0.476055 2.83497,1.295487 0.17863,0.533863 0.4694,0.685989 1.31123,0.685989 0.62961,0 1.17252,-0.177538 1.299,-0.424786 z m -1.72081,-2.54819 c -1.92598,-0.531227 -2.70812,-2.2905 -1.62806,-3.66205 1.74112,-2.211013 6.21692,-1.300638 6.21692,1.264525 0,1.67388 -2.49203,2.975874 -4.58886,2.397525 z m 3.16241,-0.762045 c 1.82488,-1.368921 0.73,-3.760263 -1.72164,-3.760263 -1.51739,0 -2.15151,0.262526 -2.75754,1.141656 -0.69035,1.001407 -0.37237,2.026035 0.85316,2.749176 1.25376,0.739798 2.52687,0.693957 3.62602,-0.130569 z"
         id="path12940"
         inkscape:connector-curvature="0"
         sodipodi:nodetypes="csssscsssssssssscccscsssssssssssscccsssccssssssssssssssssssssssssssssssssssssssssscssccssssssssssssssssssscccssssssssssssssssssssssssssss" />
      <g
         transform="matrix(0.19789033,0,0,-0.19221784,-456.67967,241.25969)"
         inkscape:label="cats_04"
         id="g12954">
        <path
           inkscape:connector-curvature="0"
           id="path13688"
           style="fill:#737373;fill-opacity:1;fill-rule:evenodd;stroke:none"
           d="m 990.36225,944.35195 c -5.764,41.276 -31.536,149.12995 -10.048,163.45495 19.75605,13.17 87.77805,-27.763 119.39905,-83.0299 -47.394,-13.701 -86.536,-42.82405 -109.35105,-80.42505" />
        <path
           inkscape:connector-curvature="0"
           id="path13692"
           style="fill:#737373;fill-opacity:1;fill-rule:evenodd;stroke:none"
           d="m 1331.8833,944.35145 c 5.764,41.275 31.537,149.12995 10.049,163.45595 -19.756,13.17 -87.78,-27.764 -119.4,-83.031 47.393,-13.702 86.536,-42.82495 109.351,-80.42495" />
        <path
           inkscape:connector-curvature="0"
           id="path13708"
           style="fill:#737373;fill-opacity:1;fill-rule:evenodd;stroke:none"
           d="m 1185.4657,879.46149 c 6.512,52.096 51.4431,55.351 80.0971,38.42 5.86,-35.165 -48.8401,-63.165 -80.0971,-38.42" />
        <path
           inkscape:connector-curvature="0"
           id="path13712"
           style="fill:#ffffff;fill-opacity:1;fill-rule:evenodd;stroke:none"
           d="m 1215.591,890.7174 c 0.2451,-6 1.0773,-11.482 2.3273,-15.963 7.723,-8.506 17.8439,6.282 19.2171,26.992 -0.3645,4.394 -1.0492,8.431 -1.9799,11.896 -7.1222,8.928 -16.4982,5.583 -19.5645,-22.925" />
        <path
           inkscape:connector-curvature="0"
           id="path13720"
           style="fill:#737373;fill-opacity:1;fill-rule:evenodd;stroke:none"
           d="m 1125.5166,811.58335 c 0.688,-5.505 6.881,-9.29 12.042,-8.258 5.162,1.033 12.73,-1.721 13.763,-8.258 0.882,-5.588 0.51,-15.068 4.465,-17.955 1.623,-1.184 8.688,-1.573 10.812,0.103 3.808,3.008 3.455,12.332 4.326,17.852 1.031,6.537 8.601,9.291 13.762,8.258 5.162,-1.032 11.355,2.753 12.042,8.258 -0.26,-6.465 -4.89,-12.923 -9.588,-15.189 -4.699,-2.267 -11.127,-2.134 -13.763,-5.806 -2.203,-3.069 -2.328,-11.148 -6.372,-13.752 -2.103,-1.354 -9.252,-1.355 -11.438,-0.178 -4.384,2.362 -4.44,10.782 -6.699,13.93 -2.635,3.672 -9.064,3.539 -13.763,5.806 -4.698,2.266 -9.328,8.724 -9.589,15.189" />
        <path
           inkscape:connector-curvature="0"
           id="path13724"
           style="fill:#737373;fill-opacity:1;fill-rule:evenodd;stroke:none"
           d="m 1099.3608,758.82745 c 32.032,-28.09 58.249,2.59 61.581,17.184 l 0.361,0 c 3.333,-14.594 29.55,-45.274 61.581,-17.184 -32.985,-33.184 -59.335,-1.034 -61.76,16.987 -2.426,-18.021 -28.778,-50.171 -61.763,-16.987" />
        <path
           inkscape:connector-curvature="0"
           id="path13728"
           style="fill:#737373;fill-opacity:1;fill-rule:evenodd;stroke:none"
           d="m 1199.6059,789.48664 c 26.261,1.05 99.79,16.806 155.462,58.822 -50.466,-54.164 -125.978,-65.29199 -155.462,-58.822" />
        <path
           inkscape:connector-curvature="0"
           id="path13732"
           style="fill:#737373;fill-opacity:1;fill-rule:evenodd;stroke:none"
           d="m 1202.9135,773.31775 c 42.208,2.989 149.202,15.692 213.987,-2.242 -63.766,29.714 -170.878,15.222 -213.987,2.242" />
        <path
           inkscape:connector-curvature="0"
           id="path13736"
           style="fill:#737373;fill-opacity:1;fill-rule:evenodd;stroke:none"
           d="m 1198.1127,762.47785 c 38.362,1.037 105.757,-6.222 175.224,-75.68899 -65.532,78.65399 -132.506,86.89399 -175.224,75.68899" />
        <path
           inkscape:connector-curvature="0"
           id="path13740"
           style="fill:#737373;fill-opacity:1;fill-rule:evenodd;stroke:none"
           d="m 1119.3261,789.48664 c -26.261,1.05 -99.789,16.806 -155.46105,58.822 50.46505,-54.164 125.97705,-65.29199 155.46105,-58.822" />
        <path
           inkscape:connector-curvature="0"
           id="path13744"
           style="fill:#737373;fill-opacity:1;fill-rule:evenodd;stroke:none"
           d="m 1116.0195,773.31775 c -42.208,2.989 -149.20305,15.692 -213.98807,-2.242 64.78602,29.881 171.77907,15.057 213.98807,2.242" />
        <path
           inkscape:connector-curvature="0"
           id="path13748"
           style="fill:#737373;fill-opacity:1;fill-rule:evenodd;stroke:none"
           d="m 1120.8203,762.47785 c -38.363,1.037 -105.757,-6.222 -175.22405,-75.68899 65.53105,78.65399 132.50605,86.89399 175.22405,75.68899" />
        <path
           inkscape:connector-curvature="0"
           id="path13712-4"
           style="fill:#ffffff;fill-opacity:1;fill-rule:evenodd;stroke:none"
           d="m 1073.7495,893.7092 c 0.994,-5.91477 2.5052,-11.23558 4.3053,-15.50678 8.7212,-7.37491 16.904,8.67208 15.6731,29.39187 -0.9114,4.30624 -2.0955,8.2147 -3.4519,11.52238 -8.1784,7.87557 -17.055,3.27509 -16.5265,-25.40747" />
      </g>
      <path
         style="fill:#a0a0a0;stroke:none;stroke-width:1px;stroke-linecap:butt;stroke-linejoin:miter;stroke-opacity:1"
         d=""
         id="path14871"
         inkscape:connector-curvature="0"
         transform="translate(239.81831,337.89416)" />
      <path
         style="fill:#a0a0a0;stroke:none;stroke-width:1px;stroke-linecap:butt;stroke-linejoin:miter;stroke-opacity:1"
         d=""
         id="path14875"
         inkscape:connector-curvature="0"
         transform="translate(239.81831,337.89416)" />
      <path
         style="fill:#a0a0a0;stroke:none;stroke-width:1px;stroke-linecap:butt;stroke-linejoin:miter;stroke-opacity:1"
         d="m -223.57695,54.720514 c -0.65567,-0.586122 -1.63092,-1.011525 -2.31894,-1.011525 -1.33788,0 -1.32744,0.01785 -0.80477,-1.379022 0.30097,-0.804364 0.20848,-1.247552 -0.43342,-2.076735 -0.77733,-1.004134 -0.78114,-1.065406 -0.0802,-1.291276 1.96441,-0.632968 2.64916,-1.079093 2.84917,-1.856269 0.17832,-0.692887 0.40887,-0.79127 1.27041,-0.542131 0.5789,0.167404 2.07533,0.286063 3.3254,0.263694 2.21247,-0.03959 2.27927,-0.0081 2.51384,1.183586 0.1683,0.855098 0.60877,1.381399 1.46072,1.745392 l 1.21976,0.521133 -1.03758,0.916695 c -0.733,0.647589 -1.00028,1.241499 -0.91053,2.023155 0.12168,1.05975 0.0453,1.108926 -1.80967,1.164771 -1.1423,0.0344 -2.23058,0.328553 -2.65316,0.717137 -0.94323,0.867357 -1.2469,0.822985 -2.59107,-0.378605 z m 5.20412,-1.868943 c 2.07842,-1.984032 0.42284,-4.879639 -2.78997,-4.879639 -4.11291,0 -5.52413,4.393783 -1.88755,5.876811 1.15885,0.472591 3.70688,-0.07059 4.67752,-0.997172 z"
         id="path14877"
         inkscape:connector-curvature="0" />
      <path
         style="fill:#bec2bc;fill-opacity:1;stroke:none;stroke-width:1px;stroke-linecap:butt;stroke-linejoin:miter;stroke-opacity:1"
         d="m -226.1906,64.73659 c -0.78826,-0.602081 -0.99146,-0.688951 -1.67353,-0.715409 -0.96728,-0.03757 -1.11416,-0.171567 -0.82045,-0.748699 0.35224,-0.692131 0.29182,-1.515855 -0.15036,-2.049823 -0.45679,-0.551599 -0.34862,-0.708343 0.61347,-0.888947 0.86887,-0.163112 1.35804,-0.524671 1.56313,-1.155351 0.14431,-0.443788 0.22026,-0.498035 0.75372,-0.538326 0.41014,-0.03099 0.73986,0.0473 1.06833,0.253544 0.52062,0.326955 1.23002,0.373761 2.2045,0.145458 0.86684,-0.203087 1.15981,-0.07975 1.16046,0.488647 8e-4,0.709348 0.47053,1.346836 1.31136,1.779784 l 0.75183,0.387116 -0.35458,0.232247 c -0.82441,0.540005 -1.09532,0.945708 -1.20001,1.79709 l -0.10189,0.828664 -0.68321,0 c -1.02049,0 -2.17006,0.256425 -2.60561,0.581214 -0.56653,0.422441 -0.84208,0.362864 -1.83716,-0.397209 z m 2.80824,-1.133348 c 0.38419,-0.203403 0.81081,-0.504014 0.94805,-0.668027 0.56095,-0.670395 0.12804,-1.90013 -0.83187,-2.362969 -0.63263,-0.30504 -1.84017,-0.345656 -2.34763,-0.07894 -1.53187,0.805086 -1.44485,2.283108 0.18296,3.107343 0.91722,0.464436 1.17556,0.464761 2.04849,0.0024 z"
         id="path14879"
         inkscape:connector-curvature="0" />
      <path
         style="fill:#bec2bc;fill-opacity:1;stroke:none;stroke-width:1px;stroke-linecap:butt;stroke-linejoin:miter;stroke-opacity:1"
         d="m -236.47677,59.080586 c -0.13601,-0.02961 -0.371,-0.338078 -0.52221,-0.685406 -0.2985,-0.685706 -0.74304,-0.997813 -1.65939,-1.165095 -0.31098,-0.05679 -0.66989,-0.195672 -0.79759,-0.308676 -0.21171,-0.187371 -0.19665,-0.241536 0.17093,-0.615054 0.57061,-0.579793 0.63998,-1.018753 0.28856,-1.825974 -0.16296,-0.374329 -0.26094,-0.738703 -0.21774,-0.809727 0.0432,-0.07099 0.40192,-0.129142 0.79716,-0.129142 0.88418,0 1.59058,-0.325413 2.0917,-0.963582 0.28908,-0.368122 0.49084,-0.485231 0.83603,-0.48524 0.25024,0 0.49521,0.06612 0.54436,0.146951 0.0492,0.08081 0.35176,0.282963 0.67244,0.449199 0.48204,0.249877 0.78298,0.293447 1.737,0.251468 l 1.15395,-0.05079 -0.0466,0.768998 c -0.0458,0.755295 -0.0337,0.781907 0.67728,1.493072 0.39816,0.398231 0.72392,0.77256 0.72392,0.831821 0,0.05923 -0.22139,0.189107 -0.49199,0.288529 -0.57285,0.210479 -1.18471,0.89169 -1.29886,1.446088 -0.17703,0.859665 -0.60054,1.22008 -1.07782,0.917222 -0.49535,-0.314338 -1.69523,-0.376568 -2.3011,-0.11934 -0.29351,0.124614 -0.53366,0.287491 -0.53366,0.361948 0,0.165035 -0.40925,0.276189 -0.74633,0.202705 z m 2.95641,-2.044631 c 0.31369,-0.214535 0.69867,-0.632166 0.85552,-0.928078 0.28517,-0.538009 0.28517,-0.538009 0,-1.081317 -0.37235,-0.709397 -1.05571,-1.049884 -2.10772,-1.050177 -1.43282,-3.89e-4 -2.24115,0.562439 -2.24115,1.560479 0,0.976223 0.61401,1.713084 1.58412,1.901088 0.81429,0.157815 1.21364,0.07375 1.90923,-0.401995 z"
         id="path14881"
         inkscape:connector-curvature="0" />
      <path
         style="fill:#bec2bc;fill-opacity:1;stroke:none;stroke-width:1px;stroke-linecap:butt;stroke-linejoin:miter;stroke-opacity:1"
         d="m -222.79404,55.280105 c -0.19939,-0.159372 -0.41846,-0.289763 -0.4868,-0.289763 -0.0683,0 -0.21676,-0.130399 -0.3298,-0.289771 -0.11305,-0.159364 -0.28762,-0.289762 -0.38794,-0.289762 -0.10032,0 -0.18241,-0.06905 -0.18241,-0.153433 0,-0.08439 -0.0642,-0.113142 -0.14258,-0.06393 -0.0784,0.04925 -0.14259,0.02686 -0.14259,-0.04973 0,-0.215379 -0.82603,-0.457378 -1.5612,-0.457378 -0.93813,0 -1.03559,-0.155064 -0.70716,-1.125048 0.30548,-0.902212 0.34494,-1.337952 0.12116,-1.337952 -0.083,0 -0.11058,-0.06645 -0.0612,-0.147688 0.0494,-0.08122 -0.14569,-0.473678 -0.43353,-0.87212 -0.48712,-0.674282 -0.57423,-1.153429 -0.2097,-1.153429 0.0834,0 0.37531,-0.09497 0.6487,-0.21103 0.27337,-0.11607 0.52864,-0.212539 0.56725,-0.214389 0.17863,-0.0085 1.0263,-0.507754 1.3107,-0.771894 0.17417,-0.161766 0.38581,-0.506959 0.4703,-0.767092 0.18776,-0.578081 0.37377,-0.660806 1.08498,-0.482513 0.3036,0.0761 1.57361,0.174698 2.82224,0.219086 2.38791,0.08488 2.93414,0.190374 2.93414,0.56665 0,0.130878 0.0678,0.186868 0.15786,0.130318 0.10467,-0.06572 0.12747,-0.0016 0.0676,0.189643 -0.22722,0.727449 0.55589,1.738925 1.71707,2.217812 0.4216,0.17387 0.76653,0.330719 0.76653,0.348552 0,0.01785 -0.39278,0.431553 -0.87285,0.919365 -0.57474,0.583987 -0.84413,0.963046 -0.7887,1.109794 0.0463,0.122586 0.0137,0.222876 -0.0725,0.222876 -0.10083,0 -0.13141,0.227516 -0.0858,0.638461 0.039,0.351157 0.018,0.725169 -0.0464,0.831139 -0.1075,0.176743 -1.58424,0.410304 -2.58955,0.409557 -0.21566,-1.54e-4 -0.39211,0.06393 -0.39211,0.14235 0,0.07846 -0.0852,0.109426 -0.18929,0.0688 -0.26497,-0.103316 -0.91423,0.170244 -1.40992,0.594065 -0.50682,0.433321 -1.08842,0.458538 -1.57658,0.0684 z m 3.02061,-1.619334 c 2.01463,-0.668489 2.92839,-2.587224 1.95271,-4.100296 -0.49231,-0.763448 -1.37984,-1.384904 -2.07651,-1.453965 -0.19946,-0.0198 -0.47764,-0.08436 -0.61819,-0.143527 -0.24853,-0.10463 -1.18558,-0.03943 -2.00036,0.139121 -0.53554,0.117377 -1.39317,0.678558 -1.93657,1.267162 -1.4491,1.569672 -0.61557,3.870898 1.67246,4.617365 0.54642,0.178268 1.94354,0.02685 3.00646,-0.32586 z"
         id="path14883"
         inkscape:connector-curvature="0" />
    </g>
  </g>
</svg>
