<?xml version="1.0" encoding="UTF-8" standalone="no"?>
<!-- Created with Inkscape (http://www.inkscape.org/) -->

<svg
   xmlns:dc="http://purl.org/dc/elements/1.1/"
   xmlns:cc="http://creativecommons.org/ns#"
   xmlns:rdf="http://www.w3.org/1999/02/22-rdf-syntax-ns#"
   xmlns:svg="http://www.w3.org/2000/svg"
   xmlns="http://www.w3.org/2000/svg"
   xmlns:sodipodi="http://sodipodi.sourceforge.net/DTD/sodipodi-0.dtd"
   xmlns:inkscape="http://www.inkscape.org/namespaces/inkscape"
   width="35.985096mm"
   height="35.985451mm"
   viewBox="0 0 127.50625 127.5075"
   id="svg8871"
   version="1.1"
   inkscape:version="0.91 r13725"
   sodipodi:docname="выгул2.svg">
  <defs
     id="defs8873" />
  <sodipodi:namedview
     id="base"
     pagecolor="#ffffff"
     bordercolor="#666666"
     borderopacity="1.0"
     inkscape:pageopacity="0.0"
     inkscape:pageshadow="2"
     inkscape:zoom="0.35"
     inkscape:cx="-464.10401"
     inkscape:cy="29.468035"
     inkscape:document-units="px"
     inkscape:current-layer="layer1"
     showgrid="false"
     fit-margin-top="0"
     fit-margin-left="0"
     fit-margin-right="0"
     fit-margin-bottom="0"
     inkscape:window-width="1366"
     inkscape:window-height="706"
     inkscape:window-x="-8"
     inkscape:window-y="-8"
     inkscape:window-maximized="1" />
  <metadata
     id="metadata8876">
    <rdf:RDF>
      <cc:Work
         rdf:about="">
        <dc:format>image/svg+xml</dc:format>
        <dc:type
           rdf:resource="http://purl.org/dc/dcmitype/StillImage" />
        <dc:title></dc:title>
      </cc:Work>
    </rdf:RDF>
  </metadata>
  <g
     inkscape:label="Layer 1"
     inkscape:groupmode="layer"
     id="layer1"
     transform="translate(-324.8183,-434.32274)">
    <g
       transform="matrix(1.25,0,0,-1.25,452.32455,498.07649)"
       id="g5192">
      <path
         inkscape:connector-curvature="0"
         id="path5194"
         style="fill:#434343;fill-opacity:1;fill-rule:nonzero;stroke:none"
         d="m 0,0 c 0,-28.168 -22.835,-51.003 -51.003,-51.003 -28.168,0 -51.002,22.835 -51.002,51.003 0,28.168 22.834,51.003 51.002,51.003 C -22.835,51.003 0,28.168 0,0" />
    </g>
    <g
       transform="matrix(1.25,0,0,-1.25,359.83306,509.58423)"
       id="g5196">
      <path
         inkscape:connector-curvature="0"
         id="path5198"
         style="fill:#ffffff;fill-opacity:1;fill-rule:nonzero;stroke:none"
         d="m 0,0 c 5.987,2.901 10.794,7.466 13.518,13.489 2.723,6.023 2.974,12.648 1.198,19.059 0.377,0.139 0.76,0.259 1.144,0.377 C 9.242,30.933 3.486,26.205 0.415,19.413 -2.656,12.621 -2.404,5.176 0.473,-1.108 0.307,-0.742 0.144,-0.375 0,0" />
    </g>
    <g
       transform="matrix(1.25,0,0,-1.25,415.72031,483.18961)"
       id="g5200">
      <path
         inkscape:connector-curvature="0"
         id="path5202"
         style="fill:#ffffff;fill-opacity:1;fill-rule:nonzero;stroke:none"
         d="m 0,0 c -2.487,4.549 -6.427,8.36 -11.52,10.663 -5.513,2.493 -11.457,2.796 -16.86,1.286 0.415,0.116 0.833,0.225 1.254,0.316 1.977,-7.084 1.691,-14.439 -1.333,-21.128 -3.024,-6.688 -8.357,-11.761 -14.982,-14.956 -0.21,0.376 -0.404,0.762 -0.591,1.151 2.435,-5.055 6.59,-9.317 12.102,-11.809 5.094,-2.303 10.558,-2.744 15.616,-1.606 -1.978,7.083 -1.692,14.439 1.332,21.127 C -11.958,-8.268 -6.624,-3.195 0,0" />
    </g>
    <g
       transform="matrix(1.25,0,0,-1.25,417.30681,486.56824)"
       id="g5204">
      <path
         inkscape:connector-curvature="0"
         id="path5206"
         style="fill:#ffffff;fill-opacity:1;fill-rule:nonzero;stroke:none"
         d="m 0,0 c -5.987,-2.901 -10.794,-7.466 -13.518,-13.489 -2.723,-6.023 -2.974,-12.648 -1.198,-19.059 6.137,2.164 11.409,6.738 14.301,13.135 C 2.477,-13.017 2.429,-6.037 0,0" />
    </g>
  </g>
</svg>
