<svg id=dog-passport_dog viewBox="0 0 1024 1024">
            <title>passport_dog</title>
            <path class="path1 fill-color4" d="M511.995 1024c-282.765 0-511.995-229.219-511.995-511.995s229.23-512.005 511.995-512.005c282.765 0 511.995 229.23 511.995 512.005s-229.23 511.995-511.995 511.995z"></path>
            <path fill=#fff class="figure fill-color7" d="M426.508 370.299c3.327-15.589 7.946-30.295 13.896-43.285-29.003 11.728-52.629 30.978-67.022 54.611 15.946-4.851 33.994-8.617 53.126-11.325z"></path>
            <path fill=#fff class="figure fill-color7" d="M358.094 434.976c2.147 5.529 23.112 16.495 62.711 23.703-0.57-7.9-0.866-15.831-0.866-23.703s0.297-15.8 0.866-23.7c-39.593 7.208-60.558 18.171-62.711 23.7z"></path>
            <path fill=#fff class="figure fill-color7" d="M585.263 370.299c19.132 2.711 37.18 6.474 53.123 11.323-14.393-23.632-38.019-42.883-67.022-54.608 5.954 12.99 10.576 27.696 13.899 43.285z"></path>
            <path fill=#fff class="figure fill-color7" d="M426.508 499.655c-19.132-2.711-37.18-6.474-53.123-11.323 14.393 23.632 38.019 42.883 67.019 54.611-5.95-12.993-10.572-27.699-13.896-43.288z"></path>
            <path fill=#fff class="figure fill-color7" d="M469.666 464.489c11.238 0.726 23.291 1.145 36.217 1.145 12.93 0 24.982-0.419 36.221-1.145 0.891-9.157 1.405-18.981 1.405-29.513s-0.514-20.353-1.405-29.51c-11.238-0.726-23.295-1.145-36.224-1.145-12.926 0-24.979 0.419-36.217 1.145-0.891 9.157-1.405 18.978-1.405 29.51 0.003 10.535 0.518 20.356 1.408 29.513z"></path>
            <path fill=#fff class="figure fill-color7" d="M505.883 364.947c9.661 0 19.394 0.242 29.090 0.706-8.846-32.267-22.304-49.346-29.090-51.098-6.786 1.755-20.24 18.837-29.086 51.098 9.695-0.464 19.425-0.706 29.086-0.706z"></path>
            <path fill=#fff class="figure fill-color7" d="M591.831 434.976c0 7.872-0.297 15.803-0.866 23.703 39.6-7.208 60.561-18.174 62.711-23.703-2.154-5.529-23.119-16.492-62.711-23.697 0.57 7.897 0.866 15.825 0.866 23.697z"></path>
            <path fill=#fff class="figure fill-color7" d="M505.883 505.007c-9.657 0-19.391-0.242-29.083-0.706 8.846 32.258 22.301 49.341 29.083 51.098 6.786-1.749 20.243-18.832 29.090-51.098-9.695 0.464-19.429 0.706-29.090 0.706z"></path>
            <path fill=#fff class="figure0 fill-color7" d="M585.263 499.655c-3.327 15.589-7.946 30.295-13.896 43.285 29.003-11.728 52.629-30.978 67.022-54.611-15.946 4.851-33.994 8.614-53.126 11.325z"></path>
            <path fill=#fff class="figure1 fill-color7" d="M469.49 705.662l-14.931-33.597-15.273 33.597z"></path>
            <path fill=#fff class="figure2 fill-color7" d="M808.472 255.877c0-24.96-24.834-45.195-55.467-45.195h-496.542c-30.633 0-55.467 20.235-55.467 45.195v517.085c0 24.96 24.834 45.195 55.467 45.195h496.542c30.633 0 55.467-20.235 55.467-45.195v-517.085zM505.883 275.139c108.165 0 196.166 71.702 196.166 159.836s-88.001 159.839-196.166 159.839c-108.165 0-196.163-71.705-196.163-159.839s87.998-159.836 196.163-159.836zM350.37 705.662h-14.762v36.561h-31.064v-95.621h46.506c26.304 0 47.007 6.786 47.007 29.184 0 22.676-22.57 29.876-47.687 29.876zM486.8 742.223l-9.333-16.874h-46.496l-8.826 16.874h-31.565l50.4-95.621h28.168l49.889 95.621h-32.238zM579.733 683.605c16.291 4.286 37.329 9.956 37.329 29.451 0 22.538-22.228 32.632-45.985 32.632-17.137 0-34.447-5.116-44.967-14.104l19.008-15.761c5.768 5.945 16.461 10.372 25.959 10.372 8.826 0 16.63-2.765 16.63-10.648 0-7.464-9.164-9.815-24.948-13.963-15.273-4.010-30.712-10.372-30.712-28.068 0-21.709 24.095-30.697 46.496-30.697 13.578 0 28.848 4.151 39.369 12.029l-18.493 15.901c-4.922-5.116-13.917-8.434-21.382-8.434s-16.799 2.073-16.799 9.815c-0.003 6.497 7.127 8.572 18.497 11.475zM680.015 683.605c16.291 4.286 37.329 9.956 37.329 29.451 0 22.538-22.228 32.632-45.985 32.632-17.137 0-34.447-5.116-44.967-14.104l19.008-15.761c5.768 5.945 16.461 10.372 25.959 10.372 8.826 0 16.63-2.765 16.63-10.648 0-7.464-9.164-9.815-24.948-13.963-15.273-4.010-30.712-10.372-30.712-28.068 0-21.709 24.095-30.697 46.496-30.697 13.578 0 28.848 4.151 39.369 12.029l-18.493 15.901c-4.922-5.116-13.917-8.434-21.382-8.434s-16.799 2.073-16.799 9.815c0 6.497 7.127 8.572 18.497 11.475z"></path>
            <path fill=#fff class="figure3 fill-color7" d="M348.675 663.476h-13.068v25.311h12.56c10.859 0 20.872-3.738 20.872-13.002 0-9.399-10.013-12.31-20.364-12.31z"></path>
        </svg>