<?xml version="1.0" encoding="UTF-8" standalone="no"?>
<svg
   xmlns:dc="http://purl.org/dc/elements/1.1/"
   xmlns:cc="http://creativecommons.org/ns#"
   xmlns:rdf="http://www.w3.org/1999/02/22-rdf-syntax-ns#"
   xmlns:svg="http://www.w3.org/2000/svg"
   xmlns="http://www.w3.org/2000/svg"
   xmlns:sodipodi="http://sodipodi.sourceforge.net/DTD/sodipodi-0.dtd"
   xmlns:inkscape="http://www.inkscape.org/namespaces/inkscape"
   id="dog-doctor"
   viewBox="0 0 1024 1024"
   version="1.1"
   inkscape:version="0.91 r13725"
   sodipodi:docname="doctor.svg">
  <metadata
     id="metadata4151">
    <rdf:RDF>
      <cc:Work
         rdf:about="">
        <dc:format>image/svg+xml</dc:format>
        <dc:type
           rdf:resource="http://purl.org/dc/dcmitype/StillImage" />
      </cc:Work>
    </rdf:RDF>
  </metadata>
  <defs
     id="defs4149" />
  <sodipodi:namedview
     pagecolor="#ffffff"
     bordercolor="#666666"
     borderopacity="1"
     objecttolerance="10"
     gridtolerance="10"
     guidetolerance="10"
     inkscape:pageopacity="0"
     inkscape:pageshadow="2"
     inkscape:window-width="1920"
     inkscape:window-height="1058"
     id="namedview4147"
     showgrid="false"
     inkscape:zoom="0.42773438"
     inkscape:cx="-62.021306"
     inkscape:cy="360.28474"
     inkscape:window-x="1358"
     inkscape:window-y="-8"
     inkscape:window-maximized="1"
     inkscape:current-layer="dog-doctor" />
  <title
     id="title4137">doctor</title>
  <path
     class="doctor path1"
     d="M1023.99 512c0 282.768-229.232 512-512 512s-511.99-229.232-511.99-512c0-282.768 229.222-512 511.99-512s512 229.232 512 512z"
     id="path4139" />
  <path
     class="path1"
     d="m 415.6508,426.85314 -64.39891,0 c -7.71104,0 -15.03579,0 -22.02207,0.67308 7.30046,46.35019 39.74126,165.61824 179.68256,167.32695 2.29639,-0.54382 4.61706,-0.49181 6.86562,0.20728 23.27953,-0.052 140.42472,-9.84003 168.80471,-162.87312 -14.26247,-3.6507 -30.38648,-5.33419 -48.63765,-5.33419 l -67.56573,0 c 54.60854,-30.52891 92.00486,-91.09492 92.00486,-161.26767 0,-5.74875 -0.26562,-11.75601 -0.74903,-17.3227 l -95.22025,0 c 13.94829,-15.56198 23.52087,-35.68182 26.44635,-58.00216 l 54.39076,0 C 628.71744,151.54915 599.82975,120.21712 563.95578,102.06607 546.06736,82.360799 521.1198,70.138989 493.51386,70.138989 c -26.32495,0 -50.25711,11.16017 -67.92775,29.286 -38.43597,17.660031 -69.4751,50.182161 -86.83155,90.861621 l 57.43691,0 c 2.94903,22.32035 12.49806,42.4662 26.4699,58.00217 l -98.33851,0 c -0.48341,5.56748 -0.74903,11.57474 -0.74903,17.3227 0,70.14674 37.42059,130.73876 92.07771,161.24166 z M 493.51459,99.501439 c 39.06434,0 70.85323,34.050351 70.85323,75.921491 0,41.84435 -31.78815,75.86948 -70.85323,75.86948 -39.08862,0 -70.8775,-33.99912 -70.8775,-75.86948 0,-41.89636 31.78815,-75.921491 70.8775,-75.921491 z"
     id="path4141"
     inkscape:connector-curvature="0"
     style="fill:#ffffff" />
  <path
     class="path2"
     d="m 792.30101,592.92678 c 0,0 5.24542,-110.06294 -80.86065,-151.4046 -33.33551,179.58986 -178.353,190.43217 -197.86162,190.69255 -0.5077,1.69045 -0.82188,3.69193 -0.89472,5.77254 -0.24207,12.68868 9.91103,28.88724 28.66989,45.65801 33.31123,29.82349 39.88621,73.06295 16.75237,109.95847 -18.00909,28.75745 -51.82801,48.77775 -93.23803,48.77775 -19.94348,0 -41.62708,-4.65428 -64.15684,-15.18478 -6.88917,8.16419 -16.82522,13.31231 -27.84803,13.31231 -20.76534,0 -37.63838,-18.07105 -37.63838,-40.48378 0,-22.28293 16.84876,-40.43154 37.63838,-40.43154 20.59612,0 37.34849,17.86291 37.58983,39.91158 56.05878,26.72908 104.5993,10.06278 124.90552,-22.3866 15.15719,-24.28521 10.85431,-50.70246 -11.57906,-70.8011 -26.32494,-23.60933 -39.28213,-47.11421 -38.48454,-69.83875 0.0486,-1.92391 0.24207,-3.79639 0.48341,-5.5644 C 343.37162,616.35409 309.50414,481.61578 301.86521,431.95403 193.13226,460.24298 194.00269,581.59062 193.80918,592.90145 l 0.0728,286.11678 598.9024,0 -0.48341,-286.09067 z"
     id="path4143"
     inkscape:connector-curvature="0"
     style="fill:#ffffff" />
  <path
     class="path3"
     d="m 526.24529,175.39614 c 0,19.36321 -14.65391,35.06076 -32.73143,35.06076 -18.07752,0 -32.73143,-15.69676 -32.73143,-35.06076 0,-19.36322 14.65391,-35.06076 32.73143,-35.06076 18.07752,0 32.73143,15.69675 32.73143,35.06076 z"
     id="path4145"
     inkscape:connector-curvature="0"
     style="fill:#ffffff" />
</svg>
