<?xml version="1.0" encoding="iso-8859-1"?>
<!-- Generator: Adobe Illustrator 18.0.0, SVG Export Plug-In . SVG Version: 6.00 Build 0)  -->
<!DOCTYPE svg PUBLIC "-//W3C//DTD SVG 1.1//EN" "http://www.w3.org/Graphics/SVG/1.1/DTD/svg11.dtd">
<svg version="1.1" id="Capa_1" xmlns="http://www.w3.org/2000/svg" xmlns:xlink="http://www.w3.org/1999/xlink" x="0px" y="0px"
	 viewBox="0 0 489.616 489.616" style="enable-background:new 0 0 489.616 489.616;" xml:space="preserve">
<g>
	<path d="M245.781,10.061c-0.002,0-0.001,0-0.003,0c-15.85,0-28.748,12.685-28.751,28.277c-0.001,2.347,1.902,4.25,4.249,4.25h0.001
		c2.347,0,4.249-1.902,4.25-4.25c0.001-10.906,9.086-19.778,20.251-19.778c0.002,0,0.002,0,0.003,0c2.347,0,4.249-1.903,4.25-4.249
		C250.031,11.964,248.128,10.061,245.781,10.061z"/>
	<path d="M382.205,149.176c0-14.099-11.47-25.57-25.567-25.57l-30.428,0c-0.247-0.394-0.547-0.762-0.93-1.069L268.446,77.03v-8.19
		c9.668-7.239,15.373-18.476,15.373-30.5C283.819,17.2,266.319,0,244.808,0c-21.511,0-39.011,17.199-39.011,38.338
		c0,12.023,5.704,23.26,15.372,30.501v8.19l-56.832,45.507c-0.383,0.307-0.683,0.674-0.93,1.068l-30.426-0.001
		c-14.099,0.001-25.569,11.471-25.57,25.571c0.001,12.007,8.324,22.103,19.503,24.835v294.298c0,11.75,9.559,21.309,21.309,21.309
		h193.17c11.749,0,21.309-9.559,21.309-21.309V174.012C373.881,171.281,382.206,161.185,382.205,149.176z M228.076,82.388
		c1.007-0.807,1.594-2.027,1.594-3.317V66.636c0-1.428-0.717-2.76-1.908-3.546c-8.431-5.568-13.464-14.821-13.464-24.751
		c0-16.453,13.687-29.838,30.511-29.838c16.824,0,30.511,13.386,30.511,29.839c0,9.932-5.034,19.184-13.464,24.75
		c-1.192,0.787-1.909,2.119-1.909,3.547v12.436c0,1.291,0.586,2.511,1.594,3.317l51.476,41.217l-136.414-0.001L228.076,82.388z
		 M341.393,481.116H176.002V393.36c0-2.347-1.903-4.25-4.25-4.25c-2.347,0-4.25,1.903-4.25,4.25v87.756h-19.279
		c-7.063,0-12.809-5.746-12.809-12.809V174.744l218.787,0.001v49.404H307.7c-2.347,0-4.25,1.903-4.25,4.25
		c0,2.347,1.903,4.25,4.25,4.25h46.502v31.592h-86.505c-2.347,0-4.25,1.903-4.25,4.25s1.903,4.25,4.25,4.25h86.505v31.592H307.7
		c-2.347,0-4.25,1.903-4.25,4.25c0,2.347,1.903,4.25,4.25,4.25h46.502v31.593H307.7c-2.347,0-4.25,1.903-4.25,4.25
		c0,2.347,1.903,4.25,4.25,4.25h46.502v31.592h-86.505c-2.347,0-4.25,1.903-4.25,4.25c0,2.347,1.903,4.25,4.25,4.25h86.505v31.592
		H307.7c-2.347,0-4.25,1.903-4.25,4.25c0,2.347,1.903,4.25,4.25,4.25h46.502v35.197C354.202,475.37,348.456,481.116,341.393,481.116
		z M356.638,166.245l-223.656-0.001c-9.412-0.001-17.07-7.658-17.071-17.069c0.001-9.413,7.659-17.07,17.07-17.071l223.655,0.002
		c9.411,0,17.067,7.658,17.067,17.07c0,0.576-0.03,1.144-0.086,1.705h-75.363c-2.347,0-4.25,1.903-4.25,4.25
		c0,2.347,1.903,4.25,4.25,4.25h72.03C367.169,163.538,362.22,166.244,356.638,166.245z"/>
	<path d="M276.765,150.882h-26.871c-2.347,0-4.25,1.903-4.25,4.25c0,2.347,1.903,4.25,4.25,4.25h26.871
		c2.347,0,4.25-1.903,4.25-4.25C281.015,152.785,279.112,150.882,276.765,150.882z"/>
	<path d="M171.752,341.226c-2.347,0-4.25,1.903-4.25,4.25v26.336c0,2.347,1.903,4.25,4.25,4.25c2.347,0,4.25-1.903,4.25-4.25
		v-26.336C176.002,343.129,174.1,341.226,171.752,341.226z"/>
</g>
<g>
</g>
<g>
</g>
<g>
</g>
<g>
</g>
<g>
</g>
<g>
</g>
<g>
</g>
<g>
</g>
<g>
</g>
<g>
</g>
<g>
</g>
<g>
</g>
<g>
</g>
<g>
</g>
<g>
</g>
</svg>
