<?xml version="1.0" encoding="iso-8859-1"?>
<!-- Generator: Adobe Illustrator 18.0.0, SVG Export Plug-In . SVG Version: 6.00 Build 0)  -->
<!DOCTYPE svg PUBLIC "-//W3C//DTD SVG 1.1//EN" "http://www.w3.org/Graphics/SVG/1.1/DTD/svg11.dtd">
<svg version="1.1" id="Capa_1" xmlns="http://www.w3.org/2000/svg" xmlns:xlink="http://www.w3.org/1999/xlink" x="0px" y="0px"
	 viewBox="0 0 67.626 67.626" style="enable-background:new 0 0 67.626 67.626;" xml:space="preserve">
<path style="fill:#231F20;" d="M49.855,1.491h-2.854V1.001c0-0.285-0.122-0.557-0.335-0.747s-0.497-0.285-0.78-0.247l-21.625,2.5
	c-0.504,0.058-0.885,0.485-0.885,0.993v1.063h-5.604c-0.552,0-1,0.448-1,1v3.75c0,0.552,0.448,1,1,1h5.604v1.063
	c0,0.508,0.381,0.935,0.885,0.993l7.913,0.915v9.092H31.66c-2.206,0-4,1.794-4,4v37.25c0,2.206,1.794,4,4,4h7.694
	c2.206,0,4-1.794,4-4v-37.25c0-2.206-1.794-4-4-4h-0.514v-8.321l7.045,0.814c0.038,0.005,0.077,0.007,0.115,0.007
	c0.244,0,0.481-0.089,0.665-0.253c0.213-0.19,0.335-0.461,0.335-0.747v-0.489h2.854c0.552,0,1-0.448,1-1V2.491
	C50.855,1.938,50.407,1.491,49.855,1.491z M18.772,8.314v-1.75h4.604v1.75H18.772z M29.66,62.126v-29.25h11.694v29.25H29.66z
	 M41.355,30.876H29.66v-1h11.694V30.876z M39.355,65.626H31.66c-0.929,0-1.705-0.64-1.929-1.5h11.552
	C41.06,64.987,40.284,65.626,39.355,65.626z M41.355,26.376v1.5H29.66v-1.5c0-1.103,0.897-2,2-2h1.514h4.667h1.514
	C40.458,24.376,41.355,25.273,41.355,26.376z M36.841,13.824v8.552h-2.667v-8.861l0.25,0.029L36.841,13.824z M45.001,12.754
	l-19.625-2.269V9.314v-3.75V4.393l19.625-2.269v0.367v9.896V12.754z M48.855,11.387h-1.854V3.491h1.854V11.387z M32.605,7.439
	c0,0.552-0.448,1-1,1h-4.083c-0.552,0-1-0.448-1-1s0.448-1,1-1h4.083C32.157,6.439,32.605,6.887,32.605,7.439z"/>
<g>
</g>
<g>
</g>
<g>
</g>
<g>
</g>
<g>
</g>
<g>
</g>
<g>
</g>
<g>
</g>
<g>
</g>
<g>
</g>
<g>
</g>
<g>
</g>
<g>
</g>
<g>
</g>
<g>
</g>
</svg>
