<?xml version="1.0" encoding="iso-8859-1"?>
<!-- Generator: Adobe Illustrator 16.0.0, SVG Export Plug-In . SVG Version: 6.00 Build 0)  -->
<!DOCTYPE svg PUBLIC "-//W3C//DTD SVG 1.1//EN" "http://www.w3.org/Graphics/SVG/1.1/DTD/svg11.dtd">
<svg version="1.1" id="Capa_1" xmlns="http://www.w3.org/2000/svg" xmlns:xlink="http://www.w3.org/1999/xlink" x="0px" y="0px"
	 width="96.879px" height="96.879px" viewBox="0 0 96.879 96.879" style="enable-background:new 0 0 96.879 96.879;"
	 xml:space="preserve">
<g>
	<g>
		<circle cx="48.439" cy="10.035" r="10.035"/>
		<path d="M45.966,20.529c-0.008,0.002-0.017,0.002-0.024,0.004c-0.839,0.2-1.663,0.512-2.449,0.904
			c0.312,4.077,2.647,7.955,4.946,7.955c2.285,0,4.606-3.835,4.938-7.888c-0.799-0.406-1.634-0.739-2.487-0.948l-2.5,2.517
			L45.966,20.529z"/>
		<path d="M67.45,51.018c1.753-17.525-5.014-24.239-12.586-28.884c-0.024-0.016-0.053-0.024-0.078-0.039
			c-0.475,4.13-2.745,8.211-5.746,8.7c-0.426,2.082,0.313,2.921,1.177,3.863c1.576,1.719,2.478,3.35-0.261,7.855
			c0.193,0.289,0.307,0.637,0.307,1.011c0,1.008-0.816,1.823-1.823,1.823s-1.823-0.815-1.823-1.823c0-1.007,0.816-1.823,1.823-1.823
			c0.1,0,0.195,0.014,0.291,0.029c2.386-3.911,1.508-4.891,0.411-6.086c-0.926-1.009-2.052-2.248-1.582-4.912
			c-2.834-0.683-4.97-4.564-5.457-8.524c-0.146,0.063-0.292,0.123-0.431,0.208c-7.402,4.54-14.008,11.19-12.23,28.955
			c0.201,2.01,1.896,3.509,3.872,3.509c0.13,0,0.261-0.007,0.393-0.021c2.142-0.215,3.703-2.123,3.489-4.265
			c-0.59-5.893-0.165-10.017,0.925-13.072c0,0,0,13.317,0,13.905c0,3.039,0.085,2.948,0.713,3.692l0.002,37.155
			c0,2.543,2.161,4.604,4.704,4.604s4.505-2.062,4.505-4.604l-0.002-32.018c0.183,0.01,0.364,0.023,0.548,0.023
			c0.036,0,0.072-0.006,0.108-0.006l-0.002,31.998c0,2.543,2.162,4.604,4.705,4.604s4.504-2.062,4.504-4.604l0.003-37.178
			c0.579-0.722,0.755-0.892,0.755-3.67c0-0.328,0-14.145,0-14.145c1.15,3.048,1.617,7.137,1.033,12.958
			c-0.182,1.832,0.938,3.484,2.604,4.061v3.861h-2.228v19.75h6.75V58.16h-2.229v-3.79C66.104,53.96,67.285,52.669,67.45,51.018z"/>
	</g>
</g>
<g>
</g>
<g>
</g>
<g>
</g>
<g>
</g>
<g>
</g>
<g>
</g>
<g>
</g>
<g>
</g>
<g>
</g>
<g>
</g>
<g>
</g>
<g>
</g>
<g>
</g>
<g>
</g>
<g>
</g>
</svg>
