<?xml version="1.0" encoding="iso-8859-1"?>
<!-- Generator: Adobe Illustrator 18.0.0, SVG Export Plug-In . SVG Version: 6.00 Build 0)  -->
<!DOCTYPE svg PUBLIC "-//W3C//DTD SVG 1.1//EN" "http://www.w3.org/Graphics/SVG/1.1/DTD/svg11.dtd">
<svg version="1.1" id="Capa_1" xmlns="http://www.w3.org/2000/svg" xmlns:xlink="http://www.w3.org/1999/xlink" x="0px" y="0px"
	 viewBox="0 0 317.109 317.109" style="enable-background:new 0 0 317.109 317.109;" xml:space="preserve">
<g>
	<path d="M304.164,204.379c-0.818-0.627-1.85-0.908-2.88-0.908h-11.33c0-11.371-9.219-20.59-20.59-20.59
		c-9.152,0-16.901,5.977-19.58,14.236c-0.075,0.061-0.151,0.12-0.222,0.188c-5.246,5.079-13.552,13.638-14.815,18.065
		c-1.389,4.865,0.352,9.878,4.023,12.902c-28.023-3.367-69.183-26.411-91.698-41.419c0-0.31,0.005-0.619-0.017-0.933L139.72,79.615
		c-0.485-7.043-6.473-12.374-13.45-12.175H31.976c-7-0.202-12.967,5.131-13.453,12.175l-7.335,106.304
		c-0.497,7.216,4.949,13.471,12.166,13.969c7.298,0.487,13.476-5.011,13.969-12.166l4.975-72.095l0.262,185.32
		c0,8.464,6.504,15.746,14.958,16.144c9.026,0.425,16.478-6.767,16.478-15.7v-99.025c0-2.894,2.346-5.239,5.239-5.239
		c2.894,0,5.239,2.346,5.239,5.239v98.581c0,8.464,6.504,15.746,14.958,16.144c9.026,0.425,16.478-6.767,16.478-15.7l0.262-182.447
		l4.746,68.778c0.493,7.142,6.66,12.656,13.969,12.166c2.11-0.146,4.061-0.795,5.764-1.805
		c20.794,13.459,66.555,38.606,93.511,42.307c-2.511,2.003-5.278,3.731-8.296,5.085l-28.453,12.763
		c-11.017,4.942-18.806,14.81-21.262,26.319c-3.02-5.859-2.125-13.928-2.064-14.441c0.424-3.438-2.015-6.573-5.453-7.007
		c-3.448-0.433-6.591,2.005-7.024,5.45c-1.18,9.347,0.783,27.304,15.501,32.961c3.675,9.127,12.616,15.589,23.042,15.589
		c0.848,0,34.315,0,34.315,0c3.443,0,6.445-2.653,6.547-6.094c0.106-3.561-2.748-6.48-6.284-6.48h-12.995
		c0.757-1.328,1.395-2.731,1.899-4.196l26.813-12.168v22.651c0,3.472,2.815,6.287,6.287,6.287h12.363
		c3.443,0,6.445-2.653,6.547-6.094c0.106-3.561-2.748-6.48-6.284-6.48h-6.339v-22.876c7.227-5.484,11.631-14.102,11.631-23.419
		v-18.643c0-5.308,4.303-9.611,9.611-9.611h5.385c4.976,0,9.433-3.076,11.198-7.728l4.81-12.68
		C306.352,207.755,305.807,205.638,304.164,204.379z"/>
	<circle cx="79.121" cy="28.481" r="28.481"/>
</g>
<g>
</g>
<g>
</g>
<g>
</g>
<g>
</g>
<g>
</g>
<g>
</g>
<g>
</g>
<g>
</g>
<g>
</g>
<g>
</g>
<g>
</g>
<g>
</g>
<g>
</g>
<g>
</g>
<g>
</g>
</svg>
