<?xml version="1.0" encoding="iso-8859-1"?>
<!-- Generator: Adobe Illustrator 18.0.0, SVG Export Plug-In . SVG Version: 6.00 Build 0)  -->
<!DOCTYPE svg PUBLIC "-//W3C//DTD SVG 1.1//EN" "http://www.w3.org/Graphics/SVG/1.1/DTD/svg11.dtd">
<svg version="1.1" id="Capa_1" xmlns="http://www.w3.org/2000/svg" xmlns:xlink="http://www.w3.org/1999/xlink" x="0px" y="0px"
	 viewBox="0 0 313.512 313.512" style="enable-background:new 0 0 313.512 313.512;" xml:space="preserve">
<g>
	<circle cx="139.976" cy="32.625" r="27.179"/>
	<path d="M63.787,19.952c-1.469-3.246-3.855-5.985-6.823-7.895c-2.009,0.323-4.049,0.547-6.119,0.64
		c-3.939,0.177-8.061-0.394-12.119-1.52c-3.669,1.886-6.625,4.966-8.342,8.735C18.81,20.968,9.55,30.026,8.188,41.508
		c-0.088,0.744,0.146,1.489,0.643,2.049c0.497,0.56,1.21,0.883,1.959,0.883h9.969c1.385,0,2.526-1.075,2.613-2.457
		c0.346-5.545,2.168-10.993,5.416-15.708c-0.027,0.407-0.062,0.812-0.062,1.226c0,10.134,8.215,18.35,18.349,18.35
		s18.35-8.215,18.35-18.35c0-0.242-0.027-0.477-0.036-0.716c3.034,4.597,4.748,9.851,5.082,15.198
		c0.086,1.382,1.228,2.457,2.613,2.457h9.969c0.749,0,1.462-0.323,1.959-0.883c0.497-0.56,0.731-1.305,0.643-2.049
		C84.306,30.135,75.206,21.148,63.787,19.952z"/>
	<path d="M312.029,225.483c-0.537-0.353-1.185-0.505-1.828-0.505h-8.13c0-8.131-6.592-14.723-14.723-14.723
		c-6.553,0-12.101,4.285-14.01,10.203c-0.048,0.04-0.104,0.067-0.15,0.111c-3.752,3.632-9.69,9.752-10.594,12.918
		c-1.259,4.41,1.076,8.992,5.264,10.627c-35.338-5.736-61.051-38.887-68.791-50.032c3.569-2.415,5.799-6.603,5.481-11.212
		l-7-101.446c-0.464-6.725-6.178-11.81-12.85-11.618h-83.408l-36.834-15.96c-1.397-0.605-2.849-0.429-4.262-0.429
		c-7.228,0-16.444,0-23.893,0c-3.066,0-6.177,0.75-7.692,3.592l-27.725,51.99c-1.802,3.378-0.797,7.704,2.497,9.656
		c1.14,0.676,2.384,0.995,3.61,0.995c2.529,0,4.976-1.36,6.249-3.748l10.184-19.097l-3.941,26.952
		c-0.605,2.214-0.143,4.583,1.25,6.407c0.143,0.187,0.298,0.36,0.456,0.531c-4.288,2.032-7.244,6.419-7.159,11.501
		c0.114,6.881,5.991,12.282,12.873,12.289l1.469,0.002v5.623c0,4.523,3.413,8.471,7.926,8.764c4.945,0.32,9.057-3.596,9.057-8.473
		v-5.896l5.569,0.006v5.6c0,4.523,3.413,8.471,7.926,8.764c4.945,0.32,9.057-3.596,9.057-8.473v-5.873l13.317,0.014
		c0.005,0,0.008,0,0.013,0c5.869,0,10.949-4.085,12.209-9.818l8.558-38.964h2.575l0.25,186.885c0,8.077,6.207,15.027,14.275,15.407
		c8.614,0.406,15.725-6.458,15.725-14.983v-94.5c0-2.761,2.239-5,5-5l0,0c2.761,0,5,2.239,5,5v94.077
		c0,8.077,6.207,15.027,14.275,15.407c8.614,0.406,15.725-6.458,15.725-14.983l0.25-174.119l4.529,65.644
		c0.455,6.595,5.946,11.641,12.458,11.641c0.289,0,0.581-0.011,0.873-0.03c0.088-0.006,0.172-0.023,0.26-0.031
		c6.762,10.175,32.919,45.927,71.025,53.416c-2.284,2.222-4.965,4.077-7.977,5.428L235.9,264.14
		c-7.878,3.534-13.447,10.59-15.204,18.82c-2.159-4.189-1.52-9.958-1.477-10.326c0.303-2.458-1.44-4.7-3.899-5.01
		c-2.452-0.314-4.713,1.435-5.023,3.897c-0.844,6.685,0.561,19.531,11.094,23.573c2.63,6.522,9.014,11.143,16.467,11.143
		c0.606,0,24.532,0,24.532,0c2.348,0,4.445-1.716,4.669-4.053c0.257-2.681-1.846-4.939-4.475-4.939h-9.302
		c0.54-0.947,0.991-1.948,1.352-2.992l19.189-8.708v16.197c0,2.483,2.013,4.496,4.496,4.496h8.834c2.348,0,4.445-1.716,4.669-4.053
		c0.257-2.681-1.846-4.939-4.475-4.939h-4.532v-16.357c5.168-3.922,8.317-10.084,8.317-16.746v-1.513v-11.818
		c0-3.796,3.077-6.872,6.872-6.872h3.851c3.558,0,6.745-2.2,8.007-5.526l3.44-9.067
		C313.824,227.969,313.361,226.358,312.029,225.483z M82.151,79.602l-7.092,32.29l-5.937-40.603l13.79,5.975
		C82.59,78.004,82.331,78.784,82.151,79.602z M149.87,129.266l-7.026,11.055c-1.404,2.209-4.628,2.209-6.032,0l-7.026-11.055
		c-0.512-0.806-0.681-1.782-0.468-2.713l6.319-33.503l-4.149-4.149c-1.382-1.382-1.382-3.622,0-5.004l5.838-5.838
		c1.382-1.382,3.622-1.382,5.004,0l5.838,5.838c1.382,1.382,1.382,3.622,0,5.004l-4.149,4.149l6.319,33.503
		C150.551,127.483,150.382,128.46,149.87,129.266z"/>
</g>
<g>
</g>
<g>
</g>
<g>
</g>
<g>
</g>
<g>
</g>
<g>
</g>
<g>
</g>
<g>
</g>
<g>
</g>
<g>
</g>
<g>
</g>
<g>
</g>
<g>
</g>
<g>
</g>
<g>
</g>
</svg>
