<?xml version="1.0" encoding="iso-8859-1"?>
<!-- Generator: Adobe Illustrator 18.0.0, SVG Export Plug-In . SVG Version: 6.00 Build 0)  -->
<!DOCTYPE svg PUBLIC "-//W3C//DTD SVG 1.1//EN" "http://www.w3.org/Graphics/SVG/1.1/DTD/svg11.dtd">
<svg version="1.1" id="Capa_1" xmlns="http://www.w3.org/2000/svg" xmlns:xlink="http://www.w3.org/1999/xlink" x="0px" y="0px"
	 viewBox="0 0 175.577 175.577" style="enable-background:new 0 0 175.577 175.577;" xml:space="preserve">
<path d="M173.381,23.476L156.74,6.835c-2.929-2.927-7.677-2.929-10.607,0L59.771,93.198c-0.003,0.003-0.006,0.007-0.009,0.01
	L2.196,150.773C0.79,152.18,0,154.087,0,156.077s0.79,3.898,2.197,5.304c6.253,6.252,14.415,9.558,23.605,9.558
	c14.069,0,29.738-7.921,44.12-22.302c7.358-7.358,11.305-16.632,11.825-25.995c1.978-0.009,3.871-0.796,5.271-2.194l86.362-86.363
	C176.31,31.154,176.31,26.406,173.381,23.476z M59.315,138.029c-11.548,11.549-23.45,17.909-33.513,17.909
	c-2.34,0-4.511-0.352-6.505-1.052l44.936-44.937C68.792,118.977,67.128,130.217,59.315,138.029z M81.715,104.537l-6.034-6.035
	l75.756-75.756l6.034,6.034L81.715,104.537z"/>
<g>
</g>
<g>
</g>
<g>
</g>
<g>
</g>
<g>
</g>
<g>
</g>
<g>
</g>
<g>
</g>
<g>
</g>
<g>
</g>
<g>
</g>
<g>
</g>
<g>
</g>
<g>
</g>
<g>
</g>
</svg>
