<?xml version="1.0" encoding="iso-8859-1"?>
<!-- Generator: Adobe Illustrator 19.0.0, SVG Export Plug-In . SVG Version: 6.00 Build 0)  -->
<svg version="1.1" id="Capa_1" xmlns="http://www.w3.org/2000/svg" xmlns:xlink="http://www.w3.org/1999/xlink" x="0px" y="0px"
	 viewBox="0 0 216 216" style="enable-background:new 0 0 216 216;" xml:space="preserve">
<g>
	<path d="M85.336,56.755c0.964-5.543,2.302-10.772,4.026-15.391c-8.403,4.17-15.248,11.015-19.418,19.418
		C74.564,59.057,79.793,57.718,85.336,56.755z"/>
	<path d="M65.515,79.752c0.622,1.966,6.696,5.865,18.169,8.428c-0.165-2.809-0.251-5.629-0.251-8.428
		c0-2.799,0.086-5.618,0.251-8.427C72.213,73.888,66.139,77.786,65.515,79.752z"/>
	<path d="M131.331,56.755c5.543,0.964,10.772,2.302,15.391,4.026c-4.17-8.403-11.015-15.248-19.418-19.417
		C129.029,45.983,130.368,51.212,131.331,56.755z"/>
	<path d="M85.336,102.75c-5.543-0.964-10.772-2.302-15.391-4.026c4.17,8.403,11.015,15.248,19.417,19.418
		C87.638,113.522,86.299,108.293,85.336,102.75z"/>
	<path d="M97.84,90.246c3.256,0.258,6.748,0.407,10.493,0.407c3.746,0,7.238-0.149,10.494-0.407
		c0.258-3.256,0.407-6.749,0.407-10.494c0-3.745-0.149-7.237-0.407-10.493c-3.256-0.258-6.749-0.407-10.495-0.407
		c-3.745,0-7.237,0.149-10.493,0.407c-0.258,3.256-0.407,6.748-0.407,10.493C97.433,83.498,97.582,86.99,97.84,90.246z"/>
	<path d="M108.333,54.852c2.799,0,5.619,0.086,8.428,0.251c-2.563-11.473-6.462-17.546-8.428-18.169
		c-1.966,0.624-5.864,6.698-8.427,18.169C102.715,54.938,105.534,54.852,108.333,54.852z"/>
	<path d="M133.234,79.752c0,2.799-0.086,5.619-0.251,8.428c11.473-2.563,17.546-6.462,18.169-8.428
		c-0.624-1.966-6.698-5.864-18.169-8.426C133.148,74.134,133.234,76.953,133.234,79.752z"/>
	<path d="M108.333,104.653c-2.798,0-5.618-0.086-8.426-0.251c2.563,11.47,6.461,17.544,8.426,18.169
		c1.966-0.622,5.865-6.696,8.428-18.169C113.952,104.567,111.132,104.653,108.333,104.653z"/>
	<path d="M131.331,102.75c-0.964,5.543-2.302,10.772-4.026,15.391c8.403-4.17,15.248-11.015,19.418-19.418
		C142.103,100.448,136.874,101.786,131.331,102.75z"/>
	<polygon points="89.038,176 97.789,176 93.463,164.054 	"/>
	<path d="M196,16.07C196,7.195,188.805,0,179.93,0H36.07C27.195,0,20,7.195,20,16.07V199.93c0,8.875,7.195,16.07,16.07,16.07H179.93
		c8.875,0,16.07-7.195,16.07-16.07V16.07z M108.333,22.919c31.338,0,56.834,25.495,56.834,56.833s-25.496,56.834-56.834,56.834
		S51.5,111.09,51.5,79.752S76.995,22.919,108.333,22.919z M63.277,176H59v13h-9v-34h13.474c7.621,0,13.619,2.413,13.619,10.377
		C77.093,173.44,70.554,176,63.277,176z M102.804,189l-2.704-6H86.629l-2.557,6h-9.145l14.602-34h8.161l14.454,34H102.804z
		 M129.729,168.157c4.72,1.524,10.815,3.54,10.815,10.472c0,8.014-6.44,11.603-13.323,11.603c-4.965,0-9.98-1.819-13.028-5.015
		l5.507-5.604c1.671,2.114,4.769,3.688,7.521,3.688c2.557,0,4.818-0.983,4.818-3.786c0-2.654-2.655-3.49-7.228-4.965
		c-4.425-1.426-8.898-3.688-8.898-9.98c0-7.719,6.981-10.915,13.471-10.915c3.934,0,8.358,1.476,11.406,4.277l-5.358,5.654
		c-1.426-1.819-4.032-2.999-6.195-2.999s-4.867,0.737-4.867,3.49C124.369,166.387,126.435,167.125,129.729,168.157z
		 M158.783,168.157c4.72,1.524,10.815,3.54,10.815,10.472c0,8.014-6.44,11.603-13.323,11.603c-4.965,0-9.98-1.819-13.028-5.015
		l5.507-5.604c1.671,2.114,4.769,3.688,7.521,3.688c2.557,0,4.818-0.983,4.818-3.786c0-2.654-2.655-3.49-7.228-4.965
		c-4.425-1.426-8.898-3.688-8.898-9.98c0-7.719,6.981-10.915,13.471-10.915c3.934,0,8.358,1.476,11.406,4.277l-5.358,5.654
		c-1.426-1.819-4.032-2.999-6.195-2.999s-4.867,0.737-4.867,3.49C153.424,166.387,155.489,167.125,158.783,168.157z"/>
	<path d="M62.786,161H59v9h3.639c3.146,0,6.047-1.329,6.047-4.623C68.686,162.035,65.785,161,62.786,161z"/>
</g>
<g>
</g>
<g>
</g>
<g>
</g>
<g>
</g>
<g>
</g>
<g>
</g>
<g>
</g>
<g>
</g>
<g>
</g>
<g>
</g>
<g>
</g>
<g>
</g>
<g>
</g>
<g>
</g>
<g>
</g>
</svg>
