<?xml version="1.0" encoding="iso-8859-1"?>
<!-- Generator: Adobe Illustrator 16.0.0, SVG Export Plug-In . SVG Version: 6.00 Build 0)  -->
<!DOCTYPE svg PUBLIC "-//W3C//DTD SVG 1.1//EN" "http://www.w3.org/Graphics/SVG/1.1/DTD/svg11.dtd">
<svg version="1.1" id="Capa_1" xmlns="http://www.w3.org/2000/svg" xmlns:xlink="http://www.w3.org/1999/xlink" x="0px" y="0px"
	 width="465.851px" height="465.851px" viewBox="0 0 465.851 465.851" style="enable-background:new 0 0 465.851 465.851;"
	 xml:space="preserve">
<g>
	<path d="M313.749,106.417c2.293-3.892,3.646-8.408,3.646-13.243c0-14.411-11.686-26.093-26.096-26.093h-24.908
		c0.018-0.411,0.065-0.824,0.065-1.241V33.543C266.457,15.016,251.449,0,232.919,0c-18.527,0-33.549,15.016-33.549,33.543V65.84
		c0,0.417,0.059,0.831,0.071,1.241h-24.905c-14.411,0-26.093,11.683-26.093,26.093c0,4.841,1.339,9.357,3.644,13.243
		c-19.86,10.374-33.452,31.159-33.452,55.08v242.237c0,34.253,27.866,62.116,62.11,62.116h104.349
		c34.259,0,62.122-27.863,62.122-62.116V161.491C347.204,137.576,333.609,116.791,313.749,106.417z M285.088,441.002H180.739
		c-20.548,0-37.258-16.716-37.258-37.268V161.491c0-20.558,16.716-37.267,37.258-37.267h104.349
		c20.552,0,37.267,16.716,37.267,37.267v34.372h-48.852c-6.414,0-11.598,5.187-11.598,11.591c0,6.41,5.184,11.597,11.598,11.597
		h48.852v53.011h-48.852c-6.414,0-11.598,5.189-11.598,11.585c0,6.413,5.184,11.597,11.598,11.597h48.852v54.663h-48.852
		c-6.414,0-11.598,5.184-11.598,11.597c0,6.396,5.184,11.586,11.598,11.586h48.852v30.646
		C322.354,424.286,305.64,441.002,285.088,441.002z"/>
</g>
<g>
</g>
<g>
</g>
<g>
</g>
<g>
</g>
<g>
</g>
<g>
</g>
<g>
</g>
<g>
</g>
<g>
</g>
<g>
</g>
<g>
</g>
<g>
</g>
<g>
</g>
<g>
</g>
<g>
</g>
</svg>
