<?xml version="1.0" encoding="iso-8859-1"?>
<!-- Generator: Adobe Illustrator 16.0.0, SVG Export Plug-In . SVG Version: 6.00 Build 0)  -->
<!DOCTYPE svg PUBLIC "-//W3C//DTD SVG 1.1//EN" "http://www.w3.org/Graphics/SVG/1.1/DTD/svg11.dtd">
<svg version="1.1" id="Capa_1" xmlns="http://www.w3.org/2000/svg" xmlns:xlink="http://www.w3.org/1999/xlink" x="0px" y="0px"
	 width="604.483px" height="604.482px" viewBox="0 0 604.483 604.482" style="enable-background:new 0 0 604.483 604.482;"
	 xml:space="preserve">
<g>
	<g>
		<path d="M542.989,60.754c-19.701-19.616-42.721-34.809-68.418-45.156c-24.745-9.964-50.886-15.016-77.698-15.016
			c-27.255,0-53.798,5.211-78.891,15.489c-26.057,10.672-49.3,26.317-69.084,46.501c-29.653,30.252-49.055,68.189-56.189,109.823
			c-1.566,6.223-7.995,31.437-16.427,60.055c-16.26,55.186-26.292,77.115-30.824,85.275c-6.446,11.607-9.012,25.232-7.226,38.365
			c0.679,4.988,1.979,9.871,3.842,14.525l-68.309,68.309c-1.948-0.17-3.911-0.256-5.884-0.256
			c-15.101-0.002-29.9,5.186-41.673,14.605c-12.34,9.875-20.762,23.635-24.358,39.795c-1.788,8.033-1.797,16.516-0.027,24.531
			c3.065,13.881,9.834,26.217,19.577,35.678c5.184,5.033,11.08,9.146,17.481,12.232c3.087,6.402,7.2,12.299,12.234,17.482
			c9.459,9.742,21.797,16.512,35.678,19.576c3.995,0.883,8.097,1.33,12.194,1.33c4.143,0,8.295-0.457,12.341-1.357
			c10.336-2.301,19.692-6.576,27.802-12.707c8.121-6.139,14.581-13.803,19.202-22.779c5.863-11.389,8.266-24.01,7.153-36.445
			l68.302-68.303c7.279,2.895,14.942,4.367,22.791,4.367c10.583,0,21.059-2.746,30.294-7.941
			c8.196-4.611,30.19-14.758,85.406-30.904c28.621-8.369,53.598-14.637,59.64-16.133c20.342-3.48,39.954-9.941,58.323-19.219
			c19.587-9.893,37.443-22.834,53.074-38.465c19.788-19.787,35.11-42.885,45.542-68.65c10.067-24.864,15.156-51.122,15.128-78.043
			c-0.029-26.92-5.175-53.165-15.295-78.005C578.2,103.57,562.824,80.503,542.989,60.754z M423.175,369.729
			c0,0-90.345,21.979-140.207,43.395c-6.481,2.783-12.28,5.557-17.105,8.271c-2.913,1.639-6.113,2.439-9.289,2.439
			c-4.864,0-9.669-1.879-13.29-5.498l-13.058-13.057l-15.559-15.559l-15.559-15.559l-13.112-13.111
			c-5.966-5.967-7.188-15.15-3.091-22.525c2.632-4.738,5.333-10.434,8.056-16.801c21.233-49.68,43.698-140.509,43.698-140.509
			l0.008-0.005c5.23-32.38,20.165-63.496,44.821-88.65c32.09-32.737,74.723-49.137,117.382-49.137
			c41.957,0,83.938,15.877,115.89,47.689c64.42,64.141,64.506,168.36,0.258,232.608c-25.359,25.359-56.948,40.688-89.841,46
			L423.175,369.729z M124.07,511.438c-4.133,4.133-5.361,10.361-3.08,15.742c5.45,12.855-0.875,29.518-18.973,33.545
			c-0.997,0.221-2.015,0.332-3.033,0.332c-0.993,0-1.985-0.105-2.958-0.32c-12.058-2.662-18.903-10.922-20.537-19.943
			c-1.104-6.092-5.801-10.789-11.894-11.893c-9.02-1.635-17.28-8.48-19.942-20.537c-0.435-1.971-0.426-4.021,0.013-5.99
			c3.095-13.912,13.652-20.867,24.21-20.865c3.179,0,6.359,0.631,9.334,1.891c1.801,0.764,3.697,1.135,5.578,1.135
			c3.738,0,7.415-1.463,10.165-4.213l75.866-75.867l15.558,15.559l15.558,15.559L124.07,511.438z"/>
		<path d="M98.985,604.399c-4.133,0-8.272-0.451-12.302-1.342c-13.977-3.086-26.4-9.903-35.929-19.716
			c-5.011-5.16-9.131-11.032-12.25-17.457c-6.421-3.115-12.293-7.236-17.455-12.248c-9.813-9.528-16.631-21.952-19.717-35.929
			c-1.786-8.085-1.776-16.643,0.027-24.747c3.621-16.271,12.105-30.13,24.534-40.077c11.859-9.489,26.767-14.715,41.977-14.715
			c1.903,0,3.818,0.08,5.704,0.238l67.912-67.912c-1.825-4.632-3.087-9.453-3.751-14.337c-1.8-13.239,0.787-26.974,7.285-38.676
			c4.522-8.141,14.534-30.032,30.782-85.173c8.354-28.353,14.681-53.12,16.421-60.036c7.142-41.685,26.618-79.753,56.317-110.051
			c19.832-20.232,43.131-35.916,69.252-46.614c25.154-10.302,51.76-15.526,79.08-15.526c26.876,0,53.081,5.064,77.885,15.052
			c25.761,10.373,48.835,25.602,68.584,45.265c19.884,19.797,35.296,42.919,45.81,68.726c10.145,24.899,15.303,51.208,15.332,78.193
			c0.028,26.989-5.073,53.31-15.164,78.231c-10.458,25.829-25.817,48.982-45.652,68.816c-15.669,15.669-33.568,28.642-53.202,38.558
			C472.061,402.219,452.39,408.7,432,412.189c-6.803,1.686-31.314,7.854-59.583,16.119c-55.171,16.134-77.125,26.26-85.302,30.86
			c-9.31,5.237-19.87,8.006-30.539,8.006c-7.789,0-15.415-1.44-22.669-4.281l-67.905,67.905c1.082,12.586-1.416,25.197-7.227,36.485
			c-4.655,9.044-11.164,16.766-19.345,22.949c-8.168,6.175-17.587,10.479-27.996,12.797
			C107.351,603.938,103.163,604.399,98.985,604.399z M67.88,439.169c-14.992,0-29.678,5.148-41.361,14.496
			c-12.25,9.803-20.612,23.466-24.183,39.513c-1.772,7.963-1.782,16.371-0.027,24.315c3.043,13.784,9.765,26.034,19.437,35.427
			c5.127,4.978,10.965,9.062,17.351,12.141l0.157,0.075l0.076,0.158c3.081,6.389,7.166,12.226,12.143,17.351
			c9.391,9.672,21.642,16.394,35.427,19.437c7.961,1.76,16.337,1.748,24.318-0.027c10.268-2.285,19.557-6.53,27.609-12.617
			c8.061-6.094,14.473-13.7,19.06-22.609c5.76-11.189,8.215-23.698,7.099-36.172l-0.021-0.233l0.166-0.165l68.535-68.535
			l0.306,0.121c7.229,2.875,14.834,4.332,22.606,4.332c10.498,0,20.888-2.724,30.049-7.877c8.213-4.621,30.245-14.787,85.511-30.948
			c28.288-8.272,52.816-14.444,59.66-16.139c20.328-3.479,39.903-9.93,58.218-19.18c19.539-9.868,37.353-22.778,52.946-38.372
			c19.739-19.738,35.025-42.78,45.432-68.484c10.043-24.802,15.12-50.997,15.092-77.855c-0.029-26.856-5.163-53.038-15.258-77.817
			c-10.463-25.681-25.801-48.692-45.589-68.394c-19.654-19.568-42.617-34.724-68.252-45.046
			c-24.686-9.94-50.764-14.979-77.512-14.979c-27.189,0-53.668,5.199-78.701,15.452c-25.994,10.646-49.181,26.253-68.917,46.388
			c-29.555,30.152-48.938,68.036-56.053,109.557c-1.749,6.958-8.081,31.742-16.44,60.112
			c-16.274,55.234-26.324,77.199-30.867,85.377c-6.394,11.514-8.939,25.028-7.167,38.055c0.668,4.91,1.95,9.758,3.811,14.407
			l0.123,0.306l-68.707,68.707l-0.232-0.021C71.789,439.255,69.824,439.169,67.88,439.169z M98.985,561.558
			c-1.037,0-2.068-0.111-3.066-0.332c-11.243-2.482-19.063-10.087-20.921-20.343c-1.071-5.909-5.581-10.419-11.491-11.489
			c-10.254-1.858-17.859-9.68-20.341-20.922c-0.446-2.021-0.441-4.167,0.014-6.206c2.873-12.913,12.565-21.257,24.694-21.257v0.5
			l0.004-0.5c3.299,0,6.505,0.649,9.529,1.931c1.714,0.727,3.525,1.095,5.383,1.095c3.705,0,7.189-1.444,9.811-4.066l76.22-76.221
			l31.823,31.824l-76.219,76.221c-4.017,4.017-5.184,9.98-2.973,15.193c2.837,6.693,2.559,14.234-0.765,20.69
			c-3.527,6.852-10.119,11.659-18.56,13.538C101.095,561.442,100.038,561.558,98.985,561.558z M67.873,482.009
			c-8.84,0-20.356,5.362-23.718,20.474c-0.423,1.898-0.428,3.896-0.013,5.774c2.393,10.835,9.699,18.368,19.543,20.152
			c6.324,1.146,11.15,5.972,12.296,12.296c1.783,9.846,9.316,17.151,20.152,19.544c1.871,0.414,3.872,0.41,5.775-0.012
			c8.146-1.812,14.499-6.437,17.887-13.019c3.188-6.191,3.455-13.424,0.733-19.843c-2.37-5.59-1.12-11.985,3.187-16.291
			l75.512-75.514l-30.409-30.41l-75.513,75.514c-2.811,2.812-6.546,4.359-10.518,4.359c-1.993,0-3.935-0.396-5.773-1.175
			c-2.9-1.228-5.975-1.851-9.139-1.851H67.873z M256.575,424.335c-5.157,0-10.002-2.005-13.643-5.645l-57.287-57.285
			c-6.063-6.063-7.368-15.571-3.174-23.122c2.507-4.513,5.209-10.149,8.033-16.754c20.975-49.076,43.448-139.525,43.673-140.433
			l0.016-0.062c5.462-33.686,21.001-64.398,44.942-88.823c31.155-31.783,72.968-49.287,117.739-49.287
			c43.979,0,85.261,16.988,116.242,47.835c31.245,31.11,48.479,72.521,48.527,116.607c0.048,44.087-17.095,85.536-48.269,116.709
			c-24.623,24.623-55.754,40.572-90.029,46.126l-0.051,0.015c-0.903,0.219-90.875,22.213-140.127,43.367
			c-6.72,2.887-12.459,5.661-17.058,8.248C263.197,423.469,259.9,424.335,256.575,424.335z M235.098,181.535
			c-1.193,4.789-23.144,92.352-43.674,140.387c-2.837,6.636-5.555,12.305-8.079,16.848c-3.978,7.161-2.741,16.179,3.007,21.929
			l57.287,57.285c3.452,3.451,8.046,5.352,12.936,5.352c3.154,0,6.282-0.821,9.043-2.375c4.629-2.604,10.4-5.396,17.153-8.295
			c48.12-20.668,134.987-42.122,140.06-43.366l0.011-0.022l0.257-0.048c34.102-5.508,65.073-21.366,89.567-45.86
			c30.984-30.985,48.022-72.182,47.976-116.001c-0.048-43.818-17.178-84.979-48.232-115.899
			c-30.793-30.659-71.824-47.544-115.537-47.544c-44.499,0-86.06,17.397-117.025,48.987c-23.818,24.299-39.27,54.861-44.685,88.38
			L235.098,181.535z"/>
	</g>
</g>
<g>
</g>
<g>
</g>
<g>
</g>
<g>
</g>
<g>
</g>
<g>
</g>
<g>
</g>
<g>
</g>
<g>
</g>
<g>
</g>
<g>
</g>
<g>
</g>
<g>
</g>
<g>
</g>
<g>
</g>
</svg>
