<?xml version="1.0" encoding="iso-8859-1"?>
<!-- Generator: Adobe Illustrator 18.0.0, SVG Export Plug-In . SVG Version: 6.00 Build 0)  -->
<!DOCTYPE svg PUBLIC "-//W3C//DTD SVG 1.1//EN" "http://www.w3.org/Graphics/SVG/1.1/DTD/svg11.dtd">
<svg version="1.1" id="Capa_1" xmlns="http://www.w3.org/2000/svg" xmlns:xlink="http://www.w3.org/1999/xlink" x="0px" y="0px"
	 viewBox="0 0 66.515 66.515" style="enable-background:new 0 0 66.515 66.515;" xml:space="preserve">
<path style="fill:#231F20;" d="M22.382,6.482c-2.917,0-5.29,2.373-5.29,5.29s2.373,5.29,5.29,5.29s5.29-2.373,5.29-5.29
	S25.299,6.482,22.382,6.482z M22.382,16.063c-2.365,0-4.29-1.924-4.29-4.29s1.925-4.29,4.29-4.29s4.29,1.924,4.29,4.29
	S24.748,16.063,22.382,16.063z M19.167,11.272h6.433c0.276,0,0.5,0.224,0.5,0.5s-0.224,0.5-0.5,0.5h-6.433
	c-0.276,0-0.5-0.224-0.5-0.5S18.89,11.272,19.167,11.272z M22.382,20.806c-2.917,0-5.29,2.373-5.29,5.29s2.373,5.29,5.29,5.29
	s5.29-2.373,5.29-5.29S25.299,20.806,22.382,20.806z M22.382,30.386c-2.365,0-4.29-1.924-4.29-4.29s1.925-4.29,4.29-4.29
	s4.29,1.924,4.29,4.29S24.748,30.386,22.382,30.386z M25.01,23.468c0.195,0.195,0.195,0.512,0,0.707l-4.549,4.549
	c-0.098,0.098-0.226,0.146-0.354,0.146s-0.256-0.049-0.354-0.146c-0.195-0.195-0.195-0.512,0-0.707l4.549-4.549
	C24.499,23.272,24.815,23.272,25.01,23.468z M22.382,35.129c-2.917,0-5.29,2.373-5.29,5.29s2.373,5.29,5.29,5.29
	s5.29-2.373,5.29-5.29S25.299,35.129,22.382,35.129z M22.382,44.709c-2.365,0-4.29-1.924-4.29-4.29s1.925-4.29,4.29-4.29
	s4.29,1.924,4.29,4.29S24.748,44.709,22.382,44.709z M25.01,37.791c0.195,0.195,0.195,0.512,0,0.707l-4.549,4.549
	c-0.098,0.098-0.226,0.146-0.354,0.146s-0.256-0.049-0.354-0.146c-0.195-0.195-0.195-0.512,0-0.707l4.549-4.549
	C24.499,37.596,24.815,37.596,25.01,37.791z M22.382,49.452c-2.917,0-5.29,2.373-5.29,5.29s2.373,5.29,5.29,5.29
	s5.29-2.373,5.29-5.29S25.299,49.452,22.382,49.452z M22.382,59.032c-2.365,0-4.29-1.924-4.29-4.29s1.925-4.29,4.29-4.29
	s4.29,1.924,4.29,4.29S24.748,59.032,22.382,59.032z M25.01,52.114c0.195,0.195,0.195,0.512,0,0.707l-4.549,4.549
	c-0.098,0.098-0.226,0.146-0.354,0.146s-0.256-0.049-0.354-0.146c-0.195-0.195-0.195-0.512,0-0.707l4.549-4.549
	C24.499,51.919,24.815,51.919,25.01,52.114z M44.132,6.482c-2.917,0-5.29,2.373-5.29,5.29s2.373,5.29,5.29,5.29
	s5.29-2.373,5.29-5.29S47.049,6.482,44.132,6.482z M44.132,16.063c-2.365,0-4.29-1.924-4.29-4.29s1.925-4.29,4.29-4.29
	s4.29,1.924,4.29,4.29S46.498,16.063,44.132,16.063z M40.917,11.272h6.433c0.276,0,0.5,0.224,0.5,0.5s-0.224,0.5-0.5,0.5h-6.433
	c-0.276,0-0.5-0.224-0.5-0.5S40.64,11.272,40.917,11.272z M44.132,20.806c-2.917,0-5.29,2.373-5.29,5.29s2.373,5.29,5.29,5.29
	s5.29-2.373,5.29-5.29S47.049,20.806,44.132,20.806z M44.132,30.386c-2.365,0-4.29-1.924-4.29-4.29s1.925-4.29,4.29-4.29
	s4.29,1.924,4.29,4.29S46.498,30.386,44.132,30.386z M46.76,23.468c0.195,0.195,0.195,0.512,0,0.707l-4.549,4.549
	c-0.098,0.098-0.226,0.146-0.354,0.146s-0.256-0.049-0.354-0.146c-0.195-0.195-0.195-0.512,0-0.707l4.549-4.549
	C46.249,23.272,46.565,23.272,46.76,23.468z M44.132,35.129c-2.917,0-5.29,2.373-5.29,5.29s2.373,5.29,5.29,5.29
	s5.29-2.373,5.29-5.29S47.049,35.129,44.132,35.129z M44.132,44.709c-2.365,0-4.29-1.924-4.29-4.29s1.925-4.29,4.29-4.29
	s4.29,1.924,4.29,4.29S46.498,44.709,44.132,44.709z M46.76,37.791c0.195,0.195,0.195,0.512,0,0.707l-4.549,4.549
	c-0.098,0.098-0.226,0.146-0.354,0.146s-0.256-0.049-0.354-0.146c-0.195-0.195-0.195-0.512,0-0.707l4.549-4.549
	C46.249,37.596,46.565,37.596,46.76,37.791z M44.132,49.452c-2.917,0-5.29,2.373-5.29,5.29s2.373,5.29,5.29,5.29
	s5.29-2.373,5.29-5.29S47.049,49.452,44.132,49.452z M44.132,59.032c-2.365,0-4.29-1.924-4.29-4.29s1.925-4.29,4.29-4.29
	s4.29,1.924,4.29,4.29S46.498,59.032,44.132,59.032z M46.76,52.114c0.195,0.195,0.195,0.512,0,0.707l-4.549,4.549
	c-0.098,0.098-0.226,0.146-0.354,0.146s-0.256-0.049-0.354-0.146c-0.195-0.195-0.195-0.512,0-0.707l4.549-4.549
	C46.249,51.919,46.565,51.919,46.76,52.114z M53.007,0h-39.5c-1.654,0-3,1.346-3,3v60.515c0,1.654,1.346,3,3,3h39.5
	c1.654,0,3-1.346,3-3V3C56.007,1.346,54.662,0,53.007,0z M54.007,63.515c0,0.551-0.448,1-1,1h-39.5c-0.552,0-1-0.449-1-1V3
	c0-0.551,0.448-1,1-1h39.5c0.552,0,1,0.449,1,1V63.515z M33.757,7.535v51.339c0,0.276-0.224,0.5-0.5,0.5c-0.276,0-0.5-0.224-0.5-0.5
	V7.535c0-0.276,0.224-0.5,0.5-0.5C33.534,7.035,33.757,7.259,33.757,7.535z"/>
<g>
</g>
<g>
</g>
<g>
</g>
<g>
</g>
<g>
</g>
<g>
</g>
<g>
</g>
<g>
</g>
<g>
</g>
<g>
</g>
<g>
</g>
<g>
</g>
<g>
</g>
<g>
</g>
<g>
</g>
</svg>
