<?xml version="1.0" encoding="iso-8859-1"?>
<!-- Generator: Adobe Illustrator 17.1.0, SVG Export Plug-In . SVG Version: 6.00 Build 0)  -->
<!DOCTYPE svg PUBLIC "-//W3C//DTD SVG 1.1//EN" "http://www.w3.org/Graphics/SVG/1.1/DTD/svg11.dtd">
<svg version="1.1" id="Capa_1" xmlns="http://www.w3.org/2000/svg" xmlns:xlink="http://www.w3.org/1999/xlink" x="0px" y="0px"
	 viewBox="0 0 226.072 226.072" style="enable-background:new 0 0 226.072 226.072;" xml:space="preserve">
<path d="M212.608,136.226c1.822-1.163,3.122-3.092,3.412-5.375c0.478-3.765-1.931-7.293-5.611-8.219l-2.13-0.536l3.18-9.426
	c0.772-2.289,0.395-4.81-1.015-6.771c-1.408-1.963-3.676-3.126-6.092-3.126H191.64c-2.415,0-4.684,1.163-6.092,3.125
	c-1.409,1.963-1.787,4.483-1.015,6.771l1.273,3.776l-6.902-1.736c-3.038-3.842-8.611-7.94-17.032-7.94
	c-6.53,0-11.355,3.653-15.613,6.876c-4.605,3.487-8.583,6.498-15.044,6.498c-6.704,0-10.482-0.763-12.253-2.473
	c-2.185-2.11-3.292-7.339-3.292-15.541c0-11.77,0.062-19.475,0.113-23.867c0.071-6.277-3.217-12.197-8.583-15.45L44.366,24.73
	c-1.792-1.085-3.957-1.373-5.969-0.791c-2.013,0.581-3.69,1.978-4.627,3.851c-1.484,2.968-3.818,12.199,6.53,33.759
	c4.204,8.76,8.021,13.822,10.807,17.519c3.818,5.065,5.105,6.771,4.917,14.653c-0.332,13.957-18.748,16.432-22.437,16.786
	c-10.665,1.026-15.806,1.64-16.02,1.666c-2.336,0.28-4.405,1.64-5.588,3.673c-1.184,2.034-1.345,4.505-0.435,6.674
	c0.184,0.438,1.919,4.391,6.103,9.292l-12.4,3.904c-3.95,1.243-6.145,5.455-4.9,9.406c1.008,3.201,3.964,5.249,7.151,5.249
	c0.746,0,1.505-0.112,2.255-0.349l21.608-6.804c8.894,5.239,21.359,9.413,38.539,9.413c28.077,0,37.173-2.624,46.803-5.402
	c4.692-1.354,9.124-2.634,16.274-3.738c13.968-2.159,22.61-2.628,28.329-2.938c3.665-0.199,6.313-0.343,8.68-0.836
	c3.444-0.718,6.02-1.709,7.713-2.505l5.028,0.032c-6.092,9.582-12.807,23.191-12.807,36.644c0,22.575,18.29,28.54,27.962,28.54
	l0.113-0.001l0.113,0.001c1.794,0,8.137-0.269,14.443-3.718c8.719-4.768,13.52-13.583,13.52-24.822
	C226.072,159.948,218.864,145.846,212.608,136.226z M164.57,129.01h-0.666c-4.143,0-7.5-3.357-7.5-7.5s3.357-7.5,7.5-7.5h0.666
	c4.143,0,7.5,3.357,7.5,7.5S168.713,129.01,164.57,129.01z"/>
<g>
</g>
<g>
</g>
<g>
</g>
<g>
</g>
<g>
</g>
<g>
</g>
<g>
</g>
<g>
</g>
<g>
</g>
<g>
</g>
<g>
</g>
<g>
</g>
<g>
</g>
<g>
</g>
<g>
</g>
</svg>
