<?xml version="1.0" encoding="UTF-8" standalone="no"?>
<!-- Created with Inkscape (http://www.inkscape.org/) -->

<svg
   xmlns:dc="http://purl.org/dc/elements/1.1/"
   xmlns:cc="http://creativecommons.org/ns#"
   xmlns:rdf="http://www.w3.org/1999/02/22-rdf-syntax-ns#"
   xmlns:svg="http://www.w3.org/2000/svg"
   xmlns="http://www.w3.org/2000/svg"
   xmlns:sodipodi="http://sodipodi.sourceforge.net/DTD/sodipodi-0.dtd"
   xmlns:inkscape="http://www.inkscape.org/namespaces/inkscape"
   width="20.058474mm"
   height="20.585253mm"
   viewBox="0 0 71.073332 72.939872"
   id="svg2"
   version="1.1"
   inkscape:version="0.91 r13725"
   sodipodi:docname="247.svg">
  <defs
     id="defs4" />
  <sodipodi:namedview
     id="base"
     pagecolor="#ffffff"
     bordercolor="#666666"
     borderopacity="1.0"
     inkscape:pageopacity="0.0"
     inkscape:pageshadow="2"
     inkscape:zoom="0.7"
     inkscape:cx="53.436987"
     inkscape:cy="-123.59133"
     inkscape:document-units="px"
     inkscape:current-layer="layer1"
     showgrid="false"
     fit-margin-top="0"
     fit-margin-left="0"
     fit-margin-right="0"
     fit-margin-bottom="0"
     inkscape:window-width="1366"
     inkscape:window-height="706"
     inkscape:window-x="-8"
     inkscape:window-y="-8"
     inkscape:window-maximized="1" />
  <metadata
     id="metadata7">
    <rdf:RDF>
      <cc:Work
         rdf:about="">
        <dc:format>image/svg+xml</dc:format>
        <dc:type
           rdf:resource="http://purl.org/dc/dcmitype/StillImage" />
        <dc:title></dc:title>
      </cc:Work>
    </rdf:RDF>
  </metadata>
  <g
     inkscape:label="Layer 1"
     inkscape:groupmode="layer"
     id="layer1"
     transform="translate(-148.58116,-467.42234)">
    <path
       style="fill:#292929"
       d="m 175.57142,537.94738 c 0,-1.73645 1.38185,-3.4292 4.91894,-6.02567 5.65692,-4.15256 11.08106,-10.01274 11.08106,-11.97185 0,-2.69261 -2.7265,-3.87864 -6.16269,-2.68078 -3.42581,1.19424 -4.7906,0.32842 -4.822,-3.05904 -0.0322,-3.47264 10.74365,-5.10581 14.8253,-2.24692 5.52785,3.87186 4.57666,10.91621 -2.33415,17.28637 l -4.46178,4.11272 3.75842,0 c 3.18631,0 3.91722,-0.4207 4.80161,-2.76371 0.57375,-1.52004 3.93491,-6.46241 7.46924,-10.98303 6.24142,-7.98317 6.54816,-8.21982 10.67605,-8.23629 2.3375,-0.009 4.25,0.35038 4.25,0.79937 0,1.22324 -2.03562,12.42409 -2.62314,14.43366 -0.33328,1.13995 0.0348,1.75 1.05575,1.75 2.47442,0 2.04672,5.06189 -0.4836,5.72359 -1.25634,0.32854 -2.27339,1.64833 -2.625,3.40638 -0.50081,2.50403 -1.02034,2.87003 -4.07401,2.87003 -3.35556,0 -3.47524,-0.12381 -2.9,-3 l 0.6,-3 -5.85,0 c -5.7,0 -5.86538,0.0769 -6.45,3 l -0.6,3 -10.025,0 c -9.93238,0 -10.025,-0.0223 -10.025,-2.41483 z m 34.56447,-12.33517 c 0.33142,-1.5125 0.79591,-3.425 1.03221,-4.25 0.44965,-1.56987 -2.92217,2.22859 -4.66031,5.25 -0.81741,1.42089 -0.62758,1.75 1.00939,1.75 1.38668,0 2.20427,-0.85858 2.61871,-2.75 z m -45.35699,-1.8339 c -6.35925,-3.16895 -12.53001,-9.97959 -14.63238,-16.14971 -0.86631,-2.54247 -1.57071,-7.58001 -1.56533,-11.19453 0.0129,-8.67983 3.00274,-15.0996 9.93495,-21.33225 17.03184,-15.31309 44.14967,-6.55081 49.17129,15.88818 1.1114,4.96627 1.41871,5.37221 4.06691,5.37221 l 2.86466,0 -5.67881,7.54498 c -3.12334,4.14974 -6.02336,7.18724 -6.44448,6.75 -0.42112,-0.43724 -3.03256,-3.71998 -5.80319,-7.29498 l -5.03751,-6.5 3.55009,-0.31584 c 3.29919,-0.29352 3.50409,-0.50554 2.89924,-3 -2.14444,-8.84385 -8.99327,-15.13763 -17.34602,-15.94022 -6.17768,-0.5936 -11.31351,1.05031 -15.92163,5.0963 -4.45218,3.90906 -6.26527,8.15365 -6.26527,14.66748 0,8.63637 5.39883,16.11188 13.5,18.69284 2.6983,0.85966 3.03065,1.42561 3.30479,5.62761 0.29645,4.54393 0.22654,4.67183 -2.55365,4.67183 -1.57215,0 -5.1918,-1.16275 -8.04366,-2.5839 z m 7.04252,-29.35247 c -5.69025,-6.29749 -7.39248,-9.06363 -5.57758,-9.06363 0.36983,0 3.22458,2.2198 6.34389,4.93289 l 5.67147,4.93289 5.08669,-4.44971 c 7.17083,-6.27286 7.61912,-3.7252 0.72605,4.12611 -3.1183,3.5518 -5.74409,6.45346 -5.83508,6.44812 -0.091,-0.005 -2.97794,-3.12234 -6.41544,-6.92667 z"
       id="path4350"
       inkscape:connector-curvature="0"
       sodipodi:nodetypes="ssssssscssscssssssscsscssssssssssssscssscsssssssssssscsscs" />
  </g>
</svg>
