<?xml version="1.0" encoding="UTF-8" standalone="no"?>
<!-- Created with Inkscape (http://www.inkscape.org/) -->

<svg
   xmlns:dc="http://purl.org/dc/elements/1.1/"
   xmlns:cc="http://creativecommons.org/ns#"
   xmlns:rdf="http://www.w3.org/1999/02/22-rdf-syntax-ns#"
   xmlns:svg="http://www.w3.org/2000/svg"
   xmlns="http://www.w3.org/2000/svg"
   xmlns:sodipodi="http://sodipodi.sourceforge.net/DTD/sodipodi-0.dtd"
   xmlns:inkscape="http://www.inkscape.org/namespaces/inkscape"
   width="117.56831mm"
   height="47.933304mm"
   viewBox="0 0 416.58064 169.84241"
   id="svg2"
   version="1.1"
   inkscape:version="0.91 r13725"
   sodipodi:docname="logo.svg">
  <defs
     id="defs4" />
  <sodipodi:namedview
     id="base"
     pagecolor="#ffffff"
     bordercolor="#666666"
     borderopacity="1.0"
     inkscape:pageopacity="0.0"
     inkscape:pageshadow="2"
     inkscape:zoom="1.4"
     inkscape:cx="280.0533"
     inkscape:cy="23.731894"
     inkscape:document-units="px"
     inkscape:current-layer="g3369"
     showgrid="false"
     fit-margin-top="0"
     fit-margin-left="0"
     fit-margin-right="0"
     fit-margin-bottom="0"
     inkscape:window-width="1366"
     inkscape:window-height="706"
     inkscape:window-x="1358"
     inkscape:window-y="28"
     inkscape:window-maximized="1" />
  <metadata
     id="metadata7">
    <rdf:RDF>
      <cc:Work
         rdf:about="">
        <dc:format>image/svg+xml</dc:format>
        <dc:type
           rdf:resource="http://purl.org/dc/dcmitype/StillImage" />
        <dc:title></dc:title>
      </cc:Work>
    </rdf:RDF>
  </metadata>
  <g
     inkscape:label="Layer 1"
     inkscape:groupmode="layer"
     id="layer1"
     transform="translate(-306.64301,-158.92033)">
    <g
       id="g3369"
       transform="translate(14.999998,-2.8571427)">
      <path
         style="fill:#1b1b1b"
         d="m 567.66277,329.89636 c -1.91403,-0.96165 -4.54408,-3.32345 -5.84454,-5.24845 -2.1146,-3.13013 -2.32137,-4.35686 -1.95664,-11.60824 0.67818,-13.48292 7.11373,-23.46509 22.85189,-35.44553 5.7094,-4.3462 8.09616,-6.85002 8.77733,-9.20783 14.42443,-49.92881 18.06965,-63.12232 18.64631,-67.4884 0.49625,-3.7573 1.13072,-5.25 2.23152,-5.25 2.68508,0 8.25533,4.07665 8.85952,6.48393 0.67713,2.6979 -5.93994,27.15368 -16.17109,59.76607 -0.77795,2.47977 0.85638,2.23672 10.59265,-1.57527 8.87486,-3.47472 26.05809,-8.38603 39.19512,-11.20275 4.2361,-0.90826 8.18668,-2.23538 8.77906,-2.94916 2.29653,-2.76715 6.15442,-21.18192 6.70877,-32.02282 1.54399,-30.19419 -7.35965,-43.51516 -30.68983,-45.91589 -23.68376,-2.43712 -46.01123,10.90225 -57.96215,34.62901 -5.60182,11.12157 -7.68983,21.328 -6.17453,30.18187 0.64902,3.79224 0.90809,7.16693 0.57572,7.49931 -1.08283,1.08283 -6.28845,-5.68994 -7.37174,-9.591 -3.55632,-12.80674 1.74222,-29.97909 13.54178,-43.88831 3.06435,-3.61223 5.3886,-6.75064 5.165,-6.97424 -0.2236,-0.2236 -1.94877,0.0358 -3.83371,0.57635 -5.01951,1.43958 -18.51092,1.1725 -25.63552,-0.50748 -3.40733,-0.80345 -13.8281,-3.93624 -23.15728,-6.96176 -9.32918,-3.02553 -20.15386,-5.99617 -24.05486,-6.60143 -25.39732,-3.94052 -48.17929,12.6157 -56.99806,41.42191 -2.77758,9.07287 -3.6251,18.93102 -2.19915,25.58001 0.63029,2.93893 0.91441,5.57508 0.63137,5.85811 -0.95164,0.95164 -4.79344,-3.27186 -6.64614,-7.30646 -2.58449,-5.62822 -2.49189,-17.28318 0.20771,-26.14467 6.59575,-21.65062 25.41432,-39.52272 45.72716,-43.42734 9.5691,-1.83942 22.09518,-0.59221 47.1844,4.69809 19.10094,4.02762 24.2373,4.75217 34,4.79617 10.49501,0.0473 12.01306,-0.18737 17.37084,-2.68521 7.59326,-3.54004 7.99331,-3.49165 7.17544,0.86796 -0.37197,1.98276 -0.30955,3.44526 0.13871,3.25 0.44825,-0.19525 3.85444,-1.84141 7.56929,-3.65812 21.88435,-10.70236 51.55293,-7.2267 66.58379,7.80025 5.25418,5.25282 9.6886,14.11911 11.27316,22.53985 1.48929,7.91447 0.50364,22.95792 -2.15975,32.96302 -1.17129,4.4 -2.20204,8.675 -2.29055,9.5 -0.18153,1.69197 0.19505,1.70268 17.6878,0.50284 10.11749,-0.69396 11.40088,-0.59774 11.97477,0.8978 0.84561,2.20362 0.518,2.2791 -15.7068,3.61841 -7.63582,0.63031 -14.48489,1.37688 -15.22017,1.65903 -0.73528,0.28215 -3.58357,5.0906 -6.32954,10.68544 -18.32742,37.34158 -47.66623,63.78108 -77.88109,70.18476 -9.48492,2.01021 -20.83731,1.87496 -25.16597,-0.29983 z m 26.41888,-5.21769 c 23.67441,-8.18387 48.86799,-33.01281 63.08446,-62.17139 l 4.56323,-9.35937 -2.9152,-0.30381 c -6.44666,-0.67184 -46.91534,10.78518 -53.62544,15.18181 -1.79145,1.1738 -2.84618,3.83741 -4.87445,12.30996 -1.42358,5.94662 -2.86664,12.26938 -3.2068,14.05057 -0.81756,4.28096 -1.58106,4.5988 -6.40781,2.66752 -5.01711,-2.00745 -5.64248,-4.04409 -3.75305,-12.22265 1.74261,-7.543 0.97514,-7.84558 -5.96395,-2.35133 -9.75955,7.72744 -15.46519,16.69068 -17.43712,27.39272 -1.07625,5.841 -1.00514,6.89685 0.69966,10.38851 2.84517,5.82733 7.11882,7.65125 16.39766,6.99823 4.125,-0.2903 10.17246,-1.45165 13.43881,-2.58077 z m -296.41825,2.8532 c -3.05618,-1.21937 -6.02062,-3.82365 -6.02039,-5.28895 1.1e-4,-0.66365 2.48357,-1.1467 6.30434,-1.22623 19.40611,-0.40394 43.23222,-20.31059 68.56112,-57.28267 3.92391,-5.72763 7.13437,-10.79013 7.13437,-11.25 0,-0.45986 -3.51931,-0.83611 -7.82069,-0.83611 -6.55952,0 -8.68907,-0.44346 -13.20573,-2.75 -2.96178,-1.5125 -5.51901,-3.20463 -5.68275,-3.76029 -0.18816,-0.63858 3.84264,-1.0065 10.95574,-1 8.18777,0.007 12.96884,-0.50593 17.55035,-1.88465 l 6.29692,-1.89494 5.14108,-8.60506 c 2.82759,-4.73278 11.72854,-21.58198 19.77988,-37.44265 8.05135,-15.86068 15.05425,-28.77743 15.56201,-28.70391 2.45237,0.35513 -0.26052,7.91459 -9.80931,27.33357 -5.73565,11.66436 -13.20474,26.1022 -16.59798,32.08408 -6.29234,11.09267 -7.13057,13.19985 -4.91952,12.36696 0.6875,-0.25898 4.76977,-1.29701 9.07172,-2.30674 4.55048,-1.06807 8.15713,-2.48422 8.6237,-3.38612 1.43166,-2.76743 16.17177,-59.24412 16.76111,-64.22013 0.65693,-5.54675 1.73413,-5.95697 7.0368,-2.67974 3.36536,2.07991 3.46458,2.31752 3.02759,7.25 -0.24849,2.80479 -3.75479,17.63338 -7.79179,32.95243 -6.24528,23.69872 -7.1789,28.2796 -6.25985,30.71444 0.93092,2.46629 0.82078,2.94395 -0.79726,3.4575 -2.08233,0.66091 -2.6108,2.28874 -6.48492,19.97525 -3.04856,13.91759 -4.21482,31.01168 -2.53643,37.177 2.40446,8.83245 11.83974,12.17896 19.14405,6.79001 2.00791,-1.48139 3.58425,-2.08011 3.7969,-1.44214 0.59259,1.77777 -2.79707,4.80624 -8.50537,7.59905 -4.40051,2.15297 -6.37431,2.54138 -11.15671,2.19545 -16.13381,-1.16702 -19.69411,-14.85632 -12.77424,-49.11682 4.29429,-21.26114 4.28321,-21.09279 1.3447,-20.42236 -4.61732,1.05345 -20.29355,6.94869 -21.44086,8.0631 -0.65498,0.63619 -4.54934,6.42121 -8.65413,12.85559 -22.09217,34.63008 -46.82096,60.69817 -61.428,64.75489 -4.59715,1.27674 -10.90928,1.24572 -14.20645,-0.0698 z m 198.32489,-31.3347 c -1.73501,-0.75484 -3.4195,-2.2072 -3.74332,-3.22746 -0.71751,-2.26069 2.79648,-17.03976 9.52682,-40.06772 2.77224,-9.48526 4.86119,-17.78367 4.64211,-18.44091 -0.26173,-0.78517 -2.3692,-1.10368 -6.14529,-0.92877 -3.95463,0.18319 -6.50774,-0.23227 -8.18636,-1.33215 -4.11111,-2.6937 -3.0275,-4.06087 3.31059,-4.17694 3.1625,-0.0579 7.6525,-0.6307 9.97779,-1.27287 4.20917,-1.16243 4.23881,-1.20374 6.73322,-9.385 4.40558,-14.44958 9.52006,-35.11152 9.52968,-38.49883 0.005,-1.89381 0.60543,-3.51013 1.41905,-3.82235 1.92103,-0.73717 7.24183,2.14233 9.04564,4.89529 1.71806,2.62209 0.92627,6.89412 -4.99224,26.93531 -3.36504,11.39469 -4.03441,14.77314 -2.92695,14.77314 2.44404,0 18.30554,-4.58037 19.54255,-5.64336 1.88082,-1.61622 4.34689,-1.7344 6.96408,-0.33372 3.64657,1.95158 4.13203,4.42605 2.39639,12.215 -0.89002,3.99415 -1.81152,8.27458 -2.04777,9.51208 -0.34179,1.79034 -1.10164,2.25 -3.71936,2.25 -1.8094,0 -4.15293,-0.63112 -5.20784,-1.40249 -1.74563,-1.27643 -1.81546,-1.88311 -0.77698,-6.75 0.62757,-2.94113 1.45282,-6.13501 1.83388,-7.09751 0.50939,-1.28664 0.2018,-1.75 -1.16168,-1.75 -2.85766,0 -20.09387,5.96315 -21.12226,7.3076 -1.7632,2.30508 -14.43267,47.83576 -17.23624,61.9424 -1.25269,6.30316 -2.03709,6.74367 -7.65551,4.29926 z"
         id="path3371"
         inkscape:connector-curvature="0" />
    </g>
  </g>
</svg>
