<svg style="position: absolute; width: 0; height: 0;" width="0" height="0" version="1.1" xmlns="http://www.w3.org/2000/svg" xmlns:xlink="http://www.w3.org/1999/xlink">
<defs>
<symbol id="dog-dog_alone" viewBox="0 0 1517 1024">
<title>dog_alone</title>
<path fill="#000" class="path1 fill-color1" d="M1512.492 1010.809c-0.005-0.021-0.005-0.033-0.005-0.071 0 0.037 0 0.050 0.005 0.071z"></path>
<path fill="#000" class="path2 fill-color1" d="M1513.086 1014.187h0.014c-0.226-0.959-0.401-1.918-0.535-2.857 0.134 0.947 0.309 1.914 0.521 2.857z"></path>
<path fill="#000" class="path3 fill-color1" d="M1516.979 1024c-0.028-0.042-0.051-0.087-0.083-0.133 0.032 0.046 0.055 0.091 0.083 0.133z"></path>
<path fill="#000" class="path4 fill-color1" d="M1516.605 1023.347c-0.106-0.17-0.198-0.365-0.295-0.548 0.097 0.199 0.189 0.378 0.295 0.548z"></path>
<path fill="#000" class="path5 fill-color1" d="M1514.177 1017.97c0.581 1.64 1.269 3.214 2.076 4.729-0.816-1.541-1.495-3.131-2.062-4.729h-0.014z"></path>
<path fill="#643b32" class="path6 fill-color3" d="M908.176 779.949c0 0-80.852 161.94-392.233 157.787l-189.132-334.862 223.73-297.703 445.157 161.279-87.522 313.499z"></path>
<path fill="#ed8124" class="path7 fill-color6" d="M995.697 927.006l-21.506-362.056 21.506-98.592-465.436-132.57c0 0-42.236 25.703-97.625 71.581 22.382 26.575 36.89 59.021 39.999 94.731 7.593 87.29-55.185 164.909-145.42 187.709-2.477 27.795-16.014 53.116-36.899 72.050s-49.119 31.48-80.99 33.726c-5.33 0.378-21.013-3.002-28.859-4.966-11.753-2.943-15.795 126.382-32.161 149.364-6.79 9.535-114.394-125.982-125.646-139.336-7.706-9.146-6.561-8.092-13.366-19.841-28.851-49.814 17.481 99.79 30.64 133.008 22.005 55.552 78.988 72.183 111.978 77.992 162.85 28.677 497.811-0.864 497.811-0.864l-4.147-62.164c-13.17-9.584-31.77-16.206-58.128-16.206 0 0 17.774-176.39-184.519-192.679 0 0 122.424-66.092 222.664-92.355l19.983 301.22c31.779 23.108 31.825 62.185 31.825 62.185h170.68l-78.421-53.631 6.098-78.719c55.024-18.685 89.801-29.328 89.801-29.328l28.651 161.678h170.68z"></path>
<path fill="#ed8124" class="path8 fill-color6" d="M645.576 926.431l4.142 62.513h27.678c0 0-0.042-39.409-31.82-62.513z"></path>
<path fill="#643b32" class="path9 fill-color3" d="M209.325 793.589c63.742-4.493 112.935-50.185 117.894-105.78 90.23-22.796 153.013-100.407 145.415-187.696-3.109-35.714-17.612-68.148-39.999-94.722-95.004 78.686-228.707 216.833-254.507 386.973 10.093 1.516 20.537 1.981 31.198 1.225z"></path>
<path fill="#643b32" class="path10 fill-color3" d="M728.898 11.777c0 0 20.994 36.81 2.943 88.905l68.327 0.897c0 0-5.849-66.246-71.271-89.802z"></path>
<path fill="#ed8124" class="path11 fill-color6" d="M758.705 351.355c-57.072 0-103.557-40.306-106.56-91.002-0.106-1.732-0.291-3.434-0.291-5.178 0-53.12 47.837-96.184 106.85-96.184s106.855 43.063 106.855 96.184c0 5.813-0.673 11.481-1.776 17.012-8.935 44.994-52.523 79.168-105.079 79.168zM1103.806 187.389c-27.147-48.071 3.663-70.726 35.543-81.344l-460.090-6.058c-2.251 54.329-50.927 97.874-111.417 99.423-1.984 16.128-6.394 35.378-11.491 54.154-10.984 40.51-25.164 78.819-25.164 78.819s234.427 177.332 362.474 177.968c65.887 0.324 100.798-43.62 100.798-43.62s-0.032 0.158-0.088 0.403c0.018-0.017 0.088-0.112 0.088-0.112s-0.023 0.407-0.078 0.793l0.457-0.208c28.102-12.415 54.286-25.52 78.421-39.152-43.939-10.393-121.746-43.803-142.287-151.032 0 0 32.688 87.958 196.619 117.298 85.765-58.552 138.191-122.538 157.579-177.112-0.614 0.61-1.218 1.242-1.836 1.823-37.148 34.825-137.79 41.901-179.528-32.043z"></path>
<path fill="#643b32" class="path12 fill-color3" d="M679.259 99.987l-40.488-0.536c-29.076-78.516-107.584-99.452-107.584-99.452s37.803 136.092 37.803 183.204c0 4.866-0.424 10.339-1.149 16.206 60.49-1.549 109.166-45.094 111.417-99.423z"></path>
<path fill="#643b32" class="path13 fill-color3" d="M930.97 277.423c20.542 107.229 98.349 140.642 142.292 151.036 19.398-10.962 37.49-22.244 54.327-33.733-163.932-29.344-196.619-117.302-196.619-117.302z"></path>
<path fill="#262628" class="path14 fill-color2" d="M1188.919 96.837c0 0-25.099 1.059-49.571 9.21-31.876 10.617-62.69 33.268-35.543 81.344 41.743 73.944 142.38 66.869 179.528 32.039 0.623-0.577 1.222-1.212 1.836-1.823 36.12-35.984 58.995-122.14-96.25-120.77z"></path>
<path fill="#643b32" class="path15 fill-color3" d="M743.665 244.707c-0.581 0-1.149 0.050-1.73 0.050-7.588-6.652-12.307-15.937-12.307-26.222 0-20.238 18.221-36.64 40.71-36.64 22.479 0 40.705 16.402 40.705 36.64 0 12.748-7.242 23.963-18.217 30.528-15.906-2.84-32.337-4.356-49.161-4.356zM758.703 158.992c-59.014 0-106.846 43.063-106.846 96.184 0 1.744 0.185 3.451 0.286 5.178 3.008 50.7 49.493 91.002 106.56 91.002 52.556 0 96.144-34.173 105.084-79.168 1.098-5.531 1.771-11.199 1.771-17.012 0-53.12-47.841-96.184-106.855-96.184z"></path>
<path fill="#262628" class="path16 fill-color2" d="M766.336 195.727c0 0 34.164-7.786 34.164 25.935 0 0-4.945-18.154-34.164-25.935zM811.040 218.536c0-20.238-18.226-36.644-40.705-36.644-22.488 0-40.71 16.406-40.71 36.644 0 10.285 4.724 19.57 12.307 26.222 0.581 0 1.149-0.050 1.73-0.050 16.824 0 33.26 1.516 49.161 4.356 10.974-6.565 18.217-17.78 18.217-30.528z"></path>
<path fill="#fff" class="path17 fill-color7" d="M766.336 195.727c29.219 7.781 34.164 25.935 34.164 25.935 0-33.721-34.164-25.935-34.164-25.935z"></path>
<path fill="#e13809" class="path18 fill-color4" d="M851.18 584.101c2.505 0.324 4.927 0.606 7.261 0.851l5.111 24.316c4.285-0.926 8.737-1.47 13.332-1.47 1.342 0 2.648 0.096 3.967 0.179l7.658-21.654c1.172-0.062 2.279-0.12 3.215-0.22 35.391-3.534 81.936-20.923 82.42-21.11l0.046 0.133c4.018-22.182 17.931-82.166 20.011-92.837 0.078 0 0.134-0.328 0.18-0.673 0.055-0.39 0.083-0.806 0.083-0.806s-0.074 0.096-0.092 0.112c-0.955 1.179-31.622 31.146-97.855 30.823-130.506-0.648-366.257-167.915-366.257-167.915l-31.677 21.127c114.038 172.466 274.888 219.196 352.598 229.145z"></path>
<path fill="#fbd10f" class="path19 fill-color5" d="M863.551 609.266c-25.090 5.41-43.759 25.678-43.759 49.915 0 11.485 4.235 22.045 11.297 30.602 10.398 12.602 27.009 20.799 45.798 20.799 31.534 0 57.095-23.008 57.095-51.401 0-9.82-3.1-18.976-8.419-26.77-9.387-13.769-25.768-23.257-44.714-24.436-1.315-0.079-2.62-0.179-3.963-0.179-4.595 0-9.046 0.544-13.336 1.47z"></path>
<path fill="#643b32" class="path20 fill-color3" d="M3.014 769.908c0 0-5.386 5.525 14.786 64.738l27.434-10.356z"></path>
<path  class="path21 fill-color6" d="M812.651 218.713c0-20.238-18.226-36.644-40.705-36.644-22.488 0-40.71 16.406-40.71 36.644 0 10.285 4.724 19.57 12.307 26.222 0.581 0 1.149-0.050 1.73-0.050 16.824 0 33.26 1.516 49.161 4.356 10.974-6.565 18.217-17.78 18.217-30.528z" id="eye"></path>
</symbol>
<symbol id="dog-passport_dog" viewBox="0 0 1024 1024">
<title>passport_dog</title>
<path  class="path1 fill-color4" d="M511.995 1024c-282.765 0-511.995-229.219-511.995-511.995s229.23-512.005 511.995-512.005c282.765 0 511.995 229.23 511.995 512.005s-229.23 511.995-511.995 511.995z"></path>
<path fill="#fff" class="path2 fill-color7" d="M426.508 370.299c3.327-15.589 7.946-30.295 13.896-43.285-29.003 11.728-52.629 30.978-67.022 54.611 15.946-4.851 33.994-8.617 53.126-11.325z"></path>
<path fill="#fff" class="path3 fill-color7" d="M358.094 434.976c2.147 5.529 23.112 16.495 62.711 23.703-0.57-7.9-0.866-15.831-0.866-23.703s0.297-15.8 0.866-23.7c-39.593 7.208-60.558 18.171-62.711 23.7z"></path>
<path fill="#fff" class="path4 fill-color7" d="M585.263 370.299c19.132 2.711 37.18 6.474 53.123 11.323-14.393-23.632-38.019-42.883-67.022-54.608 5.954 12.99 10.576 27.696 13.899 43.285z"></path>
<path fill="#fff" class="path5 fill-color7" d="M426.508 499.655c-19.132-2.711-37.18-6.474-53.123-11.323 14.393 23.632 38.019 42.883 67.019 54.611-5.95-12.993-10.572-27.699-13.896-43.288z"></path>
<path fill="#fff" class="path6 fill-color7" d="M469.666 464.489c11.238 0.726 23.291 1.145 36.217 1.145 12.93 0 24.982-0.419 36.221-1.145 0.891-9.157 1.405-18.981 1.405-29.513s-0.514-20.353-1.405-29.51c-11.238-0.726-23.295-1.145-36.224-1.145-12.926 0-24.979 0.419-36.217 1.145-0.891 9.157-1.405 18.978-1.405 29.51 0.003 10.535 0.518 20.356 1.408 29.513z"></path>
<path fill="#fff" class="path7 fill-color7" d="M505.883 364.947c9.661 0 19.394 0.242 29.090 0.706-8.846-32.267-22.304-49.346-29.090-51.098-6.786 1.755-20.24 18.837-29.086 51.098 9.695-0.464 19.425-0.706 29.086-0.706z"></path>
<path fill="#fff" class="path8 fill-color7" d="M591.831 434.976c0 7.872-0.297 15.803-0.866 23.703 39.6-7.208 60.561-18.174 62.711-23.703-2.154-5.529-23.119-16.492-62.711-23.697 0.57 7.897 0.866 15.825 0.866 23.697z"></path>
<path fill="#fff" class="path9 fill-color7" d="M505.883 505.007c-9.657 0-19.391-0.242-29.083-0.706 8.846 32.258 22.301 49.341 29.083 51.098 6.786-1.749 20.243-18.832 29.090-51.098-9.695 0.464-19.429 0.706-29.090 0.706z"></path>
<path fill="#fff" class="path10 fill-color7" d="M585.263 499.655c-3.327 15.589-7.946 30.295-13.896 43.285 29.003-11.728 52.629-30.978 67.022-54.611-15.946 4.851-33.994 8.614-53.126 11.325z"></path>
<path fill="#fff" class="path11 fill-color7" d="M469.49 705.662l-14.931-33.597-15.273 33.597z"></path>
<path fill="#fff" class="path12 fill-color7" d="M808.472 255.877c0-24.96-24.834-45.195-55.467-45.195h-496.542c-30.633 0-55.467 20.235-55.467 45.195v517.085c0 24.96 24.834 45.195 55.467 45.195h496.542c30.633 0 55.467-20.235 55.467-45.195v-517.085zM505.883 275.139c108.165 0 196.166 71.702 196.166 159.836s-88.001 159.839-196.166 159.839c-108.165 0-196.163-71.705-196.163-159.839s87.998-159.836 196.163-159.836zM350.37 705.662h-14.762v36.561h-31.064v-95.621h46.506c26.304 0 47.007 6.786 47.007 29.184 0 22.676-22.57 29.876-47.687 29.876zM486.8 742.223l-9.333-16.874h-46.496l-8.826 16.874h-31.565l50.4-95.621h28.168l49.889 95.621h-32.238zM579.733 683.605c16.291 4.286 37.329 9.956 37.329 29.451 0 22.538-22.228 32.632-45.985 32.632-17.137 0-34.447-5.116-44.967-14.104l19.008-15.761c5.768 5.945 16.461 10.372 25.959 10.372 8.826 0 16.63-2.765 16.63-10.648 0-7.464-9.164-9.815-24.948-13.963-15.273-4.010-30.712-10.372-30.712-28.068 0-21.709 24.095-30.697 46.496-30.697 13.578 0 28.848 4.151 39.369 12.029l-18.493 15.901c-4.922-5.116-13.917-8.434-21.382-8.434s-16.799 2.073-16.799 9.815c-0.003 6.497 7.127 8.572 18.497 11.475zM680.015 683.605c16.291 4.286 37.329 9.956 37.329 29.451 0 22.538-22.228 32.632-45.985 32.632-17.137 0-34.447-5.116-44.967-14.104l19.008-15.761c5.768 5.945 16.461 10.372 25.959 10.372 8.826 0 16.63-2.765 16.63-10.648 0-7.464-9.164-9.815-24.948-13.963-15.273-4.010-30.712-10.372-30.712-28.068 0-21.709 24.095-30.697 46.496-30.697 13.578 0 28.848 4.151 39.369 12.029l-18.493 15.901c-4.922-5.116-13.917-8.434-21.382-8.434s-16.799 2.073-16.799 9.815c0 6.497 7.127 8.572 18.497 11.475z"></path>
<path fill="#fff" class="path13 fill-color7" d="M348.675 663.476h-13.068v25.311h12.56c10.859 0 20.872-3.738 20.872-13.002 0-9.399-10.013-12.31-20.364-12.31z"></path>
</symbol>



</defs>
</svg>
