<svg style="position: absolute; width: 0; height: 0;" width="0" height="0" version="1.1" xmlns="http://www.w3.org/2000/svg" xmlns:xlink="http://www.w3.org/1999/xlink">
<defs>
<symbol id="dog-hospital1" viewBox="0 0 1024 1024">
<title>hospital</title>
<path  class="hospital fill-color14" d="M1023.99 512c0 282.768-229.232 512-512 512s-511.99-229.232-511.99-512c0-282.768 229.222-512 511.99-512s512 229.232 512 512z"></path>
<path fill="#434343" class="path2 fill-color2" d="M802.559 506.216h-598.081c-12.076 0-18.13-14.606-9.587-23.159l308.627-308.627 308.627 308.627c8.553 8.553 2.5 23.159-9.587 23.159z"></path>
<path fill="#ed4b00" class="path3 fill-color7" d="M811.033 508.404l-299.051-282.146-299.211 282.146 78.944 18.762v320.212h423.138v-320.583l96.18-18.391z"></path>
<path fill="#434343" class="path4 fill-color2" d="M627.447 847.38h-248.325v-270.661c0-68.574 55.594-124.168 124.168-124.168 68.564 0 124.158 55.594 124.158 124.168v270.661z"></path>
<path fill="#fff" class="path5 fill-color15" d="M570.791 385.114c0 36.846-29.867 66.715-66.71 66.715s-66.709-29.87-66.709-66.715c0-36.846 29.866-66.715 66.709-66.715s66.71 29.87 66.71 66.715z"></path>
</symbol>




<symbol id="dog-h24" viewBox="0 0 1024 1024">
<title>h24</title>
<path class="h24 fill-color6" d="M1023.99 512c0 282.768-229.232 512-512 512s-511.99-229.232-511.99-512c0-282.768 229.222-512 511.99-512s512 229.232 512 512z"></path>
<path fill="#fff" class="path2 fill-color15" d="M745.888 403.692h-94.217v-25.992c0-19.883-9.527-53.207-73.661-53.207-64.129 0-73.626 33.32-73.626 53.207v25.992h-14.323c-6.608-96.199-91.737-172.529-195.706-172.529-108.256 0-196.335 82.744-196.335 184.447 0 98.871 83.318 179.623 187.432 184.001v92.556c0 7.815 6.802 14.187 15.102 14.187h59.483c7.122 27.6 33.437 48.214 64.938 48.214 31.565 0 57.876-20.671 64.943-48.214h175.943c7.112 27.6 33.417 48.214 64.928 48.214 31.561 0 57.876-20.671 64.863-48.214h59.618c8.289 0 15.102-6.371 15.102-14.187v-171.423c0.12-64.497-55.72-117.053-124.48-117.053zM534.621 377.7c0-8.078 0-24.829 43.448-24.829 43.453 0 43.453 16.751 43.453 24.829v25.992h-86.841v-25.992h-0.060zM474.579 488.827h4.761v59.133h-48.479c18.39-16.714 33.317-36.747 43.718-59.133zM509.548 488.827h94.392v59.133h-94.392v-59.133zM128.312 415.61c0-86.058 74.53-156.073 166.137-156.073 91.562 0 166.137 70.015 166.137 156.073 0 86.016-74.569 156.069-166.137 156.069-91.607 0-166.137-70.024-166.137-156.069zM425.098 726.223c-20.297 0-36.811-15.542-36.811-34.609s16.519-34.586 36.811-34.586c20.292 0 36.826 15.523 36.826 34.586s-16.564 34.609-36.826 34.609zM730.901 726.223c-20.292 0-36.846-15.542-36.846-34.609s16.549-34.586 36.846-34.586c20.297 0 36.816 15.523 36.816 34.586s-16.519 34.609-36.816 34.609zM840.28 677.981h-44.007c-6.697-28.153-33.367-49.326-65.372-49.326s-58.674 21.177-65.312 49.326h-175.125c-6.682-28.153-33.377-49.326-65.367-49.326s-58.684 21.177-65.307 49.326h-44.012v-79.087c27.608-2.827 53.464-11.083 76.461-23.61 1.652 0.609 3.463 1.055 5.37 1.055h221.472c8.374 0 15.097-6.428 15.097-14.187v-87.516c0-7.801-6.727-14.187-15.097-14.187h-134.387c2.475-9.184 4.322-18.664 5.25-28.378h256.032c52.037 0 94.392 39.752 94.392 88.674v157.236h-0.090zM745.888 460.449h-51.328c-8.289 0-15.102 6.385-15.102 14.187v87.512c0 7.759 6.812 14.187 15.102 14.187h100.411c8.349 0 15.102-6.428 15.102-14.187v-41.402c0.005-33.226-28.786-60.296-64.184-60.296zM779.869 547.96h-70.203v-59.133h36.227c18.76 0 33.981 14.356 33.981 31.923v27.211zM285.596 434.316l-87.595-0.056c0-10.989 2.994-20.464 8.908-28.322 5.959-7.965 17.093-17.248 33.512-28.153 7.301-4.768 12.491-9.161 15.516-13.188 3.054-4.004 4.472-8.425 4.472-13.371 0-5.335-1.652-9.644-4.956-12.912-3.229-3.254-7.611-4.876-13.040-4.876-5.769 0-10.281 2.049-13.45 6.109-3.229 4.144-4.766 9.644-4.526 16.686h-24.673c-0.519-13.080 3.139-23.502 10.87-31.158 7.74-7.693 18.39-11.514 32.020-11.514 12.626 0 23.052 3.549 30.987 10.572 8.070 7.093 11.962 16.184 11.962 27.394 0 9.128-2.226 16.737-6.857 22.724-4.531 6.085-13.040 12.804-25.547 20.328-11.668 6.887-19.513 13.188-23.715 18.744l-0.12 0.211h56.179l0.055 20.783zM349.52 434.316h24.823v-26.615h14.468v-18.899h-14.468v-75.252h-28.302l-47.451 73.602v20.549h50.929v26.615zM317.236 388.802l1.048-1.674 31.206-48.608v50.258l-32.254 0.023zM252.738 453.81h6.917v62.171h-13.834v-28.153h-25.886v28.153h-13.834v-62.171h13.834v23.32h25.856v-23.32h6.947zM309.286 493.145c1.727 1.219 2.595 3.216 2.655 6.015l0.12 5.785c0 2.386 0.19 4.712 0.424 6.817 0.309 2.166 0.634 3.549 0.943 4.159h15.281v-1.66c-1.063-0.525-1.847-1.219-2.241-1.997-0.354-0.83-0.604-2.269-0.634-4.323l-0.354-10.197c-0.165-4.988-2.066-8.537-5.904-10.642-0.634-0.389-1.352-0.694-2.136-1.041 1.417-0.497 2.71-1.092 3.893-1.871 4.262-2.715 6.433-7.093 6.433-13.080 0-5.171-1.931-9.367-5.769-12.485-3.893-3.118-8.968-4.768-15.281-4.768h-33.462v62.148h13.834v-24.581h13.779c3.923-0.052 6.752 0.558 8.419 1.721zM287.088 464.565h16.579c3.349 0 5.884 0.652 7.611 1.993 1.757 1.383 2.535 3.422 2.535 6.151 0 2.841-0.838 4.82-2.655 6.207-1.782 1.397-4.442 2.053-8.035 2.053h-16.035v-16.404zM353.503 465.020c-1.991 1.496-2.949 3.493-2.949 6.095 0 1.814 0.988 3.268 3.139 4.252 1.991 1.055 6.313 2.274 12.981 3.671 9.602 1.983 16.11 4.309 19.398 6.971 3.199 2.621 4.836 6.803 4.836 12.621 0 5.879-2.42 10.474-7.316 13.915-4.896 3.432-11.563 5.152-19.883 5.152-8.334 0-14.882-1.744-19.603-5.401-4.706-3.652-7.181-8.837-7.551-15.598h13.29c0.135 3.324 1.462 5.818 3.848 7.703 2.346 1.716 5.679 2.658 10.016 2.658 4.412 0 7.95-0.609 10.37-2.053 2.48-1.327 3.773-3.104 3.773-5.485 0-2.325-0.943-4.102-2.745-5.209-1.782-1.078-5.5-2.246-11.119-3.408-10.545-2.189-17.582-4.576-21.12-7.164-3.468-2.55-5.25-6.484-5.25-11.861 0-6.095 2.271-10.863 6.917-14.412 4.676-3.493 10.924-5.307 18.879-5.307 7.431 0 13.405 1.814 18.156 5.471 4.646 3.671 7.211 8.603 7.785 14.853h-13.495c-0.25-2.968-1.607-5.349-4.147-7.042-2.535-1.73-5.824-2.616-9.836-2.616-3.623 0.005-6.353 0.741-8.374 2.194z"></path>
</symbol>
<symbol id="dog-diagnostics" viewBox="0 0 1024 1024">
<title>diagnostics</title>
<path  class="diagnostics fill-color2" d="M1023.99 512c0 282.768-229.232 512-512 512s-511.99-229.232-511.99-512c0-282.768 229.222-512 511.99-512s512 229.232 512 512z"></path>
<path fill="#fff" class="path2 fill-color15" d="M858.020 518.657c0-94.462-74.874-176.438-183.841-216.518-8.229-40.018-58.754-70.932-119.833-70.932-13.641 0-26.718 1.61-38.965 4.442v-36.713c0-9.075-10.101-16.475-23.066-17.455v-28.622c0-0.675-0.202-1.31-0.287-1.962h20.963c9.536 0 17.293-5.273 17.293-11.772v-7.84c0-6.5-7.755-11.765-17.293-11.765h-133.648c-9.558 0-17.316 5.265-17.316 11.765v7.84c0 6.5 7.755 11.772 17.316 11.772h20.94c-0.096 0.652-0.294 1.286-0.294 1.962v28.63c-12.958 0.981-23.058 8.365-23.058 17.455v258.864c0 9.584 11.227 17.333 25.234 17.609v118.689h0.896c4.064 3.356 21.807 8.828 43.081 8.828 21.313 0 39.056-5.473 43.108-8.828h0.874v-118.689c14.002-0.261 25.258-8.018 25.258-17.601v-66.307c12.247 2.832 25.324 4.441 38.965 4.441 43.447 0 81.503-15.681 102.901-39.098 73.657 33.4 122.888 93.43 122.888 161.807 0 42.4-18.95 81.593-50.854 113.216l-86.961 23.614v-1.542h-344.704v25.484h344.708v-11.274l65.632-17.827c-46.737 35.761-112.258 58.071-184.719 58.071v0.438h-77.069v60.793h-248.072v70.603h540.86v-70.604h-137.014v-15.114c146.731-25.736 256.079-121.685 256.079-235.859zM554.347 378.298c-52.493 0-95.196-29.031-95.196-64.717s42.703-64.717 95.196-64.717c41.575 0 76.929 18.249 89.869 43.575-11.341-3.196-22.931-5.981-34.824-8.273-12.819-11.090-32.691-18.237-55.068-18.237-38.713 0-70.086 21.338-70.086 47.652 0 26.315 31.386 47.646 70.086 47.646 23.921 0 45.023-8.17 57.695-20.617 7.833 2.135 15.466 4.545 22.907 7.212-16.819 18.263-46.602 30.476-80.579 30.476z"></path>
</symbol>
<symbol id="dog-dietolog" viewBox="0 0 1024 1024">
<title>dietolog</title>
<path  class="dietolog fill-color9" d="M1023.99 512c0 282.768-229.232 512-512 512s-511.99-229.232-511.99-512c0-282.768 229.222-512 511.99-512s512 229.232 512 512z"></path>
<path fill="#fff" class="path2 fill-color15" d="M774.892 252.472c-20.773-19.779-45.045-35.098-72.141-45.531-26.091-10.047-53.655-15.141-81.926-15.141-28.738 0-56.725 5.254-83.183 15.617-27.475 10.761-51.982 26.535-72.843 46.887-31.266 30.503-51.724 68.755-59.246 110.734-1.651 6.275-8.43 31.698-17.321 60.553-17.145 55.644-27.723 77.755-32.501 85.982-6.797 11.703-9.502 25.441-7.619 38.683 0.716 5.029 2.087 9.953 4.051 14.645l-72.026 68.876c-2.054-0.171-4.124-0.258-6.204-0.258-15.923-0.002-31.527 5.229-43.94 14.726-13.011 9.957-21.892 23.831-25.683 40.125-1.885 8.1-1.895 16.653-0.028 24.734 3.232 13.996 10.369 26.434 20.642 35.974 5.466 5.075 11.683 9.222 18.432 12.333 3.255 6.455 7.592 12.401 12.9 17.627 9.974 9.823 22.983 16.649 37.619 19.738 4.212 0.89 8.538 1.341 12.857 1.341 4.368 0 8.746-0.461 13.012-1.368 10.898-2.32 20.763-6.631 29.315-12.812 8.563-6.19 15.374-13.918 20.247-22.968 6.182-11.483 8.716-24.209 7.542-36.747l72.018-68.87c7.675 2.919 15.755 4.403 24.031 4.403 11.159 0 22.205-2.769 31.942-8.007 8.642-4.649 31.833-14.88 90.053-31.16 30.178-8.438 56.514-14.758 62.885-16.267 21.449-3.509 42.128-10.023 61.496-19.378 20.653-9.975 39.48-23.023 55.962-38.784 20.865-19.951 37.020-43.241 48.020-69.219 10.615-25.070 15.981-51.546 15.951-78.69s-5.457-53.606-16.127-78.652c-11.061-25.957-27.273-49.215-48.188-69.128zM648.558 564.010c0 0-95.261 22.161-147.836 43.755-6.834 2.806-12.948 5.603-18.036 8.34-3.071 1.653-6.446 2.459-9.794 2.459-5.129 0-10.195-1.895-14.013-5.544l-60.405-57.761c-6.291-6.016-7.579-15.276-3.259-22.712 2.775-4.777 5.623-10.521 8.494-16.94 22.388-50.092 46.076-141.675 46.076-141.675l0.008-0.005c5.515-32.649 21.262-64.023 47.26-89.385 33.836-33.009 78.789-49.545 123.769-49.545 44.24 0 88.505 16.009 122.196 48.085 67.925 64.673 68.016 169.757 0.272 234.538-26.739 25.569-60.047 41.026-94.729 46.382l-0.002 0.009zM333.179 706.894c-4.358 4.167-5.653 10.447-3.248 15.873 5.747 12.962-0.923 29.763-20.005 33.823-1.051 0.223-2.125 0.335-3.198 0.335-1.047 0-2.093-0.106-3.119-0.323-12.714-2.684-19.932-11.013-21.654-20.108-1.164-6.143-6.117-10.878-12.541-11.992-9.511-1.649-18.22-8.55-21.027-20.707-0.459-1.987-0.449-4.054 0.014-6.040 3.263-14.027 14.395-21.040 25.527-21.038 3.352 0 6.705 0.636 9.842 1.907 1.899 0.77 3.898 1.144 5.882 1.144 3.941 0 7.818-1.475 10.718-4.248l79.994-76.496 32.809 31.376-79.993 76.494z"></path>
<path fill="#fff" class="path3 fill-color15" d="M306.729 800.626c-4.358 0-8.722-0.455-12.971-1.353-14.737-3.112-27.836-9.985-37.884-19.88-5.284-5.203-9.628-11.124-12.917-17.602-6.77-3.141-12.962-7.296-18.405-12.35-10.347-9.607-17.536-22.134-20.79-36.227-1.883-8.152-1.873-16.781 0.028-24.952 3.818-16.406 12.764-30.38 25.869-40.409 12.504-9.568 28.223-14.837 44.261-14.837 2.007 0 4.026 0.081 6.014 0.24l71.607-68.475c-1.924-4.67-3.255-9.531-3.955-14.456-1.898-13.349 0.83-27.198 7.681-38.997 4.768-8.209 15.325-30.281 32.457-85.88 8.809-28.588 15.48-53.561 17.314-60.534 7.531-42.031 28.066-80.415 59.381-110.964 20.911-20.4 45.478-36.214 73.020-47.001 26.523-10.387 54.576-15.655 83.383-15.655 28.338 0 55.969 5.106 82.123 15.177 27.163 10.459 51.492 25.814 72.316 45.64 20.966 19.961 37.216 43.275 48.303 69.296 10.697 25.106 16.136 51.633 16.166 78.842 0.030 27.213-5.349 53.752-15.989 78.88-11.027 26.043-27.222 49.388-48.136 69.387-16.522 15.799-35.394 28.88-56.097 38.878-19.405 9.374-40.147 15.909-61.646 19.427-7.173 1.7-33.018 7.919-62.825 16.253-58.173 16.268-81.321 26.478-89.943 31.116-9.817 5.28-20.951 8.072-32.201 8.072-8.213 0-16.254-1.452-23.902-4.317l-71.6 68.468c1.141 12.69-1.493 25.406-7.62 36.788-4.908 9.119-11.771 16.905-20.398 23.139-8.612 6.226-18.544 10.566-29.519 12.903-4.305 0.917-8.721 1.381-13.126 1.381zM273.932 634.026c-15.808 0-31.293 5.191-43.611 14.616-12.917 9.884-21.734 23.661-25.499 39.841-1.868 8.029-1.879 16.507-0.028 24.517 3.209 13.898 10.296 26.25 20.495 35.721 5.406 5.019 11.562 9.137 18.295 12.242l0.166 0.076 0.080 0.159c3.249 6.442 7.556 12.327 12.804 17.495 9.902 9.752 22.82 16.53 37.355 19.598 8.394 1.775 17.226 1.763 25.641-0.027 10.827-2.304 20.621-6.584 29.111-12.722 8.5-6.145 15.26-13.814 20.097-22.797 6.073-11.282 8.662-23.895 7.485-36.472l-0.022-0.235 0.175-0.166 72.264-69.104 0.323 0.122c7.622 2.899 15.641 4.368 23.836 4.368 11.069 0 22.025-2.747 31.684-7.942 8.66-4.659 31.891-14.91 90.164-31.205 29.827-8.341 55.69-14.564 62.906-16.273 21.434-3.508 42.074-10.012 61.386-19.339 20.602-9.95 39.385-22.967 55.827-38.69 20.813-19.902 36.931-43.135 47.904-69.052 10.589-25.008 15.943-51.42 15.913-78.501-0.031-27.079-5.444-53.478-16.088-78.463-11.032-25.894-27.205-49.096-48.070-68.961-20.723-19.73-44.936-35.012-71.966-45.42-26.029-10.022-53.526-15.103-81.729-15.103-28.668 0-56.588 5.242-82.983 15.58-27.408 10.734-51.857 26.471-72.667 46.773-31.163 30.402-51.601 68.6-59.103 110.466-1.844 7.016-8.521 32.005-17.335 60.611-17.159 55.692-27.756 77.839-32.546 86.085-6.742 11.61-9.425 25.236-7.557 38.371 0.704 4.951 2.056 9.839 4.018 14.527l0.13 0.309-72.445 69.277-0.245-0.021c-2.041-0.172-4.113-0.259-6.163-0.259zM306.729 757.43c-1.093 0-2.181-0.112-3.233-0.335-11.855-2.503-20.1-10.171-22.059-20.512-1.129-5.958-5.885-10.505-12.116-11.584-10.812-1.873-18.831-9.76-21.448-21.096-0.47-2.038-0.465-4.202 0.015-6.257 3.029-13.020 13.249-21.433 26.038-21.433v0.504l0.004-0.504c3.478 0 6.859 0.654 10.047 1.947 1.807 0.733 3.717 1.104 5.676 1.104 3.907 0 7.58-1.456 10.345-4.1l80.367-76.853 33.555 32.088-80.366 76.853c-4.236 4.050-5.466 10.063-3.135 15.319 2.991 6.749 2.698 14.352-0.807 20.862-3.719 6.909-10.67 11.756-19.57 13.65-1.088 0.23-2.203 0.347-3.313 0.347zM273.924 677.221c-9.321 0-21.464 5.406-25.009 20.644-0.446 1.914-0.451 3.928-0.014 5.822 2.523 10.925 10.227 18.52 20.606 20.319 6.668 1.156 11.757 6.022 12.965 12.398 1.88 9.928 9.823 17.293 21.248 19.706 1.973 0.417 4.083 0.413 6.089-0.012 8.589-1.827 15.288-6.49 18.86-13.127 3.361-6.242 3.643-13.535 0.773-20.008-2.499-5.636-1.181-12.084 3.36-16.426l79.621-76.14-32.064-30.662-79.622 76.14c-2.964 2.835-6.902 4.395-11.090 4.395-2.101 0-4.149-0.399-6.087-1.185-3.058-1.238-6.3-1.866-9.636-1.866h-0.002zM472.894 619.069c-5.438 0-10.546-2.022-14.385-5.692l-60.404-57.76c-6.393-6.113-7.769-15.7-3.347-23.314 2.643-4.55 5.492-10.233 8.47-16.893 22.116-49.483 45.812-140.682 46.049-141.598l0.017-0.063c5.759-33.965 22.144-64.932 47.387-89.56 32.85-32.047 76.938-49.696 124.145-49.696 46.372 0 89.9 17.129 122.567 48.232 32.945 31.368 51.117 73.123 51.167 117.574 0.051 44.453-18.025 86.246-50.895 117.677-25.963 24.827-58.788 40.909-94.928 46.509l-0.054 0.015c-0.952 0.221-95.82 22.397-147.751 43.727-7.086 2.911-13.137 5.708-17.986 8.316-3.070 1.652-6.547 2.525-10.053 2.525zM450.248 374.255c-1.258 4.829-24.403 93.118-46.050 141.552-2.991 6.691-5.857 12.407-8.519 16.988-4.194 7.22-2.89 16.313 3.171 22.111l60.404 57.76c3.64 3.48 8.484 5.396 13.64 5.396 3.326 0 6.624-0.828 9.535-2.395 4.881-2.626 10.966-5.441 18.086-8.364 50.738-20.839 142.332-42.471 147.681-43.726l0.012-0.022 0.271-0.048c35.958-5.554 68.614-21.543 94.44-46.24 32.67-31.242 50.635-72.781 50.586-116.963-0.051-44.181-18.113-85.684-50.856-116.86-32.468-30.913-75.732-47.938-121.823-47.938-46.92 0-90.743 17.541-123.392 49.393-25.114 24.501-41.407 55.316-47.116 89.113l-0.069 0.244z"></path>
</symbol>
<symbol id="dog-familydoctor" viewBox="0 0 1024 1024">
<title>familydoctor</title>
<path class="familydoctor fill-color8" d="M1023.99 512c0 282.768-229.232 512-512 512s-511.99-229.232-511.99-512c0-282.768 229.222-512 511.99-512s512 229.232 512 512z"></path>
<path fill="#fff" class="path2 fill-color15" d="M855.217 802.946h-82.464v-21.992c0-39.525-9.392-71.937-27.889-96.783 0.049-0.391 0.079-0.789 0.079-1.191v-325.292c0-67.21-25.993-118.388-77.257-152.11-38.985-25.645-92.78-39.942-151.735-40.39-0.16-0.004-0.315-0.020-0.476-0.020-0.396 0-0.789 0.007-1.186 0.009-0.396-0.001-0.789-0.009-1.186-0.009-0.16 0-0.317 0.016-0.476 0.021-58.955 0.448-112.75 14.745-151.735 40.39-51.263 33.722-77.257 84.901-77.257 152.11v325.292c0 0.402 0.031 0.8 0.079 1.191-18.497 24.847-27.889 57.258-27.889 96.783v21.992h-82.466c-6.701 0-12.133 4.804-12.133 10.733s5.432 10.733 12.133 10.733h681.856c6.701 0 12.133-4.806 12.133-10.733 0-5.929-5.432-10.735-12.133-10.735zM748.488 802.946h-169.572v-149.653h58.588v41.589c-10.439 3.346-19.010 10.388-24.709 20.502-5.157 9.148-6.371 17.801-6.492 18.757-0.050 0.398-0.076 0.799-0.076 1.198v29.219c0 5.929 5.432 10.733 12.133 10.733s12.133-4.804 12.133-10.733v-28.503c0.534-3.105 4.141-20.168 19.144-21.794 14.985 1.624 18.6 18.641 19.144 21.798v28.499c0 5.929 5.432 10.733 12.133 10.733s12.133-4.804 12.133-10.733v-29.219c0-0.399-0.026-0.8-0.076-1.198-0.121-0.956-1.335-9.611-6.492-18.757-5.701-10.114-14.27-17.156-24.709-20.502v-38.585c14.017 3.264 32.513 10.081 48.764 24.356 25.186 22.12 37.956 55.867 37.956 100.302v21.992zM515.416 588.486h-2.255c-53.009-3.127-93.673-23.428-120.863-60.348-18.984-25.775-24.697-51.293-25.573-55.688v-118.659c26.453-1.935 87.429-12.071 143.77-62.517 19.424 20.653 69.322 63.397 149.573 63.397 0.594 0 1.187-0.003 1.784-0.009v117.8c-0.856 4.379-6.366 29.296-25.089 55.012-27.182 37.341-68.005 57.866-121.347 61.010zM511.98 609.929c0.26 0.016 0.523 0.023 0.785 0.023h3.051c0.262 0 0.524-0.007 0.785-0.023 13.75-0.789 26.367-2.622 37.972-5.249v37.879c0 0.404 0.031 0.801 0.079 1.192v55.344l-40.354 38.529-40.287-38.523v-94.422c11.602 2.627 24.219 4.461 37.969 5.249zM474.008 730.71l31.375 30.003c2.296 2.195 5.521 3.443 8.902 3.445 0.002 0 0.003 0 0.005 0 3.378 0 6.603-1.246 8.899-3.437l31.461-30.039v72.266h-80.642v-72.237zM375.373 222.804c35.198-23.156 84.497-35.968 138.917-36.152 54.419 0.185 103.719 12.996 138.917 36.152 44.77 29.45 67.471 74.833 67.471 134.884v302.067c-36.791-27.866-79.259-27.971-81.061-27.931h-60.78v-32.534c0-0.567-0.065-1.121-0.16-1.664 38.917-14.226 63.513-37.955 78.489-58.527 23.348-32.071 28.616-62.935 28.827-64.233 0.084-0.511 0.126-1.025 0.126-1.54v-129.847c0-2.984-1.404-5.833-3.876-7.864s-5.795-3.061-9.151-2.839c-4.352 0.283-8.734 0.429-13.022 0.429-90.027 0-137.924-63.748-138.383-64.37-2.054-2.822-5.482-4.631-9.266-4.89-3.787-0.26-7.483 1.063-10.004 3.571-63.708 63.416-138.291 65.246-146.585 65.246-0.471 0-0.752-0.006-0.801-0.007-3.282-0.087-6.49 0.979-8.86 3.001-2.372 2.024-3.711 4.811-3.711 7.725v129.847c0 0.515 0.042 1.030 0.126 1.54 0.212 1.298 5.479 32.162 28.827 64.233 14.977 20.572 39.572 44.301 78.489 58.527-0.095 0.544-0.16 1.098-0.16 1.664v32.534h-60.693c-1.857-0.001-44.356 0.072-81.149 27.931v-302.068c0.002-60.051 22.701-105.433 67.473-134.884zM384.334 717.099c11.745 0 21.3 8.452 21.3 18.843s-9.556 18.842-21.3 18.842-21.3-8.452-21.3-18.842c0-10.391 9.554-18.843 21.3-18.843zM280.091 780.954c0-96.855 61.49-120.234 92.109-125.871v42.011c-19.252 4.713-33.433 20.339-33.433 38.848 0 22.226 20.441 40.308 45.566 40.308s45.566-18.082 45.566-40.308c0-18.51-14.181-34.136-33.433-38.848v-43.801h53.277v149.653h-169.651v-21.992z"></path>
<path fill="#fff" class="path3 fill-color15" d="M442.647 404.156c0 7.075-6.483 12.81-14.48 12.81s-14.48-5.735-14.48-12.81c0-7.075 6.483-12.81 14.48-12.81s14.48 5.735 14.48 12.81z"></path>
<path fill="#fff" class="path4 fill-color15" d="M614.892 404.156c0 7.075-6.483 12.81-14.48 12.81s-14.48-5.735-14.48-12.81c0-7.075 6.483-12.81 14.48-12.81s14.48 5.735 14.48 12.81z"></path>
<path fill="#fff" class="path5 fill-color15" d="M512.187 473.395h4.206c12.984 0 23.547-9.344 23.547-20.831 0-5.929-5.432-10.733-12.133-10.733-6.459 0-11.74 4.465-12.112 10.098h-2.81c-0.37-5.633-5.652-10.098-12.112-10.098-6.701 0-12.133 4.804-12.133 10.733-0.002 11.487 10.562 20.831 23.546 20.831z"></path>
<path fill="#fff" class="path6 fill-color15" d="M391.882 735.942c0 3.688-3.379 6.677-7.548 6.677s-7.548-2.99-7.548-6.677c0-3.688 3.379-6.677 7.548-6.677s7.548 2.99 7.548 6.677z"></path>
<path fill="#fff" class="path7 fill-color15" d="M587.676 501.727c-5.217-3.721-12.854-3.001-17.060 1.617-0.129 0.142-14.702 14.224-53.337 14.224-40.109 0-59.675-14.714-60.652-15.471-4.952-3.938-12.576-3.606-17.072 0.754-4.515 4.381-4.159 11.17 0.791 15.162 1.064 0.859 26.64 21.020 76.933 21.020 50.514 0 70.152-19.941 72.224-22.213 4.208-4.614 3.389-11.371-1.826-15.092z"></path>
</symbol>
<symbol id="dog-feeding" viewBox="0 0 1024 1024">
<title>feeding</title>
<path  class="feeding fill-color10" d="M1023.99 512c0 282.768-229.232 512-512 512s-511.99-229.232-511.99-512c0-282.768 229.222-512 511.99-512s512 229.232 512 512z"></path>
<path fill="#fff" class="path2 fill-color1" d="M693.111 329.844c5.18-5.473 8.236-11.823 8.236-18.621 0-20.263-26.398-36.69-58.949-36.69h-56.265c0.041-0.578 0.147-1.159 0.147-1.745v-45.413c0.002-26.051-33.9-47.165-75.758-47.165-41.851 0-75.785 21.114-75.785 47.165v45.413c0 0.586 0.133 1.168 0.16 1.745h-56.259c-32.553 0-58.942 16.428-58.942 36.69 0 6.807 3.025 13.157 8.232 18.621-44.862 14.587-75.566 43.813-75.566 77.448v340.611c0 48.163 62.947 87.342 140.302 87.342h235.717c77.389 0 140.329-39.178 140.329-87.342v-340.619c-0.027-33.627-30.737-62.853-75.6-77.44zM628.367 800.306h-235.717c-46.417 0-84.163-23.504-84.163-52.403v-340.619c0-28.907 37.76-52.401 84.163-52.401h235.717c46.426 0 84.184 23.504 84.184 52.401v48.331h-110.353c-14.489 0-26.199 7.293-26.199 16.298 0 9.013 11.71 16.307 26.199 16.307h110.353v74.539h-110.353c-14.489 0-26.199 7.296-26.199 16.29 0 9.017 11.71 16.307 26.199 16.307h110.353v76.862h-110.353c-14.489 0-26.199 7.289-26.199 16.307 0 8.993 11.71 16.291 26.199 16.291h110.353v43.092c-0.002 28.895-37.758 52.4-84.184 52.4z"></path>
</symbol>
<symbol id="dog-food" viewBox="0 0 1024 1024">
<title>food</title>
<path  class="food fill-color7" d="M1023.99 512c0 282.768-229.232 512-512 512s-511.99-229.232-511.99-512c0-282.768 229.222-512 511.99-512s512 229.232 512 512z"></path>
<path fill="#f2aa00" class="path2 fill-color8" d="M358.689 288.392v447.221c0 32.686 70.722 59.178 157.968 59.178s157.968-26.492 157.968-59.178v-447.221h-315.936z"></path>
<path fill="#fff" class="path3 fill-color15" d="M674.626 423.204v177.935c0 32.736-70.712 59.218-157.968 59.218s-157.968-26.482-157.968-59.218v-177.935c0 32.736 70.712 59.218 157.968 59.218s157.968-26.482 157.968-59.218z"></path>
<path fill="#fff" class="path4 fill-color15" d="M674.626 288.392c0-32.686-70.722-59.188-157.968-59.188s-157.968 26.502-157.968 59.188c0 32.686 70.722 59.188 157.968 59.188s157.968-26.502 157.968-59.188z"></path>
<path fill="#000" class="path5 fill-color1" d="M380.872 573.471c-0.632 3.594-1.265 7.188-1.897 10.771 3.503-1.275 6.686-3.363 9.567-6.254 2.881-2.911 5.22-6.224 7.047-9.918 3.443-7.107 5.682-14.385 6.826-21.814 1.305-8.533 1.215-15.439-0.211-20.7-1.446-5.431-3.654-9.215-6.636-11.384-1.857-1.385-4.046-2.269-6.595-2.69-0.010 0.030-0.010 0.070-0.020 0.11-1.215 6.766-2.61 17.046-4.086 30.849-1.476 13.793-2.781 24.143-3.995 31.029zM407.495 552.66c-0.020 0.813-0.030 1.616-0.050 2.419-0.733 5.351-3.172 11.424-7.439 18.19-4.829 7.73-10.059 12.93-15.62 15.53-3.152 1.506-6.254 2.018-9.246 1.506-1.586-0.291-2.961-0.863-4.126-1.747-1.164-0.873-1.626-1.958-1.385-3.232 2.178-1.375 3.925-5.612 5.23-12.709 0.773-4.176 1.516-10.45 2.299-18.822 0.773-8.362 1.566-14.596 2.339-18.692 0.883-4.076 1.767-8.151 2.64-12.227 0.371-1.978 0.442-4.708 0.231-8.222-0.221-3.503-0.181-5.953 0.080-7.328 0.502-2.61 3.654-3.323 9.456-2.289 0.582 0.1 1.154 0.201 1.727 0.301 7.74 1.355 12.659 6.515 14.927 15.66 1.596 6.364 1.676 14.837 0.151 25.418-0.261 1.747-0.512 3.493-0.763 5.23-0.251 0.311-0.402 0.653-0.452 1.014z"></path>
<path fill="#000" class="path6 fill-color1" d="M438.823 522.124c-0.572-2.028-1.365-3.624-2.399-4.809-1.024-1.185-2.098-1.837-3.222-1.968s-2.098 0.131-2.921 0.823c-0.833 0.693-1.586 1.717-2.269 3.072s-1.325 2.831-1.937 4.397c-0.602 1.586-1.144 3.403-1.616 5.501-0.482 2.108-0.914 4.005-1.285 5.722-0.331 1.686-0.673 3.554-1.014 5.612-0.522 3.423-0.924 6.093-1.205 8.001-0.020 0.161-0.040 0.331-0.070 0.502-0.642 5.059-0.934 10.561-0.823 16.514 0.1 5.953 0.392 10.862 0.853 14.707s1.325 7.158 2.6 9.958c1.265 2.781 2.891 4.297 4.849 4.507 1.717 0.191 3.313-1.074 4.768-3.795 1.476-2.771 2.66-6.234 3.594-10.41 1.586-7.469 2.53-12.719 2.861-15.781 0.321-3.052 0.552-5.28 0.673-6.696 0.12-1.405 0.271-3.443 0.442-6.154 0.171-2.69 0.261-5.22 0.261-7.599 0.010-2.379-0.020-4.999-0.1-7.89-0.070-2.881-0.291-5.471-0.653-7.76-0.361-2.269-0.813-4.437-1.385-6.455zM445.248 564.808c-0.803 4.768-1.616 9.527-2.439 14.285-0.020 0.171-0.040 0.331-0.050 0.502-0.733 2.068-1.215 4.307-1.456 6.766-0.231 2.439-0.934 4.758-2.118 6.947-1.175 2.178-2.841 4.056-4.989 5.602-2.158 1.556-4.417 2.198-6.776 1.937-2.349-0.261-4.417-1.215-6.174-2.851-1.767-1.626-3.132-3.624-4.096-5.983-0.974-2.349-1.737-5.11-2.289-8.282-0.552-3.162-0.883-6.234-1.004-9.195s-0.12-6.073-0.020-9.316c0.181-4.979 0.472-8.814 0.863-11.524 0.381-2.7 0.693-5.029 0.914-6.967s0.422-3.694 0.592-5.24c0.11-0.773 0.221-1.636 0.351-2.58 0.131-0.924 0.261-1.937 0.412-3.012 0.331-2.168 0.663-4.106 0.994-5.822 0.331-1.737 0.763-3.564 1.275-5.551 0.522-1.978 1.074-3.694 1.656-5.19 0.582-1.476 1.285-2.911 2.118-4.307 0.873-1.415 1.777-2.55 2.731-3.413 2.138-1.897 4.407-2.7 6.816-2.409 2.419 0.281 4.437 0.944 6.053 1.998 1.616 1.074 2.921 2.62 3.905 4.658 0.984 2.058 1.827 4.025 2.54 5.923 0.713 1.907 1.164 4.497 1.365 7.79 0.201 3.303 0.371 5.953 0.492 7.981 0.12 2.068 0.060 4.999-0.181 8.784-0.321 5.1-0.602 9.065-0.873 11.916-0.201 2.188-0.402 4.377-0.612 6.555z"></path>
<path fill="#000" class="path7 fill-color1" d="M480.35 581.072c-1.646 0.070-3.293 0.141-4.939 0.201-2.871-0.151-4.236-1.315-4.106-3.473 0.1-1.847 2.861-2.891 8.242-3.192 1.064-0.060 2.219-0.060 3.483-0.010 1.255 0.050 2.309 0.693 3.152 1.917 0.853 1.225 1.245 2.831 1.175 4.819-0.080 1.998 0.221 5.25 0.914 9.778 0.683 4.527 1.014 7.579 0.964 9.135-0.090 2.791-1.205 4.146-3.333 4.066s-3.524-0.934-4.166-2.56c0-0.040 0-0.080 0-0.12-0.512 0.171-1.476 0.552-2.901 1.154-2.66 1.144-5.29 1.646-7.86 1.506-1.857-0.11-3.694-0.552-5.511-1.345-3.875-1.626-6.726-4.156-8.563-7.579-1.998-3.614-3.202-7.047-3.644-10.259-0.452-3.202-0.713-5.732-0.813-7.569-0.131-1.867-0.181-4.005-0.141-6.395 0.050-3.022 0.251-6.646 0.602-10.872 0.221-2.791 0.432-5.592 0.653-8.392 0.612-7.348 1.305-12.588 2.068-15.731 0.763-3.152 1.486-5.722 2.168-7.73 0.683-1.988 1.425-3.744 2.229-5.28 0.803-1.516 1.757-2.992 2.841-4.397 1.094-1.446 2.309-2.61 3.654-3.483 2.881-1.958 6.063-2.821 9.577-2.61 3.503 0.221 5.2 1.385 5.1 3.544-0.040 0.813-0.371 1.456-0.994 1.897-0.632 0.462-1.355 0.663-2.188 0.612-1.104-0.241-2.198-0.492-3.303-0.743-2.891-0.131-5.27 1.446-7.168 4.758-2.038 3.624-3.443 7.097-4.186 10.45-0.743 3.333-1.315 6.033-1.697 8.091-0.472 2.018-0.833 4.317-1.104 6.917-0.432 3.584-0.763 7.178-0.994 10.781-0.191 2.349-0.392 4.708-0.582 7.057-0.552 7.278-0.582 12.488-0.090 15.62 0.482 3.132 1.064 5.632 1.727 7.509 0.602 1.907 1.415 3.493 2.419 4.748 3.373 2.66 6.415 4.196 9.075 4.648 3.815 0.211 7.067-1.235 9.697-4.327 0.171-6.786-0.321-11.153-1.456-13.141z"></path>
<path fill="#000" class="path8 fill-color1" d="M535.921 597.099c-0.1 0.241-0.201 0.492-0.291 0.733 0.171 0.432 0.271 1.024 0.291 1.747 0.010 0.733-0.361 1.395-1.154 2.008-0.783 0.622-1.827 0.934-3.132 0.964-2.48 0.050-3.764-2.369-3.835-7.238-0.1-7.258-0.743-20.961-1.827-41.118-1.084-20.148-1.978-30.819-2.781-32.003 0-3.945 2.7-6.063 8.091-6.435 0.823-0.050 1.937-0.1 3.333-0.141 1.415-0.030 2.52 0.201 3.343 0.693s1.265 1.536 1.315 3.132c0.060 1.606-0.994 2.439-3.152 2.5-0.944-0.010-1.887-0.020-2.841-0.030-2.148 0.050-3.222 0.492-3.202 1.355 0.070 3.534 0.452 8.714 1.175 15.52 0.723 6.816 1.154 11.856 1.265 15.128 0.512-0.090 1.195-0.251 2.058-0.502 2.048-0.562 3.554-0.873 4.537-0.893 0.994-0.040 1.817 0.301 2.49 1.004 0.683 0.703 1.034 1.496 1.064 2.389 0.090 2.49-3.242 3.875-10.019 4.036 0.1 4.126 0.622 10.31 1.606 18.541 0.994 8.242 1.566 14.446 1.666 18.612z"></path>
<path fill="#000" class="path9 fill-color1" d="M566.132 524.526c-0.914-1.887-1.978-3.333-3.202-4.317-1.215-0.974-2.389-1.436-3.514-1.365-1.134 0.070-2.048 0.502-2.741 1.335-0.683 0.823-1.245 1.958-1.686 3.423-0.432 1.456-0.803 3.012-1.124 4.658-0.311 1.666-0.522 3.564-0.622 5.712-0.1 2.158-0.181 4.096-0.251 5.853-0.030 1.717-0.030 3.604-0.010 5.702 0.1 3.463 0.171 6.154 0.231 8.081 0.010 0.171 0.010 0.341 0.020 0.512 0.261 5.090 0.944 10.551 2.098 16.403 1.154 5.842 2.299 10.621 3.433 14.315 1.134 3.714 2.56 6.826 4.307 9.356 1.737 2.51 3.604 3.714 5.571 3.584 1.717-0.11 3.062-1.646 4.015-4.588 0.964-2.971 1.516-6.605 1.697-10.872 0.241-7.629 0.241-12.97 0.030-16.042-0.211-3.062-0.392-5.29-0.512-6.706-0.131-1.405-0.351-3.443-0.653-6.134-0.311-2.68-0.663-5.19-1.084-7.529-0.412-2.339-0.903-4.919-1.486-7.75-0.592-2.831-1.255-5.331-2.008-7.519-0.763-2.178-1.596-4.226-2.51-6.114zM579.986 565.414c0.040 4.829 0.080 9.657 0.11 14.486 0.010 0.171 0.030 0.331 0.040 0.502-0.361 2.158-0.442 4.457-0.231 6.917 0.191 2.439-0.090 4.849-0.863 7.208-0.773 2.349-2.088 4.497-3.925 6.405-1.847 1.897-3.955 2.941-6.314 3.092-2.369 0.161-4.558-0.412-6.575-1.707-2.028-1.305-3.714-3.022-5.090-5.17-1.365-2.148-2.6-4.728-3.694-7.75-1.104-3.012-1.968-5.983-2.61-8.874-0.642-2.901-1.195-5.963-1.656-9.175-0.703-4.919-1.094-8.754-1.195-11.484-0.090-2.741-0.201-5.080-0.321-7.027-0.131-1.947-0.241-3.704-0.341-5.26-0.040-0.783-0.070-1.646-0.11-2.6-0.040-0.934-0.080-1.958-0.131-3.032-0.060-2.198-0.070-4.176-0.050-5.913 0.030-1.767 0.12-3.644 0.281-5.682 0.151-2.048 0.392-3.835 0.703-5.401 0.311-1.556 0.753-3.092 1.325-4.618 0.612-1.546 1.305-2.831 2.078-3.835 1.767-2.249 3.855-3.443 6.284-3.584 2.429-0.151 4.527 0.151 6.304 0.903 1.777 0.763 3.323 2.058 4.658 3.895 1.325 1.847 2.51 3.634 3.544 5.381s1.937 4.226 2.72 7.429c0.783 3.212 1.415 5.792 1.887 7.77 0.482 2.018 0.944 4.909 1.375 8.683 0.582 5.070 1.004 9.025 1.245 11.876 0.181 2.188 0.371 4.377 0.552 6.565z"></path>
<path fill="#000" class="path10 fill-color1" d="M603.085 520.982c-1.014-1.837-2.148-3.222-3.423-4.136-1.275-0.924-2.47-1.315-3.594-1.185-1.124 0.12-2.008 0.602-2.66 1.466-0.642 0.863-1.144 2.028-1.506 3.503s-0.653 3.062-0.883 4.718c-0.231 1.676-0.341 3.584-0.331 5.732 0.010 2.158 0.020 4.096 0.050 5.853 0.060 1.727 0.151 3.614 0.291 5.702 0.261 3.453 0.482 6.134 0.632 8.061 0.020 0.171 0.040 0.341 0.050 0.512 0.522 5.070 1.496 10.49 2.951 16.273 1.446 5.762 2.841 10.48 4.166 14.124 1.325 3.634 2.911 6.676 4.778 9.105s3.795 3.534 5.762 3.293c1.707-0.201 2.971-1.797 3.775-4.778 0.813-3.032 1.175-6.686 1.134-10.952-0.141-7.629-0.422-12.97-0.793-16.022s-0.653-5.26-0.863-6.666c-0.201-1.405-0.522-3.423-0.964-6.093-0.442-2.66-0.934-5.15-1.466-7.469-0.532-2.309-1.164-4.859-1.887-7.659-0.733-2.791-1.526-5.26-2.399-7.409-0.873-2.128-1.807-4.136-2.821-5.973zM619.047 561.096c0.291 4.819 0.572 9.647 0.853 14.466 0.020 0.161 0.050 0.331 0.070 0.492-0.251 2.178-0.211 4.487 0.12 6.927 0.321 2.419 0.161 4.849-0.492 7.238s-1.847 4.598-3.594 6.595c-1.747 1.998-3.805 3.142-6.154 3.423-2.359 0.281-4.578-0.181-6.666-1.375-2.088-1.185-3.865-2.821-5.351-4.889-1.476-2.078-2.841-4.588-4.096-7.549s-2.279-5.873-3.062-8.734c-0.793-2.861-1.506-5.883-2.138-9.075-0.954-4.879-1.536-8.683-1.777-11.404-0.231-2.731-0.462-5.059-0.683-6.997-0.231-1.937-0.432-3.694-0.612-5.24-0.080-0.783-0.161-1.636-0.251-2.59-0.080-0.934-0.181-1.947-0.281-3.022-0.171-2.198-0.281-4.156-0.351-5.903-0.070-1.757-0.070-3.654-0.020-5.692 0.050-2.048 0.201-3.855 0.432-5.431 0.231-1.566 0.592-3.132 1.084-4.678 0.532-1.576 1.154-2.891 1.877-3.945 1.656-2.339 3.674-3.624 6.093-3.895 2.429-0.271 4.537-0.080 6.354 0.572 1.817 0.673 3.433 1.887 4.859 3.654 1.425 1.777 2.69 3.503 3.825 5.19 1.114 1.697 2.158 4.116 3.102 7.278s1.707 5.712 2.289 7.659c0.582 1.988 1.185 4.859 1.817 8.593 0.843 5.039 1.466 8.964 1.857 11.805 0.291 2.168 0.592 4.347 0.893 6.525z"></path>
<path fill="#000" class="path11 fill-color1" d="M638.446 575.595c0.572 3.604 1.144 7.208 1.727 10.802 2.891-2.339 5.22-5.361 6.997-9.045 1.767-3.674 2.901-7.569 3.423-11.665 0.934-7.84 0.673-15.449-0.673-22.848-1.546-8.493-3.885-14.988-6.957-19.495-3.142-4.668-6.465-7.519-9.988-8.593-2.198-0.703-4.568-0.823-7.107-0.392 0 0.030 0.010 0.070 0.010 0.11 1.064 6.796 3.102 16.965 6.214 30.487s5.26 23.731 6.354 30.638zM656.827 547.236c0.251 0.763 0.492 1.526 0.743 2.289 1.044 5.3 0.733 11.846-1.094 19.626-2.048 8.894-5.3 15.51-9.707 19.786-2.49 2.459-5.24 3.945-8.242 4.437-1.586 0.251-3.082 0.151-4.467-0.291-1.385-0.462-2.178-1.325-2.369-2.62 1.626-1.998 1.877-6.585 0.803-13.713-0.642-4.196-1.978-10.37-3.975-18.541-1.998-8.161-3.283-14.305-3.895-18.421-0.492-4.146-0.994-8.292-1.496-12.428-0.291-1.988-1.114-4.598-2.459-7.84s-2.118-5.571-2.319-6.967c-0.371-2.62 2.359-4.327 8.181-5.24 0.582-0.090 1.154-0.191 1.727-0.281 7.76-1.245 14.094 2.028 19.234 9.928 3.594 5.501 6.435 13.472 8.442 23.972 0.331 1.727 0.663 3.463 0.994 5.2-0.141 0.371-0.171 0.743-0.1 1.104z"></path>
</symbol>
<symbol id="dog-help_choose" viewBox="0 0 1024 1024">
<title>help_choose</title>
<path  class="help_choose fill-color3" d="M1023.99 512c0 282.768-229.232 512-512 512s-511.99-229.232-511.99-512c0-282.768 229.222-512 511.99-512s512 229.232 512 512z"></path>
<path fill="#fff" class="path2 fill-color15" d="M527.442 234c0 32.059-23.137 58.049-51.678 58.049s-51.678-25.989-51.678-58.049c0-32.059 23.137-58.049 51.678-58.049s51.678 25.989 51.678 58.049z"></path>
<path fill="#fff" class="path3 fill-color15" d="M330.898 206.933c-2.793-6.933-7.33-12.783-12.973-16.862-3.82 0.69-7.699 1.168-11.635 1.367-7.49 0.378-15.327-0.842-23.043-3.246-6.976 4.028-12.597 10.606-15.861 18.656-22.007 2.255-39.614 21.601-42.203 46.125-0.167 1.589 0.278 3.18 1.223 4.376s2.301 1.886 3.725 1.886h18.955c2.633 0 4.803-2.296 4.968-5.248 0.658-11.843 4.122-23.479 10.298-33.549-0.051 0.869-0.118 1.734-0.118 2.618 0 21.644 15.62 39.192 34.889 39.192s34.891-17.546 34.891-39.192c0-0.517-0.051-1.019-0.068-1.529 5.769 9.818 9.028 21.040 9.663 32.46 0.164 2.952 2.335 5.248 4.968 5.248h18.955c1.424 0 2.78-0.69 3.725-1.886s1.39-2.787 1.223-4.376c-2.565-24.29-19.868-43.485-41.58-46.039z"></path>
<path fill="#fff" class="path4 fill-color15" d="M802.905 645.905c-1.021-0.754-2.253-1.079-3.476-1.079h-15.458c0-17.366-12.534-31.445-27.994-31.445-12.46 0-23.009 9.152-26.639 21.792-0.091 0.085-0.198 0.143-0.285 0.237-7.134 7.757-18.425 20.828-20.143 27.59-2.394 9.419 2.046 19.205 10.009 22.697-67.192-12.251-116.082-83.055-130.799-106.858 6.786-5.158 11.026-14.103 10.422-23.947l-13.31-216.668c-0.882-14.363-11.747-25.224-24.433-24.814h-158.592l-70.036-34.087c-2.656-1.292-5.417-0.916-8.104-0.916-13.743 0-31.267 0-45.43 0-5.83 0-11.745 1.602-14.626 7.672l-52.716 111.040c-3.426 7.215-1.515 16.454 4.748 20.623 2.168 1.444 4.533 2.125 6.864 2.125 4.809 0 9.461-2.905 11.882-8.005l19.364-40.787-7.493 57.564c-1.15 4.729-0.272 9.788 2.377 13.684 0.272 0.399 0.567 0.769 0.867 1.134-8.153 4.34-13.774 13.71-13.612 24.564 0.217 14.696 11.391 26.232 24.477 26.247l2.793 0.004v12.010c0 9.66 6.489 18.092 15.070 18.718 9.402 0.683 17.221-7.68 17.221-18.097v-12.593l10.589 0.013v11.96c0 9.66 6.489 18.092 15.070 18.718 9.402 0.683 17.221-7.68 17.221-18.097v-12.544l25.321 0.030c0.010 0 0.015 0 0.025 0 11.159 0 20.818-8.725 23.214-20.969l16.272-83.219h4.896l0.475 399.148c0 17.251 11.802 32.095 27.142 32.906 16.379 0.867 29.899-13.793 29.899-32.001v-201.833c0-5.897 4.257-10.679 9.507-10.679v0c5.25 0 9.507 4.782 9.507 10.679v200.929c0 17.251 11.802 32.095 27.142 32.906 16.379 0.867 29.899-13.793 29.899-32.001l0.475-371.882 8.611 140.202c0.865 14.086 11.306 24.863 23.688 24.863 0.55 0 1.105-0.023 1.66-0.064 0.167-0.013 0.327-0.049 0.494-0.066 12.857 21.732 62.592 98.091 135.047 114.086-4.343 4.746-9.44 8.708-15.167 11.593l-38.688 19.478c-14.979 7.548-25.568 22.618-28.909 40.196-4.105-8.947-2.89-21.268-2.808-22.054 0.576-5.25-2.738-10.038-7.414-10.7-4.662-0.671-8.961 3.065-9.551 8.323-1.605 14.278 1.067 41.714 21.094 50.347 5.001 13.93 17.139 23.799 31.31 23.799 1.152 0 46.645 0 46.645 0 4.464 0 8.452-3.665 8.878-8.656 0.489-5.726-3.51-10.549-8.509-10.549h-17.687c1.027-2.023 1.884-4.161 2.571-6.39l36.486-18.598v34.593c0 5.303 3.828 9.603 8.549 9.603h16.797c4.464 0 8.452-3.665 8.878-8.656 0.489-5.726-3.51-10.549-8.509-10.549h-8.617v-34.935c9.826-8.377 15.814-21.537 15.814-35.766v-28.472c0-8.107 5.851-14.677 13.066-14.677h7.322c6.765 0 12.825-4.699 15.225-11.802l6.541-19.365c0.993-2.943 0.112-6.384-2.42-8.253zM365.816 334.333l-13.485 68.965-11.289-86.72 26.22 12.761c-0.612 1.58-1.105 3.246-1.447 4.993zM494.576 440.405l-13.359 23.611c-2.67 4.718-8.8 4.718-11.469 0l-13.359-23.611c-0.974-1.721-1.295-3.806-0.89-5.794l12.015-71.556-7.889-8.861c-2.628-2.952-2.628-7.736 0-10.688l11.1-12.469c2.628-2.952 6.887-2.952 9.515 0l11.1 12.469c2.628 2.952 2.628 7.736 0 10.688l-7.889 8.861 12.015 71.556c0.405 1.986 0.084 4.073-0.89 5.794z"></path>
</symbol>
<symbol id="dog-mind" viewBox="0 0 1024 1024">
<title>mind</title>
<path  class="mind fill-color4" d="M1023.99 512c0 282.768-229.232 512-512 512s-511.99-229.232-511.99-512c0-282.768 229.222-512 511.99-512s512 229.232 512 512z"></path>
<path fill="#fff" class="path2 fill-color15" d="M652.375 717.316c-13.833 0-24.588 7.912-35.976 16.287-13.448 9.893-27.354 20.123-48.793 20.123-25.172 0-40.458-11.801-40.458-16.991v-11.489c6.423-2.889 15.954-7.532 25.56-13.523 24.587-15.332 37.053-31.598 37.053-48.348 0-34.102-28.791-55.289-75.136-55.289s-75.136 21.186-75.136 55.289c0 16.75 12.466 33.016 37.053 48.348 9.605 5.991 19.138 10.635 25.56 13.523v11.489c0 5.19-15.285 16.991-40.458 16.991-21.439 0-35.345-10.23-48.793-20.123-11.388-8.376-22.143-16.287-35.976-16.287-6.916 0-12.523 5.434-12.523 12.137s5.607 12.137 12.523 12.137c5.405 0 12.556 5.26 20.835 11.349 14.378 10.576 34.068 25.061 63.934 25.061 21.758 0 41.062-6.724 52.98-17.040 11.918 10.316 31.222 17.040 52.98 17.040 29.867 0 49.557-14.485 63.934-25.061 8.279-6.091 15.429-11.349 20.835-11.349 6.916 0 12.523-5.434 12.523-12.137s-5.607-12.137-12.523-12.137zM464.536 663.375c0-27.993 35.029-31.015 50.091-31.015 45.21 0 50.091 21.69 50.091 31.015 0 13.652-28.37 31.496-50.091 40.776-21.725-9.285-50.091-27.125-50.091-40.776z"></path>
<path fill="#fff" class="path3 fill-color15" d="M426.968 507.959c0-26.769-22.47-48.547-50.091-48.547s-50.091 21.778-50.091 48.547c0 26.769 22.47 48.547 50.091 48.547s50.091-21.778 50.091-48.547zM351.832 507.959c0-13.384 11.236-24.273 25.045-24.273s25.045 10.89 25.045 24.273c0 13.384-11.236 24.273-25.045 24.273s-25.045-10.89-25.045-24.273z"></path>
<path fill="#fff" class="path4 fill-color15" d="M652.375 459.412c-27.62 0-50.091 21.778-50.091 48.547s22.47 48.547 50.091 48.547c27.62 0 50.091-21.778 50.091-48.547s-22.47-48.547-50.091-48.547zM652.375 532.232c-13.809 0-25.045-10.89-25.045-24.273s11.236-24.273 25.045-24.273c13.809 0 25.045 10.89 25.045 24.273s-11.236 24.273-25.045 24.273z"></path>
<path fill="#fff" class="path5 fill-color15" d="M861.103 293.736c-50.485-71.212-86.893-86.16-108.546-86.16-35.201 0-62.148 19.42-73.099 52.251-17.123 7.795-30.057 4.576-53.971-1.434-24.206-6.080-57.355-14.408-110.86-14.408s-86.654 8.327-110.86 14.408c-23.915 6.009-36.848 9.228-53.971 1.434-10.951-32.831-37.898-52.251-73.1-52.251-21.653 0-58.061 14.948-108.546 86.16-26.089 36.801-54.248 88.567-54.248 108.027 0 5.527 3.43 8.614 6.186 11.093 7.116 6.402 28.771 25.886 31.412 62.572 1.648 22.899 9.267 47.392 20.905 67.204 12.853 21.881 29.333 36.169 46.406 40.229 2.838 0.675 6.285 1.197 10.164 1.197 3.195 0 6.681-0.353 10.355-1.268 1.44 44.036 11.533 81.607 30.776 114.532 18.523 31.692 46.063 60.398 86.668 90.339 3.275 2.414 7.91 8.408 12.817 14.751 21.032 27.183 56.231 72.682 145.037 72.682s124.006-45.499 145.037-72.684c4.907-6.344 9.544-12.337 12.817-14.751 40.605-29.943 68.144-58.649 86.668-90.339 19.243-32.924 29.336-70.496 30.776-114.532 3.675 0.915 7.161 1.268 10.355 1.268 3.879 0 7.327-0.522 10.164-1.197 37.44-8.905 64.089-62.7 67.309-107.432 2.642-36.686 24.295-56.169 31.412-62.572 2.757-2.479 6.186-5.566 6.186-11.093 0.002-19.458-28.157-71.224-54.247-108.026zM852.769 473.738c-1.396 19.393-7.842 40.125-17.687 56.883-9.279 15.797-20.435 26.244-30.609 28.664-9.891 2.356-19.559-3.781-28.725-18.237-13.211-20.837-4.865-65.625 3.206-108.936 11.787-63.246 25.146-134.93-17.986-172.845-5.123-4.503-13.042-4.128-17.688 0.836s-4.259 12.64 0.862 17.143c32.841 28.869 21.314 90.728 10.165 150.549-9.317 49.997-18.119 97.221 0.102 125.958 3.664 5.78 7.432 10.504 11.217 14.368-0.353 1.127-0.548 2.32-0.548 3.555 0 97.268-43.079 148.966-107.764 196.664-6.053 4.463-11.446 11.436-17.691 19.507-19.399 25.077-48.716 62.973-124.998 62.973s-105.599-37.895-124.998-62.973c-6.246-8.071-11.638-15.043-17.691-19.507-64.684-47.699-107.764-99.396-107.764-196.664 0-1.236-0.194-2.429-0.548-3.552 3.785-3.864 7.553-8.588 11.217-14.368 18.22-28.737 9.419-75.962 0.102-125.958-11.148-59.823-22.677-121.682 10.165-150.549 5.122-4.503 5.51-12.178 0.863-17.143s-12.567-5.339-17.688-0.836c-43.131 37.913-29.773 109.597-17.986 172.845 8.071 43.311 16.417 88.097 3.206 108.936-9.165 14.455-18.829 20.594-28.725 18.237-10.175-2.42-21.329-12.866-30.608-28.664-9.844-16.758-16.29-37.49-17.687-56.883-2.129-29.571-14.498-55.22-36.774-76.291 3.694-13.698 20.72-49.959 49.083-89.966 33.575-47.36 66.436-75.634 87.904-75.634 14.891 0 41.251 5.128 50.496 39.475 0.008 0.039 0.024 0.078 0.032 0.117 0.064 0.223 0.139 0.443 0.216 0.663 0.056 0.164 0.108 0.332 0.17 0.493 0.072 0.191 0.166 0.378 0.252 0.567 0.082 0.178 0.157 0.36 0.244 0.532 0.084 0.162 0.181 0.317 0.274 0.476 0.106 0.186 0.208 0.375 0.324 0.554 0.1 0.156 0.216 0.303 0.325 0.455 0.122 0.17 0.238 0.344 0.368 0.507 0.132 0.165 0.279 0.32 0.421 0.479 0.122 0.137 0.238 0.279 0.365 0.411 0.153 0.158 0.321 0.305 0.483 0.455 0.132 0.121 0.258 0.249 0.394 0.364 0.155 0.13 0.322 0.252 0.485 0.376 0.161 0.123 0.32 0.25 0.487 0.366 0.15 0.103 0.31 0.197 0.467 0.294 0.194 0.123 0.388 0.246 0.589 0.357 0.040 0.022 0.072 0.047 0.112 0.067 13.452 7.277 25.131 9.917 36.732 9.917 12.718 0 25.344-3.172 40.112-6.883 24.177-6.074 54.265-13.633 104.577-13.633s80.4 7.558 104.575 13.631c14.771 3.711 27.393 6.883 40.112 6.883 11.601 0 23.281-2.64 36.732-9.917 0.032-0.018 0.072-0.044 0.108-0.065 0.21-0.115 0.41-0.244 0.614-0.372 0.147-0.093 0.3-0.182 0.442-0.279 0.178-0.124 0.348-0.258 0.52-0.391 0.152-0.117 0.308-0.227 0.452-0.349 0.152-0.129 0.294-0.27 0.44-0.405 0.147-0.138 0.3-0.27 0.44-0.413 0.145-0.15 0.277-0.311 0.417-0.469 0.124-0.141 0.254-0.278 0.371-0.423 0.145-0.179 0.272-0.37 0.406-0.558 0.096-0.135 0.199-0.265 0.29-0.405 0.124-0.19 0.232-0.39 0.344-0.589 0.084-0.147 0.175-0.291 0.254-0.443 0.092-0.178 0.169-0.366 0.252-0.549s0.172-0.366 0.246-0.552c0.064-0.162 0.114-0.331 0.172-0.496 0.072-0.22 0.152-0.439 0.214-0.66 0.008-0.039 0.032-0.078 0.032-0.117 9.243-34.344 35.604-39.472 50.495-39.472 21.469 0 54.33 28.274 87.903 75.633 28.362 40.007 45.388 76.268 49.083 89.966-22.276 21.069-34.645 46.719-36.773 76.29z"></path>
<path fill="#fff" class="path6 fill-color15" d="M550.011 787.166c-23.48 3.972-47.29 3.972-70.77 0-6.815-1.155-13.301 3.266-14.489 9.87-1.19 6.604 3.37 12.891 10.183 14.042 13.169 2.229 26.431 3.342 39.691 3.342s26.523-1.113 39.691-3.342c6.814-1.151 11.372-7.438 10.182-14.042s-7.669-11.025-14.487-9.87z"></path>
<path fill="#fff" class="path7 fill-color15" d="M499.885 395.922c4.556-2.663 8.683-5.912 12.259-9.635l12.892 6.965 11.738-19.022-12.866-6.95c1.636-4.672 2.598-9.628 2.778-14.765l14.637-2.414-4.078-21.63-14.634 2.414c-2.022-4.689-4.736-9.050-8.026-12.969l9.566-10.664-17.985-14.117-9.558 10.655c-4.668-2.34-9.724-4.090-15.052-5.14v-13.897h-23.477v13.897c-5.329 1.050-10.384 2.799-15.053 5.14l-9.558-10.655-17.985 14.118 9.565 10.664c-3.29 3.919-6.003 8.28-8.026 12.969l-14.634-2.414-4.076 21.63 14.635 2.414c0.18 5.138 1.143 10.093 2.779 14.766l-12.867 6.949 11.739 19.021 12.892-6.963c3.575 3.722 7.702 6.971 12.259 9.634l-5.089 13.079 22.062 7.511 5.082-13.061c2.619 0.347 5.294 0.53 8.013 0.53s5.395-0.183 8.014-0.53l5.081 13.062 22.061-7.513-5.089-13.079zM469.817 378.794c-16.532 0-29.981-12.582-29.981-28.049s13.45-28.049 29.981-28.049 29.981 12.583 29.981 28.049c0 15.467-13.449 28.049-29.981 28.049z"></path>
<path fill="#fff" class="path8 fill-color15" d="M600.796 412.415l-10.12 3.063c-1.93-3.138-4.315-5.979-7.062-8.452l5.656-8.445-14.241-8.347-5.653 8.438c-3.556-1.228-7.324-2.001-11.214-2.252l-1.467-9.853-16.645 2.171 1.467 9.853c-3.666 1.236-7.067 2.945-10.129 5.036l-7.9-6.672-11.26 11.671 7.907 6.679c-1.918 3.082-3.38 6.424-4.318 9.937l-10.631-0.36-0.608 15.711 10.631 0.361c0.671 3.626 1.877 7.048 3.531 10.212l-8.388 6.117 10.33 12.4 8.405-6.128c2.928 2.308 6.198 4.23 9.709 5.698l-2.228 9.745 16.435 3.284 2.225-9.729c1.893 0.005 3.808-0.115 5.736-0.366s3.807-0.63 5.625-1.116l4.984 8.791 14.847-7.366-4.989-8.801c2.951-2.31 5.531-4.996 7.674-7.965l9.874 3.746 6.315-14.571-9.855-3.739c0.664-3.463 0.823-7.066 0.411-10.726l10.122-3.065-5.175-14.957zM558.305 454.327c-11.723 1.527-22.588-6.15-24.22-17.116-1.635-10.966 6.573-21.132 18.295-22.658 11.721-1.529 22.583 6.149 24.22 17.116 1.631 10.965-6.575 21.128-18.295 22.658z"></path>
<path fill="#fff" class="path9 fill-color15" d="M623.467 357.93l0.394-12.407-8.392-0.233c-0.526-2.734-1.466-5.442-2.846-8.045l6.591-4.871-8.223-9.738-6.59 4.869c-2.35-1.827-4.95-3.317-7.71-4.441l1.704-7.703-12.989-2.517-1.707 7.698c-2.993 0.004-6.007 0.401-8.96 1.215l-3.98-6.915-11.682 5.886 3.98 6.916c-2.349 1.857-4.365 3.997-6.018 6.33l-7.805-2.907-4.906 11.532 7.812 2.911c-0.514 2.775-0.614 5.621-0.277 8.463l-7.974 2.467 4.163 11.785 7.974-2.466c1.562 2.512 3.46 4.733 5.614 6.65l-4.411 6.684 11.288 6.522 4.42-6.696c2.846 0.955 5.83 1.537 8.859 1.72l1.213 7.784 13.129-1.794-1.209-7.775c1.401-0.482 2.784-1.062 4.138-1.744 1.355-0.681 2.634-1.444 3.835-2.272l6.272 5.224 8.824-9.268-6.276-5.23c1.505-2.468 2.625-5.12 3.34-7.868l8.405 0.234zM591.854 364.578c-8.228 4.144-18.525 1.255-22.953-6.439-4.432-7.696-1.343-17.331 6.885-21.473 8.224-4.145 18.52-1.254 22.952 6.441 4.427 7.696 1.341 17.327-6.884 21.471z"></path>
</symbol>
<symbol id="dog-motion" viewBox="0 0 1024 1024">
<title>motion</title>
<path  class="motion fill-color2" d="M1023.99 512c0 282.768-229.232 512-512 512s-511.99-229.232-511.99-512c0-282.768 229.222-512 511.99-512s512 229.232 512 512z"></path>
<path fill="#fff" class="path2 fill-color15" d="M337.005 696.114l-21.081 30.347-44.371-30.829 21.081-30.337 44.371 30.819z"></path>
<path fill="#8b6239" class="path3 fill-color5" d="M384.548 616.723l-38.247 55.062c-4.497 6.475-13.392 8.071-19.856 3.574l-10.671-7.409c-6.475-4.497-8.081-13.392-3.584-19.856l38.247-55.062 34.111 23.691z"></path>
<path fill="#ed4b00" class="path4 fill-color7" d="M751.981 471.967l-15.088 40.245-284.083-106.52 15.088-40.235c29.383-78.362 116.96-118.185 195.281-88.822 78.362 29.383 118.185 116.97 88.802 195.332zM424.622 349.215l-55.544 148.14c-38.378 102.354 13.492 216.423 115.836 254.8v0c102.354 38.368 216.423-13.492 254.8-115.836l55.544-148.15c38.368-102.344-13.492-216.423-115.836-254.8v0c-102.354-38.368-216.433 13.492-254.8 115.846z"></path>
</symbol>
<symbol id="dog-pologi" viewBox="0 0 1024 1024">
<title>pologi</title>
<path  class="pologi fill-color13" d="M1023.99 512c0 282.768-229.232 512-512 512s-511.99-229.232-511.99-512c0-282.768 229.222-512 511.99-512s512 229.232 512 512z"></path>
<path fill="#fff" class="path2 fill-color15" d="M856.783 554.093c6.126-3.332 10.496-8.859 11.471-15.4 1.607-10.787-6.492-20.895-18.865-23.549l-7.161-1.536 10.691-27.007c2.596-6.558 1.328-13.781-3.413-19.4-4.734-5.624-12.359-8.956-20.482-8.956h-42.739c-8.119 0-15.748 3.332-20.482 8.954-4.737 5.624-6.008 12.844-3.413 19.4l4.28 10.819-23.205-4.974c-10.214-11.008-28.951-22.749-57.263-22.749-21.954 0-38.177 10.466-52.492 19.701-15.482 9.991-28.857 18.618-50.579 18.618-22.539 0-35.241-2.186-41.196-7.085-7.346-6.045-11.068-21.027-11.068-44.527 0-33.723 0.208-55.799 0.38-68.382 0.239-17.985-10.816-34.946-28.857-44.266l-211.254-109.11c-6.025-3.109-13.304-3.934-20.068-2.266-6.768 1.665-12.406 5.667-15.556 11.034-4.989 8.504-12.836 34.952 21.954 96.724 14.134 25.099 26.967 39.602 36.334 50.194 12.836 14.512 17.163 19.4 16.531 41.983-1.116 39.989-63.033 47.080-75.435 48.094-35.857 2.94-53.141 4.699-53.861 4.773-7.854 0.802-14.81 4.699-18.787 10.524-3.981 5.828-4.522 12.907-1.463 19.122 0.619 1.255 6.452 12.581 20.519 26.623l-41.69 11.186c-13.28 3.561-20.66 15.629-16.474 26.95 3.389 9.171 13.327 15.039 24.042 15.039 2.508 0 5.060-0.321 7.582-1l72.648-19.494c29.902 15.010 71.811 26.97 129.572 26.97 94.397 0 124.979-7.518 157.356-15.478 15.775-3.879 30.676-7.547 54.715-10.71 46.962-6.186 76.017-7.53 95.245-8.418 12.322-0.57 21.225-0.983 29.183-2.395 11.579-2.057 20.24-4.897 25.932-7.177l16.905 0.092c-20.482 27.454-43.058 66.446-43.058 104.99 0 64.681 61.493 81.771 94.011 81.771l0.38-0.003 0.38 0.003c6.032 0 27.357-0.771 48.559-10.653 29.314-13.661 45.455-38.917 45.455-71.119 0.003-39.94-24.231-80.344-45.264-107.907zM695.275 533.418h-2.239c-13.929 0-25.216-9.618-25.216-21.489s11.287-21.489 25.216-21.489h2.239c13.929 0 25.216 9.618 25.216 21.489s-11.287 21.489-25.216 21.489z"></path>
</symbol>
<symbol id="dog-specialists" viewBox="0 0 1024 1024">
<title>specialists</title>
<path class="specialists fill-color11" d="M1023.99 512c0 282.768-229.232 512-512 512s-511.99-229.232-511.99-512c0-282.768 229.222-512 511.99-512s512 229.232 512 512z"></path>
<path fill="#fff" class="path2 fill-color15" d="M554.718 867.027c-10.695 21.004-22.127 37.719-30.792 45.511-9.126 8.206-19.358 12.368-30.409 12.368-22.279 0-48.293-16.69-79.528-51.024-29.249-32.149-38.344-69.088-40.823-94.415-2.836-28.958 1.887-57.557 12.030-72.859 0.118-0.178 0.244-0.35 0.38-0.514 0.329-0.403 1.269-1.541 2.575-3.088 20.346 5.178 52.636 17.056 73.278 42.912 18.368 23.005 26.613 44.847 33.237 62.398 5.551 14.709 10.345 27.412 19.244 36.745 11.924 12.505 29.005 18.867 40.808 21.966zM470.741 737.737c15.892 19.905 24.581 38.705 31.001 54.909 9.169-2.006 30.904-8.535 48.531-27.647 13.923-15.094 21.462-41.315 25.269-59.861-6.113-9.902-14.118-14.333-21.85-17.596-1.676-0.705-3.123-1.317-4.091-1.909-2.93-1.793-4.952-16.070-1.132-38.216 1.758-10.191 3.331-13.833 3.449-14.099 0.87-1.739 0.928-3.807 0.149-5.6-0.798-1.839-2.382-3.17-4.266-3.591l-16.698-3.717c-3.227-0.721-6.402 1.392-7.167 4.752-3.992 17.543-12.027 47.672-16.597 53.834-0.434 0.586-1.281 1.569-2.074 1.569-1.72 0-5.057-3.538-5.284-8.578-0.401-8.808 2.776-52.974 4.035-69.247 0.137-1.772-0.439-3.526-1.588-4.833s-2.769-2.049-4.465-2.049h-14.168c-3.192 0-5.84 2.594-6.058 5.935-0.032 0.482-3.176 48.329-6.039 63.85-1.19 6.449-3.665 19.868-7.56 19.868-0.524 0-1.453-0.148-2.907-0.85-7.044-3.406-12.475-29.044-14.52-38.697-2.846-13.432-2.892-26.62-2.892-26.749 0-1.976-0.874-3.841-2.368-5.048-1.494-1.205-3.435-1.615-5.257-1.11l-17.204 4.777c-3.218 0.895-5.151 4.339-4.332 7.725 0.039 0.162 3.957 16.422 6.591 31.197 1.603 8.997-2.031 18.069-9.261 23.109-1.641 1.145-3.212 2.256-4.584 3.256-2.742 1.997-6.317 5.508-9.782 9.201 21.878 6.335 52.31 19.354 73.119 45.417zM559 773.856c-18.743 20.321-41.084 28.026-52.65 30.803 5.078 13.443 9.208 24.112 16.147 31.391 10.854 11.384 27.595 16.857 37.884 19.282 14.353-31.176 26.055-69.088 25.627-101.39-0.152-11.478-1.176-20.846-2.84-28.582-4.856 17.028-12.461 35.803-24.169 48.495z"></path>
<path fill="#fff" class="path3 fill-color15" d="M416.256 330.644c-13.767-57.93-59.053-59.149-83.384-59.802-5.044-0.135-9.4-0.252-12.316-0.789-14.549-2.677-22.655-13.125-24.778-31.941l-2.256-19.977c-0.397-3.522-3.194-6.217-6.591-6.355l-28.749-1.176c-1.903-0.090-3.736 0.659-5.094 2.040-1.358 1.379-2.113 3.28-2.087 5.255 0.024 1.824 0.789 45.060 18.318 78.559 9.362 17.889 27.184 62.652-9.412 91.896-16.921 13.521-31.271 19.551-46.527 19.552-10.312 0-20.88-2.548-34.589-6.656-6.438-1.93-13.242-2.908-20.218-2.908-27.411 0-51.419 14.689-59.741 36.552-10.011 26.302-9.232 36.593-8.975 38.388 0.506 3.525 3.413 6.136 6.833 6.136h29.314c3.816 0 6.909-3.225 6.909-7.202 0-0.738 0.294-18.063 25.785-18.063 11.642 0 14.739 5.813 20.634 18.962 5.821 12.984 13.065 29.145 34.752 38.646 17.275 7.569 38.039 15.303 61.060 15.305 0.002 0 0.002 0 0.003 0 27.086 0 52.757-10.743 78.48-32.839 57.507-49.405 77.408-101.384 62.627-163.583z"></path>
<path fill="#fff" class="path4 fill-color15" d="M658.332 414.29c-1.899 29.084-3.845 75.765 0.369 105.724 2.033 14.476 19.274 17.835 29.94 6.24 12.309-13.38 28.919-35.329 47.573-70.416 7.089-13.332 17.356-13.326 24.529-0.018 19.271 35.754 36.973 57.877 50.112 71.179 11.146 11.291 28.796 7.499 30.837-6.974 4.208-29.965 2.255-76.646 0.364-105.735-0.945-14.549 5.572-36.421 11.837-50.036 16.347-35.474 15.893-71.232 15.519-79.822 0.025-0.654 0.117-1.295 0.117-1.955-0.002-29.864-29.313-54.069-65.461-54.069-22.27 0-41.921 9.213-53.754 23.256-11.829-14.048-31.48-23.256-53.755-23.256-36.148 0-65.46 24.204-65.46 54.067 0 0-3.339 41.085 15.397 81.777 6.264 13.61 12.773 35.487 11.834 50.036zM669.473 264.272c10.634-9.507 26.186-14.325 46.24-14.325 3.524 0 6.387 2.361 6.387 5.273 0 2.911-2.863 5.275-6.387 5.275-16.343 0-28.739 3.675-36.849 10.934-12.479 11.16-11.081 27.166-11.068 27.331 0.287 2.9-2.339 5.442-5.856 5.674-0.176 0.011-0.347 0.017-0.518 0.017-3.296 0-6.093-2.096-6.363-4.855-0.082-0.847-1.807-20.814 14.414-35.325z"></path>
</symbol>
<symbol id="dog-training" viewBox="0 0 1024 1024">
<title>training</title>
<path class="training fill-color8" d="M1023.99 512c0 282.768-229.232 512-512 512s-511.99-229.232-511.99-512c0-282.768 229.222-512 511.99-512s512 229.232 512 512z"></path>
<path fill="#fff" class="path2 fill-color15" d="M558.952 592.838l142.237 142.237 10.892-89.002 89.012-10.902-142.237-142.237-99.904 99.904zM708.648 756.739l-163.891-163.901 114.099-114.099 163.891 163.891-101.651 12.448-12.448 101.661z"></path>
<path fill="#fff" class="path3 fill-color15" d="M201.261 635.174l89.012 10.892 10.892 89.012 142.247-142.237-99.914-99.904-142.237 142.237zM293.707 756.732l-12.438-101.651-101.661-12.448 163.891-163.891 114.109 114.099-163.901 163.891z"></path>
<path fill="#ed4b00" class="path4 fill-color7" d="M749.878 430.55l-43.166 34.784 28.731 47.402-52.482 17.849 10.711 54.389-55.423-1.154-8.453 54.791-51.689-20.007-26.743 48.547-41.7-36.541-41.71 36.541-26.733-48.557-51.699 20.007-8.453-54.791-55.423 1.144 10.721-54.379-52.482-17.849 28.731-47.402-43.156-34.774 43.156-34.784-28.731-47.402 52.492-17.849-10.711-54.389 55.413 1.154 8.453-54.791 51.689 20.007 26.743-48.547 41.7 36.541 41.71-36.541 26.743 48.557 51.699-20.007 8.442 54.791 55.423-1.144-10.711 54.379 52.482 17.849-28.741 47.402 43.166 34.774z"></path>
<path fill="#ed4b00" class="path5 fill-color7" d="M811.267 639.101l-95.337 11.665-11.665 95.337-153.069-153.069 107.002-107.002 153.069 153.069z"></path>
<path fill="#fff" class="path6 fill-color7" d="M661.857 430.745c0 84.415-68.433 152.848-152.848 152.848s-152.848-68.433-152.848-152.848c0-84.415 68.433-152.848 152.848-152.848s152.848 68.433 152.848 152.848z"></path>
<path fill="#fff" class="path7 fill-color15" d="M509.665 282.724c-81.514 0-147.829 66.315-147.829 147.829s66.315 147.829 147.829 147.829c81.514 0 147.829-66.315 147.829-147.829s-66.315-147.829-147.829-147.829zM509.665 588.42c-87.045 0-157.867-70.823-157.867-157.867s70.823-157.867 157.867-157.867c87.045 0 157.867 70.823 157.867 157.867s-70.823 157.867-157.867 157.867z"></path>
<path fill="#fff" class="path8 fill-color15" d="M491.048 516.725h47.081v-165.346l-78.602 24.454v32.595l31.521-9.808v118.104zM548.168 526.764h-67.158v-114.501l-31.521 9.808v-53.626l98.68-30.698v189.017z"></path>
<path fill="#ed4b00" class="path9 fill-color7" d="M189.778 639.101l95.337 11.665 11.665 95.337 153.069-153.069-107.002-107.002-153.069 153.069z"></path>
<path fill="#ed4b00" class="path10 fill-color7" d="M453.856 372.338v43.106l31.511-9.808v116.308h57.13v-177.182l-88.641 27.576z"></path>
</symbol>
<symbol id="dog-transporting" viewBox="0 0 1024 1024">
<title>transporting</title>
<path  class="transporting fill-color12" d="M1023.99 512c0 282.768-229.232 512-512 512s-511.99-229.232-511.99-512c0-282.768 229.222-512 511.99-512s512 229.232 512 512z"></path>
<path fill="#fff" class="path2 fill-color15" d="M303.212 625.12c29.459 0 53.336 32.14 53.336 71.791 0 39.659-23.875 71.799-53.336 71.799-29.453 0-53.336-32.14-53.336-71.799 0-39.651 23.883-71.791 53.336-71.791z"></path>
<path fill="#fff" class="path3 fill-color15" d="M678.754 625.12c29.458 0 53.333 32.14 53.333 71.791 0 39.659-23.875 71.799-53.333 71.799-29.45 0-53.339-32.14-53.339-71.799 0-39.651 23.887-71.791 53.339-71.791z"></path>
<path fill="#fff" class="path4 fill-color15" d="M760.347 229.461c-140.080 3.172-278.198 0-371.819 0-10.884 0-19.7 20.585-19.7 45.953v45.965h-22.948c-12.673 0-36.698 21.4-53.68 47.806l-62.259 96.826c-16.985 26.412-30.749 76.102-30.749 111.027v28.613c0 34.923 9.738 63.229 21.751 63.229h21.748c8.146-34.933 32.406-60.292 61.065-60.292 28.652 0 52.899 25.361 61.061 60.292h253.41c8.166-34.933 32.42-60.292 61.079-60.292 28.653 0 52.907 25.361 61.065 60.292h33.474c18.505 0 33.486-28.308 33.486-63.229v-312.99c-0.013-34.887-21.048-63.199-46.985-63.199zM370.641 453.634c0 17.437-10.52 31.615-23.486 31.615h-52.841c-12.966 0-16.251-10.273-7.316-22.94l36.662-52.046c8.923-12.673 23.062-22.932 31.576-22.932s15.406 14.165 15.406 31.615zM708.182 467.869h0.025l-81.539 107.683-84.001-107.683c-12.787-14.638-20.951-36.417-20.951-60.793 0-44.056 26.532-79.769 59.261-79.769 17.709 0 33.57 10.527 44.425 27.129 10.875-16.602 26.723-27.129 44.437-27.129 32.743 0 59.255 35.71 59.255 79.769 0.013 24.394-8.139 46.171-20.914 60.793z"></path>
<path fill="#fff" class="path5 fill-color15" d="M548.038 374.522c0.755-0.536 1.663-0.763 2.562-0.757l11.374 0.075c0.077-12.457 9.362-22.495 20.737-22.42 9.168 0.060 16.889 6.676 19.504 15.76 0.067 0.062 0.145 0.104 0.209 0.172 9.448 8.637 12.266 44.546 7.234 36.12 9.126 17.671 27.661 22.562 44.521 30.974 10.988 5.487 18.713 16.348 21.093 28.972 3.060-6.398 2.221-15.242 2.164-15.806-0.401-3.768 2.059-7.187 5.502-7.639 3.433-0.458 6.58 2.242 6.99 6.016 1.118 10.249-0.97 29.916-15.744 36.012-3.741 9.968-12.716 16.988-23.143 16.92l-34.321-0.226c-3.285-0.022-6.202-2.67-6.494-6.252-0.334-4.11 2.629-7.55 6.307-7.525l13.014 0.086c-0.747-1.456-1.368-2.993-1.863-4.596l-26.764-13.517-0.153 24.814c-0.023 3.804-2.859 6.869-6.333 6.847l-12.359-0.081c-3.285-0.022-6.202-2.67-6.494-6.252-0.334-4.11 2.629-7.55 6.307-7.525l6.34 0.042 0.155-25.059c-7.193-6.056-11.54-15.525-11.477-25.731l0.015-2.318 0.112-18.105c0.036-5.815-4.24-10.556-9.549-10.591l-5.388-0.035c-4.978-0.033-9.416-3.432-11.15-8.539l-4.727-13.922c-0.717-2.116-0.054-4.58 1.817-5.908z"></path>
</symbol>
<symbol id="dog-vacinating" viewBox="0 0 1024 1024">
<title>vacinating</title>
<path class="vacinating fill-color14" d="M1023.99 512c0 282.768-229.232 512-512 512s-511.99-229.232-511.99-512c0-282.768 229.222-512 511.99-512s512 229.232 512 512z"></path>
<path fill="#fff" class="path2 fill-color15" d="M837.393 186.809c-5.056-4.488-13.261-4.488-18.321 0l-66.573 59.074c-1.619 1.437-2.834 0.603-3.426 0.176-23.051-16.638-49.852-25.365-78.298-25.365-37.774 0-76.56 15.24-109.896 43.030-0.44 0.302-0.872 0.619-1.273 0.979-0.215 0.191-0.407 0.391-0.601 0.591-1.073 0.916-2.141 1.844-3.202 2.785l-56.006 49.696c-0.004 0.003-0.007 0.005-0.011 0.008s-0.007 0.007-0.011 0.010l-59.803 53.066c0 0-0.002 0.002-0.004 0.003s-0.002 0.002-0.004 0.003l-59.802 53.065c-0.006 0.005-0.011 0.008-0.017 0.013s-0.009 0.010-0.015 0.015l-37.515 33.287c0 0-7.155 6.349-9.539 8.466-4.936 4.38-8.523-0.171-8.523-0.171l-6.507-5.776c-8.158-7.239-19.007-11.226-30.545-11.226s-22.387 3.987-30.547 11.226c-16.842 14.945-16.842 39.261 0 54.206 0 0 65.439 58.064 87.25 77.423 2.604 2.312-0.405 4.37-0.405 4.37l-96.356 85.499c0 0-2.661 1.746-4.975-0.307-7.955-7.057-31.813-28.23-31.813-28.23-6.881-6.106-16.029-9.468-25.759-9.468-9.731 0-18.88 3.362-25.763 9.469-14.203 12.604-14.203 33.111 0 45.715l101.671 90.216c6.881 6.106 16.029 9.468 25.761 9.468s18.88-3.362 25.761-9.468c14.203-12.604 14.203-33.113 0-45.715 0 0-23.895-21.202-31.857-28.268-2.661-2.362-0.307-4.38-0.307-4.38l97.224-86.268c0 0 1.756-1.634 3.781 0.163 21.881 19.416 87.528 77.666 87.528 77.666 8.158 7.239 19.007 11.226 30.545 11.226s22.387-3.987 30.545-11.226c16.842-14.946 16.842-39.263 0-54.206l-8.278-7.344c0 0-2.201-2.641 0.342-4.897 2.693-2.391 10.775-9.561 10.775-9.561v0l213.185-189.167c30.019-26.637 48.703-58.423 52.61-89.5 3.777-30.047-5.869-58.17-27.908-82.090-0.45-0.488-1.395-1.434 0.341-2.974l66.546-59.051c5.053-4.488 5.053-11.767-0.006-16.257zM727.484 420.422c0 0-156.574 138.935-208.765 185.247-4.858 4.311-8.334 0.445-8.334 0.445l-145.36-128.986c0 0-4.14-3.575 0.718-7.886 4.544-4.033 16.102-14.289 21.149-18.766 2.661-2.36 4.899 0.061 4.899 0.061l67.073 59.517c2.53 2.245 5.845 3.367 9.161 3.367s6.631-1.123 9.161-3.367c5.058-4.488 5.058-11.768 0-16.257 0 0-51.020-45.264-68.019-60.356-1.581-1.402 0.218-2.927 0.218-2.927s28.37-25.173 37.826-33.564c1.736-1.54 3.454-0.333 3.454-0.333l38.836 34.463c2.53 2.245 5.847 3.367 9.161 3.367s6.631-1.123 9.161-3.367c5.058-4.488 5.058-11.768 0-16.257l-39.341-34.908c0 0-1.146-0.824 0.185-2.005 10.068-8.934 29.453-26.135 39.271-34.847 1.099-0.976 1.873-0.125 1.873-0.125l68.689 60.952c2.53 2.245 5.847 3.367 9.161 3.367s6.631-1.123 9.161-3.367c5.058-4.488 5.058-11.768 0-16.257l-68.463-60.752c0 0-1.075-0.987 0.168-2.089 8.847-7.852 33.256-29.51 39.010-34.615 1.505-1.335 2.35-0.090 2.35-0.090l39.253 34.829c2.53 2.245 5.847 3.367 9.161 3.367s6.631-1.123 9.161-3.367c5.058-4.488 5.058-11.768 0-16.257l-37.835-33.574c-1.908-1.693-0.511-2.72 0.192-3.22 25.653-18.265 53.824-28.181 80.952-28.181 26.593 0 50.581 9.321 71.298 27.705 56.602 50.225 27.517 111.673-14.588 149.035z"></path>
</symbol>
<symbol id="dog-passport_dog" viewBox="0 0 1024 1024">
<title>passport_dog</title>
<path  class="path1 fill-color4" d="M511.995 1024c-282.765 0-511.995-229.219-511.995-511.995s229.23-512.005 511.995-512.005c282.765 0 511.995 229.23 511.995 512.005s-229.23 511.995-511.995 511.995z"></path>
<path fill="#fff" class="path2 fill-color7" d="M426.508 370.299c3.327-15.589 7.946-30.295 13.896-43.285-29.003 11.728-52.629 30.978-67.022 54.611 15.946-4.851 33.994-8.617 53.126-11.325z"></path>
<path fill="#fff" class="path3 fill-color7" d="M358.094 434.976c2.147 5.529 23.112 16.495 62.711 23.703-0.57-7.9-0.866-15.831-0.866-23.703s0.297-15.8 0.866-23.7c-39.593 7.208-60.558 18.171-62.711 23.7z"></path>
<path fill="#fff" class="path4 fill-color7" d="M585.263 370.299c19.132 2.711 37.18 6.474 53.123 11.323-14.393-23.632-38.019-42.883-67.022-54.608 5.954 12.99 10.576 27.696 13.899 43.285z"></path>
<path fill="#fff" class="path5 fill-color7" d="M426.508 499.655c-19.132-2.711-37.18-6.474-53.123-11.323 14.393 23.632 38.019 42.883 67.019 54.611-5.95-12.993-10.572-27.699-13.896-43.288z"></path>
<path fill="#fff" class="path6 fill-color7" d="M469.666 464.489c11.238 0.726 23.291 1.145 36.217 1.145 12.93 0 24.982-0.419 36.221-1.145 0.891-9.157 1.405-18.981 1.405-29.513s-0.514-20.353-1.405-29.51c-11.238-0.726-23.295-1.145-36.224-1.145-12.926 0-24.979 0.419-36.217 1.145-0.891 9.157-1.405 18.978-1.405 29.51 0.003 10.535 0.518 20.356 1.408 29.513z"></path>
<path fill="#fff" class="path7 fill-color7" d="M505.883 364.947c9.661 0 19.394 0.242 29.090 0.706-8.846-32.267-22.304-49.346-29.090-51.098-6.786 1.755-20.24 18.837-29.086 51.098 9.695-0.464 19.425-0.706 29.086-0.706z"></path>
<path fill="#fff" class="path8 fill-color7" d="M591.831 434.976c0 7.872-0.297 15.803-0.866 23.703 39.6-7.208 60.561-18.174 62.711-23.703-2.154-5.529-23.119-16.492-62.711-23.697 0.57 7.897 0.866 15.825 0.866 23.697z"></path>
<path fill="#fff" class="path9 fill-color7" d="M505.883 505.007c-9.657 0-19.391-0.242-29.083-0.706 8.846 32.258 22.301 49.341 29.083 51.098 6.786-1.749 20.243-18.832 29.090-51.098-9.695 0.464-19.429 0.706-29.090 0.706z"></path>
<path fill="#fff" class="path10 fill-color7" d="M585.263 499.655c-3.327 15.589-7.946 30.295-13.896 43.285 29.003-11.728 52.629-30.978 67.022-54.611-15.946 4.851-33.994 8.614-53.126 11.325z"></path>
<path fill="#fff" class="path11 fill-color7" d="M469.49 705.662l-14.931-33.597-15.273 33.597z"></path>
<path fill="#fff" class="path12 fill-color7" d="M808.472 255.877c0-24.96-24.834-45.195-55.467-45.195h-496.542c-30.633 0-55.467 20.235-55.467 45.195v517.085c0 24.96 24.834 45.195 55.467 45.195h496.542c30.633 0 55.467-20.235 55.467-45.195v-517.085zM505.883 275.139c108.165 0 196.166 71.702 196.166 159.836s-88.001 159.839-196.166 159.839c-108.165 0-196.163-71.705-196.163-159.839s87.998-159.836 196.163-159.836zM350.37 705.662h-14.762v36.561h-31.064v-95.621h46.506c26.304 0 47.007 6.786 47.007 29.184 0 22.676-22.57 29.876-47.687 29.876zM486.8 742.223l-9.333-16.874h-46.496l-8.826 16.874h-31.565l50.4-95.621h28.168l49.889 95.621h-32.238zM579.733 683.605c16.291 4.286 37.329 9.956 37.329 29.451 0 22.538-22.228 32.632-45.985 32.632-17.137 0-34.447-5.116-44.967-14.104l19.008-15.761c5.768 5.945 16.461 10.372 25.959 10.372 8.826 0 16.63-2.765 16.63-10.648 0-7.464-9.164-9.815-24.948-13.963-15.273-4.010-30.712-10.372-30.712-28.068 0-21.709 24.095-30.697 46.496-30.697 13.578 0 28.848 4.151 39.369 12.029l-18.493 15.901c-4.922-5.116-13.917-8.434-21.382-8.434s-16.799 2.073-16.799 9.815c-0.003 6.497 7.127 8.572 18.497 11.475zM680.015 683.605c16.291 4.286 37.329 9.956 37.329 29.451 0 22.538-22.228 32.632-45.985 32.632-17.137 0-34.447-5.116-44.967-14.104l19.008-15.761c5.768 5.945 16.461 10.372 25.959 10.372 8.826 0 16.63-2.765 16.63-10.648 0-7.464-9.164-9.815-24.948-13.963-15.273-4.010-30.712-10.372-30.712-28.068 0-21.709 24.095-30.697 46.496-30.697 13.578 0 28.848 4.151 39.369 12.029l-18.493 15.901c-4.922-5.116-13.917-8.434-21.382-8.434s-16.799 2.073-16.799 9.815c0 6.497 7.127 8.572 18.497 11.475z"></path>
<path fill="#fff" class="path13 fill-color7" d="M348.675 663.476h-13.068v25.311h12.56c10.859 0 20.872-3.738 20.872-13.002 0-9.399-10.013-12.31-20.364-12.31z"></path>
</symbol>


<symbol id="dog-hospital" viewBox="0 0 1024 1024">
<title>hospital</title>
<path  class="hospital path1" d="M1023.99 512c0 282.768-229.232 512-512 512s-511.99-229.232-511.99-512c0-282.768 229.222-512 511.99-512s512 229.232 512 512z"></path>
<path fill="#f00" class="path2" d="M560.234 308.483c0 0 0 0 0 0 0 40.806-21.134 73.9-47.234 74.027-0.050 0-0.1 0-0.15 0-26.069 0-47.222-32.89-47.383-73.559-0.001-0.156-0.001-0.312-0.001-0.468 0-40.65 20.972-73.647 46.934-74.024 0.15-0.002 0.299-0.003 0.449-0.003 25.969 0 47.059 32.638 47.38 73.091l-47.38 0.936z"></path>
<path fill="#fff" class="path3" d="M811.433 834.854v-7.482h-617.232v14.965h617.232zM790.391 561.157v-263.221l-189.378 1.176v-96.268l13.443 1.276c16.985 1.612 19.45 3.872-52.528-48.152l-56.619-40.923-29.887 21.984c-16.438 12.091-41.46 30.209-55.605 40.261s-27.822 20.453-30.394 23.112c-4.412 4.563-3.95 4.756 8.183 3.426l12.859-1.411-1.393 95.197-86.979 0.304c-47.838 0.167-90.398 0.064-94.577-0.23l-7.599-0.532v527.222h570.472v-263.221zM427.253 816.438c-0.874-1.12-1.59-3.831-1.59-6.026 0-3.246 14.641-3.991 78.494-3.991 73.498 0 78.444 0.333 77.707 5.238-0.728 4.841-6.554 5.297-76.904 6.026-41.864 0.434-76.833-0.129-77.707-1.247zM463.071 737.582v-56.866h88.844v113.733h-88.844zM615.041 749.554v-17.958h28.056v35.916h-28.056zM647.773 749.704v-18.107h28.289l-1.402 34.419-26.887 1.795zM707.781 765.517c-0.857-1.097-1.559-9.178-1.559-17.958v-15.962h28.056v35.916h-12.469c-6.858 0-13.171-0.898-14.028-1.995zM738.955 749.554v-17.958h28.056v35.916h-28.056zM243.299 743.568v-17.958h28.056v35.916h-28.056zM276.031 743.568v-17.958h28.056v35.916h-28.056zM336.819 743.568v-17.958h25.718v35.916h-25.718zM367.213 743.568v-17.958h28.056v35.916h-28.056zM615.041 704.66v-17.958h28.056v35.916h-28.056zM647.773 704.51v-18.107l26.887 1.795 1.402 34.419h-28.289zM706.691 705.408l0.701-17.21 26.887-1.795v36.214h-28.289zM738.955 704.51v-18.107l26.887 1.795 1.402 34.419h-28.289zM243.299 700.17v-16.461h28.056v32.923h-28.056zM276.031 700.17v-16.461h28.056v32.923h-28.056zM336.819 700.17v-16.461h25.718v32.923h-25.718zM367.213 700.17v-16.461h28.056v32.923h-28.056zM615.509 639.562l0.701-17.21h25.718l1.402 34.419h-28.523zM647.773 638.665v-18.107l26.887 1.795 1.402 34.419h-28.289zM706.691 639.562l0.701-17.21 26.887-0.741v35.16h-28.289zM739.423 639.562l0.701-17.21 26.887-1.795v36.214h-28.289zM243.299 634.325v-16.461h28.056v32.923h-28.056zM276.031 634.325v-16.461h28.056v32.923h-28.056zM336.819 634.325v-16.461h25.718v32.923h-25.718zM367.213 634.325v-16.461h28.056v32.923h-28.056zM430.339 634.325v-16.461h27.335l0.84 32.923h-28.175zM463.071 634.325v-16.461h25.718v32.923h-25.718zM521.521 634.325v-16.461h28.056v32.923h-28.056zM554.253 634.325v-16.461h28.056v32.923h-28.056zM615.041 596.913v-17.958h28.056v35.916h-28.056zM647.773 597.062v-18.107h28.289l-1.402 34.419-26.887 1.795zM707.057 610.344c-0.746-2.49-0.649-10.571 0.217-17.958l1.573-13.432h25.432v35.916h-12.932c-9.385 0-13.305-1.241-14.289-4.526zM738.955 596.913v-17.958h28.056v35.916h-28.056zM243.299 590.927v-17.958h28.056v35.916h-28.056zM276.031 590.927v-17.958h28.056v35.916h-28.056zM336.039 606.889c-0.857-1.097-1.559-9.243-1.559-18.101v-16.105l29.225 1.782 0.326 34.419h-13.217c-7.269 0-13.918-0.898-14.775-1.995zM367.213 590.927v-17.958h28.056v35.916h-28.056zM430.339 590.927v-17.958h25.718v35.916h-25.718zM462.152 604.15c-0.781-2.604-1.419-10.685-1.419-17.958v-13.224h27.641l1.584 35.927h-13.193c-9.871-0.003-13.551-1.198-14.612-4.74zM521.521 590.927v-17.958h28.056v35.916h-28.056zM554.253 590.927v-17.958h28.056v35.916h-28.056zM243.299 525.081v-17.958h28.056v35.916h-28.056zM276.031 525.081v-17.958h28.056v35.916h-28.056zM335.4 538.305c0.781-2.604 1.419-10.685 1.419-17.958v-13.224h25.303l1.584 35.926h-14.863c-12.591 0-14.646-0.729-13.443-4.74zM367.213 525.081v-17.958h28.056v35.916h-28.056zM429.962 525.21l0.792-18.087h12.607c14.105 0 16.074 3.305 14.266 23.944l-0.918 10.475-27.539 1.754zM463.071 525.081v-17.958h25.303l1.584 35.926h-26.887v-17.958zM521.521 525.081v-17.958h28.056v35.916h-28.056zM554.253 524.932v-18.107l26.887 1.795 0.789 34.419h-27.676zM615.509 525.829l0.701-17.21 26.887-1.795v36.214h-28.289zM647.773 525.081v-17.958h28.056v35.916h-28.056zM706.997 525.829l0.394-17.21 26.887-1.795v36.214h-27.676zM738.955 525.081v-17.958h28.056v35.916h-28.056zM244.857 499.142c-0.857-1.097-1.559-9.178-1.559-17.958v-15.962h28.056v35.916h-12.469c-6.858 0-13.171-0.898-14.028-1.995zM276.031 483.179v-17.958h28.056v35.916h-28.056zM336.819 483.179v-17.958h25.718v35.916h-25.718zM368.771 499.142c-0.857-1.097-1.559-9.178-1.559-17.958v-15.962h28.056v35.916h-12.469c-6.858 0-13.171-0.898-14.028-1.995zM430.339 483.030v-18.107l26.887 1.795 0.133 13.468c0.2 20.149-0.352 20.951-14.412 20.951h-12.609zM462.694 483.174l-0.792-17.963h26.887v35.916h-25.303l-0.792-17.964zM521.521 483.174v-17.958h28.056v35.916h-28.056zM554.253 483.323v-18.107h28.084l-1.197 34.419-26.887 1.795zM615.041 483.174v-17.958h28.056v35.916h-28.056zM647.773 483.323v-18.107h28.289l-1.402 34.419-26.887 1.795zM707.781 499.136c-0.857-1.098-1.559-9.179-1.559-17.958v-15.962h28.056v35.916h-12.469c-6.858 0-13.171-0.898-14.028-1.995zM738.955 483.173v-17.958h28.056v35.916h-28.056zM243.299 417.328v-17.958h28.056v35.916h-28.056zM276.031 417.328v-17.958h28.056v35.916h-28.056zM336.819 417.328v-17.958h25.718v35.916h-25.718zM368.771 433.29c-0.857-1.097-1.559-9.178-1.559-17.958v-15.962h28.056v35.916h-12.469c-6.858 0-13.171-0.898-14.028-1.995zM615.041 417.328v-17.958h28.056v35.916h-28.056zM647.773 417.477v-18.107h28.289l-1.402 34.419-26.887 1.795zM707.781 433.29c-0.857-1.097-1.559-9.178-1.559-17.958v-15.962h28.056v35.916h-12.469c-6.858 0-13.171-0.898-14.028-1.995zM738.955 417.328v-17.958h28.056v35.916h-28.056zM489.592 411.359c-32.102-8.596-58.717-45.845-62.824-87.922-4.012-41.108 15.29-84.765 45.654-103.262 10.731-6.538 16.147-7.836 32.732-7.85 23.866-0.032 40.465 8.388 56.112 28.417 15.637 20.018 22.211 41.278 22.211 71.831 0 21.792-0.937 27.882-6.533 42.471-15.726 40.994-53.536 65.37-87.352 56.315zM535.881 393.603c36.252-23.866 50.14-75.757 32.53-121.548-12.299-31.981-35.166-50.164-63.049-50.135-21.174 0.032-36.735 8.984-51.494 29.658-14.629 20.491-19.85 39.473-18.327 66.634 2.189 39.032 20.808 68.85 50.909 81.53 10.774 4.539 38.429 1.104 49.431-6.139zM489.333 374.454c-0.857-1.097-1.559-11.815-1.559-23.818v-21.823l-16.514-0.874-18.119-0.874-0.726-11.224-0.726-27.285h37.69v-47.888h34.766v47.888h37.408v40.006h-37.408v47.888h-23.855c-4.286 0-10.1-0.898-10.958-1.995zM243.767 373.181l0.701-17.21 26.887-1.795v36.214h-28.289zM276.031 372.284v-18.107l26.887 1.795 1.402 34.419h-28.289zM336.819 373.076v-17.315l25.718-1.378v36.008h-25.718zM367.681 373.18l0.701-17.21 26.887-1.795v36.214h-28.289zM615.509 373.18l0.701-17.21h25.718l1.402 34.419h-28.523zM647.773 372.283v-18.107l26.887 1.795 1.402 34.419h-28.289zM706.691 373.18l0.701-17.21 26.887-1.795v36.214h-28.289zM738.955 372.432v-17.958h28.056v35.916h-28.056zM229.271 315.565c0-1.943 31.517-2.993 89.875-2.993 57.395 0 90.397 1.082 91.32 2.993 0.954 1.976-29.59 2.993-89.875 2.993-59.321 0-91.32-1.049-91.32-2.993zM601.013 315.565c0-1.944 31.563-2.993 90.013-2.993s90.013 1.049 90.013 2.993c0 1.943-31.563 2.993-90.013 2.993s-90.013-1.050-90.013-2.993zM484.113 165.755c1.929-1.684 7.189-5.553 11.69-8.598l8.183-5.534 23.38 17.238-23.38-0.032c-16.673 0-22.374-0.9-19.873-3.084z"></path>
</symbol>

<symbol id="dog-doctor" viewBox="0 0 1024 1024">
	<title>doctor</title>
	<path  class="doctor path1" d="M1023.99 512c0 282.768-229.232 512-512 512s-511.99-229.232-511.99-512c0-282.768 229.222-512 511.99-512s512 229.232 512 512z"></path>
	<path fill="#fff" class="path1" d="m415.6508,426.85314 -64.39891,0 c -7.71104,0 -15.03579,0 -22.02207,0.67308 7.30046,46.35019 39.74126,165.61824 179.68256,167.32695 2.29639,-0.54382 4.61706,-0.49181 6.86562,0.20728 23.27953,-0.052 140.42472,-9.84003 168.80471,-162.87312 -14.26247,-3.6507 -30.38648,-5.33419 -48.63765,-5.33419 l -67.56573,0 c 54.60854,-30.52891 92.00486,-91.09492 92.00486,-161.26767 0,-5.74875 -0.26562,-11.75601 -0.74903,-17.3227 l -95.22025,0 c 13.94829,-15.56198 23.52087,-35.68182 26.44635,-58.00216 l 54.39076,0 C 628.71744,151.54915 599.82975,120.21712 563.95578,102.06607 546.06736,82.360799 521.1198,70.138989 493.51386,70.138989 c -26.32495,0 -50.25711,11.16017 -67.92775,29.286 -38.43597,17.660031 -69.4751,50.182161 -86.83155,90.861621 l 57.43691,0 c 2.94903,22.32035 12.49806,42.4662 26.4699,58.00217 l -98.33851,0 c -0.48341,5.56748 -0.74903,11.57474 -0.74903,17.3227 0,70.14674 37.42059,130.73876 92.07771,161.24166 z M 493.51459,99.501439 c 39.06434,0 70.85323,34.050351 70.85323,75.921491 0,41.84435 -31.78815,75.86948 -70.85323,75.86948 -39.08862,0 -70.8775,-33.99912 -70.8775,-75.86948 0,-41.89636 31.78815,-75.921491 70.8775,-75.921491 z"></path>
	<path fill="#fff" class="path2" d="m792.30101,592.92678 c 0,0 5.24542,-110.06294 -80.86065,-151.4046 -33.33551,179.58986 -178.353,190.43217 -197.86162,190.69255 -0.5077,1.69045 -0.82188,3.69193 -0.89472,5.77254 -0.24207,12.68868 9.91103,28.88724 28.66989,45.65801 33.31123,29.82349 39.88621,73.06295 16.75237,109.95847 -18.00909,28.75745 -51.82801,48.77775 -93.23803,48.77775 -19.94348,0 -41.62708,-4.65428 -64.15684,-15.18478 -6.88917,8.16419 -16.82522,13.31231 -27.84803,13.31231 -20.76534,0 -37.63838,-18.07105 -37.63838,-40.48378 0,-22.28293 16.84876,-40.43154 37.63838,-40.43154 20.59612,0 37.34849,17.86291 37.58983,39.91158 56.05878,26.72908 104.5993,10.06278 124.90552,-22.3866 15.15719,-24.28521 10.85431,-50.70246 -11.57906,-70.8011 -26.32494,-23.60933 -39.28213,-47.11421 -38.48454,-69.83875 0.0486,-1.92391 0.24207,-3.79639 0.48341,-5.5644 C 343.37162,616.35409 309.50414,481.61578 301.86521,431.95403 193.13226,460.24298 194.00269,581.59062 193.80918,592.90145 l 0.0728,286.11678 598.9024,0 -0.48341,-286.09067 z"></path>
	<path fill="#fff" class="path3" d="m 526.24529,175.39614 c 0,19.36321 -14.65391,35.06076 -32.73143,35.06076 -18.07752,0 -32.73143,-15.69676 -32.73143,-35.06076 0,-19.36322 14.65391,-35.06076 32.73143,-35.06076 18.07752,0 32.73143,15.69675 32.73143,35.06076 z"></path>
</symbol>

</defs>
</svg>
