<svg style="position: absolute; width: 0; height: 0;" width="0" height="0" version="1.1" xmlns="http://www.w3.org/2000/svg" xmlns:xlink="http://www.w3.org/1999/xlink">
<defs>
<symbol id="icon-ambulance" viewBox="0 0 1024 1024">
	<title>ambulance</title>
	<path class="path1" d="M739.376 455.973h-45.715v57.352h-56.171v45.685h56.171v57.35h45.715v-57.35h58.503v-45.685h-58.503z"></path>
	<path class="path2" d="M175.152 753.423c49.604 0 89.809 40.204 89.809 89.804 0 49.609-40.202 89.814-89.809 89.814-49.594 0-89.809-40.204-89.809-89.814 0-49.599 40.214-89.804 89.809-89.804z"></path>
	<path class="path3" d="M807.498 753.423c49.602 0 89.804 40.204 89.804 89.804 0 49.609-40.202 89.814-89.804 89.814-49.589 0-89.814-40.204-89.814-89.814 0-49.599 40.222-89.804 89.814-89.804z"></path>
	<path class="path4" d="M269.053 155.193c-4.982-2.247-10.831-0.035-13.082 4.927-2.262 4.962-0.045 10.841 4.927 13.072l83.192 37.733c1.332 0.587 2.715 0.889 4.078 0.889 3.766 0 7.352-2.156 9.020-5.816 2.257-4.962 0.055-10.836-4.927-13.070l-83.207-37.736z"></path>
	<path class="path5" d="M405.769 178.096c2.393 0 4.788-0.849 6.682-2.604 4.033-3.7 4.294-9.926 0.617-13.964l-61.735-67.349c-3.677-4.007-9.942-4.325-13.979-0.592-4.040 3.7-4.284 9.926-0.607 13.959l61.722 67.346c1.96 2.123 4.635 3.204 7.299 3.204z"></path>
	<path class="path6" d="M520.211 93.567c-4.058-3.715-10.277-3.415-13.977 0.589l-61.712 67.357c-3.68 4.033-3.418 10.282 0.615 13.959 1.892 1.756 4.289 2.604 6.682 2.604 2.665 0 5.34-1.081 7.297-3.204l61.71-67.339c3.705-4.040 3.433-10.266-0.615-13.966z"></path>
	<path class="path7" d="M491.326 211.815c1.363 0 2.756-0.302 4.078-0.889l83.197-37.733c4.977-2.232 7.178-8.11 4.937-13.072-2.272-4.962-8.108-7.171-13.092-4.927l-83.212 37.736c-4.982 2.237-7.171 8.11-4.922 13.070 1.677 3.66 5.262 5.816 9.015 5.816z"></path>
	<path class="path8" d="M944.886 258.492h-463.975c-9.052-27.062-34.333-46.7-64.463-46.7-30.114 0-55.4 19.636-64.457 46.7 0 0-14.848 0-33.182 0-18.326 0-33.172 25.749-33.172 57.483v57.498c0 0-17.301 0-38.64 0s-61.793 26.769-90.388 59.8l-104.833 121.119c-28.6 33.039-51.776 95.196-51.776 138.884v35.792c0 43.685 16.397 79.094 36.625 79.094h36.62c13.717-43.698 54.566-75.419 102.823-75.419 48.244 0 89.073 31.724 102.816 75.419h426.697c13.75-43.698 54.589-75.419 102.846-75.419 48.247 0 89.086 31.724 102.823 75.419 0 0 25.235 0 56.365 0 31.16 0 56.385-35.411 56.385-79.094v-391.52c-0.023-43.64-35.441-79.056-79.114-79.056zM288.69 538.91c0 21.812-17.714 39.547-39.547 39.547h-88.975c-21.833 0-27.364-12.851-12.319-28.696l61.732-65.105c15.024-15.853 38.832-28.686 53.168-28.686s25.941 17.719 25.941 39.547v43.393zM857.049 556.718h0.043l-137.297 134.701-141.443-134.701c-21.53-18.311-35.278-45.554-35.278-76.046 0-55.11 44.675-99.783 99.786-99.783 29.82 0 56.526 13.168 74.805 33.935 18.311-20.767 44.998-33.935 74.825-33.935 55.133 0 99.775 44.67 99.775 99.783 0.023 30.515-13.705 57.755-35.215 76.046z"></path>
</symbol>
<symbol id="icon-phonendoscope" viewBox="0 0 1024 1024">
	<title>phonendoscope</title>
	<path class="path1" d="M208.125 535.953c1.864 20.667 13.496 40.113 32.963 51.015 16.16 9.052 32.815 15.707 49.829 20.214-9.586 32.352-27.199 79.173-58.551 129.317-29.779 47.656-30.134 105.165-0.937 157.801 43.012 77.572 137.987 129.7 236.37 129.7 67.568 0 127.639-31.117 169.132-87.625 59.306-80.791 72.447-200.020 35.132-318.874-34.588-110.177 11.671-168.956 42.279-194.221 24.953 24.047 58.797 38.877 96.203 38.877 76.645 0 138.822-62.159 138.822-138.843s-62.177-138.826-138.822-138.826c-76.684 0-138.826 62.159-138.826 138.826 0 10.797 1.344 21.246 3.672 31.334-57.8 42.279-124.522 137.443-77.828 286.23 29.446 93.82 20.411 189.328-23.612 249.277-18.663 25.444-52.254 55.764-106.172 55.764-69.759 0-138.879-36.806-168.068-89.478-10.769-19.428-19.684-48.856-1.116-78.572 41.468-66.378 62.223-128.32 72.065-166.18 23.047-3.471 45.55-10.906 67.196-22.464 19.295-10.305 31.134-28.954 33.742-49.109 91.721-82.918 134.070-232.319 136.506-241.063 4.946-17.936-3.507-36.35-19.263-44.746 12.668-112.16-28.846-168.689-53.893-191.715 1.909-10.776-2.401-22.303-11.867-28.481l-46.027-30.081c-12.022-7.852-27.136-3.889-33.725 8.905l-21.931 42.384c-6.606 12.798-0.783 26.445 13.015 30.516l52.036 15.339c13.194 3.889 29-2.415 36.469-13.977 20.737 21.847 50.601 70.485 40.313 163.27-14.142 2.692-26.262 12.994-30.369 27.807-12.503 44.876-48.614 137.569-102.23 193.151-17.066-6.595-36.687-6.269-54.090 2.998-11.334 6.055-22.419 9.105-33.795 9.344h-2.345c-11.987-0.256-23.693-3.636-35.68-10.341-16.975-9.523-36.308-10.362-53.356-4.345-52.416-55.81-87.758-146.541-100.054-190.799-4.117-14.774-16.287-25.1-30.379-27.789-10.305-92.785 19.547-141.423 40.313-163.27 7.476 11.559 23.265 17.866 36.459 13.973l52.036-15.339c13.777-4.072 19.639-17.74 13.015-30.516l-21.913-42.387c-6.606-12.798-21.72-16.757-33.725-8.905l-46.073 30.102c-9.46 6.178-13.759 17.701-11.86 28.481-25.009 23.029-66.558 79.534-53.883 191.712-15.767 8.4-24.191 26.81-19.267 44.767 2.394 8.561 43.468 153.2 132.090 236.844zM810.544 269.084c29.913 0 54.213 24.265 54.213 54.237 0 29.951-24.3 54.234-54.213 54.234-29.955 0-54.237-24.283-54.237-54.234 0-29.976 24.265-54.237 54.237-54.237z"></path>
</symbol>
<symbol id="icon-doctor" viewBox="0 0 1024 1024">
	<title>doctor</title>
	<path class="path1" d="M406.472 452.6h-87.524c-10.48 0-20.435 0-29.93 0.854 9.922 58.809 54.012 210.136 244.205 212.304 3.121-0.69 6.275-0.624 9.331 0.263 31.639-0.066 190.85-12.485 229.421-206.653-19.384-4.632-41.298-6.768-66.103-6.768h-91.828c74.218-38.735 125.043-115.581 125.043-204.616 0-7.294-0.361-14.916-1.018-21.979h-129.413c18.957-19.745 31.967-45.273 35.943-73.593h73.922c-22.472-49.117-61.733-88.871-110.489-111.901-24.312-25.002-58.218-40.509-95.737-40.509-35.778 0-68.304 14.16-92.32 37.158-52.238 22.407-94.423 63.671-118.012 115.285h78.062c4.008 28.32 16.986 53.881 35.975 73.593h-133.651c-0.657 7.064-1.018 14.686-1.018 21.979 0 89.002 50.858 165.881 125.142 204.583zM512.296 37.257c53.092 0 96.296 43.203 96.296 96.329 0 53.092-43.203 96.263-96.296 96.263-53.125 0-96.329-43.138-96.329-96.263 0-53.158 43.203-96.329 96.329-96.329z"></path>
	<path class="path2" d="M918.374 662.472c0 0 7.129-139.072-109.897-191.31-45.306 226.924-242.398 240.624-268.912 240.953-0.69 2.136-1.117 4.665-1.216 7.294-0.329 16.033 13.47 36.501 38.965 57.692 45.273 37.684 54.209 92.32 22.768 138.94-24.476 36.337-70.439 61.634-126.719 61.634-27.105 0-56.575-5.881-87.195-19.187-9.363 10.316-22.867 16.821-37.848 16.821-28.222 0-51.154-22.834-51.154-51.154 0-28.156 22.899-51.088 51.154-51.088 27.992 0 50.76 22.571 51.088 50.431 76.189 33.774 142.16 12.715 169.758-28.287 20.6-30.686 14.752-64.066-15.737-89.462-35.778-29.832-53.388-59.532-52.304-88.246 0.066-2.431 0.329-4.797 0.657-7.031-193.544-18.398-239.573-188.649-249.955-251.4-147.778 35.745-146.595 189.076-146.858 203.368l0.099 361.528h813.963l-0.657-361.495z"></path>
	<path class="path3" d="M556.78 133.552c0 24.568-19.916 44.485-44.485 44.485s-44.485-19.916-44.485-44.485c0-24.568 19.916-44.485 44.485-44.485s44.485 19.916 44.485 44.485z"></path>
</symbol>
<symbol id="icon-microscope" viewBox="0 0 1024 1024">
	<title>microscope</title>
	<path class="path1" d="M830.733 567.1c0-134.213-72.326-250.685-177.585-307.631-7.949-56.858-56.755-100.782-115.755-100.782-13.176 0-25.809 2.287-37.639 6.311v-52.162c0-12.894-9.757-23.408-22.281-24.801v-40.667c0-0.959-0.195-1.862-0.277-2.788h20.249c9.212 0 16.705-7.491 16.705-16.726v-11.14c0-9.235-7.491-16.716-16.705-16.716h-129.1c-9.233 0-16.726 7.481-16.726 16.716v11.14c0 9.235 7.491 16.726 16.726 16.726h20.228c-0.093 0.926-0.284 1.828-0.284 2.788v40.677c-12.517 1.393-22.274 11.885-22.274 24.801v367.796c0 13.616 10.844 24.627 24.375 25.019v168.635h0.866c3.925 4.768 21.065 12.543 41.615 12.543 20.587 0 37.727-7.776 41.641-12.543h0.844v-168.635c13.525-0.37 24.398-11.392 24.398-25.008v-94.209c11.83 4.024 24.463 6.309 37.639 6.309 41.969 0 78.73-22.279 99.399-55.551 71.151 47.455 118.706 132.746 118.706 229.897 0 60.242-18.305 115.929-49.124 160.859l-84.002 33.551v-2.191h-332.973v36.208h332.977v-16.018l63.398-25.328c-45.146 50.81-108.437 82.508-178.433 82.508v0.622h-74.447v86.375h-239.63v100.313h522.455v-100.315h-132.351v-21.474c141.738-36.566 247.364-172.891 247.364-335.111zM537.394 367.676c-50.706 0-91.956-41.248-91.956-91.951 0-50.701 41.25-91.951 91.956-91.951 40.161 0 74.311 25.929 86.811 61.912-10.955-4.541-22.15-8.498-33.639-11.755-12.382-15.757-31.578-25.911-53.194-25.911-37.396 0-67.701 30.318-67.701 67.705 0 37.389 30.318 67.696 67.701 67.696 23.107 0 43.49-11.608 55.732-29.293 7.566 3.033 14.94 6.458 22.127 10.247-16.247 25.949-45.016 43.301-77.837 43.301z"></path>
</symbol>
<symbol id="icon-teeth" viewBox="0 0 1024 1024">
	<title>teeth</title>
	<path class="path1" d="M257.398 623.701c-5.262 97.588-10.657 254.222 1.021 354.745 5.634 48.573 53.416 59.842 82.976 20.936 34.112-44.896 80.146-118.542 131.844-236.271 19.647-44.733 48.102-44.713 67.981-0.061 53.407 119.967 102.467 194.2 138.881 238.834 30.89 37.886 79.806 25.164 85.463-23.4 11.663-100.544 6.25-257.175 1.010-354.781-2.62-48.817 15.442-122.206 32.807-167.891 45.304-119.029 44.046-239.010 43.009-267.833 0.070-2.196 0.325-4.345 0.325-6.559-0.005-100.206-81.238-181.421-181.418-181.421-61.72 0-116.182 30.913-148.975 78.032-32.782-47.137-87.244-78.032-148.977-78.032-100.181 0-181.416 81.215-181.416 181.416 0 0-9.255 137.855 42.673 274.394 17.36 45.667 35.399 119.072 32.798 167.891zM288.275 120.335c29.472-31.898 72.571-48.066 128.149-48.066 9.767 0 17.701 7.923 17.701 17.694 0 9.767-7.934 17.701-17.701 17.701-45.293 0-79.648 12.333-102.124 36.687-34.586 37.447-30.71 91.151-30.674 91.706 0.796 9.731-6.482 18.26-16.229 19.038-0.487 0.036-0.963 0.059-1.436 0.059-9.136 0-16.887-7.034-17.633-16.289-0.228-2.843-5.007-69.838 39.947-118.529z"></path>
</symbol>
<symbol id="icon-passport" viewBox="0 0 1024 1024">
	<title>passport</title>
	<path class="path1" d="M404.556 269.061c4.57-26.278 10.913-51.067 19.086-72.965-39.836 19.769-72.287 52.219-92.056 92.056 21.902-8.178 46.692-14.526 72.969-19.091z"></path>
	<path class="path2" d="M310.59 378.084c2.949 9.32 31.744 27.804 86.135 39.955-0.782-13.317-1.19-26.686-1.19-39.955s0.408-26.633 1.19-39.95c-54.381 12.151-83.176 30.63-86.135 39.95z"></path>
	<path class="path3" d="M622.606 269.061c26.278 4.57 51.067 10.913 72.965 19.086-19.769-39.836-52.219-72.287-92.056-92.051 8.178 21.897 14.526 46.687 19.091 72.965z"></path>
	<path class="path4" d="M404.556 487.111c-26.278-4.57-51.067-10.913-72.965-19.086 19.769 39.836 52.219 72.287 92.051 92.056-8.173-21.902-14.521-46.692-19.086-72.969z"></path>
	<path class="path5" d="M463.834 427.833c15.436 1.223 31.991 1.929 49.745 1.929 17.759 0 34.313-0.706 49.749-1.929 1.223-15.436 1.929-31.995 1.929-49.749s-0.706-34.309-1.929-49.745c-15.436-1.223-31.995-1.929-49.754-1.929-17.754 0-34.309 0.706-49.745 1.929-1.223 15.436-1.929 31.991-1.929 49.745 0.005 17.759 0.711 34.313 1.934 49.749z"></path>
	<path class="path6" d="M513.579 260.039c13.269 0 26.638 0.408 39.955 1.19-12.151-54.391-30.635-83.181-39.955-86.135-9.32 2.958-27.8 31.753-39.95 86.135 13.317-0.782 26.681-1.19 39.95-1.19z"></path>
	<path class="path7" d="M631.628 378.084c0 13.269-0.408 26.638-1.19 39.955 54.391-12.151 83.181-30.635 86.135-39.955-2.958-9.32-31.753-27.8-86.135-39.945 0.782 13.312 1.19 26.676 1.19 39.945z"></path>
	<path class="path8" d="M513.579 496.133c-13.265 0-26.633-0.408-39.945-1.19 12.151 54.376 30.63 83.172 39.945 86.135 9.32-2.949 27.804-31.744 39.955-86.135-13.317 0.782-26.686 1.19-39.955 1.19z"></path>
	<path class="path9" d="M622.606 487.111c-4.57 26.278-10.913 51.067-19.086 72.965 39.836-19.769 72.287-52.219 92.056-92.056-21.902 8.178-46.692 14.521-72.969 19.091z"></path>
	<path class="path10" d="M422.106 834.37h41.486l-20.508-56.633z"></path>
	<path class="path11" d="M929.185 76.184c0-42.074-34.11-76.184-76.184-76.184h-682.003c-42.074 0-76.184 34.11-76.184 76.184v871.633c0 42.074 34.11 76.184 76.184 76.184h682.003c42.074 0 76.184-34.11 76.184-76.184v-871.633zM513.579 108.653c148.565 0 269.435 120.865 269.435 269.431s-120.87 269.435-269.435 269.435-269.431-120.87-269.431-269.435 120.865-269.431 269.431-269.431zM299.98 834.37h-20.276v61.63h-42.667v-161.185h63.877c36.129 0 64.564 11.439 64.564 49.195 0 38.225-31 50.361-65.498 50.361zM487.367 896l-12.819-28.444h-63.863l-12.122 28.444h-43.354l69.224-161.185h38.689l68.523 161.185h-44.279zM615.012 797.189c22.376 7.225 51.271 16.782 51.271 49.645 0 37.992-30.53 55.007-63.161 55.007-23.538 0-47.313-8.623-61.762-23.775l26.107-26.567c7.922 10.022 22.609 17.484 35.655 17.484 12.122 0 22.841-4.66 22.841-17.948 0-12.582-12.587-16.545-34.266-23.538-20.978-6.76-42.183-17.484-42.183-47.313 0-36.594 33.095-51.745 63.863-51.745 18.65 0 39.623 6.997 54.073 20.276l-25.401 26.804c-6.76-8.623-19.115-14.217-29.369-14.217s-23.073 3.494-23.073 16.545c-0.005 10.951 9.79 14.45 25.406 19.342zM752.749 797.189c22.376 7.225 51.271 16.782 51.271 49.645 0 37.992-30.53 55.007-63.161 55.007-23.538 0-47.313-8.623-61.762-23.775l26.107-26.567c7.922 10.022 22.609 17.484 35.655 17.484 12.122 0 22.841-4.66 22.841-17.948 0-12.582-12.587-16.545-34.266-23.538-20.978-6.76-42.183-17.484-42.183-47.313 0-36.594 33.095-51.745 63.863-51.745 18.65 0 39.623 6.997 54.073 20.276l-25.401 26.804c-6.76-8.623-19.115-14.217-29.369-14.217s-23.073 3.494-23.073 16.545c0 10.951 9.79 14.45 25.406 19.342z"></path>
	<path class="path12" d="M297.652 763.259h-17.948v42.667h17.252c14.914 0 28.667-6.3 28.667-21.916 0-15.844-13.753-20.75-27.97-20.75z"></path>
</symbol>
</defs>
</svg>
