<?xml version="1.0" encoding="iso-8859-1"?>
<!-- Generator: Adobe Illustrator 16.0.0, SVG Export Plug-In . SVG Version: 6.00 Build 0)  -->
<!DOCTYPE svg PUBLIC "-//W3C//DTD SVG 1.1//EN" "http://www.w3.org/Graphics/SVG/1.1/DTD/svg11.dtd">
<svg version="1.1" xmlns="http://www.w3.org/2000/svg" xmlns:xlink="http://www.w3.org/1999/xlink" x="0px" y="0px"
	  viewBox="0 0 406.55 406.55" style="enable-background:new 0 0 406.55 406.55;"
	 xml:space="preserve">



<symbol version="1.1" id="doctor" xmlns="http://www.w3.org/2000/svg" xmlns:xlink="http://www.w3.org/1999/xlink" x="0px" y="0px" viewBox="0 0 261.066 261.066" style="enable-background:new 0 0 261.066 261.066;"
	 xml:space="preserve">
<g>
	<g>
		<polygon points="124.047,38.351 128.966,38.351 128.966,32.168 135.276,32.168 135.276,27.246 128.966,27.246 128.966,21.063 
			124.047,21.063 124.047,27.246 117.992,27.246 117.992,32.168 124.047,32.168 		"/>
		<path d="M177.458,70.022V17.597c0,0-50.818-39.592-101.647,0v52.426c0,0,16.176-16.179,50.197-16.73
			C160.022,52.735,177.458,70.022,177.458,70.022z M107.816,23.732c0-5.939,4.813-10.755,10.752-10.755
			c3.213,0,6.087,1.421,8.065,3.653c1.973-2.232,4.847-3.653,8.06-3.653c5.941,0,10.752,4.815,10.752,10.755
			c0,3.286-1.476,6.219-3.801,8.192h0.005l-14.793,14.517l-15.25-14.517h0.005C109.295,29.951,107.816,27.013,107.816,23.732z"/>
		<path d="M71.971,89.836c0,30.181,24.477,68.038,54.663,68.038c30.178,0,54.661-37.852,54.661-68.038
			c0-1.432-0.109-2.83-0.213-4.23l-8.564-8.495c-0.776-0.738-15.503-14.465-44.275-14.465l-1.476,0.016
			c-29.979,0.489-44.157,13.877-44.747,14.45l-9.877,9.559C72.072,87.721,71.971,88.765,71.971,89.836z"/>
		<path d="M183.521,141.144l-55.779,95.36l-50.191-95.36c0,0-46.116,4.147-59.09,68.222c-2.322,11.48,2.879,28.972,13.145,34.611
			c15.34,8.414,44.555,17.538,98.925,17.072c54.373,0.466,83.588-8.653,98.93-17.072c10.269-5.629,15.473-23.131,13.143-34.611
			C229.632,145.291,183.521,141.144,183.521,141.144z M86.309,248.74c-19.692,0-37.769-7.503-38.701-7.902l4.114-9.771
			c0.253,0.104,25.505,10.553,46.417,5.846l2.328,10.346C95.806,248.315,91.014,248.74,86.309,248.74z M169.457,250.765
			c-4.696,0-9.486-0.43-14.156-1.481l2.33-10.346c20.966,4.733,46.152-5.742,46.411-5.846l4.116,9.771
			C207.231,243.262,189.155,250.765,169.457,250.765z"/>
	</g>
</g>



</symbol>





<svg version="1.1" id="phonendoscope" xmlns="http://www.w3.org/2000/svg" xmlns:xlink="http://www.w3.org/1999/xlink" x="0px" y="0px"
	  viewBox="0 0 291.734 291.734" style="enable-background:new 0 0 291.734 291.734;"
	 xml:space="preserve">
<g>
	<g>
		<path d="M59.294,152.691c0.531,5.888,3.845,11.428,9.391,14.534c4.604,2.579,9.349,4.475,14.196,5.759
			c-2.731,9.217-7.749,22.556-16.681,36.842c-8.484,13.577-8.585,29.961-0.267,44.957c12.254,22.1,39.312,36.951,67.341,36.951
			c19.25,0,36.364-8.865,48.185-24.964c16.896-23.017,20.64-56.985,10.009-90.846c-9.854-31.389,3.325-48.135,12.045-55.333
			c7.109,6.851,16.751,11.076,27.408,11.076c21.836,0,39.55-17.709,39.55-39.556s-17.714-39.551-39.55-39.551
			c-21.847,0-39.551,17.709-39.551,39.551c0,3.076,0.383,6.053,1.046,8.927c-16.467,12.045-35.476,39.157-22.173,81.546
			c8.389,26.729,5.815,53.939-6.727,71.018c-5.317,7.249-14.887,15.887-30.248,15.887c-19.874,0-39.566-10.486-47.882-25.492
			c-3.068-5.535-5.608-13.919-0.318-22.385c11.814-18.911,17.727-36.558,20.531-47.344c6.566-0.989,12.977-3.107,19.144-6.4
			c5.497-2.936,8.87-8.249,9.613-13.991c26.131-23.623,38.196-66.187,38.89-68.678c1.409-5.11-0.999-10.356-5.488-12.748
			c3.609-31.954-8.218-48.059-15.354-54.619c0.544-3.07-0.684-6.354-3.381-8.114L135.91,1.148c-3.425-2.237-7.731-1.108-9.608,2.537
			l-6.248,12.075c-1.882,3.646-0.223,7.534,3.708,8.694l14.825,4.37c3.759,1.108,8.262-0.688,10.39-3.982
			c5.908,6.224,14.416,20.081,11.485,46.515c-4.029,0.767-7.482,3.702-8.652,7.922c-3.562,12.785-13.85,39.193-29.125,55.028
			c-4.862-1.879-10.452-1.786-15.41,0.854c-3.229,1.725-6.387,2.594-9.628,2.662h-0.668c-3.415-0.073-6.75-1.036-10.165-2.946
			c-4.836-2.713-10.344-2.952-15.201-1.238C56.68,117.739,46.611,91.89,43.108,79.281c-1.173-4.209-4.64-7.151-8.655-7.917
			c-2.936-26.434,5.569-40.291,11.485-46.515c2.13,3.293,6.628,5.09,10.387,3.981l14.825-4.37c3.925-1.16,5.595-5.054,3.708-8.694
			L68.615,3.69c-1.882-3.646-6.188-4.774-9.608-2.537L45.881,9.729c-2.695,1.76-3.92,5.043-3.379,8.114
			c-7.125,6.561-18.962,22.659-15.351,54.618c-4.492,2.393-6.892,7.638-5.489,12.754C22.344,87.654,34.046,128.861,59.294,152.691z
			 M230.921,76.661c8.522,0,15.445,6.913,15.445,15.452c0,8.533-6.923,15.451-15.445,15.451c-8.534,0-15.452-6.918-15.452-15.451
			C215.469,83.573,222.382,76.661,230.921,76.661z"/>
	</g>
</g>

</svg>






<svg version="1.1" id="microscope" xmlns="http://www.w3.org/2000/svg" xmlns:xlink="http://www.w3.org/1999/xlink" x="0px" y="0px"
	  viewBox="0 0 572.6 572.6" style="enable-background:new 0 0 572.6 572.6;" xml:space="preserve"
	>
<g>
	<path d="M464.529,317.111c0-75.049-40.443-140.178-99.302-172.021c-4.445-31.794-31.736-56.355-64.728-56.355
		c-7.368,0-14.432,1.279-21.047,3.529V63.096c0-7.21-5.456-13.089-12.459-13.868v-22.74c0-0.536-0.109-1.041-0.155-1.559h11.323
		c5.151,0,9.341-4.189,9.341-9.353V9.347c0-5.164-4.189-9.347-9.341-9.347h-72.19c-5.163,0-9.353,4.183-9.353,9.347v6.229
		c0,5.164,4.189,9.353,9.353,9.353h11.311c-0.052,0.518-0.159,1.022-0.159,1.559v22.746c-6.999,0.779-12.455,6.646-12.455,13.868
		v205.664c0,7.614,6.064,13.771,13.63,13.99v94.297h0.484c2.195,2.666,11.779,7.014,23.27,7.014c11.512,0,21.096-4.348,23.285-7.014
		h0.472v-94.297c7.563-0.207,13.643-6.37,13.643-13.984v-52.68c6.615,2.25,13.679,3.528,21.047,3.528
		c23.468,0,44.024-12.458,55.582-31.063c39.786,26.536,66.378,74.229,66.378,128.554c0,33.686-10.236,64.825-27.469,89.949
		l-46.972,18.761v-1.225H161.826v20.247H348.02v-8.957l35.451-14.163c-25.245,28.412-60.636,46.137-99.776,46.137v0.348h-41.629
		v48.299H108.07V572.6h292.146v-56.094h-74.008v-12.008C405.465,484.051,464.529,407.821,464.529,317.111z M300.5,205.597
		c-28.354,0-51.42-23.065-51.42-51.417c0-28.351,23.066-51.417,51.42-51.417c22.457,0,41.553,14.499,48.543,34.62
		c-6.126-2.539-12.386-4.752-18.81-6.573c-6.924-8.811-17.658-14.489-29.745-14.489c-20.911,0-37.857,16.953-37.857,37.859
		c0,20.907,16.953,37.854,37.857,37.854c12.921,0,24.319-6.491,31.164-16.38c4.231,1.696,8.354,3.611,12.373,5.73
		C334.94,195.894,318.853,205.597,300.5,205.597z"/>
</g>

</svg>





<svg version="1.1" id="teeth" xmlns="http://www.w3.org/2000/svg" xmlns:xlink="http://www.w3.org/1999/xlink" x="0px" y="0px"
	 viewBox="0 0 454.183 454.183" style="enable-background:new 0 0 454.183 454.183;"
	 xml:space="preserve">
<g>
	<g>
		<path d="M114.166,276.635c-2.334,43.284-4.727,112.757,0.453,157.343c2.499,21.544,23.692,26.542,36.803,9.286
			c15.13-19.913,35.548-52.578,58.478-104.795c8.714-19.841,21.335-19.832,30.152-0.027c23.688,53.21,45.448,86.135,61.599,105.932
			c13.701,16.804,35.397,11.161,37.906-10.379c5.173-44.595,2.772-114.067,0.448-157.359c-1.162-21.652,6.849-54.203,14.551-74.466
			c20.094-52.794,19.536-106.01,19.076-118.794c0.031-0.974,0.144-1.927,0.144-2.909C373.774,36.022,337.744,0,293.31,0
			c-27.375,0-51.531,13.711-66.076,34.61C212.694,13.703,188.538,0,161.157,0c-44.434,0-80.465,36.022-80.465,80.465
			c0,0-4.105,61.144,18.927,121.704C107.319,222.424,115.32,254.982,114.166,276.635z M127.861,53.373
			c13.072-14.148,32.188-21.319,56.839-21.319c4.332,0,7.851,3.514,7.851,7.848c0,4.332-3.519,7.851-7.851,7.851
			c-20.089,0-35.327,5.47-45.296,16.272c-15.34,16.609-13.621,40.429-13.605,40.675c0.353,4.316-2.875,8.099-7.198,8.444
			c-0.216,0.016-0.427,0.026-0.637,0.026c-4.052,0-7.49-3.12-7.821-7.225C110.042,104.684,107.922,74.969,127.861,53.373z"/>
	</g>
</g>

</svg>


<svg version="1.1" id="passport" xmlns="http://www.w3.org/2000/svg" xmlns:xlink="http://www.w3.org/1999/xlink" x="0px" y="0px"
	 viewBox="0 0 216 216" style="enable-background:new 0 0 216 216;" xml:space="preserve">
<g>
	<path d="M85.336,56.755c0.964-5.543,2.302-10.772,4.026-15.391c-8.403,4.17-15.248,11.015-19.418,19.418
		C74.564,59.057,79.793,57.718,85.336,56.755z"/>
	<path d="M65.515,79.752c0.622,1.966,6.696,5.865,18.169,8.428c-0.165-2.809-0.251-5.629-0.251-8.428
		c0-2.799,0.086-5.618,0.251-8.427C72.213,73.888,66.139,77.786,65.515,79.752z"/>
	<path d="M131.331,56.755c5.543,0.964,10.772,2.302,15.391,4.026c-4.17-8.403-11.015-15.248-19.418-19.417
		C129.029,45.983,130.368,51.212,131.331,56.755z"/>
	<path d="M85.336,102.75c-5.543-0.964-10.772-2.302-15.391-4.026c4.17,8.403,11.015,15.248,19.417,19.418
		C87.638,113.522,86.299,108.293,85.336,102.75z"/>
	<path d="M97.84,90.246c3.256,0.258,6.748,0.407,10.493,0.407c3.746,0,7.238-0.149,10.494-0.407
		c0.258-3.256,0.407-6.749,0.407-10.494c0-3.745-0.149-7.237-0.407-10.493c-3.256-0.258-6.749-0.407-10.495-0.407
		c-3.745,0-7.237,0.149-10.493,0.407c-0.258,3.256-0.407,6.748-0.407,10.493C97.433,83.498,97.582,86.99,97.84,90.246z"/>
	<path d="M108.333,54.852c2.799,0,5.619,0.086,8.428,0.251c-2.563-11.473-6.462-17.546-8.428-18.169
		c-1.966,0.624-5.864,6.698-8.427,18.169C102.715,54.938,105.534,54.852,108.333,54.852z"/>
	<path d="M133.234,79.752c0,2.799-0.086,5.619-0.251,8.428c11.473-2.563,17.546-6.462,18.169-8.428
		c-0.624-1.966-6.698-5.864-18.169-8.426C133.148,74.134,133.234,76.953,133.234,79.752z"/>
	<path d="M108.333,104.653c-2.798,0-5.618-0.086-8.426-0.251c2.563,11.47,6.461,17.544,8.426,18.169
		c1.966-0.622,5.865-6.696,8.428-18.169C113.952,104.567,111.132,104.653,108.333,104.653z"/>
	<path d="M131.331,102.75c-0.964,5.543-2.302,10.772-4.026,15.391c8.403-4.17,15.248-11.015,19.418-19.418
		C142.103,100.448,136.874,101.786,131.331,102.75z"/>
	<polygon points="89.038,176 97.789,176 93.463,164.054 	"/>
	<path d="M196,16.07C196,7.195,188.805,0,179.93,0H36.07C27.195,0,20,7.195,20,16.07V199.93c0,8.875,7.195,16.07,16.07,16.07H179.93
		c8.875,0,16.07-7.195,16.07-16.07V16.07z M108.333,22.919c31.338,0,56.834,25.495,56.834,56.833s-25.496,56.834-56.834,56.834
		S51.5,111.09,51.5,79.752S76.995,22.919,108.333,22.919z M63.277,176H59v13h-9v-34h13.474c7.621,0,13.619,2.413,13.619,10.377
		C77.093,173.44,70.554,176,63.277,176z M102.804,189l-2.704-6H86.629l-2.557,6h-9.145l14.602-34h8.161l14.454,34H102.804z
		 M129.729,168.157c4.72,1.524,10.815,3.54,10.815,10.472c0,8.014-6.44,11.603-13.323,11.603c-4.965,0-9.98-1.819-13.028-5.015
		l5.507-5.604c1.671,2.114,4.769,3.688,7.521,3.688c2.557,0,4.818-0.983,4.818-3.786c0-2.654-2.655-3.49-7.228-4.965
		c-4.425-1.426-8.898-3.688-8.898-9.98c0-7.719,6.981-10.915,13.471-10.915c3.934,0,8.358,1.476,11.406,4.277l-5.358,5.654
		c-1.426-1.819-4.032-2.999-6.195-2.999s-4.867,0.737-4.867,3.49C124.369,166.387,126.435,167.125,129.729,168.157z
		 M158.783,168.157c4.72,1.524,10.815,3.54,10.815,10.472c0,8.014-6.44,11.603-13.323,11.603c-4.965,0-9.98-1.819-13.028-5.015
		l5.507-5.604c1.671,2.114,4.769,3.688,7.521,3.688c2.557,0,4.818-0.983,4.818-3.786c0-2.654-2.655-3.49-7.228-4.965
		c-4.425-1.426-8.898-3.688-8.898-9.98c0-7.719,6.981-10.915,13.471-10.915c3.934,0,8.358,1.476,11.406,4.277l-5.358,5.654
		c-1.426-1.819-4.032-2.999-6.195-2.999s-4.867,0.737-4.867,3.49C153.424,166.387,155.489,167.125,158.783,168.157z"/>
	<path d="M62.786,161H59v9h3.639c3.146,0,6.047-1.329,6.047-4.623C68.686,162.035,65.785,161,62.786,161z"/>
</g>
</svg>

<svg version="1.1" id="ambulance1" xmlns="http://www.w3.org/2000/svg" xmlns:xlink="http://www.w3.org/1999/xlink" x="0px" y="0px"
      viewBox="0 0 406.55 406.55" style="enable-background:new 0 0 406.55 406.55;"
     xml:space="preserve">
<g>
    <g>
        <polygon points="293.548,181.031 275.398,181.031 275.398,203.801 253.097,203.801 253.097,221.939 275.398,221.939 
            275.398,244.708 293.548,244.708 293.548,221.939 316.775,221.939 316.775,203.801 293.548,203.801         "/>
        <path d="M69.539,299.125c19.694,0,35.656,15.962,35.656,35.654c0,19.696-15.961,35.658-35.656,35.658
            c-19.69,0-35.656-15.962-35.656-35.658C33.883,315.087,49.849,299.125,69.539,299.125z"/>
        <path d="M320.594,299.125c19.693,0,35.654,15.962,35.654,35.654c0,19.696-15.961,35.658-35.654,35.658
            c-19.688,0-35.658-15.962-35.658-35.658C284.936,315.087,300.905,299.125,320.594,299.125z"/>
        <path d="M106.82,61.615c-1.978-0.892-4.3-0.014-5.194,1.956c-0.898,1.97-0.018,4.304,1.956,5.19l33.029,14.981
            c0.529,0.233,1.078,0.353,1.619,0.353c1.495,0,2.919-0.856,3.581-2.309c0.896-1.97,0.022-4.302-1.956-5.189L106.82,61.615z"/>
        <path d="M161.099,70.708c0.95,0,1.901-0.337,2.653-1.034c1.601-1.469,1.705-3.941,0.245-5.544l-24.51-26.739
            c-1.46-1.591-3.947-1.717-5.55-0.235c-1.604,1.469-1.701,3.941-0.241,5.542l24.505,26.738
            C158.979,70.279,160.041,70.708,161.099,70.708z"/>
        <path d="M206.535,37.148c-1.611-1.475-4.08-1.356-5.549,0.234l-24.501,26.742c-1.461,1.601-1.357,4.082,0.244,5.542
            c0.751,0.697,1.703,1.034,2.653,1.034c1.058,0,2.12-0.429,2.897-1.272l24.5-26.735C208.25,41.089,208.142,38.617,206.535,37.148z"
            />
        <path d="M195.067,84.095c0.541,0,1.094-0.12,1.619-0.353l33.031-14.981c1.976-0.886,2.85-3.22,1.96-5.19
            c-0.902-1.97-3.219-2.847-5.198-1.956l-33.037,14.982c-1.978,0.888-2.847,3.22-1.954,5.189
            C192.154,83.239,193.577,84.095,195.067,84.095z"/>
        <path d="M375.14,102.627H190.932c-3.594-10.744-13.631-18.541-25.593-18.541c-11.956,0-21.995,7.796-25.591,18.541
            c0,0-5.895,0-13.174,0c-7.276,0-13.17,10.223-13.17,22.822v22.828c0,0-6.869,0-15.341,0s-24.533,10.628-35.886,23.742
            l-41.621,48.087C9.201,233.223,0,257.901,0,275.246v14.21c0,17.344,6.51,31.402,14.541,31.402H29.08
            c5.446-17.349,21.664-29.943,40.823-29.943c19.154,0,35.364,12.595,40.82,29.943h2.687h21.396h145.325
            c5.459-17.349,21.673-29.943,40.832-29.943c19.155,0,35.369,12.595,40.823,29.943c0,0,10.019,0,22.378,0
            c12.371,0,22.386-14.059,22.386-31.402V134.014C406.541,116.688,392.479,102.627,375.14,102.627z M114.616,213.959
            c0,8.66-7.033,15.701-15.701,15.701H63.59c-8.668,0-10.864-5.102-4.891-11.393l24.509-25.848
            c5.965-6.294,15.417-11.389,21.109-11.389s10.299,7.035,10.299,15.701V213.959z M340.267,221.029h0.017l-54.51,53.479
            l-56.172-53.479h0.016c-8.548-7.27-14.006-18.086-14.006-30.192c0-21.88,17.737-39.616,39.617-39.616
            c11.839,0,22.442,5.228,29.699,13.473c7.27-8.245,17.865-13.473,29.707-13.473c21.889,0,39.613,17.735,39.613,39.616
            C354.257,202.952,348.807,213.767,340.267,221.029z"/>
    </g>
</g>
</svg>