<?xml version="1.0" encoding="UTF-8" standalone="no"?>
<!-- Generator: Adobe Illustrator 18.1.1, SVG Export Plug-In . SVG Version: 6.00 Build 0)  -->

<svg
   xmlns:dc="http://purl.org/dc/elements/1.1/"
   xmlns:cc="http://creativecommons.org/ns#"
   xmlns:rdf="http://www.w3.org/1999/02/22-rdf-syntax-ns#"
   xmlns:svg="http://www.w3.org/2000/svg"
   xmlns="http://www.w3.org/2000/svg"
   xmlns:sodipodi="http://sodipodi.sourceforge.net/DTD/sodipodi-0.dtd"
   xmlns:inkscape="http://www.inkscape.org/namespaces/inkscape"
   version="1.1"
   id="Capa_1"
   x="0px"
   y="0px"
   viewBox="0 0 24.999999 24.999999"
   xml:space="preserve"
   inkscape:version="0.91 r13725"
   sodipodi:docname="background.svg"
   width="25"
   height="25"><metadata
     id="metadata41"><rdf:RDF><cc:Work
         rdf:about=""><dc:format>image/svg+xml</dc:format><dc:type
           rdf:resource="http://purl.org/dc/dcmitype/StillImage" /><dc:title></dc:title></cc:Work></rdf:RDF></metadata><defs
     id="defs39" /><sodipodi:namedview
     pagecolor="#ffffff"
     bordercolor="#666666"
     borderopacity="1"
     objecttolerance="10"
     gridtolerance="10"
     guidetolerance="10"
     inkscape:pageopacity="0"
     inkscape:pageshadow="2"
     inkscape:window-width="1366"
     inkscape:window-height="706"
     id="namedview37"
     showgrid="false"
     fit-margin-top="0"
     fit-margin-left="0"
     fit-margin-right="0"
     fit-margin-bottom="0"
     inkscape:zoom="11.970782"
     inkscape:cx="22.528267"
     inkscape:cy="13.92723"
     inkscape:window-x="-8"
     inkscape:window-y="-8"
     inkscape:window-maximized="1"
     inkscape:current-layer="g4180" /><g
     id="g7"
     transform="translate(-27.34862,-50.722203)" /><g
     id="g9"
     transform="translate(-27.34862,-50.722203)" /><g
     id="g11"
     transform="translate(-27.34862,-50.722203)" /><g
     id="g13"
     transform="translate(-27.34862,-50.722203)" /><g
     id="g15"
     transform="translate(-27.34862,-50.722203)" /><g
     id="g17"
     transform="translate(-27.34862,-50.722203)" /><g
     id="g19"
     transform="translate(-27.34862,-50.722203)" /><g
     id="g21"
     transform="translate(-27.34862,-50.722203)" /><g
     id="g23"
     transform="translate(-27.34862,-50.722203)" /><g
     id="g25"
     transform="translate(-27.34862,-50.722203)" /><g
     id="g27"
     transform="translate(-27.34862,-50.722203)" /><g
     id="g29"
     transform="translate(-27.34862,-50.722203)" /><g
     id="g31"
     transform="translate(-27.34862,-50.722203)" /><g
     id="g33"
     transform="translate(-27.34862,-50.722203)" /><g
     id="g35"
     transform="translate(-27.34862,-50.722203)" /><g
     id="g4180"
     transform="matrix(0.20732003,0,0,0.19997523,-0.27768572,4.5618981)"><path
       style="fill:#f2f0ed"
       d="M 69.639262,99.452217 C 69.179725,98.97733 69.25404,98.758145 70.101981,98.087453 l 1.010176,-0.799013 -0.78541,0.812031 c -0.643069,0.664866 -0.688478,0.912205 -0.250549,1.364764 0.294175,0.304005 0.439389,0.552735 0.322695,0.552735 -0.116694,0 -0.458527,-0.25459 -0.759631,-0.565753 z m 4.474792,-5.985118 c 0.422428,-0.400331 0.863527,-0.727875 0.980221,-0.727875 0.116694,0 -0.133451,0.327544 -0.555879,0.727875 -0.422428,0.400331 -0.863528,0.727874 -0.980222,0.727874 -0.116694,0 0.133452,-0.327543 0.55588,-0.727874 z m -33.987675,-18.651784 -0.808367,-0.818858 0.95477,0.693297 c 0.897248,0.651527 1.147947,0.94442 0.808366,0.94442 -0.08052,0 -0.510168,-0.368486 -0.954769,-0.818859 z M 36.081321,70.2661 c -0.527827,-0.577226 -0.512818,-0.590099 0.160212,-0.137408 0.408429,0.274718 0.742599,0.561319 0.742599,0.63689 0,0.299535 -0.348464,0.106747 -0.902811,-0.499482 z m 66.887989,-1.182796 c 0.42243,-0.400331 0.86353,-0.727874 0.98022,-0.727874 0.11669,0 -0.13345,0.327543 -0.55588,0.727874 -0.42243,0.400331 -0.86353,0.727875 -0.98022,0.727875 -0.1167,0 0.13345,-0.327544 0.55588,-0.727875 z m 4.24342,-4.731184 c 0.42243,-0.400331 0.86352,-0.727874 0.98022,-0.727874 0.11669,0 -0.13345,0.327543 -0.55588,0.727874 -0.42243,0.400331 -0.86353,0.727875 -0.98022,0.727875 -0.1167,0 0.13345,-0.327544 0.55588,-0.727875 z m 17.3577,-6.277917 -0.80837,-0.818859 0.95477,0.693297 c 0.52513,0.381311 0.95477,0.749798 0.95477,0.818859 0,0.29124 -0.3415,0.07623 -1.10117,-0.693297 z m -4.04506,-4.549216 c -0.52783,-0.577226 -0.51282,-0.590098 0.16022,-0.137408 0.70684,0.475437 0.93163,0.774299 0.58238,0.774299 -0.0881,0 -0.42228,-0.286601 -0.7426,-0.636891 z M 7.0277051,46.064274 6.2193388,45.245415 7.1741082,45.938712 c 0.5251232,0.381312 0.9547694,0.749798 0.9547694,0.818859 0,0.291241 -0.3415079,0.07623 -1.1011725,-0.693297 z M 36.771961,35.601079 c 0.422426,-0.400331 0.863525,-0.727875 0.980219,-0.727875 0.116694,0 -0.133451,0.327544 -0.555877,0.727875 -0.422427,0.400331 -0.863526,0.727874 -0.98022,0.727874 -0.116694,0 0.133451,-0.327543 0.555878,-0.727874 z m 59.367559,-2.274608 -0.808368,-0.818859 0.95477,0.693296 c 0.897245,0.651527 1.147947,0.944422 0.808367,0.944422 -0.08052,0 -0.510169,-0.368487 -0.954769,-0.818859 z M 41.01538,30.869895 c 0.422427,-0.400331 0.863526,-0.727875 0.98022,-0.727875 0.116694,0 -0.133451,0.327544 -0.555878,0.727875 -0.422426,0.400331 -0.863525,0.727874 -0.980219,0.727874 -0.116694,0 0.133451,-0.327543 0.555877,-0.727874 z m 46.212958,-6.277918 -0.808367,-0.818858 0.954769,0.693296 c 0.897246,0.651527 1.147947,0.944421 0.808368,0.944421 -0.08052,0 -0.51017,-0.368486 -0.95477,-0.818859 z"
       id="path4194"
       inkscape:connector-curvature="0" /><path
       style="fill:#f3efea"
       d="m 88.966023,81.45717 c 0.422428,-0.400331 0.863527,-0.727874 0.980221,-0.727874 0.116694,0 -0.133451,0.327543 -0.555879,0.727874 -0.422428,0.400331 -0.863528,0.727874 -0.980222,0.727874 -0.116694,0 0.133452,-0.327543 0.55588,-0.727874 z m -0.848684,-0.363937 c 0.422428,-0.400331 0.863527,-0.727875 0.980221,-0.727875 0.116694,0 -0.133451,0.327544 -0.555879,0.727875 -0.422428,0.400331 -0.863528,0.727874 -0.980222,0.727874 -0.116694,0 0.133452,-0.327543 0.55588,-0.727874 z M 35.458617,70.812006 34.650251,69.993147 35.60502,70.686444 c 0.897248,0.651528 1.147947,0.944421 0.808367,0.944421 -0.08052,0 -0.510169,-0.368487 -0.95477,-0.818859 z m 71.541943,-5.141545 c 0,-0.07557 0.33417,-0.362172 0.7426,-0.63689 0.67303,-0.452691 0.68804,-0.439818 0.16021,0.137408 -0.55435,0.606228 -0.90281,0.799017 -0.90281,0.499482 z M 3.6732869,64.716057 c 0.4224267,-0.400331 0.8635254,-0.727874 0.9802194,-0.727874 0.1166941,0 -0.1334508,0.327543 -0.5558774,0.727874 -0.4224266,0.400331 -0.8635253,0.727875 -0.9802194,0.727875 -0.116694,0 0.1334508,-0.327544 0.5558774,-0.727875 z M 3.248945,63.988183 c 0.4224266,-0.400331 0.8635253,-0.727875 0.9802193,-0.727875 0.1166941,0 -0.1334507,0.327544 -0.5558774,0.727875 -0.4224266,0.400331 -0.8635253,0.727874 -0.9802194,0.727874 -0.116694,0 0.1334508,-0.327543 0.5558775,-0.727874 z m 116.653725,-9.91729 -0.80837,-0.818858 0.95477,0.693296 c 0.52513,0.381312 0.95477,0.749798 0.95477,0.818859 0,0.291241 -0.3415,0.07623 -1.10117,-0.693297 z m 2.16203,-1.728702 c 0.42242,-0.400331 0.86352,-0.727874 0.98022,-0.727874 0.11669,0 -0.13345,0.327543 -0.55588,0.727874 -0.42243,0.400331 -0.86353,0.727875 -0.98022,0.727875 -0.1167,0 0.13345,-0.327544 0.55588,-0.727875 z M 21.919992,47.611007 c 0.422426,-0.400331 0.863525,-0.727874 0.980219,-0.727874 0.116694,0 -0.133451,0.327543 -0.555877,0.727874 -0.422427,0.400331 -0.863526,0.727875 -0.98022,0.727875 -0.116694,0 0.133451,-0.327544 0.555878,-0.727875 z M 2.133963,41.878996 C 1.6061365,41.301771 1.6211456,41.288899 2.2941755,41.74159 c 0.4084292,0.274716 0.7425985,0.561316 0.7425985,0.63689 0,0.299533 -0.3484635,0.106744 -0.902811,-0.499484 z M 2.7842852,41.33309 1.9759191,40.514231 2.9306885,41.207527 c 0.8972477,0.651527 1.1479472,0.944422 0.8083662,0.944422 -0.080522,0 -0.5101681,-0.368487 -0.9547695,-0.818859 z M 140.09923,36.555484 c 0,-0.07557 0.33417,-0.362174 0.7426,-0.63689 0.67303,-0.452691 0.68804,-0.439819 0.16021,0.137406 -0.55434,0.606228 -0.90281,0.799017 -0.90281,0.499484 z m 0.21217,-1.318342 c 0.42243,-0.400331 0.86353,-0.727875 0.98022,-0.727875 0.1167,0 -0.13345,0.327544 -0.55588,0.727875 -0.42243,0.40033 -0.86352,0.727874 -0.98022,0.727874 -0.11669,0 0.13345,-0.327544 0.55588,-0.727874 z m -48.839642,-5.91398 -0.808367,-0.818859 0.954769,0.693296 c 0.897246,0.651527 1.147947,0.944421 0.808367,0.944421 -0.08052,0 -0.510169,-0.368486 -0.954769,-0.818858 z m 0.424342,-0.727875 -0.808367,-0.818859 0.954769,0.693296 c 0.897246,0.651527 1.147947,0.944422 0.808367,0.944422 -0.08052,0 -0.510169,-0.368487 -0.954769,-0.818859 z M 55.867349,18.859966 c 0.422428,-0.400331 0.863528,-0.727874 0.980222,-0.727874 0.116694,0 -0.133452,0.327543 -0.55588,0.727874 -0.422428,0.400331 -0.863527,0.727875 -0.980221,0.727875 -0.116694,0 0.133451,-0.327544 0.555879,-0.727875 z"
       id="path4192"
       inkscape:connector-curvature="0" /><path
       style="fill:#f5ece3"
       d="m 68.75565,99.745016 c -0.527826,-0.577226 -0.512817,-0.590099 0.160215,-0.137408 0.408429,0.274718 0.742598,0.561322 0.742598,0.636892 0,0.29953 -0.348465,0.10674 -0.902813,-0.499484 z m 0.690642,-2.274608 c 0.422428,-0.400331 0.863528,-0.727874 0.980222,-0.727874 0.116694,0 -0.133452,0.327543 -0.55588,0.727874 -0.422428,0.400331 -0.863527,0.727875 -0.980221,0.727875 -0.116694,0 0.133451,-0.327544 0.555879,-0.727875 z m -5.358403,-1.728702 c -0.527827,-0.577226 -0.512818,-0.590098 0.160214,-0.137408 0.408429,0.274718 0.742599,0.561319 0.742599,0.63689 0,0.299535 -0.348466,0.106747 -0.902813,-0.499482 z m 10.450507,-1.546733 c 0.422428,-0.400331 0.863527,-0.727874 0.980221,-0.727874 0.116694,0 -0.133451,0.327543 -0.555879,0.727874 -0.422428,0.400331 -0.863528,0.727875 -0.980222,0.727875 -0.116694,0 0.133452,-0.327544 0.55588,-0.727875 z m 8.274668,-8.507964 c 0,-0.07557 0.33417,-0.362173 0.742599,-0.636891 0.673032,-0.45269 0.688041,-0.439818 0.160214,0.137409 -0.554347,0.606228 -0.902813,0.799017 -0.902813,0.499482 z m -37.170239,-7.232321 -0.808367,-0.818859 0.954769,0.693297 c 0.897246,0.651528 1.147947,0.944421 0.808368,0.944421 -0.08052,0 -0.51017,-0.368487 -0.95477,-0.818859 z m 47.354447,-0.410361 c 0,-0.07557 0.334169,-0.362172 0.742598,-0.63689 0.673032,-0.452691 0.688041,-0.439819 0.160215,0.137408 -0.554348,0.606228 -0.902813,0.799017 -0.902813,0.499482 z m -52.022209,-3.592949 -0.808367,-0.818859 0.95477,0.693297 c 0.897248,0.651528 1.147947,0.944421 0.808366,0.944421 -0.08052,0 -0.510168,-0.368486 -0.954769,-0.818859 z m 60.933387,-5.505482 c 0,-0.07557 0.33417,-0.362172 0.7426,-0.63689 0.67303,-0.452691 0.68804,-0.439818 0.16022,0.137408 -0.55435,0.606228 -0.90282,0.799017 -0.90282,0.499482 z M 30.564875,66.626728 c -0.527827,-0.577227 -0.512818,-0.590099 0.160213,-0.137408 0.408429,0.274718 0.742598,0.561318 0.742598,0.63689 0,0.299535 -0.348464,0.106746 -0.902811,-0.499482 z m -4.667762,-4.00331 c -0.527826,-0.577226 -0.512817,-0.590099 0.160213,-0.137408 0.408429,0.274718 0.742598,0.561319 0.742598,0.63689 0,0.299535 -0.348463,0.106747 -0.902811,-0.499482 z M 129.86089,61.531607 c -0.52782,-0.577227 -0.51281,-0.590099 0.16022,-0.137409 0.70685,0.475437 0.93163,0.774299 0.58238,0.774299 -0.0881,0 -0.42228,-0.286601 -0.7426,-0.63689 z M 8.1288776,60.939277 c 0,-0.07557 0.3341693,-0.362172 0.7425985,-0.63689 0.6730301,-0.452691 0.6880391,-0.439818 0.1602124,0.137408 -0.5543472,0.606228 -0.9028109,0.799017 -0.9028109,0.499482 z m 117.2902424,-3.229011 -0.80837,-0.818859 0.95477,0.693297 c 0.89724,0.651527 1.14794,0.94442 0.80836,0.94442 -0.0805,0 -0.51016,-0.368486 -0.95476,-0.818858 z M 17.25223,51.614317 c 0.422426,-0.400331 0.863525,-0.727875 0.980219,-0.727875 0.116694,0 -0.133451,0.327544 -0.555877,0.727875 -0.422427,0.400331 -0.863525,0.727874 -0.980219,0.727874 -0.116694,0 0.13345,-0.327543 0.555877,-0.727874 z m 97.75669,-1.728702 c -0.52782,-0.577226 -0.51281,-0.590099 0.16022,-0.137408 0.70685,0.475437 0.93163,0.774298 0.58238,0.774298 -0.0881,0 -0.42228,-0.2866 -0.7426,-0.63689 z M 12.31817,49.521678 c -0.527826,-0.577226 -0.512817,-0.590099 0.160213,-0.137408 0.408429,0.274718 0.742598,0.561318 0.742598,0.63689 0,0.299535 -0.348463,0.106746 -0.902811,-0.499482 z m 113.77778,-0.59233 c 0,-0.07557 0.33416,-0.362172 0.74259,-0.63689 0.67304,-0.452691 0.68804,-0.439818 0.16022,0.137408 -0.55435,0.606229 -0.90281,0.799017 -0.90281,0.499482 z M 7.4520471,45.3364 6.6436807,44.517541 7.5984502,45.210838 c 0.5251231,0.381311 0.9547694,0.749798 0.9547694,0.818858 0,0.291241 -0.3415079,0.07623 -1.1011725,-0.693296 z M 135.00713,39.830919 c 0,-0.07557 0.33417,-0.362174 0.7426,-0.63689 0.67303,-0.452691 0.68804,-0.439818 0.16021,0.137406 -0.55435,0.606228 -0.90281,0.799017 -0.90281,0.499484 z M 35.711106,35.463672 c 0,-0.07557 0.334169,-0.362174 0.742598,-0.63689 0.67303,-0.452691 0.688039,-0.439818 0.160213,0.137407 -0.554348,0.606227 -0.902811,0.799016 -0.902811,0.499483 z M 96.76222,32.780565 c -0.527826,-0.577225 -0.512817,-0.590097 0.160215,-0.137406 0.706847,0.475436 0.931634,0.774296 0.582384,0.774296 -0.08812,0 -0.422284,-0.2866 -0.742599,-0.63689 z M 41.439722,31.597769 c 0.422427,-0.400331 0.863526,-0.727874 0.98022,-0.727874 0.116694,0 -0.133451,0.327543 -0.555878,0.727874 -0.422426,0.400331 -0.863525,0.727875 -0.980219,0.727875 -0.116694,0 0.133451,-0.327544 0.555877,-0.727875 z m 44.939932,-6.641854 -0.808367,-0.818859 0.95477,0.693296 c 0.897245,0.651527 1.147946,0.944421 0.808367,0.944421 -0.08052,0 -0.51017,-0.368486 -0.95477,-0.818858 z m -4.469403,-3.821341 c -0.527826,-0.577225 -0.512817,-0.590098 0.160215,-0.137407 0.706847,0.475437 0.931634,0.774297 0.582384,0.774297 -0.08812,0 -0.422284,-0.286601 -0.742599,-0.63689 z m -21.37514,-6.277917 c 0.422428,-0.400331 0.863527,-0.727875 0.980221,-0.727875 0.116694,0 -0.133451,0.327544 -0.555879,0.727875 -0.422428,0.40033 -0.863528,0.727874 -0.980222,0.727874 -0.116694,0 0.133452,-0.327544 0.55588,-0.727874 z M 68.331308,8.0328334 C 67.803482,7.4556088 67.818491,7.4427362 68.491523,7.895427 c 0.706847,0.4754366 0.931634,0.7742966 0.582384,0.7742966 -0.08812,0 -0.422284,-0.2866006 -0.742599,-0.6368902 z"
       id="path4190"
       inkscape:connector-curvature="0" /><path
       style="fill:#f6eadb"
       d="m 64.142018,102.06418 c 0,-0.0756 0.334169,-0.36217 0.742598,-0.63689 0.673032,-0.45269 0.688041,-0.43981 0.160215,0.13741 -0.554348,0.60623 -0.902813,0.79902 -0.902813,0.49948 z m -4.92025,-10.507752 -0.808367,-0.818859 0.954769,0.693297 c 0.897246,0.651528 1.147947,0.944421 0.808368,0.944421 -0.08052,0 -0.51017,-0.368487 -0.95477,-0.818859 z m -8.911181,-9.098431 -0.808367,-0.818858 0.954769,0.693296 c 0.897246,0.651528 1.147947,0.944421 0.808367,0.944421 -0.08052,0 -0.510169,-0.368486 -0.954769,-0.818859 z m 84.444053,-16.741112 -0.80837,-0.818859 0.95477,0.693297 c 0.89725,0.651527 1.14795,0.94442 0.80837,0.94442 -0.0805,0 -0.51017,-0.368486 -0.95477,-0.818858 z m -22.66198,-4.413671 c 0,-0.07557 0.33417,-0.362172 0.7426,-0.63689 0.67303,-0.452691 0.68804,-0.439818 0.16021,0.137408 -0.55434,0.606229 -0.90281,0.799017 -0.90281,0.499482 z m 4.45559,-5.32165 c 0.42243,-0.400331 0.86353,-0.727875 0.98022,-0.727875 0.1167,0 -0.13345,0.327544 -0.55588,0.727875 -0.42243,0.400331 -0.86352,0.727874 -0.98022,0.727874 -0.11669,0 0.13345,-0.327543 0.55588,-0.727874 z m -99.336338,-2.274608 -0.808366,-0.818859 0.954769,0.693297 c 0.897248,0.651528 1.147948,0.944421 0.808367,0.944421 -0.08052,0 -0.510168,-0.368487 -0.95477,-0.818859 z m 92.930888,-8.006619 -0.80836,-0.818859 0.95477,0.693297 c 0.52512,0.381312 0.95477,0.749798 0.95477,0.818859 0,0.29124 -0.34151,0.07623 -1.10118,-0.693297 z M 27.436437,43.971635 c 0.422427,-0.400331 0.863526,-0.727874 0.98022,-0.727874 0.116694,0 -0.133451,0.327543 -0.555878,0.727874 -0.422426,0.400331 -0.863525,0.727875 -0.980219,0.727875 -0.116694,0 0.133451,-0.327544 0.555877,-0.727875 z m 3.819078,-4.731184 c 0.422426,-0.400331 0.863525,-0.727874 0.980219,-0.727874 0.116694,0 -0.133451,0.327543 -0.555877,0.727874 -0.422427,0.400331 -0.863525,0.727875 -0.980219,0.727875 -0.116694,0 0.13345,-0.327544 0.555877,-0.727875 z m 70.598805,-2.092639 c -0.52782,-0.577225 -0.51281,-0.590097 0.16022,-0.137406 0.40843,0.274716 0.7426,0.561316 0.7426,0.63689 0,0.299533 -0.34847,0.106744 -0.90282,-0.499484 z M 45.895313,27.820991 c 0,-0.07557 0.334169,-0.362175 0.742598,-0.636891 0.673032,-0.452691 0.688041,-0.439818 0.160215,0.137407 -0.554348,0.606227 -0.902813,0.799016 -0.902813,0.499484 z M 72.99907,12.036143 c -0.527826,-0.577225 -0.512817,-0.590097 0.160214,-0.137406 0.706848,0.475436 0.931635,0.774296 0.582384,0.774296 -0.08811,0 -0.422284,-0.2866 -0.742598,-0.63689 z"
       id="path4188"
       inkscape:connector-curvature="0" /><path
       style="fill:#f8e6d2"
       d="m 60.070452,90.828554 -0.808367,-0.818859 0.954769,0.693297 c 0.897246,0.651527 1.147947,0.94442 0.808368,0.94442 -0.08052,0 -0.51017,-0.368486 -0.95477,-0.818858 z m 18.711364,-1.728702 c 0.422428,-0.400331 0.863527,-0.727875 0.980221,-0.727875 0.116694,0 -0.133451,0.327544 -0.555879,0.727875 -0.422429,0.400331 -0.863528,0.727874 -0.980222,0.727874 -0.116694,0 0.133451,-0.327543 0.55588,-0.727874 z m -24.227809,-1.546733 -0.808368,-0.818859 0.95477,0.693297 c 0.897245,0.651527 1.147947,0.94442 0.808367,0.94442 -0.08052,0 -0.510169,-0.368486 -0.954769,-0.818858 z m 0.644711,-0.909843 -1.028737,-1.000828 1.166941,0.882297 c 1.090682,0.824642 1.361539,1.119358 1.028736,1.119358 -0.07601,0 -0.601131,-0.450372 -1.16694,-1.000827 z m -3.97185,-2.745226 c 0.159354,-0.358922 0.396629,-0.560908 0.527279,-0.448855 0.130651,0.112053 2.72e-4,0.405714 -0.289732,0.652587 -0.419088,0.356753 -0.467828,0.314951 -0.237547,-0.203732 z m -1.566606,-0.53021 c -0.527827,-0.577226 -0.512818,-0.590098 0.160214,-0.137408 0.408429,0.274718 0.742599,0.561319 0.742599,0.63689 0,0.299535 -0.348466,0.106747 -0.902813,-0.499482 z m 48.641284,-9.917289 c 0.422428,-0.400331 0.863528,-0.727875 0.980222,-0.727875 0.116694,0 -0.133452,0.327544 -0.55588,0.727875 -0.422428,0.400331 -0.863527,0.727874 -0.980221,0.727874 -0.116694,0 0.133451,-0.327543 0.555879,-0.727874 z m -0.848684,-0.727875 c 0.422428,-0.400331 0.863528,-0.727874 0.980222,-0.727874 0.116694,0 -0.133452,0.327543 -0.55588,0.727874 -0.422428,0.400331 -0.863527,0.727875 -0.980221,0.727875 -0.116694,0 0.133451,-0.327544 0.555879,-0.727875 z m 41.341228,-2.092639 -1.02874,-1.000827 1.16694,0.882297 c 1.09068,0.824641 1.36154,1.119358 1.02874,1.119358 -0.076,0 -0.60114,-0.450373 -1.16694,-1.000828 z m 0.84868,-0.727874 -1.02874,-1.000828 1.16694,0.882297 c 1.09069,0.824642 1.36154,1.119358 1.02874,1.119358 -0.076,0 -0.60113,-0.450372 -1.16694,-1.000827 z m -5.73682,-3.457404 -0.80836,-0.818859 0.95477,0.693297 c 0.52512,0.381312 0.95477,0.749798 0.95477,0.818859 0,0.291241 -0.34151,0.07623 -1.10118,-0.693297 z M 26.745797,61.895544 c -0.527826,-0.577227 -0.512817,-0.590099 0.160213,-0.137408 0.408429,0.274718 0.742598,0.561318 0.742598,0.63689 0,0.299535 -0.348463,0.106746 -0.902811,-0.499482 z m 85.134693,-1.910671 c 0.42243,-0.400331 0.86353,-0.727874 0.98022,-0.727874 0.11669,0 -0.13345,0.327543 -0.55588,0.727874 -0.42243,0.400331 -0.86353,0.727875 -0.98022,0.727875 -0.11669,0 0.13345,-0.327544 0.55588,-0.727875 z m -90.8495,-1.546733 -0.808366,-0.818859 0.954769,0.693297 c 0.897248,0.651528 1.147947,0.944421 0.808367,0.944421 -0.08052,0 -0.510169,-0.368487 -0.95477,-0.818859 z m 0.848684,-0.727874 -0.808366,-0.818859 0.954769,0.693297 c 0.897248,0.651527 1.147947,0.94442 0.808366,0.94442 -0.08052,0 -0.510168,-0.368486 -0.954769,-0.818858 z m 95.517256,-1.000828 c 0.42243,-0.400331 0.86353,-0.727874 0.98023,-0.727874 0.11669,0 -0.13346,0.327543 -0.55588,0.727874 -0.42243,0.400331 -0.86353,0.727875 -0.98022,0.727875 -0.1167,0 0.13345,-0.327544 0.55587,-0.727875 z M 13.433152,56.345501 c 0.422427,-0.400331 0.863526,-0.727874 0.98022,-0.727874 0.116694,0 -0.133451,0.327543 -0.555878,0.727874 -0.422426,0.400331 -0.863525,0.727874 -0.980219,0.727874 -0.116694,0 0.133451,-0.327543 0.555877,-0.727874 z m -0.848684,-0.727874 c 0.422427,-0.400331 0.863526,-0.727875 0.98022,-0.727875 0.116694,0 -0.133451,0.327544 -0.555878,0.727875 -0.422426,0.40033 -0.863525,0.727874 -0.980219,0.727874 -0.116694,0 0.133451,-0.327544 0.555877,-0.727874 z m 3.77876,-1.182796 -0.808366,-0.818859 0.95477,0.693297 c 0.897247,0.651527 1.147947,0.94442 0.808366,0.94442 -0.08052,0 -0.510168,-0.368486 -0.95477,-0.818858 z m 94.880752,-7.694729 c 0,-0.07867 0.29634,-0.240563 0.65855,-0.35977 0.37763,-0.124281 0.54796,-0.06327 0.3993,0.143031 -0.2492,0.345817 -1.05785,0.511495 -1.05785,0.216739 z m -0.0541,-1.585671 c -0.52783,-0.577226 -0.51282,-0.590099 0.16021,-0.137408 0.70685,0.475437 0.93164,0.774298 0.58239,0.774298 -0.0881,0 -0.42229,-0.2866 -0.7426,-0.63689 z m 20.21037,-0.818859 c 0.42243,-0.400331 0.86353,-0.727874 0.98022,-0.727874 0.1167,0 -0.13345,0.327543 -0.55588,0.727874 -0.42243,0.400331 -0.86353,0.727875 -0.98022,0.727875 -0.11669,0 0.13345,-0.327544 0.55588,-0.727875 z m -0.84868,-0.727874 c 0.42242,-0.400331 0.86352,-0.727875 0.98022,-0.727875 0.11669,0 -0.13345,0.327544 -0.55588,0.727875 -0.42243,0.400331 -0.86353,0.727874 -0.98022,0.727874 -0.1167,0 0.13345,-0.327543 0.55588,-0.727874 z m -25.0765,-1.910671 -0.80836,-0.818858 0.95477,0.693296 c 0.89724,0.651527 1.14794,0.944421 0.80836,0.944421 -0.0805,0 -0.51017,-0.368486 -0.95477,-0.818859 z m 0.84869,-0.727874 -0.80837,-0.818859 0.95477,0.693296 c 0.89724,0.651527 1.14795,0.944422 0.80837,0.944422 -0.0805,0 -0.51017,-0.368487 -0.95477,-0.818859 z M 32.104199,39.968326 c 0.422426,-0.400331 0.863525,-0.727875 0.980219,-0.727875 0.116694,0 -0.133451,0.327544 -0.555877,0.727875 -0.422427,0.40033 -0.863525,0.727874 -0.980219,0.727874 -0.116695,0 0.13345,-0.327544 0.555877,-0.727874 z m 0.636513,-1.455749 c -0.382456,-0.211979 -0.434795,-0.355016 -0.131129,-0.358365 0.277961,-0.0031 0.6234,0.158199 0.767642,0.358365 0.3256,0.451837 0.1787,0.451837 -0.636513,0 z M 100.5813,37.511749 c -0.52783,-0.577225 -0.51282,-0.590097 0.16021,-0.137406 0.40843,0.274716 0.7426,0.561316 0.7426,0.63689 0,0.299533 -0.34846,0.106744 -0.90281,-0.499484 z m -0.48337,-1.227956 c 0.28784,-0.248721 0.63025,-0.360542 0.7609,-0.248491 0.13065,0.112052 -0.10486,0.315552 -0.52336,0.452221 -0.60477,0.197503 -0.65351,0.1557 -0.23754,-0.20373 z M 45.046629,27.093116 c 0,-0.07557 0.334169,-0.362174 0.742598,-0.63689 0.673032,-0.452691 0.688041,-0.439819 0.160215,0.137406 -0.554348,0.606228 -0.902813,0.799017 -0.902813,0.499484 z m 6.152959,-3.865903 c 0.422428,-0.400331 0.863527,-0.727875 0.980221,-0.727875 0.116694,0 -0.133451,0.327544 -0.555879,0.727875 -0.422429,0.400331 -0.863528,0.727874 -0.980222,0.727874 -0.116694,0 0.133451,-0.327543 0.55588,-0.727874 z m 26.693227,-7.005792 -0.808367,-0.818859 0.954769,0.693296 c 0.897246,0.651527 1.147947,0.944422 0.808367,0.944422 -0.08052,0 -0.510169,-0.368487 -0.954769,-0.818859 z m -5.742429,-3.457404 c -0.527826,-0.577224 -0.512817,-0.590097 0.160215,-0.137406 0.706847,0.475436 0.931634,0.774297 0.582383,0.774297 -0.08811,0 -0.422283,-0.286601 -0.742598,-0.636891 z m -6.947513,-1.91067 c 0.422428,-0.400331 0.863527,-0.727874 0.980221,-0.727874 0.116694,0 -0.133451,0.327543 -0.555879,0.727874 -0.422429,0.400331 -0.863528,0.727874 -0.980222,0.727874 -0.116694,0 0.133451,-0.327543 0.55588,-0.727874 z M 64.666657,9.9464736 c 0.967491,-0.8901353 1.250587,-0.9857419 1.697368,-0.5732346 0.434,0.4007036 0.429116,0.4429445 -0.02563,0.2215897 -0.338973,-0.1650031 -1.012272,0.062384 -1.697368,0.5732343 l -1.135522,0.846724 1.161152,-1.0683134 z"
       id="path4186"
       inkscape:connector-curvature="0" /><path
       style="fill:#fae4cb"
       d="m 69.845466,99.255171 c -0.158084,-0.219374 0.05888,-0.669746 0.482146,-1.000827 0.71856,-0.562069 0.733531,-0.56081 0.225848,0.019 -0.299047,0.341519 -0.420532,0.791891 -0.269971,1.000827 0.150561,0.208933 0.178266,0.379878 0.06157,0.379878 -0.116694,0 -0.34151,-0.179486 -0.499595,-0.398861 z m -5.107252,-4.423308 -0.808367,-0.818859 0.954769,0.693297 c 0.525123,0.381312 0.954769,0.749798 0.954769,0.818859 0,0.291241 -0.341506,0.07623 -1.101171,-0.693297 z m 8.951498,-1.364764 c 0.422428,-0.400331 0.863527,-0.727875 0.980221,-0.727875 0.116694,0 -0.133451,0.327544 -0.555879,0.727875 -0.422428,0.400331 -0.863528,0.727874 -0.980222,0.727874 -0.116694,0 0.133452,-0.327543 0.55588,-0.727874 z M 58.20123,90.57708 c 0,-0.188352 0.188769,-0.442518 0.419483,-0.564808 0.240543,-0.127502 0.311679,0.0186 0.166771,0.342457 -0.282098,0.630492 -0.586254,0.74585 -0.586254,0.222351 z M 44.794141,79.182562 43.985774,78.363704 44.940543,79.057 c 0.897246,0.651528 1.147947,0.944421 0.808368,0.944421 -0.08052,0 -0.51017,-0.368486 -0.95477,-0.818859 z m -4.893743,-4.185278 c -0.527826,-0.577226 -0.512817,-0.590099 0.160213,-0.137408 0.408429,0.274718 0.742598,0.561319 0.742598,0.63689 0,0.299535 -0.348463,0.106747 -0.902811,-0.499482 z m -3.593097,-4.913153 -0.808366,-0.818858 0.954769,0.693296 c 0.525123,0.381312 0.95477,0.749799 0.95477,0.818859 0,0.291241 -0.341508,0.07623 -1.101173,-0.693297 z M 102.75714,69.67377 c 0,-0.07557 0.33417,-0.362172 0.7426,-0.63689 0.67303,-0.45269 0.68804,-0.439818 0.16021,0.137408 -0.55435,0.606229 -0.90281,0.799017 -0.90281,0.499482 z m -71.117601,-3.592948 -0.808366,-0.818859 0.954769,0.693297 c 0.897248,0.651528 1.147948,0.944421 0.808367,0.944421 -0.08052,0 -0.510168,-0.368487 -0.95477,-0.818859 z M 106.78839,64.35212 c 0.42242,-0.400331 0.86352,-0.727874 0.98022,-0.727874 0.11669,0 -0.13345,0.327543 -0.55588,0.727874 -0.42243,0.400331 -0.86353,0.727875 -0.98022,0.727875 -0.1167,0 0.13345,-0.327544 0.55588,-0.727875 z m 22.4498,-1.91067 -0.80836,-0.818859 0.95477,0.693297 c 0.52512,0.381311 0.95476,0.749798 0.95476,0.818858 0,0.291241 -0.3415,0.07623 -1.10117,-0.693296 z M 7.7045356,59.802905 c 0.5481417,-0.500414 1.0920984,-0.909843 1.2087925,-0.909843 0.116694,0 -0.2363089,0.409429 -0.7844505,0.909843 -0.5481416,0.500413 -1.0920984,0.909843 -1.2087924,0.909843 -0.116694,0 0.2363088,-0.40943 0.7844504,-0.909843 z M 124.34445,58.256171 c -0.52783,-0.577226 -0.51282,-0.590098 0.16021,-0.137408 0.70685,0.475437 0.93164,0.774299 0.58239,0.774299 -0.0881,0 -0.42229,-0.286601 -0.7426,-0.636891 z M 115.68212,57.4131 c -0.15384,-0.213482 -0.1887,-0.466204 -0.0775,-0.561603 0.11123,-0.0954 0.31532,0.07927 0.45352,0.38815 0.28693,0.641298 0.0424,0.7541 -0.37605,0.173453 z M 18.100914,52.342191 c 0.422426,-0.400331 0.863525,-0.727874 0.980219,-0.727874 0.116694,0 -0.133451,0.327543 -0.555877,0.727874 -0.422427,0.400331 -0.863525,0.727875 -0.980219,0.727875 -0.116695,0 0.13345,-0.327544 0.555877,-0.727875 z m -6.609417,-2.092639 -1.028739,-1.000827 1.166941,0.882297 c 1.090681,0.824641 1.361538,1.119358 1.028738,1.119358 -0.07601,0 -0.601134,-0.450373 -1.16694,-1.000828 z m 104.388123,-1.091811 -1.02874,-1.000828 1.16694,0.882297 c 1.09069,0.824642 1.36154,1.119358 1.02874,1.119358 -0.076,0 -0.60113,-0.450372 -1.16694,-1.000827 z m 10.00415,-1.546734 c 0.42243,-0.400331 0.86353,-0.727874 0.98023,-0.727874 0.11669,0 -0.13346,0.327543 -0.55588,0.727874 -0.42243,0.400331 -0.86353,0.727875 -0.98023,0.727875 -0.11669,0 0.13346,-0.327544 0.55588,-0.727875 z M 6.6033631,46.064274 5.7949968,45.245415 6.7497662,45.938712 c 0.5251232,0.381312 0.9547694,0.749798 0.9547694,0.818859 0,0.291241 -0.3415078,0.07623 -1.1011725,-0.693297 z M 136.06798,40.332263 c 0.42243,-0.400331 0.86353,-0.727875 0.98022,-0.727875 0.1167,0 -0.13345,0.327544 -0.55588,0.727875 -0.42242,0.400331 -0.86352,0.727874 -0.98022,0.727874 -0.11669,0 0.13345,-0.327543 0.55588,-0.727874 z M 36.55979,36.191547 c 0,-0.07557 0.334169,-0.362174 0.742598,-0.63689 0.67303,-0.452691 0.688039,-0.439819 0.160212,0.137406 -0.554347,0.606228 -0.90281,0.799017 -0.90281,0.499484 z m 59.57973,-2.501139 -0.808368,-0.818858 0.95477,0.693296 c 0.897245,0.651527 1.147947,0.944421 0.808367,0.944421 -0.08052,0 -0.510169,-0.368486 -0.954769,-0.818859 z M 40.378867,31.096426 c 0,-0.07557 0.33417,-0.362175 0.742599,-0.636891 0.67303,-0.45269 0.688039,-0.439818 0.160212,0.137407 -0.554347,0.606228 -0.902811,0.799016 -0.902811,0.499484 z m 47.04783,-6.686417 c -0.527826,-0.577225 -0.512817,-0.590097 0.160214,-0.137406 0.706848,0.475436 0.931635,0.774296 0.582384,0.774296 -0.08811,0 -0.422284,-0.286601 -0.742598,-0.63689 z m -4.86612,-4.185278 -0.808368,-0.818859 0.95477,0.693296 c 0.897245,0.651527 1.147947,0.944421 0.808367,0.944421 -0.08052,0 -0.510169,-0.368486 -0.954769,-0.818858 z m -6.536984,-4.240435 c 0,-0.377928 0.807187,-0.92503 1.046287,-0.709161 0.07763,0.07008 -0.12603,0.338599 -0.452573,0.596698 -0.326544,0.258098 -0.593714,0.308707 -0.593714,0.112463 z M 59.686427,14.128782 c 0.422428,-0.400331 0.863527,-0.727874 0.980221,-0.727874 0.116694,0 -0.133451,0.327543 -0.555879,0.727874 -0.422428,0.400331 -0.863528,0.727875 -0.980222,0.727875 -0.116694,0 0.133452,-0.327544 0.55588,-0.727875 z m 7.597839,-5.5500427 -0.808368,-0.8188588 0.95477,0.6932959 c 0.525123,0.3813127 0.954769,0.7497992 0.954769,0.8188588 0,0.2912419 -0.341506,0.076229 -1.101171,-0.6932959 z"
       id="path4184"
       inkscape:connector-curvature="0" /><path
       style="fill:#fce1c1"
       d="m 1.3394061,62.428008 0,-39.773586 1.2068331,1.122306 c 0.8340773,0.775658 1.3607992,0.969897 1.7053134,0.628862 0.3445142,-0.341033 -0.028242,-0.95124 -1.2068331,-1.975602 l -1.7053134,-1.482158 0,-21.8800725 0,-21.8800735 37.7619759,0 c 35.3947,0 37.802946,0.05215 38.415504,0.831842 0.622407,0.79223 0.677514,0.79223 1.157228,0 0.473312,-0.781665 2.935326,-0.831842 40.815746,-0.831842 l 40.31205,0 0,18.1556708 0,18.1556712 -1.28552,1.32823 c -1.39488,1.441231 -1.16969,2.372561 0.34697,1.434962 0.92868,-0.574112 0.93855,-0.125686 0.93855,42.679586 l 0,43.259786 -42.54814,0 c -37.210743,0 -42.514203,-0.0875 -42.277638,-0.69778 0.455234,-1.17434 -0.656039,-1.36176 -1.794862,-0.30269 -1.073583,0.99838 -1.149626,1.00047 -36.458845,1.00047 l -35.3830189,0 0,-39.773582 z M 79.753445,100.00007 c 0.166779,-0.165092 0.08513,-0.703572 -0.181435,-1.196622 -0.355321,-0.657216 -0.28674,-1.176181 0.256993,-1.944617 1.476423,-2.086601 0.357208,-2.468245 -1.779342,-0.60674 -1.591554,1.38666 -1.606536,1.546479 -0.276441,2.948004 1.088989,1.147465 1.472626,1.302445 1.980225,0.799975 z m -5.425252,-5.805551 c 0,-1.218796 -1.696865,-2.637124 -2.699404,-2.256297 -0.709922,0.269669 -0.639079,0.49052 0.552146,1.721332 1.576582,1.628969 2.147258,1.771148 2.147258,0.534965 z m 10.570141,-2.694326 c 0.767333,-0.808535 0.976167,-1.350645 0.646161,-1.677316 -0.596174,-0.590151 -3.053082,1.174984 -3.053082,2.193447 0,1.050855 1.154797,0.803223 2.406921,-0.516131 z M 69.04611,88.688959 c 0,-1.018465 -2.456909,-2.783599 -3.053082,-2.193449 -0.330006,0.326673 -0.121172,0.868781 0.646161,1.677316 1.252123,1.319354 2.406921,1.566986 2.406921,0.516133 z m 20.977337,-2.256378 c 1.225967,-1.140099 1.464775,-2.293835 0.474793,-2.293835 -0.916154,0 -2.884368,2.211806 -2.506618,2.81684 0.45423,0.727543 0.776216,0.644658 2.031825,-0.523005 z M 63.764026,83.508595 c 0,-0.346577 -0.543075,-1.135183 -1.206831,-1.752452 -0.923514,-0.858831 -1.339122,-0.991355 -1.770343,-0.564492 -0.43122,0.426862 -0.297342,0.838273 0.570254,1.752457 1.229386,1.295401 2.40692,1.571568 2.40692,0.564487 z m 31.774738,-2.533218 c 0.991903,-0.888587 1.167873,-2.065349 0.308852,-2.065349 -0.659381,0 -2.792037,1.878688 -2.792037,2.459547 0,0.676525 1.565364,0.428023 2.483185,-0.394198 z M 57.527538,76.777301 c -1.252123,-1.319354 -2.40692,-1.566986 -2.40692,-0.516133 0,1.018465 2.456907,2.783599 3.053082,2.193448 0.330006,-0.326671 0.121171,-0.86878 -0.646162,-1.677315 z m 43.060072,-1.277496 c 1.08982,-1.013487 1.49227,-2.293834 0.72103,-2.293834 -0.65501,0 -3.006766,2.658157 -2.657572,3.003819 0.499181,0.494137 0.734507,0.407864 1.936542,-0.709985 z M 52.914354,72.803369 c 0.138247,-0.221426 -0.382831,-1.004047 -1.157948,-1.739157 -1.230212,-1.166712 -1.44902,-1.234111 -1.721825,-0.530373 -0.547243,1.411674 2.108594,3.504721 2.879773,2.26953 z m 54.261396,-4.423514 c -0.77118,-1.23519 -3.42701,0.857856 -2.87977,2.269529 0.27281,0.703738 0.49162,0.636341 1.72183,-0.530372 0.77511,-0.735111 1.29619,-1.51773 1.15794,-1.739157 z M 47.437587,67.347103 c 0,-0.346579 -0.543075,-1.135185 -1.206833,-1.752454 -0.883948,-0.82204 -1.349372,-0.981206 -1.739595,-0.594928 -0.390223,0.386283 -0.201652,0.855148 0.704817,1.752457 1.354821,1.341133 2.241611,1.576488 2.241611,0.594925 z m 64.324303,-3.01632 c 1.40789,-1.771757 0.48103,-2.651041 -1.17304,-1.112824 -0.66376,0.617269 -1.20683,1.405874 -1.20683,1.752452 0,1.056758 1.31209,0.704109 2.37987,-0.639628 z M 42.155505,61.688397 c 0,-0.869949 -1.525554,-2.26723 -2.475371,-2.26723 -1.199273,0 -1.116263,0.423028 0.387999,1.977274 1.229376,1.270232 2.087372,1.389413 2.087372,0.289956 z m 117.166205,0.02125 c 0,-0.783771 -1.95204,-2.763816 -2.72473,-2.763816 -0.95052,0 -0.77003,0.986464 0.40749,2.22722 1.1196,1.179713 2.31724,1.45706 2.31724,0.53661 z m -42.41599,-2.562893 c 0.90646,-0.89731 1.09503,-1.366173 0.70481,-1.752457 -0.39023,-0.386279 -0.85564,-0.227111 -1.7396,0.594928 -1.2363,1.14971 -1.60101,2.382604 -0.70481,2.382604 0.27611,0 1.05892,-0.551284 1.7396,-1.225075 z M 36.873421,56.365971 c 0,-1.018465 -2.456909,-2.783599 -3.053081,-2.193447 -0.330009,0.326671 -0.121172,0.868779 0.646159,1.677316 1.252122,1.319352 2.406922,1.566984 2.406922,0.516131 z m 116.948089,0.16798 c 0.37774,-0.605035 -1.59046,-2.816839 -2.50663,-2.816839 -0.9505,0 -0.77002,0.986464 0.40751,2.22722 1.15673,1.218842 1.62428,1.350169 2.09912,0.589619 z M 5.6611106,51.726829 c 0,-0.777678 -1.302007,-0.356014 -2.367552,0.766748 -1.62973,1.717244 -0.7402302,2.56702 0.9796579,0.935912 0.7633417,-0.72394 1.3878941,-1.490137 1.3878941,-1.70266 z M 122.3531,53.473148 c 0.76734,-0.808535 0.97618,-1.350643 0.64616,-1.677316 -0.59616,-0.59015 -3.05308,1.174984 -3.05308,2.193449 0,1.050853 1.1548,0.80322 2.40692,-0.516133 z M 31.373213,51.305232 c 0.377749,-0.605034 -1.590466,-2.816839 -2.50662,-2.816839 -0.950513,0 -0.770024,0.986464 0.407501,2.22722 1.15673,1.218842 1.624275,1.350169 2.099119,0.589619 z m 117.070937,-0.28836 c 0.34919,-0.34566 -2.00257,-3.003817 -2.65758,-3.003817 -0.67828,0 -0.42275,1.55338 0.40436,2.458096 0.82171,0.898803 1.68525,1.107951 2.25322,0.545721 z m -20.96593,-2.611336 c 1.22596,-1.140097 1.46478,-2.293833 0.47479,-2.293833 -0.91615,0 -2.88437,2.211804 -2.50662,2.816838 0.45423,0.727543 0.77622,0.644658 2.03183,-0.523005 z M 9.9887896,47.769093 C 10.856387,46.854908 10.99026,46.443497 10.559042,46.016634 10.127825,45.589771 9.7122159,45.722296 8.7887012,46.581128 7.4800772,47.798092 7.2010938,48.96373 8.2184485,48.96373 c 0.350119,0 1.1467724,-0.537587 1.7703411,-1.194637 z m 15.8402754,-2.24219 c 0,-0.766306 -1.479768,-2.26723 -2.235276,-2.26723 -0.955277,0 -0.784968,0.980495 0.384319,2.212571 1.013585,1.068013 1.850957,1.09274 1.850957,0.05466 z m 117.166215,-0.04535 c 0,-0.346578 -0.54308,-1.135184 -1.20684,-1.752453 -0.88395,-0.82204 -1.34938,-0.981207 -1.73959,-0.594928 -0.39022,0.386283 -0.20165,0.855148 0.70481,1.752457 1.35482,1.341133 2.24162,1.576488 2.24162,0.594924 z m -9.96394,-2.605518 c 0.99162,-0.842993 1.10919,-1.993055 0.20375,-1.993055 -0.92241,0 -2.88315,2.213745 -2.50177,2.824592 0.34201,0.547813 0.9226,0.337728 2.29802,-0.831542 z M 15.113902,42.701479 c 1.225965,-1.140097 1.464774,-2.293833 0.474795,-2.293833 -0.916155,0 -2.88437,2.211805 -2.50662,2.816838 0.454232,0.727543 0.776216,0.644658 2.031825,-0.523005 z m 5.43308,-2.473302 c 0,-0.36014 -0.321941,-0.91929 -0.715423,-1.242553 -0.620244,-0.509558 -0.55636,-0.711605 0.480189,-1.518714 1.198728,-0.933393 1.545896,-2.017578 0.793457,-2.477914 -0.221187,-0.13532 -1.20044,0.563224 -2.176119,1.552317 l -1.773964,1.798346 1.010499,1.271662 c 1.079587,1.358607 2.381361,1.695811 2.381361,0.616856 z M 137.51977,39.23416 c -0.18128,-0.714999 0.0447,-1.352793 0.68138,-1.923171 0.95966,-0.859711 1.29154,-2.132063 0.55613,-2.132063 -0.21808,0 -0.90399,0.534757 -1.52428,1.188347 -0.62028,0.653589 -1.52229,1.188345 -2.00445,1.188345 -1.18982,0 -1.10425,0.425849 0.39727,1.977273 1.42156,1.468795 2.30671,1.329178 1.89395,-0.298731 z M 15.264898,35.090728 c 0,-0.783785 -1.952045,-2.763829 -2.724745,-2.763829 -0.950511,0 -0.770024,0.986463 0.407502,2.22722 1.119596,1.179713 2.317243,1.457059 2.317243,0.536609 z M 132.4311,34.548777 c 0,-0.346579 -0.54307,-1.135184 -1.20682,-1.752453 -0.92352,-0.858832 -1.33913,-0.991356 -1.77035,-0.564492 -0.43121,0.426863 -0.29734,0.838272 0.57026,1.752457 1.22938,1.2954 2.40691,1.571567 2.40691,0.564488 z m 11.27087,-2.68317 c 1.19122,-1.230812 1.26206,-1.451664 0.55215,-1.721332 -1.00254,-0.380827 -2.69941,1.037501 -2.69941,2.256297 0,1.236182 0.57068,1.094004 2.14726,-0.534965 z m -118.023901,-0.0969 c 1.089818,-1.013488 1.492272,-2.293834 0.721024,-2.293834 -0.655009,0 -3.006763,2.658157 -2.657572,3.003817 0.499181,0.494138 0.734508,0.407865 1.936548,-0.709983 z M 9.0284109,28.292818 C 7.7762892,26.973465 6.6214894,26.725834 6.6214894,27.776687 c 0,1.018464 2.4569082,2.783599 3.0530806,2.193447 0.330009,-0.326671 0.1211714,-0.86878 -0.6461591,-1.677316 z M 126.93089,29.439681 c 0.37776,-0.605034 -1.59045,-2.816839 -2.50661,-2.816839 -0.95051,0 -0.77003,0.986465 0.4075,2.22722 1.15673,1.218843 1.62428,1.350169 2.09911,0.589619 z m -94.664682,-4.79093 c -0.77118,-1.235188 -3.427012,0.857859 -2.879773,2.269533 0.272806,0.703738 0.491614,0.636339 1.721827,-0.530373 0.775118,-0.73511 1.296193,-1.51773 1.157946,-1.73916 z m 116.977502,1.730128 c 0.86759,-0.914184 1.00147,-1.325594 0.57025,-1.752457 -0.43121,-0.426862 -0.84683,-0.29434 -1.77033,0.564492 -0.66376,0.617269 -1.20684,1.405875 -1.20684,1.752453 0,1.00708 1.17754,0.730913 2.40692,-0.564488 z m -27.85696,-2.762876 c 0,-0.346582 -0.53457,-1.127282 -1.18794,-1.734887 -1.05973,-0.985503 -1.22149,-1.018188 -1.4988,-0.302823 -0.18242,0.47054 0.0415,1.187445 0.54207,1.734887 0.9766,1.068223 2.14467,1.233154 2.14467,0.302823 z m 33.112,-2.540984 c 1.40788,-1.771757 0.48102,-2.651039 -1.17304,-1.112824 -0.66376,0.617269 -1.20684,1.405873 -1.20684,1.752456 0,1.056755 1.3121,0.704106 2.37988,-0.639632 z M 36.879396,20.674821 c 0.867597,-0.914184 1.00147,-1.325594 0.570252,-1.752456 -0.431218,-0.42686 -0.846826,-0.29434 -1.770341,0.564492 -1.308624,1.216969 -1.587607,2.382604 -0.570253,2.382604 0.350119,0 1.146773,-0.537587 1.770342,-1.19464 z m 79.225274,-2.287537 c 0,-0.346581 -0.54308,-1.135187 -1.20684,-1.752456 -1.65406,-1.538215 -2.58091,-0.658932 -1.17302,1.112825 1.06776,1.343739 2.37986,1.696387 2.37986,0.639631 z M 42.624688,14.759746 c 0.645344,-1.193655 0.619942,-1.446369 -0.145386,-1.446369 -0.917194,0 -2.884169,2.212124 -2.505816,2.818125 0.419089,0.671251 1.984582,-0.138748 2.651202,-1.371756 z m 67.979772,-1.481558 c 0.37775,-0.605038 -1.59046,-2.81684 -2.50662,-2.81684 -0.90015,0 -0.79174,0.627213 0.35865,2.074918 1.07231,1.349442 1.64514,1.547302 2.14797,0.741922 z M 47.443562,9.7420462 C 48.273988,8.8670278 48.434784,8.4063066 48.044561,8.0200252 47.654337,7.6337451 47.180688,7.8204115 46.274219,8.7177211 45.593551,9.3915127 45.03664,10.166423 45.03664,10.439742 c 0,0.887143 1.245475,0.526116 2.406922,-0.6976958 z M 105.5405,7.6982507 c 0,-0.2125232 -0.62455,-0.97872 -1.38789,-1.7026594 -1.71989,-1.6311099 -2.60939,-0.7813319 -0.97966,0.9359101 1.06555,1.1227606 2.36755,1.5444268 2.36755,0.7667493 z M 52.568676,4.674433 c 1.225966,-1.140099 1.464774,-2.2938324 0.474791,-2.2938324 -0.916153,0 -2.884368,2.2118029 -2.506618,2.8168402 0.454231,0.7275402 0.776218,0.6446591 2.031827,-0.5230078 z M 100.01584,2.3845855 c 0.32426,-0.5193651 -1.816616,-2.85601276 -2.616732,-2.85601276 -0.827011,0 -0.570182,1.05524571 0.542067,2.22722006 1.141213,1.2024888 1.624947,1.3490997 2.074665,0.6287927 z M 58.225662,-0.92906084 c 0.503128,-0.55033006 0.724773,-1.26361686 0.540423,-1.73915966 -0.272805,-0.7037379 -0.491613,-0.6363379 -1.721824,0.5303729 -1.388213,1.3165569 -1.499588,2.14175809 -0.289064,2.14175809 0.339638,0 1.001348,-0.41983769 1.470465,-0.93297133 z M 94.496147,-3.1671921 c 0,-0.9848026 -1.36621,-2.5329531 -2.235276,-2.5329531 -0.959068,0 -0.783473,0.9820689 0.39822,2.2272188 1.23391,1.3001628 1.837056,1.4005431 1.837056,0.3057343 z M 63.132842,-6.2583418 c 1.050735,-0.9771449 1.499717,-2.2938325 0.78218,-2.2938325 -0.604376,0 -2.551943,2.0584342 -2.551943,2.6972172 0,0.8959931 0.493467,0.7835158 1.769763,-0.4033847 z m 26.081223,-2.4486431 c 0,-0.3465825 -0.543076,-1.1351868 -1.206832,-1.7524561 -0.923515,-0.858832 -1.339123,-0.991352 -1.770343,-0.56449 -0.431219,0.42686 -0.297343,0.83827 0.570254,1.752454 1.229385,1.2954034 2.406921,1.5715689 2.406921,0.5644921 z M 69.720983,-13.378294 c -0.77118,-1.235187 -3.427016,0.857859 -2.879773,2.269533 0.272805,0.703738 0.491613,0.636338 1.721825,-0.530373 0.775116,-0.735108 1.296194,-1.51773 1.157948,-1.73916 z m 14.210998,-0.490798 c 0,-0.783783 -1.952047,-2.763829 -2.724744,-2.763829 -0.950515,0 -0.770027,0.986465 0.407499,2.22722 1.119599,1.179714 2.317245,1.457056 2.317245,0.536609 z m -9.597815,-3.483132 c 0.867597,-0.914184 1.001474,-1.325594 0.570255,-1.752455 -0.431221,-0.426861 -0.846829,-0.29434 -1.770343,0.564492 -0.663757,0.617268 -1.206831,1.405873 -1.206831,1.752455 0,1.007077 1.177534,0.730911 2.406919,-0.564492 z m 3.361326,-3.314775 c -1.252122,-1.319357 -2.406921,-1.566989 -2.406921,-0.516134 0,1.018462 2.456909,2.783599 3.053084,2.19345 0.330004,-0.326675 0.12117,-0.868782 -0.646163,-1.677316 z"
       id="path4182"
       inkscape:connector-curvature="0" /></g></svg>