<?xml version="1.0" encoding="UTF-8" standalone="no"?>
<!-- Created with Inkscape (http://www.inkscape.org/) -->

<svg
   xmlns:dc="http://purl.org/dc/elements/1.1/"
   xmlns:cc="http://creativecommons.org/ns#"
   xmlns:rdf="http://www.w3.org/1999/02/22-rdf-syntax-ns#"
   xmlns:svg="http://www.w3.org/2000/svg"
   xmlns="http://www.w3.org/2000/svg"
   xmlns:sodipodi="http://sodipodi.sourceforge.net/DTD/sodipodi-0.dtd"
   xmlns:inkscape="http://www.inkscape.org/namespaces/inkscape"
   width="210mm"
   height="297mm"
   viewBox="0 0 744.09448819 1052.3622047"
   id="svg2"
   version="1.1"
   inkscape:version="0.91 r13725"
   sodipodi:docname="dog_nice.svg">
  <defs
     id="defs4">
    <clipPath
       id="clipPath4180"
       clipPathUnits="userSpaceOnUse">
      <path
         inkscape:connector-curvature="0"
         id="path4182"
         d="M 0,800 800,800 800,0 0,0 0,800 Z" />
    </clipPath>
    <clipPath
       id="clipPath4204"
       clipPathUnits="userSpaceOnUse">
      <path
         inkscape:connector-curvature="0"
         id="path4206"
         d="M 0,800 800,800 800,0 0,0 0,800 Z" />
    </clipPath>
    <clipPath
       id="clipPath4240"
       clipPathUnits="userSpaceOnUse">
      <path
         inkscape:connector-curvature="0"
         id="path4242"
         d="M 0,800 800,800 800,0 0,0 0,800 Z" />
    </clipPath>
    <clipPath
       id="clipPath4268"
       clipPathUnits="userSpaceOnUse">
      <path
         inkscape:connector-curvature="0"
         id="path4270"
         d="M 0,800 800,800 800,0 0,0 0,800 Z" />
    </clipPath>
    <clipPath
       id="clipPath4312"
       clipPathUnits="userSpaceOnUse">
      <path
         inkscape:connector-curvature="0"
         id="path4314"
         d="M 0,800 800,800 800,0 0,0 0,800 Z" />
    </clipPath>
    <clipPath
       id="clipPath4340"
       clipPathUnits="userSpaceOnUse">
      <path
         inkscape:connector-curvature="0"
         id="path4342"
         d="M 0,800 800,800 800,0 0,0 0,800 Z" />
    </clipPath>
    <clipPath
       id="clipPath4368"
       clipPathUnits="userSpaceOnUse">
      <path
         inkscape:connector-curvature="0"
         id="path4370"
         d="M 0,800 800,800 800,0 0,0 0,800 Z" />
    </clipPath>
    <clipPath
       id="clipPath4400"
       clipPathUnits="userSpaceOnUse">
      <path
         inkscape:connector-curvature="0"
         id="path4402"
         d="M 0,800 800,800 800,0 0,0 0,800 Z" />
    </clipPath>
    <clipPath
       id="clipPath4440"
       clipPathUnits="userSpaceOnUse">
      <path
         inkscape:connector-curvature="0"
         id="path4442"
         d="M 0,800 800,800 800,0 0,0 0,800 Z" />
    </clipPath>
  </defs>
  <sodipodi:namedview
     id="base"
     pagecolor="#ffffff"
     bordercolor="#666666"
     borderopacity="1.0"
     inkscape:pageopacity="0.0"
     inkscape:pageshadow="2"
     inkscape:zoom="0.49497475"
     inkscape:cx="345.60282"
     inkscape:cy="821.19606"
     inkscape:document-units="px"
     inkscape:current-layer="g4438"
     showgrid="false"
     inkscape:window-width="1366"
     inkscape:window-height="706"
     inkscape:window-x="-8"
     inkscape:window-y="-8"
     inkscape:window-maximized="1" />
  <metadata
     id="metadata7">
    <rdf:RDF>
      <cc:Work
         rdf:about="">
        <dc:format>image/svg+xml</dc:format>
        <dc:type
           rdf:resource="http://purl.org/dc/dcmitype/StillImage" />
        <dc:title></dc:title>
      </cc:Work>
    </rdf:RDF>
  </metadata>
  <g
     inkscape:label="Layer 1"
     inkscape:groupmode="layer"
     id="layer1">
    <g
       transform="matrix(1.25,0,0,-1.25,-122.85715,1015.2194)"
       inkscape:label="22022-NU3YPJ"
       id="g4144">
      <path
         inkscape:connector-curvature="0"
         id="path4146"
         style="fill:#f9e9d9;fill-opacity:1;fill-rule:nonzero;stroke:none"
         d="M 0,0 800,0 800,800 0,800 0,0 Z" />
      <g
         transform="translate(287,484)"
         id="g4148">
        <path
           inkscape:connector-curvature="0"
           id="path4150"
           style="fill:#7b3f01;fill-opacity:1;fill-rule:nonzero;stroke:none"
           d="m 0,0 -2,0 0,184 -92,0 0,2 94,0 L 0,0 Z" />
      </g>
      <path
         inkscape:connector-curvature="0"
         id="path4152"
         style="fill:#7b3f01;fill-opacity:1;fill-rule:nonzero;stroke:none"
         d="m 239,424 -46,0 0,2 46,0 0,-2 z" />
      <g
         transform="translate(228,193)"
         id="g4154">
        <path
           inkscape:connector-curvature="0"
           id="path4156"
           style="fill:#7b3f01;fill-opacity:1;fill-rule:nonzero;stroke:none"
           d="m 0,0 -35,0 0,2 33,0 0,133 29,0 0,-2 L 0,133 0,0 Z" />
      </g>
      <g
         transform="translate(326,193)"
         id="g4158">
        <path
           inkscape:connector-curvature="0"
           id="path4160"
           style="fill:#7b3f01;fill-opacity:1;fill-rule:nonzero;stroke:none"
           d="m 0,0 -34,0 0,102 2,0 L -32,2 0,2 0,0 Z" />
      </g>
      <g
         transform="translate(586,193)"
         id="g4162">
        <path
           inkscape:connector-curvature="0"
           id="path4164"
           style="fill:#7b3f01;fill-opacity:1;fill-rule:nonzero;stroke:none"
           d="m 0,0 -81,0 0,164 -34,0 0,2 36,0 L -79,2 0,2 0,0 Z" />
      </g>
      <path
         inkscape:connector-curvature="0"
         id="path4166"
         style="fill:#7b3f01;fill-opacity:1;fill-rule:nonzero;stroke:none"
         d="m 584,421 -78,0 0,2 78,0 0,-2 z" />
      <g
         transform="translate(507,528)"
         id="g4168">
        <path
           inkscape:connector-curvature="0"
           id="path4170"
           style="fill:#7b3f01;fill-opacity:1;fill-rule:nonzero;stroke:none"
           d="M 0,0 -2,0 -2,28.001 71,27.9 71,114 73,114 73,25.897 0,25.999 0,0 Z" />
      </g>
      <g
         transform="translate(468,528)"
         id="g4172">
        <path
           inkscape:connector-curvature="0"
           id="path4174"
           style="fill:#7b3f01;fill-opacity:1;fill-rule:nonzero;stroke:none"
           d="m 0,0 -2,0 0,62 -75,0 0,18 2,0 0,-16 75,0 0,-64 z" />
      </g>
      <g
         id="g4176">
        <g
           clip-path="url(#clipPath4180)"
           id="g4178">
          <g
             transform="translate(440.3545,670)"
             id="g4184">
            <path
               inkscape:connector-curvature="0"
               id="path4186"
               style="fill:#3e1f0d;fill-opacity:1;fill-rule:nonzero;stroke:none"
               d="m 0,0 c 0,-26.705 -21.648,-48.354 -48.354,-48.354 -26.706,0 -48.355,21.649 -48.355,48.354 0,26.705 21.649,48.354 48.355,48.354 C -21.648,48.354 0,26.705 0,0" />
          </g>
        </g>
      </g>
      <text
         id="text4188"
         style="font-variant:normal;font-weight:bold;font-stretch:normal;font-size:15px;font-family:'Open Sans';-inkscape-font-specification:OpenSans-Bold;writing-mode:lr-tb;fill:#3e1f0d;fill-opacity:1;fill-rule:nonzero;stroke:none"
         transform="matrix(1,0,0,-1,450.5869,702.3418)">
        <tspan
           id="tspan4190"
           sodipodi:role="line"
           y="0"
           x="0 9.5550003 19.41 26.865 33.375 42.66 57.389999 61.290001 67.800003 72.375 78.885002 83.459999">Custom title</tspan>
      </text>
      <text
         id="text4192"
         style="font-variant:normal;font-weight:300;font-stretch:normal;font-size:12px;font-family:'Open Sans Light';-inkscape-font-specification:OpenSans-Light;writing-mode:lr-tb;fill:#3e1f0d;fill-opacity:1;fill-rule:nonzero;stroke:none"
         transform="matrix(1,0,0,-1,450.5869,683.4419)">
        <tspan
           id="tspan4194"
           sodipodi:role="line"
           y="0"
           x="0 6.1560001 13.188 17.856001 24.444 35.040001 38.16 40.872002 48.012001 53.604 60.683998 71.279999 74.400002 81.540001 88.571999 91.283997 98.316002 102.984 106.104 111.696 114.408 118.428">Lorem ipsum dolor sit</tspan>
        <tspan
           id="tspan4196"
           sodipodi:role="line"
           y="14.4"
           x="0 6.3600001 16.955999 23.544001 27.563999 30.143999 33.264 38.964001 45.995998 53.076 58.667999 65.255997 70.956001 74.975998 81.564003 85.584 92.664001 97.332001">amet, consectetur</tspan>
        <tspan
           id="tspan4198"
           sodipodi:role="line"
           y="28.799999"
           x="0 6.3600001 13.5 16.212 23.351999 26.063999 31.656 37.355999 40.068001 47.147999 53.424 56.543999 63.132 65.844002 68.556 72.575996">adipiscing elit.</tspan>
      </text>
      <g
         id="g4200">
        <g
           clip-path="url(#clipPath4204)"
           id="g4202">
          <g
             transform="translate(389.2261,695.9229)"
             id="g4208">
            <path
               inkscape:connector-curvature="0"
               id="path4210"
               style="fill:#ffffff;fill-opacity:1;fill-rule:nonzero;stroke:none"
               d="m 0,0 c -5.822,-0.543 -11.506,-3.049 -15.973,-7.513 -4.466,-4.464 -6.97,-10.147 -7.512,-15.976 6.393,-0.742 13.191,-4.01 18.772,-9.59 5.583,-5.582 8.854,-12.385 9.589,-18.773 5.839,0.542 11.509,3.046 15.979,7.509 4.465,4.461 6.967,10.147 7.506,15.975 -6.378,0.741 -13.188,4.009 -18.768,9.59 C 4.017,-13.197 0.745,-6.393 0,0" />
          </g>
          <g
             transform="translate(417.6914,670.7837)"
             id="g4212">
            <path
               inkscape:connector-curvature="0"
               id="path4214"
               style="fill:#ffffff;fill-opacity:1;fill-rule:nonzero;stroke:none"
               d="m 0,0 c -0.189,6.402 -2.723,12.744 -7.603,17.631 -4.882,4.887 -11.232,7.41 -17.634,7.608 0.719,-5.591 3.688,-11.598 8.665,-16.576 C -11.595,3.685 -5.595,0.721 0,0" />
          </g>
          <g
             transform="translate(365.646,669.207)"
             id="g4216">
            <path
               inkscape:connector-curvature="0"
               id="path4218"
               style="fill:#ffffff;fill-opacity:1;fill-rule:nonzero;stroke:none"
               d="m 0,0 c 0.188,-6.399 2.722,-12.743 7.607,-17.626 4.882,-4.882 11.224,-7.418 17.625,-7.604 -0.72,5.584 -3.685,11.586 -8.665,16.564 C 11.594,-3.689 5.587,-0.725 0,0" />
          </g>
          <g
             transform="translate(702.3545,670)"
             id="g4220">
            <path
               inkscape:connector-curvature="0"
               id="path4222"
               style="fill:#fbd10f;fill-opacity:1;fill-rule:nonzero;stroke:none"
               d="m 0,0 c 0,-26.705 -21.648,-48.354 -48.354,-48.354 -26.706,0 -48.355,21.649 -48.355,48.354 0,26.705 21.649,48.354 48.355,48.354 C -21.648,48.354 0,26.705 0,0" />
          </g>
        </g>
      </g>
      <text
         id="text4224"
         style="font-variant:normal;font-weight:bold;font-stretch:normal;font-size:15px;font-family:'Open Sans';-inkscape-font-specification:OpenSans-Bold;writing-mode:lr-tb;fill:#3e1f0d;fill-opacity:1;fill-rule:nonzero;stroke:none"
         transform="matrix(1,0,0,-1,608.1455,588.8291)">
        <tspan
           id="tspan4226"
           sodipodi:role="line"
           y="0"
           x="0 9.5550003 19.41 26.865 33.375 42.66 57.389999 61.290001 67.800003 72.375 78.885002 83.459999">Custom title</tspan>
      </text>
      <text
         id="text4228"
         style="font-variant:normal;font-weight:300;font-stretch:normal;font-size:12px;font-family:'Open Sans Light';-inkscape-font-specification:OpenSans-Light;writing-mode:lr-tb;fill:#3e1f0d;fill-opacity:1;fill-rule:nonzero;stroke:none"
         transform="matrix(1,0,0,-1,608.1455,569.9292)">
        <tspan
           id="tspan4230"
           sodipodi:role="line"
           y="0"
           x="0 6.1560001 13.188 17.856001 24.444 35.040001 38.16 40.872002 48.012001 53.604 60.683998 71.279999 74.400002 81.540001 88.571999 91.283997 98.316002 102.984 106.104 111.696 114.408 118.428">Lorem ipsum dolor sit</tspan>
        <tspan
           id="tspan4232"
           sodipodi:role="line"
           y="14.4"
           x="0 6.3600001 16.955999 23.544001 27.563999 30.143999 33.264 38.964001 45.995998 53.076 58.667999 65.255997 70.956001 74.975998 81.564003 85.584 92.664001 97.332001">amet, consectetur</tspan>
        <tspan
           id="tspan4234"
           sodipodi:role="line"
           y="28.799999"
           x="0 6.3600001 13.5 16.212 23.351999 26.063999 31.656 37.355999 40.068001 47.147999 53.424 56.543999 63.132 65.844002 68.556 72.575996">adipiscing elit.</tspan>
      </text>
      <g
         id="g4236">
        <g
           clip-path="url(#clipPath4240)"
           id="g4238">
          <g
             transform="translate(651.5791,657.8555)"
             id="g4244">
            <path
               inkscape:connector-curvature="0"
               id="path4246"
               style="fill:#ffffff;fill-opacity:1;fill-rule:nonzero;stroke:none"
               d="M 0,0 C -0.552,-0.552 -1.277,-0.82 -2.001,-0.809 -2.725,-0.82 -3.451,-0.552 -4.003,0 l -8.649,8.65 c -1.084,1.083 -1.084,2.841 0,3.925 l 2.29,2.29 c 1.083,1.084 2.841,1.084 3.925,0 l 4.436,-4.436 13.777,13.778 c 1.084,1.084 2.842,1.084 3.925,0 l 2.29,-2.29 c 1.084,-1.084 1.084,-2.841 0,-3.925 L 0,0 Z m 28.284,26.894 -6.864,3.963 -3.962,6.863 -7.925,0 -6.864,3.963 -6.862,-3.963 -7.926,0 -3.963,-6.864 -6.862,-3.962 0,-7.925 -3.963,-6.864 3.963,-6.863 0,-7.925 6.863,-3.963 3.964,-6.864 7.924,0 6.863,-3.962 6.864,3.963 7.924,0 3.964,6.864 6.862,3.963 0,7.925 3.964,6.863 -3.964,6.864 0,7.924 z" />
          </g>
          <g
             transform="translate(178.3545,670)"
             id="g4248">
            <path
               inkscape:connector-curvature="0"
               id="path4250"
               style="fill:#40a092;fill-opacity:1;fill-rule:nonzero;stroke:none"
               d="m 0,0 c 0,-26.705 -21.648,-48.354 -48.354,-48.354 -26.706,0 -48.355,21.649 -48.355,48.354 0,26.705 21.649,48.354 48.355,48.354 C -21.648,48.354 0,26.705 0,0" />
          </g>
        </g>
      </g>
      <text
         id="text4252"
         style="font-variant:normal;font-weight:bold;font-stretch:normal;font-size:15px;font-family:'Open Sans';-inkscape-font-specification:OpenSans-Bold;writing-mode:lr-tb;fill:#3e1f0d;fill-opacity:1;fill-rule:nonzero;stroke:none"
         transform="matrix(1,0,0,-1,82.1455,588.8281)">
        <tspan
           id="tspan4254"
           sodipodi:role="line"
           y="0"
           x="0 9.5550003 19.41 26.865 33.375 42.66 57.389999 61.290001 67.800003 72.375 78.885002 83.459999">Custom title</tspan>
      </text>
      <text
         id="text4256"
         style="font-variant:normal;font-weight:300;font-stretch:normal;font-size:12px;font-family:'Open Sans Light';-inkscape-font-specification:OpenSans-Light;writing-mode:lr-tb;fill:#3e1f0d;fill-opacity:1;fill-rule:nonzero;stroke:none"
         transform="matrix(1,0,0,-1,82.1455,569.9282)">
        <tspan
           id="tspan4258"
           sodipodi:role="line"
           y="0"
           x="0 6.1560001 13.188 17.856001 24.444 35.040001 38.16 40.872002 48.012001 53.604 60.683998 71.279999 74.400002 81.540001 88.571999 91.283997 98.316002 102.984 106.104 111.696 114.408 118.428">Lorem ipsum dolor sit</tspan>
        <tspan
           id="tspan4260"
           sodipodi:role="line"
           y="14.4"
           x="0 6.3600001 16.955999 23.544001 27.563999 30.143999 33.264 38.964001 45.995998 53.076 58.667999 65.255997 70.956001 74.975998 81.564003 85.584 92.664001 97.332001">amet, consectetur</tspan>
        <tspan
           id="tspan4262"
           sodipodi:role="line"
           y="28.799999"
           x="0 6.3600001 13.5 16.212 23.351999 26.063999 31.656 37.355999 40.068001 47.147999 53.424 56.543999 63.132 65.844002 68.556 72.575996">adipiscing elit.</tspan>
      </text>
      <g
         id="g4264">
        <g
           clip-path="url(#clipPath4268)"
           id="g4266">
          <g
             transform="translate(121.0264,672.8311)"
             id="g4272">
            <path
               inkscape:connector-curvature="0"
               id="path4274"
               style="fill:#ffffff;fill-opacity:1;fill-rule:nonzero;stroke:none"
               d="m 0,0 c 4.604,0 8.349,5.025 8.349,11.205 0,6.179 -3.745,11.206 -8.349,11.206 -4.604,0 -8.349,-5.027 -8.349,-11.206 C -8.349,5.025 -4.604,0 0,0" />
          </g>
          <g
             transform="translate(145.7905,661.9307)"
             id="g4276">
            <path
               inkscape:connector-curvature="0"
               id="path4278"
               style="fill:#ffffff;fill-opacity:1;fill-rule:nonzero;stroke:none"
               d="m 0,0 c -0.171,0.233 -0.335,0.453 -0.423,0.643 -1.866,3.996 -6.984,8.708 -15.275,8.824 l -0.32,0.002 c -8.163,0 -13.242,-4.461 -15.274,-8.639 -0.07,-0.143 -0.225,-0.328 -0.388,-0.524 -0.195,-0.231 -0.385,-0.465 -0.549,-0.721 -1.717,-2.671 -2.592,-5.678 -2.463,-8.466 0.135,-2.961 1.375,-5.339 3.484,-6.695 0.852,-0.548 1.772,-0.823 2.737,-0.823 1.99,0 3.811,1.12 5.922,2.418 1.341,0.827 2.728,1.68 4.268,2.32 0.173,0.057 0.88,0.142 2.036,0.142 1.375,0 2.363,-0.122 2.574,-0.194 1.503,-0.664 2.823,-1.534 4.1,-2.374 1.957,-1.29 3.805,-2.508 5.809,-2.508 0.862,0 1.696,0.227 2.483,0.674 4.342,2.467 5.169,9.234 1.844,15.085 C 0.398,-0.543 0.2,-0.269 0,0" />
          </g>
          <g
             transform="translate(138.7798,672.8311)"
             id="g4280">
            <path
               inkscape:connector-curvature="0"
               id="path4282"
               style="fill:#ffffff;fill-opacity:1;fill-rule:nonzero;stroke:none"
               d="m 0,0 c 4.603,0 8.349,5.025 8.349,11.205 0,6.179 -3.746,11.206 -8.349,11.206 -4.605,0 -8.35,-5.027 -8.35,-11.206 C -8.35,5.025 -4.605,0 0,0" />
          </g>
          <g
             transform="translate(152.4917,678.584)"
             id="g4284">
            <path
               inkscape:connector-curvature="0"
               id="path4286"
               style="fill:#ffffff;fill-opacity:1;fill-rule:nonzero;stroke:none"
               d="m 0,0 c -3.69,0 -6.578,-3.826 -6.578,-8.712 0,-4.884 2.89,-8.711 6.578,-8.711 3.688,0 6.58,3.827 6.58,8.711 C 6.58,-3.826 3.69,0 0,0" />
          </g>
          <g
             transform="translate(114.585,669.8721)"
             id="g4288">
            <path
               inkscape:connector-curvature="0"
               id="path4290"
               style="fill:#ffffff;fill-opacity:1;fill-rule:nonzero;stroke:none"
               d="m 0,0 c 0,4.886 -2.89,8.712 -6.579,8.712 -3.688,0 -6.578,-3.826 -6.578,-8.712 0,-4.884 2.89,-8.711 6.578,-8.711 C -2.89,-8.711 0,-4.884 0,0" />
          </g>
          <g
             transform="translate(178.9194,194.5078)"
             id="g4292">
            <path
               inkscape:connector-curvature="0"
               id="path4294"
               style="fill:#c58b27;fill-opacity:1;fill-rule:nonzero;stroke:none"
               d="m 0,0 c 0,-26.705 -21.648,-48.354 -48.354,-48.354 -26.706,0 -48.355,21.649 -48.355,48.354 0,26.705 21.649,48.354 48.355,48.354 C -21.648,48.354 0,26.705 0,0" />
          </g>
        </g>
      </g>
      <text
         id="text4296"
         style="font-variant:normal;font-weight:bold;font-stretch:normal;font-size:15px;font-family:'Open Sans';-inkscape-font-specification:OpenSans-Bold;writing-mode:lr-tb;fill:#3e1f0d;fill-opacity:1;fill-rule:nonzero;stroke:none"
         transform="matrix(1,0,0,-1,82.1455,119.7568)">
        <tspan
           id="tspan4298"
           sodipodi:role="line"
           y="0"
           x="0 9.5550003 19.41 26.865 33.375 42.66 57.389999 61.290001 67.800003 72.375 78.885002 83.459999">Custom title</tspan>
      </text>
      <text
         id="text4300"
         style="font-variant:normal;font-weight:300;font-stretch:normal;font-size:12px;font-family:'Open Sans Light';-inkscape-font-specification:OpenSans-Light;writing-mode:lr-tb;fill:#3e1f0d;fill-opacity:1;fill-rule:nonzero;stroke:none"
         transform="matrix(1,0,0,-1,82.1455,100.8569)">
        <tspan
           id="tspan4302"
           sodipodi:role="line"
           y="0"
           x="0 6.1560001 13.188 17.856001 24.444 35.040001 38.16 40.872002 48.012001 53.604 60.683998 71.279999 74.400002 81.540001 88.571999 91.283997 98.316002 102.984 106.104 111.696 114.408 118.428">Lorem ipsum dolor sit</tspan>
        <tspan
           id="tspan4304"
           sodipodi:role="line"
           y="14.4"
           x="0 6.3600001 16.955999 23.544001 27.563999 30.143999 33.264 38.964001 45.995998 53.076 58.667999 65.255997 70.956001 74.975998 81.564003 85.584 92.664001 97.332001">amet, consectetur</tspan>
        <tspan
           id="tspan4306"
           sodipodi:role="line"
           y="28.799999"
           x="0 6.3600001 13.5 16.212 23.351999 26.063999 31.656 37.355999 40.068001 47.147999 53.424 56.543999 63.132 65.844002 68.556 72.575996">adipiscing elit.</tspan>
      </text>
      <g
         id="g4308">
        <g
           clip-path="url(#clipPath4312)"
           id="g4310">
          <g
             transform="translate(130.5649,170.6504)"
             id="g4316">
            <path
               inkscape:connector-curvature="0"
               id="path4318"
               style="fill:#ffffff;fill-opacity:1;fill-rule:nonzero;stroke:none"
               d="m 0,0 -3.327,3.325 c -12.354,10.929 -20.432,18.294 -20.432,27.322 0,7.366 5.702,13.068 13.068,13.068 4.038,0 8.077,-1.901 10.691,-4.989 2.613,3.088 6.652,4.989 10.691,4.989 7.365,0 13.067,-5.702 13.067,-13.068 0,-9.028 -8.078,-16.393 -20.432,-27.322 L 0,0 Z" />
          </g>
          <g
             transform="translate(440.3545,194)"
             id="g4320">
            <path
               inkscape:connector-curvature="0"
               id="path4322"
               style="fill:#fbd10f;fill-opacity:1;fill-rule:nonzero;stroke:none"
               d="m 0,0 c 0,-26.705 -21.648,-48.354 -48.354,-48.354 -26.706,0 -48.355,21.649 -48.355,48.354 0,26.705 21.649,48.354 48.355,48.354 C -21.648,48.354 0,26.705 0,0" />
          </g>
        </g>
      </g>
      <text
         id="text4324"
         style="font-variant:normal;font-weight:bold;font-stretch:normal;font-size:15px;font-family:'Open Sans';-inkscape-font-specification:OpenSans-Bold;writing-mode:lr-tb;fill:#3e1f0d;fill-opacity:1;fill-rule:nonzero;stroke:none"
         transform="matrix(1,0,0,-1,350.1064,119.7568)">
        <tspan
           id="tspan4326"
           sodipodi:role="line"
           y="0"
           x="0 9.5550003 19.41 26.865 33.375 42.66 57.389999 61.290001 67.800003 72.375 78.885002 83.459999">Custom title</tspan>
      </text>
      <text
         id="text4328"
         style="font-variant:normal;font-weight:300;font-stretch:normal;font-size:12px;font-family:'Open Sans Light';-inkscape-font-specification:OpenSans-Light;writing-mode:lr-tb;fill:#3e1f0d;fill-opacity:1;fill-rule:nonzero;stroke:none"
         transform="matrix(1,0,0,-1,350.1064,100.8569)">
        <tspan
           id="tspan4330"
           sodipodi:role="line"
           y="0"
           x="0 6.1560001 13.188 17.856001 24.444 35.040001 38.16 40.872002 48.012001 53.604 60.683998 71.279999 74.400002 81.540001 88.571999 91.283997 98.316002 102.984 106.104 111.696 114.408 118.428">Lorem ipsum dolor sit</tspan>
        <tspan
           id="tspan4332"
           sodipodi:role="line"
           y="14.4"
           x="0 6.3600001 16.955999 23.544001 27.563999 30.143999 33.264 38.964001 45.995998 53.076 58.667999 65.255997 70.956001 74.975998 81.564003 85.584 92.664001 97.332001">amet, consectetur</tspan>
        <tspan
           id="tspan4334"
           sodipodi:role="line"
           y="28.799999"
           x="0 6.3600001 13.5 16.212 23.351999 26.063999 31.656 37.355999 40.068001 47.147999 53.424 56.543999 63.132 65.844002 68.556 72.575996">adipiscing elit.</tspan>
      </text>
      <g
         id="g4336">
        <g
           clip-path="url(#clipPath4340)"
           id="g4338">
          <g
             transform="translate(419.8711,195.9834)"
             id="g4344">
            <path
               inkscape:connector-curvature="0"
               id="path4346"
               style="fill:#ffffff;fill-opacity:1;fill-rule:nonzero;stroke:none"
               d="m 0,0 -25.709,22.61 c -1.199,1.055 -3.139,1.055 -4.321,0 L -55.731,0 c -1.198,-1.055 -0.879,-1.909 0.718,-1.909 l 7.931,0 0,-23.153 c 0,-1.262 1.038,-2.308 2.308,-2.308 l 9.704,0 0,15.23 c 0,1.262 1.038,2.309 2.308,2.309 l 9.8,0 c 1.277,0 2.308,-1.023 2.308,-2.309 l 0,-15.23 9.703,0 c 1.278,0 2.308,1.038 2.308,2.308 l 0,23.161 7.931,0 C 0.862,-1.901 1.182,-1.055 0,0" />
          </g>
          <g
             transform="translate(702.3545,194)"
             id="g4348">
            <path
               inkscape:connector-curvature="0"
               id="path4350"
               style="fill:#3e1f0d;fill-opacity:1;fill-rule:nonzero;stroke:none"
               d="m 0,0 c 0,-26.705 -21.648,-48.354 -48.354,-48.354 -26.706,0 -48.355,21.649 -48.355,48.354 0,26.705 21.649,48.354 48.355,48.354 C -21.648,48.354 0,26.705 0,0" />
          </g>
        </g>
      </g>
      <text
         id="text4352"
         style="font-variant:normal;font-weight:bold;font-stretch:normal;font-size:15px;font-family:'Open Sans';-inkscape-font-specification:OpenSans-Bold;writing-mode:lr-tb;fill:#3e1f0d;fill-opacity:1;fill-rule:nonzero;stroke:none"
         transform="matrix(1,0,0,-1,608.1455,119.7568)">
        <tspan
           id="tspan4354"
           sodipodi:role="line"
           y="0"
           x="0 9.5550003 19.41 26.865 33.375 42.66 57.389999 61.290001 67.800003 72.375 78.885002 83.459999">Custom title</tspan>
      </text>
      <text
         id="text4356"
         style="font-variant:normal;font-weight:300;font-stretch:normal;font-size:12px;font-family:'Open Sans Light';-inkscape-font-specification:OpenSans-Light;writing-mode:lr-tb;fill:#3e1f0d;fill-opacity:1;fill-rule:nonzero;stroke:none"
         transform="matrix(1,0,0,-1,608.1455,100.8569)">
        <tspan
           id="tspan4358"
           sodipodi:role="line"
           y="0"
           x="0 6.1560001 13.188 17.856001 24.444 35.040001 38.16 40.872002 48.012001 53.604 60.683998 71.279999 74.400002 81.540001 88.571999 91.283997 98.316002 102.984 106.104 111.696 114.408 118.428">Lorem ipsum dolor sit</tspan>
        <tspan
           id="tspan4360"
           sodipodi:role="line"
           y="14.4"
           x="0 6.3600001 16.955999 23.544001 27.563999 30.143999 33.264 38.964001 45.995998 53.076 58.667999 65.255997 70.956001 74.975998 81.564003 85.584 92.664001 97.332001">amet, consectetur</tspan>
        <tspan
           id="tspan4362"
           sodipodi:role="line"
           y="28.799999"
           x="0 6.3600001 13.5 16.212 23.351999 26.063999 31.656 37.355999 40.068001 47.147999 53.424 56.543999 63.132 65.844002 68.556 72.575996">adipiscing elit.</tspan>
      </text>
      <g
         id="g4364">
        <g
           clip-path="url(#clipPath4368)"
           id="g4366">
          <g
             transform="translate(654.002,170.6689)"
             id="g4372">
            <path
               inkscape:connector-curvature="0"
               id="path4374"
               style="fill:#ffffff;fill-opacity:1;fill-rule:nonzero;stroke:none"
               d="m 0,0 c -12.869,0 -23.334,10.465 -23.334,23.334 0,12.863 10.465,23.332 23.334,23.332 12.863,0 23.328,-10.469 23.328,-23.332 C 23.328,10.465 12.863,0 0,0 M 0,51.08 C -15.305,51.08 -27.75,38.632 -27.75,23.333 -27.75,8.029 -15.305,-4.42 0,-4.42 15.297,-4.42 27.744,8.027 27.744,23.333 27.744,38.632 15.297,51.08 0,51.08" />
          </g>
          <g
             transform="translate(660.3086,199.8594)"
             id="g4376">
            <path
               inkscape:connector-curvature="0"
               id="path4378"
               style="fill:#ffffff;fill-opacity:1;fill-rule:nonzero;stroke:none"
               d="m 0,0 0,8.916 c 0,1.537 -1.244,2.779 -2.779,2.779 l -6.01,0 c -1.535,0 -2.777,-1.244 -2.777,-2.779 l 0,-8.916 -8.92,0 c -1.535,0 -2.778,-1.245 -2.778,-2.779 l 0,-6.138 c 0,-1.535 1.243,-2.779 2.778,-2.779 l 8.918,0 0,-8.915 c 0,-1.534 1.242,-2.778 2.777,-2.778 l 6.012,0 c 1.533,0 2.777,1.244 2.777,2.778 l 0,8.915 8.916,0 c 1.535,0 2.779,1.244 2.779,2.779 l 0,6.138 C 11.693,-1.243 10.449,0 8.914,0 L 0,0 Z" />
          </g>
          <g
             transform="translate(130.5,377.0439)"
             id="g4380">
            <path
               inkscape:connector-curvature="0"
               id="path4382"
               style="fill:#e13809;fill-opacity:1;fill-rule:nonzero;stroke:none"
               d="m 0,0 c -26.705,0 -48.354,21.648 -48.354,48.354 0,26.706 21.649,48.355 48.354,48.355 26.705,0 48.354,-21.649 48.354,-48.355 C 48.354,21.648 26.705,0 0,0" />
          </g>
        </g>
      </g>
      <text
         id="text4384"
         style="font-variant:normal;font-weight:bold;font-stretch:normal;font-size:15px;font-family:'Open Sans';-inkscape-font-specification:OpenSans-Bold;writing-mode:lr-tb;fill:#3e1f0d;fill-opacity:1;fill-rule:nonzero;stroke:none"
         transform="matrix(1,0,0,-1,82.1455,347.8281)">
        <tspan
           id="tspan4386"
           sodipodi:role="line"
           y="0"
           x="0 9.5550003 19.41 26.865 33.375 42.66 57.389999 61.290001 67.800003 72.375 78.885002 83.459999">Custom title</tspan>
      </text>
      <text
         id="text4388"
         style="font-variant:normal;font-weight:300;font-stretch:normal;font-size:12px;font-family:'Open Sans Light';-inkscape-font-specification:OpenSans-Light;writing-mode:lr-tb;fill:#3e1f0d;fill-opacity:1;fill-rule:nonzero;stroke:none"
         transform="matrix(1,0,0,-1,82.1455,328.9282)">
        <tspan
           id="tspan4390"
           sodipodi:role="line"
           y="0"
           x="0 6.1560001 13.188 17.856001 24.444 35.040001 38.16 40.872002 48.012001 53.604 60.683998 71.279999 74.400002 81.540001 88.571999 91.283997 98.316002 102.984 106.104 111.696 114.408 118.428">Lorem ipsum dolor sit</tspan>
        <tspan
           id="tspan4392"
           sodipodi:role="line"
           y="14.4"
           x="0 6.3600001 16.955999 23.544001 27.563999 30.143999 33.264 38.964001 45.995998 53.076 58.667999 65.255997 70.956001 74.975998 81.564003 85.584 92.664001 97.332001">amet, consectetur</tspan>
        <tspan
           id="tspan4394"
           sodipodi:role="line"
           y="28.799999"
           x="0 6.3600001 13.5 16.212 23.351999 26.063999 31.656 37.355999 40.068001 47.147999 53.424 56.543999 63.132 65.844002 68.556 72.575996">adipiscing elit.</tspan>
      </text>
      <g
         id="g4396">
        <g
           clip-path="url(#clipPath4400)"
           id="g4398">
          <g
             transform="translate(108.2007,408.0503)"
             id="g4404">
            <path
               inkscape:connector-curvature="0"
               id="path4406"
               style="fill:#ffffff;fill-opacity:1;fill-rule:nonzero;stroke:none"
               d="M 0,0 C 0,0.004 0,0.004 0,0 0,0.004 0,0.004 0,0" />
          </g>
          <g
             transform="translate(148.3135,414.0142)"
             id="g4408">
            <path
               inkscape:connector-curvature="0"
               id="path4410"
               style="fill:#ffffff;fill-opacity:1;fill-rule:nonzero;stroke:none"
               d="m 0,0 c 0,0.006 0,0.006 0,0 0,0.006 0,0.006 0,0 0.524,0.918 0.822,1.973 0.822,3.103 0,3.409 -2.741,6.171 -6.14,6.203 0.573,1.394 0.573,2.668 0.573,2.668 0,8.525 -5.791,10.137 -8.426,10.429 -0.43,0.048 -0.732,-0.408 -0.52,-0.785 0.249,-0.44 0.409,-1.05 0.196,-1.818 -0.53,-1.899 -2.582,-1.633 -3.573,-1.633 l -7.371,0 c -3.415,0 -6.182,-2.769 -6.182,-6.183 l 0,-0.016 c 0,-0.949 0.211,-1.862 0.594,-2.656 l -0.202,0 c -3.425,0 -6.225,-2.779 -6.225,-6.204 0,-1.129 0.313,-2.19 0.843,-3.102 l 0.011,0 -0.011,0 c -2.593,-0.742 -4.502,-3.134 -4.502,-5.966 0,-3.425 2.795,-6.203 6.226,-6.203 l 32.179,0 c 3.426,0 6.193,2.773 6.193,6.203 C 4.48,-3.128 2.592,-0.742 0,0" />
          </g>
          <g
             transform="translate(123.9063,434.4976)"
             id="g4412">
            <path
               inkscape:connector-curvature="0"
               id="path4414"
               style="fill:#ffffff;fill-opacity:1;fill-rule:nonzero;stroke:none"
               d="m 0,0 c 0.551,0.133 1.125,0.457 1.549,0.791 1.945,1.516 2.513,4.246 1.739,6.521 -0.642,1.877 -1.931,3.436 -2.737,5.228 -0.143,0.318 -0.27,0.637 -0.36,0.955 -0.238,0.79 -0.233,1.644 -0.164,2.46 l 0,0.006 c 0.01,0.116 -0.106,0.206 -0.217,0.164 -1.762,-0.609 -2.758,-2.413 -2.879,-4.194 -0.118,-1.687 0.455,-3.32 1.234,-4.788 C -1.071,5.7 -0.228,4.428 -0.058,2.747 0.021,1.973 -0.127,0.689 -0.196,0.18 -0.207,0.068 -0.105,-0.021 0,0" />
          </g>
          <g
             transform="translate(113.4131,428.3159)"
             id="g4416">
            <path
               inkscape:connector-curvature="0"
               id="path4418"
               style="fill:#ffffff;fill-opacity:1;fill-rule:nonzero;stroke:none"
               d="m 0,0 c 0.551,0.132 1.125,0.455 1.548,0.789 1.946,1.517 2.514,4.248 1.739,6.522 -0.641,1.877 -1.93,3.436 -2.736,5.228 -0.143,0.318 -0.27,0.637 -0.36,0.955 -0.238,0.789 -0.233,1.644 -0.164,2.46 l 0,0.006 c 0.01,0.116 -0.106,0.206 -0.218,0.164 C -1.952,15.515 -2.948,13.711 -3.07,11.93 -3.187,10.243 -2.614,8.61 -1.835,7.142 -1.071,5.699 -0.228,4.426 -0.058,2.746 0.021,1.972 -0.127,0.688 -0.196,0.18 -0.207,0.062 -0.106,-0.027 0,0" />
          </g>
          <g
             transform="translate(655.5,377.0439)"
             id="g4420">
            <path
               inkscape:connector-curvature="0"
               id="path4422"
               style="fill:#40a092;fill-opacity:1;fill-rule:nonzero;stroke:none"
               d="m 0,0 c -26.705,0 -48.354,21.648 -48.354,48.353 0,26.706 21.649,48.355 48.354,48.355 26.705,0 48.354,-21.649 48.354,-48.355 C 48.354,21.648 26.705,0 0,0" />
          </g>
        </g>
      </g>
      <text
         id="text4424"
         style="font-variant:normal;font-weight:bold;font-stretch:normal;font-size:15px;font-family:'Open Sans';-inkscape-font-specification:OpenSans-Bold;writing-mode:lr-tb;fill:#3e1f0d;fill-opacity:1;fill-rule:nonzero;stroke:none"
         transform="matrix(1,0,0,-1,610.1455,339.8291)">
        <tspan
           id="tspan4426"
           sodipodi:role="line"
           y="0"
           x="0 9.5550003 19.41 26.865 33.375 42.66 57.389999 61.290001 67.800003 72.375 78.885002 83.459999">Custom title</tspan>
      </text>
      <text
         id="text4428"
         style="font-variant:normal;font-weight:300;font-stretch:normal;font-size:12px;font-family:'Open Sans Light';-inkscape-font-specification:OpenSans-Light;writing-mode:lr-tb;fill:#3e1f0d;fill-opacity:1;fill-rule:nonzero;stroke:none"
         transform="matrix(1,0,0,-1,610.1455,320.9292)">
        <tspan
           id="tspan4430"
           sodipodi:role="line"
           y="0"
           x="0 6.1560001 13.188 17.856001 24.444 35.040001 38.16 40.872002 48.012001 53.604 60.683998 71.279999 74.400002 81.540001 88.571999 91.283997 98.316002 102.984 106.104 111.696 114.408 118.428">Lorem ipsum dolor sit</tspan>
        <tspan
           id="tspan4432"
           sodipodi:role="line"
           y="14.4"
           x="0 6.3600001 16.955999 23.544001 27.563999 30.143999 33.264 38.964001 45.995998 53.076 58.667999 65.255997 70.956001 74.975998 81.564003 85.584 92.664001 97.332001">amet, consectetur</tspan>
        <tspan
           id="tspan4434"
           sodipodi:role="line"
           y="28.799999"
           x="0 6.3600001 13.5 16.212 23.351999 26.063999 31.656 37.355999 40.068001 47.147999 53.424 56.543999 63.132 65.844002 68.556 72.575996">adipiscing elit.</tspan>
      </text>
      <g
         id="g4436">
        <g
           clip-path="url(#clipPath4440)"
           id="g4438">
          <g
             transform="translate(673.9492,445.5396)"
             id="g4444">
            <path
               inkscape:connector-curvature="0"
               id="path4446"
               style="fill:#ffffff;fill-opacity:1;fill-rule:nonzero;stroke:none"
               d="m 0,0 c 0.09,2.187 -0.697,4.4 -2.368,6.071 -3.168,3.169 -8.284,3.149 -11.453,-0.019 -2.503,-2.504 -3.065,-6.194 -1.562,-9.265 l -21.685,-21.693 c -3.073,1.503 -6.763,0.942 -9.266,-1.562 -3.169,-3.161 -3.182,-8.291 -0.014,-11.459 1.672,-1.671 3.878,-2.452 6.066,-2.362 -0.09,-2.187 0.697,-4.4 2.368,-6.065 3.168,-3.168 8.284,-3.148 11.453,0.02 2.504,2.503 3.059,6.193 1.555,9.265 l 21.686,21.687 c 3.072,-1.504 6.762,-0.943 9.266,1.561 3.168,3.168 3.181,8.298 0.013,11.466 C 4.388,-0.69 2.188,0.09 0,0" />
          </g>
          <g
             transform="translate(431.8789,355.332)"
             id="g4448">
            <path
               inkscape:connector-curvature="0"
               id="path4450"
               style="fill:#643b32;fill-opacity:1;fill-rule:nonzero;stroke:none"
               d="m 0,0 c 0,0 -17.527,-39 -85.028,-38 l -41,80.645 48.5,71.696 L 18.973,75.5 0,0 Z" />
          </g>
          <g
             transform="translate(450.8516,319.916)"
             id="g4452">
            <path
               inkscape:connector-curvature="0"
               id="path4454"
               style="fill:#ed8124;fill-opacity:1;fill-rule:nonzero;stroke:none"
               d="M 0,0 -4.662,87.194 0,110.938 -100.897,142.865 c 0,0 -9.156,-6.19 -21.163,-17.239 4.852,-6.4 7.997,-14.214 8.671,-22.814 1.646,-21.022 -11.963,-39.715 -31.524,-45.206 -1.074,-13.388 -11.738,-24.392 -25.556,-25.474 -2.311,-0.182 -4.575,0.013 -6.763,0.378 -2.037,-14.922 -0.973,-31.426 4.732,-47.426 l 97.5,0 -0.899,14.971 c -2.855,2.308 -6.887,3.903 -12.601,3.903 0,0 3.853,42.48 -40,46.403 0,0 26.539,15.917 48.269,22.242 L -75.899,0.06 C -69.01,-5.505 -69,-14.916 -69,-14.916 l 37,0 -17,12.916 1.322,18.958 c 11.928,4.5 19.467,7.063 19.467,7.063 l 6.211,-38.937 37,0 L 0,0 Z" />
          </g>
          <g
             transform="translate(374.9526,320.0547)"
             id="g4456">
            <path
               inkscape:connector-curvature="0"
               id="path4458"
               style="fill:#ed8124;fill-opacity:1;fill-rule:nonzero;stroke:none"
               d="m 0,0 0.898,-15.055 6,0 c 0,0 -0.009,9.491 -6.898,15.055" />
          </g>
          <g
             transform="translate(280.3823,352.0469)"
             id="g4460">
            <path
               inkscape:connector-curvature="0"
               id="path4462"
               style="fill:#643b32;fill-opacity:1;fill-rule:nonzero;stroke:none"
               d="m 0,0 c 13.818,1.082 24.482,12.086 25.557,25.475 19.56,5.49 33.17,24.181 31.523,45.203 C 56.406,79.279 53.262,87.09 48.409,93.49 27.814,74.54 -1.17,41.27 -6.763,0.295 -4.575,-0.07 -2.311,-0.182 0,0" />
          </g>
          <g
             transform="translate(393.0151,540.3311)"
             id="g4464">
            <path
               inkscape:connector-curvature="0"
               id="path4466"
               style="fill:#643b32;fill-opacity:1;fill-rule:nonzero;stroke:none"
               d="M 0,0 C 0,0 4.551,-8.865 0.638,-21.411 L 15.45,-21.627 C 15.45,-21.627 14.182,-5.673 0,0" />
          </g>
          <g
             transform="translate(399.4766,458.5503)"
             id="g4468">
            <path
               inkscape:connector-curvature="0"
               id="path4470"
               style="fill:#ed8124;fill-opacity:1;fill-rule:nonzero;stroke:none"
               d="m 0,0 c -12.372,0 -22.449,9.707 -23.1,21.916 -0.023,0.417 -0.063,0.827 -0.063,1.247 0,12.793 10.37,23.164 23.163,23.164 12.793,0 23.164,-10.371 23.164,-23.164 0,-1.4 -0.146,-2.765 -0.385,-4.097 C 20.842,8.23 11.393,0 0,0 m 74.811,39.488 c -5.885,11.577 0.794,17.033 7.705,19.59 L 8.988,60.154 -5.824,60.37 -17.222,60.537 c -0.488,-13.084 -11.04,-23.571 -24.153,-23.944 -0.43,-3.884 -1.386,-8.52 -2.491,-13.042 -2.381,-9.756 -5.455,-18.982 -5.455,-18.982 0,0 50.819,-42.707 78.577,-42.86 14.283,-0.078 21.851,10.505 21.851,10.505 0,0 -0.007,-0.038 -0.019,-0.097 0.004,0.004 0.019,0.027 0.019,0.027 0,0 -0.005,-0.098 -0.017,-0.191 l 0.099,0.05 c 6.092,2.99 11.768,6.146 17,9.429 -9.525,2.503 -26.392,10.549 -30.845,36.373 0,0 7.086,-21.183 42.623,-28.249 18.592,14.101 29.957,29.511 34.16,42.654 -0.133,-0.147 -0.264,-0.299 -0.398,-0.439 -8.053,-8.387 -29.87,-10.091 -38.918,7.717" />
          </g>
          <g
             transform="translate(382.2544,519.0874)"
             id="g4472">
            <path
               inkscape:connector-curvature="0"
               id="path4474"
               style="fill:#643b32;fill-opacity:1;fill-rule:nonzero;stroke:none"
               d="m 0,0 -8.777,0.129 c -6.303,18.909 -23.322,23.951 -23.322,23.951 0,0 8.195,-32.775 8.195,-44.121 0,-1.172 -0.092,-2.49 -0.249,-3.903 C -11.04,-23.571 -0.488,-13.084 0,0" />
          </g>
          <g
             transform="translate(436.8203,476.3555)"
             id="g4476">
            <path
               inkscape:connector-curvature="0"
               id="path4478"
               style="fill:#643b32;fill-opacity:1;fill-rule:nonzero;stroke:none"
               d="m 0,0 c 4.453,-25.824 21.32,-33.871 30.846,-36.374 4.205,2.64 8.127,5.357 11.777,8.124 C 7.086,-21.183 0,0 0,0" />
          </g>
          <g
             transform="translate(492.7383,519.8462)"
             id="g4480">
            <path
               inkscape:connector-curvature="0"
               id="path4482"
               style="fill:#262628;fill-opacity:1;fill-rule:nonzero;stroke:none"
               d="m 0,0 c 0,0 -5.441,-0.255 -10.746,-2.218 -6.91,-2.557 -13.59,-8.012 -7.705,-19.59 9.049,-17.808 30.865,-16.104 38.918,-7.716 0.135,0.139 0.265,0.292 0.398,0.439 C 28.695,-20.419 33.654,0.33 0,0" />
          </g>
          <g
             transform="translate(396.2163,484.2344)"
             id="g4484">
            <path
               inkscape:connector-curvature="0"
               id="path4486"
               style="fill:#643b32;fill-opacity:1;fill-rule:nonzero;stroke:none"
               d="m 0,0 c -0.126,0 -0.249,-0.012 -0.375,-0.012 -1.645,1.602 -2.668,3.838 -2.668,6.315 0,4.874 3.95,8.824 8.825,8.824 4.873,0 8.824,-3.95 8.824,-8.824 0,-3.07 -1.57,-5.771 -3.949,-7.352 C 7.209,-0.365 3.647,0 0,0 m 3.26,20.643 c -12.793,0 -23.162,-10.371 -23.162,-23.164 0,-0.42 0.04,-0.831 0.062,-1.247 0.652,-12.21 10.729,-21.916 23.1,-21.916 11.393,0 20.842,8.23 22.78,19.066 0.238,1.332 0.384,2.697 0.384,4.097 0,12.793 -10.371,23.164 -23.164,23.164" />
          </g>
          <g
             transform="translate(401.1309,496.0303)"
             id="g4488">
            <path
               inkscape:connector-curvature="0"
               id="path4490"
               style="fill:#262628;fill-opacity:1;fill-rule:nonzero;stroke:none"
               d="m 0,0 c 0,0 7.406,1.875 7.406,-6.246 0,0 -1.072,4.372 -7.406,6.246 m 9.691,-5.493 c 0,4.874 -3.951,8.825 -8.824,8.825 -4.875,0 -8.825,-3.951 -8.825,-8.825 0,-2.477 1.024,-4.713 2.668,-6.315 0.126,0 0.249,0.012 0.375,0.012 3.647,0 7.21,-0.365 10.657,-1.049 2.379,1.581 3.949,4.282 3.949,7.352" />
          </g>
          <g
             transform="translate(401.1309,496.0303)"
             id="g4492">
            <path
               inkscape:connector-curvature="0"
               id="path4494"
               style="fill:#ffffff;fill-opacity:1;fill-rule:nonzero;stroke:none"
               d="M 0,0 C 6.334,-1.874 7.406,-6.246 7.406,-6.246 7.406,1.875 0,0 0,0" />
          </g>
          <g
             transform="translate(419.5234,402.498)"
             id="g4496">
            <path
               inkscape:connector-curvature="0"
               id="path4498"
               style="fill:#e13809;fill-opacity:1;fill-rule:nonzero;stroke:none"
               d="m 0,0 c 0.543,-0.078 1.068,-0.146 1.574,-0.205 l 1.108,-5.856 c 0.929,0.223 1.894,0.354 2.89,0.354 0.291,0 0.574,-0.023 0.86,-0.043 l 1.66,5.215 c 0.254,0.015 0.494,0.029 0.697,0.053 7.672,0.851 17.762,5.039 17.867,5.084 l 0.01,-0.032 c 0.871,5.342 3.887,19.788 4.338,22.358 0.017,0 0.029,0.079 0.039,0.162 0.012,0.094 0.018,0.194 0.018,0.194 0,0 -0.016,-0.023 -0.02,-0.027 -0.207,-0.284 -6.855,-7.501 -21.213,-7.423 -28.291,0.156 -79.397,40.439 -79.397,40.439 l -6.863,-5.085 -0.004,-0.003 C -51.715,13.65 -16.846,2.396 0,0" />
          </g>
          <g
             transform="translate(422.2051,396.4375)"
             id="g4500">
            <path
               inkscape:connector-curvature="0"
               id="path4502"
               style="fill:#fbd10f;fill-opacity:1;fill-rule:nonzero;stroke:none"
               d="m 0,0 c -5.439,-1.303 -9.486,-6.184 -9.486,-12.021 0,-2.766 0.918,-5.309 2.449,-7.37 2.254,-3.035 5.855,-5.009 9.928,-5.009 6.836,0 12.377,5.541 12.377,12.379 0,2.365 -0.672,4.57 -1.825,6.447 C 11.408,-2.258 7.857,0.027 3.75,0.311 3.465,0.33 3.182,0.354 2.891,0.354 1.895,0.354 0.93,0.223 0,0" />
          </g>
          <g
             transform="translate(313.3086,24.5127)"
             id="g4512" />
          <g
             transform="translate(416.4062,31.3164)"
             id="g4544" />
          <g
             transform="translate(424.7461,24.8574)"
             id="g4548" />
          <g
             transform="translate(431.4707,27.1836)"
             id="g4552" />
          <g
             transform="translate(442.0664,27.1836)"
             id="g4556" />
          <g
             transform="translate(457.623,26.4082)"
             id="g4560" />
          <g
             transform="translate(464.0088,30.0977)"
             id="g4564" />
          <g
             transform="translate(472.2178,22.3447)"
             id="g4568" />
          <g
             transform="translate(477.7529,21.1816)"
             id="g4572" />
          <g
             transform="translate(490.4209,24.3369)"
             id="g4576" />
          <g
             transform="translate(498.8564,26.3604)"
             id="g4580" />
          <g
             transform="translate(511.1318,26.1719)"
             id="g4584" />
          <g
             transform="translate(392.5693,26.9766)"
             id="g4588">
            <path
               inkscape:connector-curvature="0"
               id="path4590"
               style="fill:#000000;fill-opacity:1;fill-rule:nonzero;stroke:none"
               d="M 0,0 C -0.001,0.005 -0.001,0.008 -0.001,0.017 -0.001,0.008 -0.001,0.005 0,0" />
          </g>
          <g
             transform="translate(392.6982,26.1631)"
             id="g4592">
            <path
               inkscape:connector-curvature="0"
               id="path4594"
               style="fill:#000000;fill-opacity:1;fill-rule:nonzero;stroke:none"
               d="M 0,0 0.003,0 C -0.046,0.231 -0.084,0.462 -0.113,0.688 -0.084,0.46 -0.046,0.227 0,0" />
          </g>
          <g
             transform="translate(393.542,23.7998)"
             id="g4596">
            <path
               inkscape:connector-curvature="0"
               id="path4598"
               style="fill:#000000;fill-opacity:1;fill-rule:nonzero;stroke:none"
               d="M 0,0 C -0.006,0.01 -0.011,0.021 -0.018,0.032 -0.011,0.021 -0.006,0.01 0,0" />
          </g>
          <g
             transform="translate(393.4609,23.957)"
             id="g4600">
            <path
               inkscape:connector-curvature="0"
               id="path4602"
               style="fill:#000000;fill-opacity:1;fill-rule:nonzero;stroke:none"
               d="M 0,0 C -0.023,0.041 -0.043,0.088 -0.064,0.132 -0.043,0.084 -0.023,0.041 0,0" />
          </g>
          <g
             transform="translate(392.9346,25.252)"
             id="g4604">
            <path
               inkscape:connector-curvature="0"
               id="path4606"
               style="fill:#000000;fill-opacity:1;fill-rule:nonzero;stroke:none"
               d="M 0,0 C 0.126,-0.395 0.275,-0.774 0.45,-1.139 0.273,-0.768 0.126,-0.385 0.003,0 L 0,0 Z" />
          </g>
          <g
             transform="translate(402.4297,36.7373)"
             id="g4608" />
          <g
             transform="translate(393.522,32.9463)"
             id="g4612" />
          <g
             transform="translate(411.4658,35.8682)"
             id="g4616" />
          <g
             transform="translate(408.8545,26.8291)"
             id="g4620" />
          <g
             transform="translate(397.9233,33.3408)"
             id="g4624" />
        </g>
      </g>
    </g>
  </g>
</svg>
