<svg style="position: absolute; width: 0; height: 0;" width="0" height="0" version="1.1" xmlns="http://www.w3.org/2000/svg" xmlns:xlink="http://www.w3.org/1999/xlink">
<defs>
<symbol id="icon-GrandHotel" viewBox="0 0 8333 1024">
	<title>GrandHotel</title>
	<path class="path1" d="M4852.539 1001.322c-64.809-54.533-49.182-157.168 36.643-240.665 36.495-35.505 38.853-40.522 38.853-82.666 0-24.677-1.472-44.867-3.27-44.867s-14.198 5.7-27.555 12.666c-53.054 27.669-111.329 5.817-139.461-52.296-15.077-31.145-17.686-48.332-14.371-94.663 8.521-119.095 87.724-208.048 195.113-219.131 48.884-5.045 70.086 7.215 64.319 37.192-2.206 11.466-13.969 16.595-47.457 20.693-84.603 10.352-138.873 79.089-139.796 177.060-0.552 58.615 17.239 87.042 51.848 82.848 40.774-4.942 36.681-43.47 59.296-139.236l2.905-88.896 62.019 5.169 8.479 279.792 36.034-54.305c19.819-29.868 36.034-59.257 36.034-65.31 0-44.316 38.029-67.415 71.135-43.207 14.269 10.434 14.293 12.525 0.477 41.498-18.868 39.567-11.349 74.693 15.988 74.693 46.297 0 107.151-109.983 128.218-231.732 7.126-41.183 15.123-78.383 17.77-82.666 6.462-10.456 43.404-9.883 63.719 0.99 15.189 8.129 16.4 19.028 16.4 147.681 0 76.397 2.316 144.939 5.146 152.316s12.092 13.411 20.581 13.411c18.023 0 50.58-38.124 50.58-59.228 0-24.542 17.491-66.341 29.726-71.036 6.371-2.445 21.225 3.138 33.009 12.407 20.878 16.422 21.079 17.577 7.876 45.264-17.109 35.877-9.645 72.593 14.757 72.593 27.359 0 61.667-21.445 97.16-60.731l32.879-36.393-35.235-6.968c-51.393-10.163-78.438-45.407-78.397-102.163 0.054-73.006 45.582-124.408 110.195-124.408 20.863 0 37.759 11.197 81.93 54.295l55.646 54.295-17.34 53.807c-34.312 106.469-31.308 168.267 8.178 168.267 28.389 0 48.661-23.734 63.308-74.119 14.369-49.429 30.921-62.964 51.649-42.236 28.139 28.139-21.015 135.687-74.703 163.451-53.724 27.782-127.074-1.279-138.878-55.023l-4.998-22.755-32.281 30.709c-61.298 58.312-137.292 86.383-164.653 42.168l-21.809-17.155-28.086 17.123c-41.091 25.053-79.29 22.397-109.284-7.597-22.498-22.498-24.801-30.121-24.976-82.666l-0.193-57.882-29.125 54.048c-33.752 62.634-50.639 83.015-82.39 99.434-32.811 16.967-68.801 14.634-95.255-6.174l-22.914-18.024-14.026 20.144c-7.714 11.079-22.991 42.926-46.058 55.006l-32.032 34.862v99.513c0 112.163-11.294 149.438-51.594 170.278-34.869 18.032-62.427 15.186-91.731-9.471zM4919.6 946.75c5.056-9.447 7.742-48.156 6.657-86.905l-2.461-69.867-23.316 46.177c-22.427 44.416-29.029 85.922-18.17 114.222 7.149 18.63 26.379 16.76 37.29-3.627zM5697.887 436.422c12.491-12.491 13.308-61.393 1.397-83.647-10.609-19.823-36.018-21.265-54.207-3.076-18.617 18.617-17.616 76.598 1.514 87.74 20.011 11.655 39 11.279 51.295-1.017zM4203.402 1018.616c-3.109-3.109-5.652-86.99-5.652-186.404v-180.751l-27.555 16.801c-34.84 21.242-83.29 21.703-108.813 1.036-19.072-15.443-20.177-15.444-45.452-0.036-14.247 8.688-38.494 15.811-53.881 15.828-30.323 0.036-74.523-19.197-79.681-34.669-1.999-5.996-15.511-1.272-35.863 12.539-65.796 44.65-126.687 18.573-194.057-83.107l-21.997-33.201-2.502 67.115c-2.457 65.91-2.913 67.162-25.418 69.759-15.509 1.79-26.246-2.686-33.216-13.848-10.115-16.196-10.77-16.206-36.433-0.556-35.853 21.863-75.218 20.369-103.464-3.926l-23.165-19.926-29.362 19.926c-41.319 28.040-81.262 26.314-112.433-4.858-22.498-22.498-24.801-30.121-24.976-82.666l-0.193-57.883-29.125 54.048c-33.752 62.634-50.639 83.015-82.39 99.434-36.464 18.856-71.188 14.685-101.234-12.162-22.669-20.255-27.389-31.198-30.167-69.948-5.217-72.768 27.241-111.793 68.121-81.901 14.749 10.785 14.791 12.719 0.914 41.818-18.868 39.567-11.35 74.693 15.988 74.693 46.297 0 107.151-109.983 128.218-231.732 7.126-41.183 15.123-78.383 17.77-82.666 6.462-10.456 43.404-9.883 63.719 0.99 15.189 8.129 16.4 19.028 16.4 147.681 0 76.397 2.316 144.939 5.146 152.316 7.735 20.157 33.864 16.146 52.959-8.129 24.184-30.745 36.099-96.921 35.049-194.662-0.501-46.632-0.682-89.555-0.401-95.384 0.619-12.854 29.435-13.865 51.939-1.821 15.189 8.129 16.4 19.028 16.4 147.681 0 76.397 2.316 144.939 5.146 152.316 7.755 20.208 33.882 16.124 53.094-8.3 24.956-31.727 36.64-102.214 34.037-205.343-2.203-87.26-1.569-90.997 15.866-93.543 9.988-1.459 25.988 1.537 35.555 6.657 15.437 8.262 17.395 17.385 17.395 81.079 0 39.473 3.329 71.769 7.399 71.769 14.086 0 76.42-74.963 98.397-118.333 23.686-46.743 40.105-58.885 58.727-43.43 32.067 26.613 15.344 72.97-56.257 155.939l-42.533 49.286 15.885 29.698c23.744 44.391 66.715 87.932 86.781 87.932 26.644 0 46.328-37.923 53.235-102.563 7.887-73.813 30.463-124.435 74.597-167.265 70.704-68.616 197.435-82.941 185.514-20.97-2.206 11.466-13.969 16.595-47.457 20.693-77.307 9.459-119.441 55.978-137.645 151.969-9.625 50.75 0.961 104.917 22.089 113.024 26.215 10.060 44.895 4.756 62.621-17.779 16.145-20.525 17.846-32.57 16.463-116.58l-1.542-93.69 22.818-2.732c41.893-5.016 47.228 8.15 47.228 116.535 0 101.114 5.242 119.357 34.296 119.357 43.204 0 70.372-92.675 66.151-225.653l-3.065-96.531h23.377c12.857 0 30.583 7.207 39.391 16.015 15.701 15.701 16.347 15.683 32.964-0.934 26.181-26.181 85.314-29.634 114.402-6.68 42.207 33.306 52.578 63.841 51.862 152.692-0.357 44.3-4.962 91.038-10.233 103.862-7.987 19.432-7.43 23.316 3.345 23.316 26.285 0 59.446-24.743 78.429-58.519 10.74-19.11 24.54-34.745 30.665-34.745 19.503 0 31.965 23.402 26.269 49.332-9.882 44.995-70.1 87.537-140.234 99.073-20.984 3.452-49.6 14.395-63.589 24.319-18.163 12.884-38.163 18.043-69.948 18.043h-44.512v158.674c0 148.199-1.083 159.254-16.4 167.451-18.792 10.057-37.563 11.338-45.776 3.124zM4322.775 607.458c30.906-9.114 37.936-15.684 49.676-46.426 19.38-50.745 14.032-163.754-8.952-189.15-21.819-24.11-53.263-19.667-75.887 10.723-15.519 20.846-18.155 38.047-20.608 134.474-2.279 89.602-0.671 109.663 8.479 105.783 6.21-2.633 27.491-9.566 47.291-15.405zM7273.766 1000.528c-3.109-3.109-15.551-87.484-5.652-186.404v-180.751l-27.555 16.801c-34.84 21.242-83.29 21.703-108.813 1.036-19.072-15.443-20.177-15.444-45.452-0.036-47.666 29.068-115.981 14.789-139.501-29.158-10.561-19.733-14.461-20.758-63.289-16.63-37.804 3.196-57.832 9.626-73.231 23.509-11.658 10.51-29.53 23.391-39.716 28.624-44.221 22.719-134.858 7.838-150.778-37.889l-13.437-20.507-25.861 29.454c-29.507 33.606-71.6 45.616-107.607 30.701-42.215-17.487-47.553-36.199-50.997-178.772-1.745-72.28-6.549-134.952-10.674-139.272-11.555-12.1-41.737 19.528-64.131 67.204-14.476 30.82-20.163 58.594-20.833 101.743-0.507 32.642-3.406 80.334-6.442 105.982-4.613 38.966-8.483 47.055-23.54 49.203-9.911 1.414-24.219-3.628-31.795-11.204-11.662-11.662-13.775-36.48-13.775-161.81 0-124.319-2.055-148.824-12.826-152.957-18.633-7.15-34.613 9.472-61.103 63.561-20.702 42.269-23.951 60.285-27.75 153.857l-4.303 105.982-21.922 2.548c-12.057 1.402-26.222-2.633-31.478-8.966-6.341-7.641-9.902-71.253-10.585-189.076-0.999-172.379-0.525-177.639 16.204-180.214 29.403-4.525 52.021 13.411 52.021 41.253v25.286l36.7-38.302c28.624-29.874 42.702-38.302 63.975-38.302 32.104 0 68.896 32.117 68.896 60.142 0 15.829 5.322 12.805 36.626-20.811 43.255-46.448 75.15-51.759 113.395-18.879l23.789 20.452 4.239 142.761c4.123 138.859 4.746 142.833 22.78 145.4 20.525 2.921 39.303-19.941 55.283-67.307 5.64-16.717 11.681-120.8 14.544-250.564 4.592-208.178 6.004-223.454 22.72-245.878 32.591-43.721 91.741-47.965 117.638-8.441 29.224 44.602 33.046 159.059 8.267 247.559-4.24 15.144-0.858 17.15 28.92 17.15 37.284 0 62.226 17.456 84.223 58.944 14.523 27.392 19.275 134.329 7.82 175.95-5.669 20.596-4.115 23.316 13.32 23.316 31.997 0 46.030-17.995 51.235-65.7 6.66-61.029 31.333-112.852 72.968-153.256 70.704-68.616 197.435-82.941 185.514-20.97-2.206 11.466-13.969 16.595-47.457 20.693-79.497 9.727-124.032 61.186-137.25 158.587-6.836 50.376 0.788 93.106 18.633 104.433 20.932 13.286 47.903 6.795 65.681-15.805 16.145-20.525 17.846-32.57 16.463-116.58l-1.542-93.69 22.818-2.732c41.893-5.016 47.228 8.15 47.228 116.535 0 101.114 5.242 119.357 34.296 119.357 43.204 0 70.372-92.675 66.151-225.653l-3.064-96.531h23.377c12.857 0 30.583 7.207 39.391 16.015 15.701 15.701 16.347 15.683 32.965-0.934 9.733-9.733 32.862-18.743 54.323-21.162 51.811-5.84 86.384 23.324 105.466 88.967 14.422 49.61 11.951 138.856-5.085 183.664-9.914 26.075 3.633 28.943 42.289 8.954 27.077-14.002 34.66-34.755 49.748-136.152 4.902-32.942 13.815-74.911 19.808-93.264 9.93-30.411 13.818-33.609 43.866-36.071 37.363-3.061 36.11-16.296 9.888 104.444-14.891 68.565-17.169 167.478-4.407 191.325 11.717 21.893 45.712 20.909 66.999-1.94 30.414-32.645 38.685-73.59 38.685-191.504 0-111.794 0.096-112.341 19.634-112.341 10.799 0 27.014 3.95 36.034 8.777 15.189 8.129 16.4 19.028 16.4 147.681 0 76.397 2.316 144.939 5.146 152.315s11.778 13.411 19.882 13.411c42.178 0 68.75-83 67.859-211.964-0.338-48.964-0.392-93.794-0.119-99.623 0.601-12.854 29.42-13.865 51.924-1.821 14.231 7.616 16.4 18.267 16.4 80.546v71.769h109.585l2.438-78.427c2.42-77.848 2.604-78.446 24.934-81.030 42.685-4.94 49.571 19.276 49.571 174.327 0 120.196 1.813 138.971 13.87 143.598 23.759 9.117 40.558-9.426 59.684-65.877 13.082-38.611 22.673-54.438 32.99-54.438 54.343 0 17.158 124.896-49.237 165.377-74.47 45.405-133.615 0.469-133.615-101.516v-42.665h-109.585l-2.438 78.426c-2.42 77.848-2.604 78.446-24.934 81.030-14.982 1.734-26.471-3.071-34.396-14.386-11.808-16.858-12.093-16.862-36.854-0.54-24.782 16.336-66.102 21.387-92.402 11.294-7.549-2.897-19.526-16.486-26.617-30.198l-12.892-24.931-16.182 20.572c-45.481 57.82-140.627 45.506-162.82-21.072-2.036-6.109-11.431-4.885-28.12 3.662-13.784 7.060-42.231 15.66-63.215 19.112s-49.6 14.395-63.589 24.319c-18.163 12.884-38.163 18.043-69.948 18.043h-44.512v158.674c0 148.199-1.083 159.254-16.4 167.451-18.792 10.057-37.563 11.338-45.776 3.124zM6760.781 593.722c14.781-13.376 14.025-15.495-17.875-50.103-19.183-20.811-37.504-51.716-43.202-72.875l-9.893-36.739-16.867 32.878c-41.476 80.845 27.924 181.060 87.837 126.839zM7393.139 589.371c30.906-9.115 37.936-15.684 49.676-46.426 19.38-50.745 14.032-163.754-8.952-189.15-21.819-24.11-53.263-19.667-75.887 10.723-15.519 20.846-18.155 38.047-20.608 134.474-2.279 89.602-0.671 109.663 8.479 105.783 6.21-2.633 27.491-9.566 47.291-15.405zM6784.617 369.88c-15.211-28.422-29.266-14.203-32.001 32.374-1.909 32.514 2.329 52.48 16.957 79.88l19.503 36.531 2.474-65.603c1.391-36.891-1.643-73.296-6.933-83.181zM6693.968 225.187c10.622-84.154 1.717-155.886-19.353-155.886-10.745 0-12.957 22.353-14.261 144.135-1.454 135.741-0.79 142.42 11.398 114.679 7.118-16.201 17.115-62.519 22.216-102.928zM140.765 681.492c-146.5-53.603-188.29-327.405-79.303-519.58 32.012-56.446 88.726-114.803 134.034-137.918 71.265-36.357 154.62-30.869 195.726 12.886 28.434 30.267 33.33 107.111 9.767 153.299-35.598 69.779-128.852 135.636-204.794 144.631-37.213 4.407-42.209 2.869-55.234-17.010-8.046-12.279-12.053-29-9.146-38.16 4.292-13.522 11.284-15.693 40.976-12.723 93.36 9.339 213.826-128.681 159.623-182.883-31.772-31.772-86.788-21.715-140.843 25.745-108.995 95.699-153.102 313.966-88.882 439.846 43.198 84.674 129.408 99.207 221.375 37.318 48.458-32.61 63.493-32.472 71.809 0.659 16.215 64.606-158.951 129.074-255.109 93.89zM862.048 680.281c-9.867-9.867-13.421-31.313-13.698-82.666l-0.374-69.342-17.731 33.914c-56.468 108.008-131.178 150.142-187.57 105.784l-21.809-17.155-28.086 17.123c-37.994 23.164-76.674 21.978-106.040-3.251l-23.789-20.438-4.239-161.99c-2.332-89.094-2.967-165.742-1.413-170.329 3.694-10.901 32.095-10.666 52.842 0.438 15.189 8.129 16.4 19.028 16.4 147.681 0 76.397 2.316 144.939 5.146 152.316 14.055 36.627 59.491 1.722 72.369-55.596 13.339-59.369 31.631-71.25 66.377-43.115 18.093 14.651 18.196 15.747 3.847 40.75-9.753 16.993-12.805 33.428-9.014 48.533 8.89 35.422 40.064 30.336 76.748-12.522 36.148-42.231 58.572-98.888 76.46-193.187 7.273-38.339 15.372-73.184 17.998-77.433 6.43-10.404 43.418-9.793 63.681 1.052 14.939 7.995 16.4 18.719 16.4 120.395 0 61.909 3.208 108.031 7.204 103.564 12.972-14.505 37.259-82.997 55.47-156.429 16.552-66.743 19.564-72.263 40.769-74.71 12.593-1.453 30.716 1.542 40.273 6.657 16.411 8.783 17.384 16.94 17.506 146.778 0.072 75.613 3.39 142.623 7.375 148.91 10.534 16.622 34.8 8.917 54.313-17.244 12.767-17.117 17.473-38.164 18.957-84.785 2.634-82.768 17.36-127.598 56.533-172.1 92.758-105.378 211.823-12.568 152.102 118.562-16.554 36.348-72.618 92.137-101.944 101.445-24.202 7.681-22.566 16.056 8.192 41.936 43.283 36.42 114.379 25.020 146.125-23.431 7.5-11.447 17.645-52.657 22.544-91.578 9.611-76.357 29.141-158.48 40.090-168.576 12.588-11.608 40.62-16.317 52.55-8.827 10.041 6.304 9.572 16.269-3.089 65.515-19.249 74.875-27.063 205.6-13.773 230.432 6.024 11.255 17.981 18.416 30.754 18.416 54.768 0 83.508-82.143 78.952-225.653l-3.064-96.531h25.92c43.884 0 46.269 8.134 46.269 157.855 0 75.629 2.316 143.542 5.146 150.918 7.735 20.157 33.864 16.146 52.959-8.129 24.184-30.745 36.099-96.921 35.049-194.662-0.501-46.632-0.682-89.555-0.402-95.384 0.619-12.854 29.435-13.865 51.939-1.821 14.231 7.616 16.4 18.267 16.4 80.546v71.769h109.585l2.438-78.427c2.403-77.311 2.75-78.463 24.36-80.975 40.226-4.676 45.531 13.442 50.146 171.269 4.127 141.148 4.73 145.056 22.78 147.625 27.063 3.852 42.774-26.886 49.020-95.903 6.15-67.96 28.115-179.444 39.673-201.366 5.232-9.923 17.905-14.837 38.259-14.837 28.758 0 30.162 1.285 25.456 23.316-2.739 12.824-10.781 50.023-17.87 82.666-14.891 68.565-17.169 167.478-4.407 191.325 11.717 21.893 45.712 20.909 66.999-1.94 30.414-32.645 38.685-73.59 38.685-191.504 0-111.794 0.096-112.341 19.634-112.341 10.799 0 27.014 3.95 36.034 8.777 15.189 8.129 16.4 19.028 16.4 147.681 0 76.397 2.316 144.939 5.146 152.316 7.733 20.153 33.863 16.148 52.949-8.116 11.206-14.246 18.75-40.772 22.305-78.426 7.146-75.69 30.009-185.582 41.663-200.259 12.718-16.018 40.694-23.201 55.111-14.15 10.041 6.304 9.572 16.269-3.089 65.515-19.249 74.875-27.063 205.6-13.773 230.432 6.024 11.255 17.981 18.416 30.754 18.416 54.768 0 83.508-82.143 78.952-225.654l-3.064-96.531h25.92c43.884 0 46.269 8.134 46.269 157.855 0 75.629 2.316 143.542 5.146 150.918 6.942 18.091 31.422 16.943 48.828-2.29 7.815-8.636 20.806-36.252 28.869-61.369 16.781-52.275 38.31-64.128 53.986-29.723 8.492 18.639 6.070 29.246-17.71 77.55-30.275 61.497-63.163 88.509-107.828 88.562-38.725 0.045-52.655-7.299-67.204-35.433l-12.892-24.931-16.182 20.572c-33.907 43.105-106.809 50.727-139.516 14.586-14.664-16.203-15.285-16.143-45.525 4.405-49.764 33.816-103.208 27.561-125.027-14.632l-12.892-24.931-16.182 20.572c-33.753 42.911-106.792 50.746-139.202 14.933-14.244-15.74-15.192-15.646-44.74 4.405-75.401 51.168-138.042 6.724-138.042-97.942v-42.665h-109.585l-2.438 78.426c-2.432 78.224-2.497 78.433-25.354 81.071-15.509 1.79-26.246-2.686-33.216-13.848-10.115-16.196-10.77-16.206-36.433-0.556-26.101 15.916-67.655 20.682-93.582 10.733-7.549-2.897-19.526-16.486-26.617-30.198l-12.892-24.931-16.182 20.572c-35.307 44.886-111.515 50.796-141.55 10.977l-14.82-19.647-30.098 19.918c-34.293 22.694-94.35 33.414-139.619 24.922-17.27-3.24-45.269-18.833-63.675-35.462-32.258-29.143-33.024-29.356-42.428-11.785-13.608 25.426-58.9 50.832-90.687 50.869-16.374 0.018-36.405-7.987-50.66-20.249-21.244-18.273-23.903-26.717-26.861-85.299l-3.283-65.018-41.478 82.703c-22.813 45.487-46.23 85.72-52.038 89.409-16.764 10.646-37.912 8.077-52.347-6.358zM1276.882 481.65c19.942-20.815 25.028-34.656 28.041-76.307 3.413-47.183 2.388-50.88-14.1-50.88-24.085 0-40.509 28.247-51.435 88.462-5.021 27.67-9.129 53.423-9.129 57.23 0 14.971 23.479 5.652 46.624-18.506zM1478.864 213.685c-2.984-7.777-1.542-20.299 3.206-27.826 7.12-11.288 25.547-13.685 105.212-13.685h96.579v50.871l-99.785 2.39c-86.72 2.077-100.496 0.539-105.212-11.751zM2496.29 213.685c-2.984-7.777-1.542-20.299 3.206-27.826 7.12-11.288 25.547-13.685 105.212-13.685h96.579v50.871l-99.785 2.39c-86.72 2.077-100.496 0.539-105.212-11.751zM468.667 190.704c-22.996-24.478-23.54-51.579-1.478-73.641 35.154-35.154 93.264-11.382 93.264 38.153 0 51.051-56.605 72.936-91.786 35.487zM3410.723 190.704c-22.996-24.478-23.54-51.579-1.478-73.641 35.154-35.154 93.264-11.382 93.264 38.153 0 51.051-56.605 72.936-91.786 35.487z"></path>
</symbol>
<symbol id="icon-GrandHoteltworow" viewBox="0 0 2460 1024">
	<title>GrandHoteltworow</title>
	<path class="path1" d="M303.54 1012.692c-34.77-29.257-26.386-84.32 19.659-129.115 19.579-19.048 20.844-21.74 20.844-44.35 0-13.239-0.789-24.071-1.754-24.071s-7.617 3.058-14.783 6.795c-28.463 14.844-59.727 3.121-74.82-28.057-8.089-16.709-9.489-25.93-7.71-50.786 4.572-63.894 47.063-111.616 104.677-117.562 26.226-2.707 37.601 3.871 34.507 19.953-1.183 6.152-7.494 8.903-25.461 11.102-45.389 5.554-74.504 42.431-75 94.992-0.296 31.446 9.248 46.698 27.816 44.447 21.875-2.651 30.088-21.936 31.812-74.699l1.558-47.692 33.273 2.773 4.549 150.107 19.332-29.135c10.633-16.024 19.332-31.791 19.332-35.038 0-23.775 20.403-36.168 38.163-23.181 7.655 5.598 7.668 6.719 0.256 22.263-10.123 21.228-6.089 40.072 8.578 40.072 24.838 0 57.486-59.005 68.788-124.323 3.823-22.095 8.113-42.052 9.533-44.35 3.467-5.61 23.286-5.302 34.185 0.531 8.149 4.361 8.798 10.208 8.798 79.23 0 40.987 1.242 77.759 2.761 81.716s6.487 7.195 11.042 7.195c9.669 0 27.136-20.453 27.136-31.775 0-13.167 9.384-35.591 15.948-38.11 3.418-1.312 11.387 1.684 17.709 6.656 11.201 8.81 11.309 9.43 4.225 24.284-9.179 19.248-5.174 38.946 7.917 38.946 14.678 0 29.009-16.076 52.126-32.582l17.639-19.525-18.904-3.738c-27.572-5.453-42.082-24.361-42.060-54.81 0.029-39.167 24.454-66.744 59.119-66.744 11.193 0 17.295 9.497 43.955 29.129l29.854 29.129-9.303 28.867c-18.408 57.12-16.796 90.274 4.388 90.274 15.23 0 26.106-12.733 33.964-39.765 7.709-26.518 16.589-33.78 27.709-22.659 15.096 15.096-11.274 72.795-40.078 87.69-28.823 14.905-89.227-3.931-74.507-29.519l-2.681-12.208-17.319 16.475c-32.886 31.284-73.656 46.344-88.335 22.623l-11.701-9.204-15.068 9.187c-22.045 13.441-42.539 12.016-58.63-4.076-12.070-12.070-13.306-16.16-13.399-44.35l-0.103-31.054-15.625 28.996c-18.108 33.603-27.168 44.537-44.202 53.346-17.603 9.103-46.433 14.13-51.104-3.312l-12.293-9.67-7.525 10.807c-4.139 5.944-12.334 23.029-24.71 29.51l-17.185 18.703v53.388c0 60.175-6.059 80.173-27.68 91.353-18.707 9.674-33.492 8.147-49.213-5.081zM339.518 983.414c2.713-5.068 4.153-25.835 3.572-46.624l-1.32-37.483-12.509 24.774c-12.032 23.829-15.574 46.097-9.748 61.279 3.835 9.995 14.152 8.992 20.006-1.946zM757.064 709.627c6.701-6.701 7.139-32.937 0.75-44.876-5.692-10.635-19.324-11.408-29.081-1.65-9.988 9.988-9.451 41.094 0.812 47.072 10.736 6.253 20.923 6.051 27.52-0.545zM2245.394 546.481c-1.668-1.668 6.671-46.67 6.671-100.004v-96.972l-14.783 9.013c-18.691 11.396-44.684 11.644-58.378 0.556-10.232-8.285-10.825-8.286-24.385-0.019-7.644 4.661-20.652 8.483-28.907 8.492-16.268 0.019-39.981-10.299-42.748-18.6-1.072-3.217-8.322-0.682-19.24 6.727-35.299 23.955-67.967 9.964-104.11-44.586l-11.801-17.812-1.342 36.007c-1.318 35.36-1.563 36.032-13.637 37.425-8.321 0.96-14.081-1.441-17.82-7.429-5.426-8.689-5.778-8.694-19.546-0.298-19.235 11.729-40.354 10.928-55.508-2.106l-12.428-10.69-15.753 10.69c-22.167 15.043-43.597 14.117-60.32-2.606-12.070-12.070-13.306-16.16-13.399-44.35l-0.103-31.054-15.625 28.996c-18.108 33.603-27.168 44.537-44.201 53.346-19.563 10.116-38.192 7.878-54.311-6.525-12.162-10.867-14.694-16.738-16.184-37.527-2.799-39.039 14.615-59.976 36.546-43.939 7.913 5.786 7.935 6.823 0.491 22.435-10.123 21.228-6.089 40.072 8.577 40.072 24.838 0 57.486-59.005 68.788-124.323 3.823-22.095 8.113-42.052 9.533-44.35 3.467-5.61 23.286-5.302 34.185 0.531 8.149 4.361 8.798 10.208 8.798 79.23 0 40.987 1.242 77.759 2.761 81.716 4.15 10.814 18.168 8.662 28.412-4.361 12.975-16.495 19.367-51.998 18.804-104.435-0.269-25.018-0.366-48.045-0.215-51.173 0.332-6.896 15.792-7.438 27.865-0.977 8.149 4.361 8.798 10.208 8.798 79.23 0 40.987 1.242 77.759 2.761 81.716 4.16 10.842 18.177 8.65 28.485-4.453 13.389-17.021 19.657-54.837 18.26-110.165-1.182-46.814-0.842-48.819 8.512-50.185 5.359-0.783 13.942 0.825 19.075 3.572 8.282 4.432 9.332 9.327 9.332 43.498 0 21.177 1.786 38.504 3.969 38.504 7.557 0 40.999-40.217 52.79-63.485 12.707-25.077 21.516-31.591 31.507-23.3 17.204 14.278 8.232 39.148-30.181 83.66l-22.819 26.442 8.522 15.933c12.738 23.816 35.792 47.175 46.557 47.175 14.294 0 24.855-20.346 28.56-55.024 4.231-39.6 16.343-66.758 40.021-89.737 37.932-36.812 105.923-44.498 99.527-11.25-1.183 6.152-7.494 8.903-25.461 11.102-41.475 5.075-64.079 30.032-73.846 81.531-5.164 27.227 0.516 56.287 11.85 60.637 14.064 5.397 24.086 2.552 33.596-9.538 8.662-11.012 9.574-17.474 8.832-62.544l-0.827-50.264 12.242-1.466c22.475-2.691 25.338 4.372 25.338 62.52 0 54.247 2.812 64.034 18.399 64.034 23.179 0 37.754-49.72 35.489-121.062l-1.644-51.788h12.541c6.898 0 16.408 3.866 21.133 8.592 8.423 8.423 8.77 8.414 17.685-0.501 14.046-14.046 45.77-15.898 61.376-3.584 22.644 17.868 28.208 34.25 27.823 81.918-0.192 23.767-2.662 48.841-5.49 55.721-4.285 10.425-3.986 12.509 1.795 12.509 14.102 0 31.893-13.275 42.077-31.395 5.762-10.252 13.165-18.641 16.452-18.641 10.463 0 17.149 12.555 14.093 26.467-5.302 24.139-37.608 46.963-75.235 53.152-11.258 1.852-26.61 7.723-34.115 13.047-9.744 6.912-20.474 9.68-37.527 9.68h-23.881v85.128c0 79.508-10.285 85.439-18.502 89.837-10.082 5.395-20.152 6.083-24.559 1.676zM2319.141 325.897c16.581-4.89 20.352-8.414 26.651-24.907 10.397-27.224 7.528-87.853-4.802-101.478-11.706-12.935-28.575-10.551-40.713 5.753-8.326 11.184-9.74 20.412-11.056 72.145-1.222 48.071-0.36 58.833 4.549 56.752 3.332-1.413 14.749-5.132 25.372-8.265zM1602.513 1012.266c-1.668-1.668-3.032-46.67-3.032-100.004v-96.972l-14.783 9.013c-18.691 11.396-44.684 11.644-58.378 0.556-10.232-8.285-10.825-8.286-24.385-0.019-25.573 15.595-62.223 7.934-74.841-15.643-5.666-10.587-7.758-11.136-33.954-8.922-20.282 1.715-31.026 5.164-39.288 12.612-6.254 5.639-15.843 12.549-21.307 15.357-23.724 12.189-72.35 4.205-80.891-20.327l-7.209-11.002-13.874 15.802c-15.83 18.030-38.413 24.473-57.731 16.471-22.648-9.381-25.512-19.421-27.359-95.91-0.936-38.777-3.513-72.401-5.727-74.718-6.199-6.492-22.392 10.477-34.406 36.055-7.766 16.535-10.818 31.435-11.177 54.584-0.272 17.512-1.827 43.099-3.456 56.859-2.475 20.905-4.551 25.244-12.629 26.397-5.317 0.759-12.993-1.946-17.058-6.011-6.257-6.257-7.39-19.571-7.39-86.81 0-66.696-1.102-79.843-6.881-82.060-9.997-3.836-18.57 5.082-32.781 34.1-11.106 22.677-12.85 32.342-14.888 82.543l-2.308 56.859-11.761 1.367c-6.469 0.752-14.068-1.413-16.888-4.81-3.402-4.099-5.313-38.227-5.679-101.438-0.536-92.48-0.282-95.302 8.693-96.683 15.774-2.428 19.219 9.983 27.909 22.132v13.566l19.689-20.549c15.357-16.027 22.909-20.549 34.322-20.549 17.224 0 36.962 17.231 36.962 32.266 0 8.492 2.855 6.87 19.65-11.165 23.206-24.919 36.522-22.003 60.836-10.129l12.763 10.972 2.274 76.59c2.212 74.497 2.546 76.629 12.221 78.006 11.011 1.567 21.086-10.698 29.659-36.11 3.026-8.969 6.267-64.809 7.803-134.426 2.464-111.686 12.925-119.881 21.893-131.912 17.485-23.456 49.218-25.733 63.112-4.529 15.679 23.929 8.025 85.334-5.269 132.814-2.275 8.125-0.46 9.201 15.515 9.201 20.003 0 33.384 9.365 45.185 31.623 7.792 14.696 10.341 72.067 4.195 94.396-3.041 11.050-2.208 12.509 7.146 12.509 17.166 0 24.695-9.654 27.487-35.248 3.573-32.741 16.81-60.544 39.147-82.221 37.932-36.812 105.923-44.498 99.527-11.25-1.183 6.152-7.494 8.903-25.461 11.102-42.65 5.219-66.542 32.826-73.634 85.081-3.668 27.026 0.423 49.951 9.997 56.028 11.23 7.128 25.7 3.646 35.237-8.479 8.662-11.011 0.993-18.154 8.832-62.544l-0.827-50.264 12.242-1.466c22.475-2.691 25.338 4.372 25.338 62.52 0 54.247 2.812 64.034 18.399 64.034 23.179 0 24.513-50.533 35.489-121.062l-1.644-51.788h12.541c6.898 0 16.408 3.866 21.133 8.592 8.423 8.423 8.77 8.414 17.685-0.501 5.222-5.222 17.63-10.056 29.144-11.353 27.796-3.133 46.344 12.513 56.582 47.73 7.737 26.616 6.412 74.495-2.728 98.535-5.319 13.989 1.949 15.528 22.688 4.804 14.526-7.512 18.595-18.646 26.689-73.045 2.63-17.673 7.412-40.189 10.627-50.036 5.327-16.316 7.413-18.031 23.534-19.352 20.045-1.642 19.373-8.743 5.305 56.034-7.989 36.785-9.211 89.851-2.364 102.644 6.286 11.746 24.524 11.217 35.944-1.041 16.317-17.514 20.754-39.48 20.754-102.741 0-59.977 0.051-60.27 10.534-60.27 5.793 0 14.493 2.119 19.332 4.709 8.149 4.361 8.798 10.208 8.798 79.23 0 40.987 1.242 77.759 2.761 81.716s6.319 7.195 10.667 7.195c22.628 0 36.884-44.529 36.406-113.717-0.181-26.269-0.21-50.32-0.064-53.447 0.323-6.896 15.784-7.439 27.857-0.977 7.635 4.086 8.798 9.8 8.798 43.213v38.504h58.792l1.308-42.075c1.298-41.765 1.397-42.086 13.377-43.472 22.9-2.65 26.595 10.342 26.595 93.525 0 64.485 0.973 74.557 7.441 77.039 12.746 4.891 21.759-5.057 32.020-35.342 7.018-20.715 12.164-29.206 17.699-29.206 29.154 0 9.205 67.006-26.415 88.724-39.953 24.36-57.256 0.844-67.183-52.963l-4.5-24.389h-58.792l-1.308 42.075c-1.298 41.765-1.397 42.086-13.377 43.472-8.038 0.93-14.201-1.647-18.453-7.718-6.335-9.044-6.488-9.046-19.772-0.29-13.296 8.764-35.463 11.474-49.573 6.059-4.050-1.554-15.97-8.093-14.28-16.201l-6.917-13.375-8.681 11.036c-24.401 31.020-75.446 24.414-87.352-11.305-1.093-3.277-6.133-2.621-15.086 1.965-7.395 3.788-22.657 8.402-33.915 10.253s-26.61 7.723-34.115 13.047c-9.744 6.912-20.474 9.68-37.527 9.68h-23.881v85.128c0 79.508-0.581 85.439-8.798 89.837-10.082 5.395-20.152 6.083-24.559 1.676zM1327.3 794.017c7.93-7.176 7.524-8.313-9.59-26.88-10.292-11.165-25.737-27.623-23.177-39.097l-5.307-19.71-9.049 17.639c-22.252 43.373 14.981 97.137 47.124 68.048zM1666.556 791.683c16.581-4.89 20.352-8.415 26.651-24.907 10.397-27.224 7.528-87.853-4.802-101.478-11.706-12.935-28.575-10.551-40.713 5.753-8.326 11.184-9.74 20.412-11.056 72.145-1.222 48.071-0.36 58.833 4.549 56.752 3.332-1.413 14.749-5.132 25.372-8.265zM1340.088 673.927c-8.161-15.248-15.701-7.62-17.168 17.368-1.024 17.443-2.853 31.242 9.097 42.855l10.463 19.599 1.327-35.196c0.746-19.792-0.881-39.323-3.719-44.626zM1291.455 596.3c5.699-45.148 10.625-83.632-0.679-83.632-5.765 0-16.655 11.992-17.355 77.328-0.78 72.824-0.424 76.407 6.115 61.524 3.819-8.692 9.182-33.541 11.919-55.22zM75.52 365.616c-78.596-28.758-101.016-175.651-42.546-278.752 17.174-30.283 47.601-61.591 71.909-73.992 38.233-19.505 82.953-16.561 105.006 6.913 15.255 16.238 17.881 57.464 5.24 82.244-19.098 37.436-69.128 72.768-109.871 77.593-19.964 2.364-22.645 1.539-29.633-9.126-4.317-6.588-6.466-15.558-4.907-20.473 2.303-7.255 6.054-8.419 21.983-6.826 50.087 5.010 114.716-69.036 85.637-98.115-17.045-17.045-46.561-11.65-75.561 13.812-58.475 51.342-82.138 168.441-47.685 235.974 23.175 45.427 69.426 53.224 118.766 20.021 25.998-17.495 34.064-17.421 38.525 0.354 8.699 34.66-85.276 69.247-136.864 50.371zM462.483 364.967c-5.294-5.294-7.2-16.799-7.349-44.35l-0.201-37.202-9.513 18.195c-30.295 57.946-70.376 80.55-100.63 56.752l-11.701-9.204-15.068 9.187c-20.383 12.427-41.135 11.791-56.89-1.744l-12.763-10.965-2.274-86.906c-1.251-47.798-1.592-88.92-0.758-91.38 1.982-5.848 17.219-5.722 28.349 0.235 8.149 4.361 8.798 10.208 8.798 79.23 0 40.987 1.242 77.759 2.761 81.716 7.54 19.65 31.917 0.924 38.826-29.827 7.156-31.851 16.97-38.225 35.611-23.131 9.707 7.86 9.762 8.448 2.064 21.862-5.232 9.117-6.87 17.934-4.836 26.038 4.77 19.004 21.494 16.275 41.175-6.718 19.393-22.657 31.424-53.053 41.020-103.644 3.902-20.569 8.247-39.263 9.656-41.542 3.45-5.582 23.293-5.254 34.164 0.564 8.015 4.289 8.798 10.043 8.798 64.591 0 33.214 1.721 57.958 3.865 55.561 6.959-7.782 19.989-44.527 29.759-83.923 8.88-35.807 10.496-38.769 21.872-40.081 6.756-0.78 16.479 0.827 21.606 3.572 8.804 4.712 9.326 9.088 9.392 78.745 0.039 40.566 1.819 76.516 3.957 79.89 5.651 8.917 18.67 4.784 29.139-9.251 6.849-9.183 9.374-20.475 10.17-45.487 1.413-44.404 9.314-68.456 30.329-92.331 49.764-56.535 113.642-6.742 81.602 63.608-8.881 19.501-38.959 49.431-54.692 54.425-12.984 4.121-12.106 8.614 4.395 22.499 23.221 19.539 61.363 13.423 78.395-12.571 4.024-6.141 9.467-28.25 12.095-49.131 5.156-40.965 15.634-85.024 21.508-90.44 6.754-6.228 21.793-8.754 28.193-4.736 5.387 3.382 5.135 8.728-1.657 35.148-10.327 40.17-14.519 110.303-7.389 123.625 3.232 6.038 9.647 9.88 16.499 9.88 29.382 0 44.801-44.069 42.357-121.062l-1.644-51.788h13.906c23.544 0 24.823 4.364 24.823 84.688 0 40.574 1.242 77.009 2.761 80.967 4.15 10.814 18.168 8.662 28.412-4.361 12.975-16.495 19.367-51.998 18.804-104.435-0.269-25.018-0.366-48.046-0.215-51.173 0.332-6.896 15.792-7.438 27.865-0.977 7.635 4.086 8.798 9.8 8.798 43.213v38.504h58.792l1.308-42.075c1.289-41.477 1.475-42.095 13.069-43.442 21.581-2.509 24.427 7.212 26.903 91.884 2.214 75.725 2.538 77.821 12.221 79.2 14.519 2.067 22.948-14.424 26.299-51.451 3.3-36.46 15.083-96.271 21.284-108.031 2.807-5.323 9.606-7.96 20.526-7.96 15.429 0 16.182 0.69 13.657 12.509-1.47 6.88-5.784 26.837-9.587 44.35-7.989 36.785-9.211 89.851-2.364 102.644 6.286 11.746 24.524 11.217 35.944-1.041 16.317-17.514 20.754-39.48 20.754-102.741 0-59.977 0.051-60.27 10.534-60.27 5.793 0 14.493 2.119 19.332 4.709 8.149 4.361 8.798 10.208 8.798 79.23 0 40.987 1.242 77.759 2.761 81.716 4.149 10.812 18.167 8.663 28.407-4.354 6.012-7.643 10.059-21.874 11.967-42.075 3.834-40.607 16.099-99.563 22.352-107.438 6.823-8.593 21.832-12.447 29.567-7.591 5.387 3.382 5.135 8.728-1.657 35.148-10.327 40.17-14.519 110.303-7.389 123.625 3.232 6.038 9.647 9.88 16.499 9.88 29.382 0 44.801-44.069 42.357-121.062l-1.644-51.788h13.906c23.544 0 24.823 4.364 24.823 84.688 0 40.574 1.242 77.009 2.761 80.967 3.724 9.706 16.858 9.090 26.196-1.229 4.193-4.633 11.162-19.449 15.488-32.924 9.003-28.045 20.553-34.405 28.963-15.946 4.556 10 3.257 15.69-9.501 41.605-16.242 32.993-33.887 47.485-57.849 47.513-20.776 0.024-28.249-3.916-36.054-19.009l-6.917-13.375-8.681 11.036c-18.191 23.126-57.302 27.215-74.85 7.825-7.867-8.693-8.2-8.661-24.424 2.363-26.698 18.142-55.37 14.787-67.076-7.85l-6.917-13.375-8.681 11.036c-18.109 23.021-57.293 27.225-74.681 8.012-7.642-8.444-8.151-8.394-24.003 2.363-40.452 27.451-74.059 3.607-74.059-52.545v-22.89h-58.792l-1.308 42.075c-1.305 41.967-1.34 42.079-13.602 43.494-8.321 0.96-14.081-1.441-17.82-7.429-5.426-8.689-5.778-8.694-19.546-0.298-14.003 8.539-36.296 11.096-50.206 5.758-4.050-1.554-10.476-8.844-14.28-16.201l-6.917-13.375-8.681 11.036c-18.942 24.081-59.827 27.252-75.941 5.889l-7.951-10.54-16.147 10.686c-18.398 12.175-50.618 17.927-74.904 13.37-9.265-1.738-24.287-10.104-34.161-19.025-17.306-15.635-17.717-15.749-22.762-6.323-7.3 13.641-31.599 27.271-48.653 27.291-8.785 0.010-19.531-4.285-27.179-10.863-11.397-9.803-12.824-14.334-14.411-45.762l-1.761-34.882-22.253 44.369c-12.239 24.403-24.802 45.988-27.918 47.967-8.994 5.711-20.34 4.333-28.084-3.411zM685.039 258.402c10.699-11.167 13.427-18.593 15.044-40.938 1.831-25.313 1.281-27.297-7.565-27.297-12.921 0-21.733 15.154-27.595 47.459-2.694 14.845-4.898 28.661-4.898 30.704 0 8.032 12.596 3.032 25.013-9.928zM793.401 114.641c-1.601-4.173-0.827-10.89 1.72-14.928 3.82-6.056 13.706-7.342 56.445-7.342h51.814v27.292l-53.534 1.282c-46.525 1.114-53.915 0.289-56.445-6.304zM1339.243 114.641c-1.601-4.173-0.827-10.89 1.72-14.928 3.82-6.056 13.706-7.342 56.445-7.342h51.814v27.292l-53.534 1.282c-46.525 1.114-53.915 0.289-56.445-6.304zM251.437 102.312c-12.337-13.132-12.629-27.672-0.793-39.508 18.86-18.86 50.036-6.106 50.036 20.469 0 27.389-30.368 39.13-49.243 19.039zM1829.831 102.312c-12.337-13.132-12.629-27.672-0.793-39.508 18.86-18.86 50.036-6.106 50.036 20.469 0 27.389-30.368 39.13-49.243 19.039z"></path>
</symbol>
</defs>
</svg>
