<?xml version="1.0" encoding="UTF-8" standalone="no"?>
<!-- Created with Inkscape (http://www.inkscape.org/) -->

<svg
   xmlns:dc="http://purl.org/dc/elements/1.1/"
   xmlns:cc="http://creativecommons.org/ns#"
   xmlns:rdf="http://www.w3.org/1999/02/22-rdf-syntax-ns#"
   xmlns:svg="http://www.w3.org/2000/svg"
   xmlns="http://www.w3.org/2000/svg"
   xmlns:sodipodi="http://sodipodi.sourceforge.net/DTD/sodipodi-0.dtd"
   xmlns:inkscape="http://www.inkscape.org/namespaces/inkscape"
   id="svg3336"
   version="1.1"
   viewBox="0 0 921.45525 113.22697"
   inkscape:version="0.91 r13725"
   sodipodi:docname="Grand Hotel Шрифт Латиницей.svg"
   width="921.45526"
   height="113.22697">
  <metadata
     id="metadata8">
    <rdf:RDF>
      <cc:Work
         rdf:about="">
        <dc:format>image/svg+xml</dc:format>
        <dc:type
           rdf:resource="http://purl.org/dc/dcmitype/StillImage" />
        <dc:title></dc:title>
      </cc:Work>
    </rdf:RDF>
  </metadata>
  <defs
     id="defs6" />
  <sodipodi:namedview
     pagecolor="#ffffff"
     bordercolor="#666666"
     borderopacity="1"
     objecttolerance="10"
     gridtolerance="10"
     guidetolerance="10"
     inkscape:pageopacity="0"
     inkscape:pageshadow="2"
     inkscape:window-width="1366"
     inkscape:window-height="706"
     id="namedview4"
     showgrid="false"
     fit-margin-top="0"
     fit-margin-left="0"
     fit-margin-right="0"
     fit-margin-bottom="0"
     inkscape:zoom="0.80866969"
     inkscape:cx="445.57281"
     inkscape:cy="-147.50994"
     inkscape:window-x="-8"
     inkscape:window-y="-8"
     inkscape:window-maximized="1"
     inkscape:current-layer="svg3336" />
  <path
     style="fill:#090909"
     d="m 536.56077,110.71942 c -7.16614,-6.02991 -5.43822,-17.3786 4.05176,-26.61115 4.03537,-3.9259 4.29611,-4.48066 4.29611,-9.14062 0,-2.72857 -0.16271,-4.96105 -0.36158,-4.96105 -0.19888,0 -1.56997,0.63022 -3.04688,1.40047 -5.86633,3.0595 -12.30995,0.64321 -15.42062,-5.78258 -1.66714,-3.44384 -1.95564,-5.3442 -1.5891,-10.46718 0.94222,-13.16868 9.69994,-23.00449 21.57422,-24.23003 5.40523,-0.55787 7.74967,0.79777 7.11201,4.11241 -0.2439,1.26785 -1.54456,1.83498 -5.24751,2.28808 -9.3548,1.14466 -15.35564,8.74509 -15.45768,19.57811 -0.061,6.48121 1.90612,9.62453 5.73301,9.16072 4.50853,-0.54643 4.05598,-4.806572 6.55657,-15.39581 l 0.32119,-9.82952 3.42881,0.28579 3.42881,0.2858 0.46875,15.46875 0.46875,15.46874 3.98437,-6.00473 c 2.1914,-3.302594 3.98438,-6.55226 3.98438,-7.2215 0,-4.90015 4.20503,-7.45429 7.86563,-4.77759 1.57781,1.15371 1.58046,1.38488 0.0527,4.58857 -2.0863,4.37508 -1.25494,8.259 1.76789,8.259 5.11918,0 11.84798,-12.16115 14.17744,-25.62331 0.78798,-4.55376 1.67215,-8.66704 1.96484,-9.14063 0.71456,-1.15618 4.79936,-1.09274 7.04564,0.10943 1.67954,0.89886 1.81337,2.10398 1.81337,16.32957 0,8.4475 0.25607,16.0264 0.56905,16.84202 0.31298,0.81561 1.33705,1.48292 2.27571,1.48292 1.99281,0 5.59274,-4.21548 5.59274,-6.54903 0,-2.7137 1.93409,-7.33553 3.28692,-7.85467 0.70451,-0.27034 2.34694,0.34701 3.64987,1.3719 2.30851,1.81587 2.33073,1.94359 0.87087,5.00494 -1.89175,3.96705 -1.06645,8.02686 1.63176,8.02686 3.02517,0 6.81873,-2.371221 10.74329,-6.71523 l 3.63555,-4.02411 -3.8961,-0.77049 c -5.68268,-1.123803 -8.67319,-5.02085 -8.66865,-11.29647 0.006,-8.07255 5.04015,-13.75619 12.18464,-13.75619 2.30689,0 4.17518,1.238111 9.05925,6.00356 l 6.153,6.00356 -1.91736,5.94956 c -3.79394,11.772587 -3.46181,18.60581 0.90431,18.60581 3.13901,0 5.38058,-2.62438 7.00018,-8.19561 1.58886,-5.46548 3.41904,-6.9621 5.711,-4.67014 3.11139,3.11139 -2.3237,15.0034 -8.26016,18.07326 -5.94042,3.07191 -14.05101,-0.14147 -15.35623,-6.08405 l -0.55263,-2.51609 -3.56946,3.39555 c -6.77795,6.447717 -15.18078,9.55163 -18.2062,4.66269 l -2.41152,-1.89691 -3.10554,1.8934 c -4.5436,2.770163 -8.76736,2.47656 -12.0839,-0.83999 -2.48768,-2.48768 -2.74234,-3.33058 -2.76168,-9.14061 l -0.0213,-6.40024 -3.22043,5.97626 c -3.73204,6.925667 -5.59933,9.17922 -9.11009,10.99471 -3.62804,1.87613 -7.60757,1.618181 -10.53269,-0.68271 l -2.53366,-1.99297 -1.5509,2.22735 c -0.853,1.22505 -2.54214,4.74645 -5.09277,6.08219 l -3.54187,3.85484 0,11.00348 c 0,12.40227 -1.24883,16.52384 -5.70487,18.82815 -3.85563,1.99382 -6.90278,1.67922 -10.14301,-1.04724 z m 7.41515,-6.03425 c 0.55907,-1.04462 0.85602,-5.32476 0.73612,-9.60939 l -0.27215,-7.72543 -2.57813,5.10594 c -2.47983,4.91126 -3.20986,9.50067 -2.00907,12.62989 0.79049,2.06 2.91682,1.8532 4.12323,-0.40101 z m 86.05772,-56.42856 c 1.38113,-1.38114 1.47146,-6.78839 0.15452,-9.24914 -1.17305,-2.19184 -3.98267,-2.35129 -5.9938,-0.34015 -2.0585,2.05849 -1.94787,8.46966 0.1674,9.70169 2.21269,1.28878 4.31231,1.24716 5.67188,-0.1124 z m -165.25,64.375 c -0.34375,-0.34375 -0.625,-9.6188 -0.625,-20.611235 l 0,-19.98621 -3.04688,1.85771 c -3.85232,2.34881 -9.20961,2.3998 -12.03181,0.11452 -2.10884,-1.70763 -2.23109,-1.70772 -5.02574,-0.004 -1.57537,0.96069 -4.25637,1.74828 -5.95775,1.7502 -3.35291,0.004 -8.2403,-2.12268 -8.81055,-3.83343 -0.22102,-0.66305 -1.71512,-0.14065 -3.96552,1.38652 -7.27528,4.93714 -14.00818,2.05369 -21.45745,-9.189426 l -2.43233,-3.6711 -0.27661,7.421096 c -0.27164,7.28783 -0.32212,7.42635 -2.81056,7.71348 -1.71493,0.19788 -2.90206,-0.29704 -3.67283,-1.53124 -1.1184,-1.79085 -1.19082,-1.79196 -4.02855,-0.0615 -3.96439,2.41748 -8.31713,2.2523 -11.4403,-0.43413 l -2.56143,-2.20325 -3.24667,2.20325 c -4.56872,3.10042 -8.9854,2.9096 -12.43213,-0.53713 -2.48768,-2.48768 -2.74235,-3.3306 -2.76168,-9.140626 l -0.0213,-6.40028 -3.22044,5.97627 c -3.73204,6.925656 -5.59932,9.179226 -9.11008,10.994706 -4.03191,2.08499 -7.87149,1.62372 -11.19378,-1.34474 -2.5066,-2.23964 -3.02846,-3.44967 -3.33568,-7.73437 -0.57691,-8.046146 3.01216,-12.361286 7.53232,-9.056076 1.63081,1.19248 1.63549,1.40633 0.10111,4.62396 -2.08634,4.375086 -1.25499,8.258996 1.76785,8.258996 5.11918,0 11.84798,-12.161146 14.17744,-25.623306 0.78798,-4.55377 1.67215,-8.66705 1.96484,-9.14063 0.71456,-1.15619 4.79936,-1.09274 7.04564,0.10943 1.67954,0.89886 1.81337,2.10398 1.81337,16.32957 0,8.4475 0.25607,16.026406 0.56905,16.842016 0.85527,2.2288 3.7445,1.78531 5.85588,-0.89887 2.67415,-3.399626 3.99163,-10.716896 3.87549,-21.524456 -0.0554,-5.15625 -0.0754,-9.90234 -0.0443,-10.54687 0.0684,-1.42135 3.25476,-1.53308 5.74304,-0.20139 1.67954,0.89886 1.81337,2.10398 1.81337,16.32957 0,8.4475 0.25607,16.026406 0.56905,16.842016 0.85747,2.23451 3.74642,1.78287 5.87077,-0.91779 2.75952,-3.508166 4.05141,-11.302096 3.76354,-22.705416 -0.24357,-9.64863 -0.17348,-10.06183 1.75436,-10.34336 1.10443,-0.16128 2.87357,0.16997 3.93142,0.73611 1.70694,0.91352 1.92337,1.92233 1.92337,8.96512 0,4.36467 0.36815,7.93576 0.8181,7.93576 1.55756,0 8.45,-8.28887 10.88012,-13.08447 2.61905,-5.16848 4.43457,-6.51109 6.49366,-4.8022 3.54578,2.94274 1.6966,8.06852 -6.22047,17.24266 l -4.703,5.44974 1.75642,3.2838 c 2.62542,4.9085 7.37684,9.722966 9.59563,9.722966 2.94611,0 5.12261,-4.193286 5.88631,-11.340676 0.87208,-8.16173 3.36842,-13.75916 8.24844,-18.49505 7.81801,-7.58712 21.83107,-9.1711 20.51284,-2.31868 -0.2439,1.26785 -1.54456,1.83498 -5.24751,2.28807 -8.54807,1.04595 -13.20696,6.18967 -15.21987,16.80375 -1.06422,5.61162 0.10631,11.600986 2.44243,12.497446 2.89868,1.11232 4.96418,0.52589 6.92422,-1.96588 1.78519,-2.269506 1.97327,-3.601376 1.8204,-12.890616 l -0.17051,-10.35961 2.52309,-0.30211 c 4.63221,-0.55467 5.2222,0.90112 5.2222,12.88565 0,11.180456 0.57963,13.197706 3.7922,13.197706 4.77722,0 7.78127,-10.247386 7.3145,-24.951226 l -0.33887,-10.67373 2.58482,0 c 1.42164,0 3.38168,0.79687 4.35564,1.77083 1.73611,1.73611 1.80759,1.73408 3.64499,-0.10332 2.89493,-2.89493 9.43342,-3.27673 12.64979,-0.73867 4.66695,3.68275 5.81373,7.05913 5.73451,16.88366 -0.0395,4.89843 -0.54868,10.0664 -1.13151,11.48437 -0.88318,2.14867 -0.82156,2.578126 0.3699,2.578126 2.90638,0 6.57319,-2.735926 8.67218,-6.470596 1.18761,-2.11305 2.71345,-3.8419 3.39075,-3.8419 2.15653,0 3.53443,2.58763 2.90468,5.45484 -1.09273,4.975206 -7.75115,9.679286 -15.50612,10.954856 -2.32031,0.38166 -5.48438,1.5917 -7.03125,2.68899 -2.0083,1.42459 -4.21985,1.99506 -7.73438,1.99506 l -4.92187,0 0,17.54514 c 0,16.386885 -0.11971,17.609215 -1.81337,18.515635 -2.07785,1.11202 -4.15341,1.2537 -5.06163,0.34548 z m 13.19947,-45.463005 c 3.41741,-1.00781 4.19471,-1.73425 5.49288,-5.133456 2.14288,-5.61106 1.55152,-18.10675 -0.9898,-20.91488 -2.41261,-2.6659 -5.88943,-2.17462 -8.39108,1.18568 -1.71602,2.30501 -2.00749,4.207 -2.27866,14.86927 -0.25196,9.907576 -0.0742,12.125766 0.9375,11.696746 0.68664,-0.29119 3.03977,-1.0577 5.22916,-1.70336 z m 326.30053,43.463005 c -0.34375,-0.34375 -1.71954,-9.67343 -0.625,-20.61124 l 0,-19.98621 -3.04688,1.85771 c -3.85233,2.3488 -9.20961,2.3998 -12.03181,0.11452 -2.10883,-1.70763 -2.23108,-1.70772 -5.02574,-0.004 -5.27062,3.21409 -12.82444,1.63522 -15.42506,-3.22407 -1.16775,-2.18197 -1.59897,-2.29527 -6.9981,-1.83878 -4.18009,0.35344 -6.39466,1.06436 -8.09741,2.59947 -1.28906,1.16214 -3.26524,2.58641 -4.39149,3.16504 -4.88969,2.51213 -14.91164,0.86671 -16.67198,-4.18955 l -1.48576,-2.26757 -2.8595,3.25679 c -3.26267,3.715976 -7.91704,5.0439 -11.8985,3.39473 -4.66789,-1.93354 -5.25813,-4.00267 -5.63885,-19.76738 -0.193,-7.99218 -0.72413,-14.92206 -1.18027,-15.39972 -1.2777,-1.33798 -4.615,2.15925 -7.09112,7.43097 -1.60068,3.40789 -2.22953,6.47896 -2.30359,11.25 -0.0561,3.60938 -0.37656,8.88281 -0.71228,11.71874 -0.51007,4.30865 -0.93794,5.20298 -2.60293,5.44052 -1.09589,0.15635 -2.67792,-0.40113 -3.51562,-1.23884 -1.2895,-1.28949 -1.52311,-4.0337 -1.52311,-17.8918 0,-13.74638 -0.2272,-16.4559 -1.41818,-16.91292 -2.06034,-0.79062 -3.82729,1.04739 -6.75638,7.0281 -2.28905,4.67385 -2.64834,6.66588 -3.06841,17.01245 l -0.47578,11.71874 -2.424,0.28178 c -1.33319,0.154978 -2.89949,-0.29118 -3.48067,-0.99144 -0.70116,-0.84486 -1.09494,-7.87868 -1.17041,-20.90677 -0.11042,-19.06051 -0.0581,-19.64211 1.79169,-19.9268 3.25114,-0.50034 5.75214,1.482942 5.75214,4.56144 l 0,2.79598 4.05804,-4.23521 c 3.16507,-3.303254 4.72168,-4.23522 7.07387,-4.23522 3.54987,0 7.61809,3.55127 7.61809,6.65005 0,1.75024 0.58843,1.4159 4.0499,-2.30114 4.78281,-5.13595 8.30959,-5.723138 12.53845,-2.08753 l 2.6304,2.26139 0.46875,15.78549 c 0.45594,15.35403 0.52478,15.79346 2.51887,16.0773 2.26946,0.32303 4.34581,-2.20496 6.11277,-7.4424 0.62361,-1.84847 1.29165,-13.35727 1.60818,-27.70564 0.50779,-23.01891 0.66387,-24.70799 2.5122,-27.1875 3.60374,-4.83439001 10.14405,-5.30368001 13.0076,-0.93335 3.2314,4.93175 3.65403,17.5877 0.91409,27.37339 -0.46887,1.67455 -0.0949,1.89631 3.19779,1.89631 4.12259,0 6.88058,1.93022 9.31277,6.51767 1.60586,3.02886 2.13135,14.85323 0.86463,19.45534 -0.62685,2.2774 -0.45506,2.57812 1.47281,2.57812 3.53796,0 5.08963,-1.98974 5.66524,-7.26469 0.73638,-6.74813 3.46462,-12.47836 8.06826,-16.94604 7.81801,-7.58712 21.83107,-9.1711 20.51284,-2.31868 -0.2439,1.26785 -1.54456,1.83498 -5.24751,2.28807 -8.79022,1.07558 -13.71463,6.76556 -15.17614,17.53545 -0.75589,5.57022 0.0871,10.29505 2.06035,11.54749 2.31449,1.46905 5.29682,0.7514 7.26257,-1.74763 1.78519,-2.2695 1.97329,-3.60137 1.8204,-12.89061 l -0.17051,-10.35961 2.52309,-0.30211 c 4.63221,-0.554652 5.2222,0.90112 5.2222,12.88566 0,11.18045 0.57963,13.19769 3.7922,13.19769 4.77723,0 7.78126,-10.24738 7.3145,-24.95122 l -0.33883,-10.67373 2.58482,0 c 1.42164,0 3.38168,0.79687 4.35564,1.77083 1.73611,1.73611 1.80759,1.73408 3.645,-0.10332 1.07618,-1.07619 3.6337,-2.07249 6.0067,-2.33996 5.72886,-0.64573 9.55171,2.57906 11.66175,9.83736 1.5947,5.48556 1.3215,15.35376 -0.56223,20.30834 -1.09619,2.88319 0.40174,3.20034 4.67601,0.99003 2.99396,-1.54823 3.83243,-3.843 5.50078,-15.05481 0.54201,-3.64252 1.52761,-8.28315 2.19019,-10.3125 1.09794,-3.36269 1.52786,-3.7162 4.8504,-3.98845 4.13137,-0.33851 3.99283,-1.80195 1.09335,11.54873 -1.64652,7.58147 -1.89845,18.51861 -0.4873,21.15537 1.29557,2.42079 5.05449,2.31194 7.40826,-0.21454 3.36296,-3.60971 4.27751,-8.13704 4.27751,-21.17521 0,-12.36143 0.0106,-12.42187 2.17101,-12.42187 1.19405,0 2.98702,0.43671 3.98437,0.97048 1.67954,0.89886 1.81337,2.10398 1.81337,16.32957 0,8.4475 0.25607,16.0264 0.56905,16.84201 0.31298,0.81561 1.30228,1.48293 2.19845,1.48293 4.66376,0 7.60193,-9.17756 7.50343,-23.43749 -0.0374,-5.41407 -0.0433,-10.3711 -0.0132,-11.01563 0.0665,-1.42134 3.25306,-1.53312 5.74141,-0.20139 1.57358,0.84215 1.81336,2.01988 1.81337,8.90625 l 1e-5,7.93577 6.05857,0 6.05857,0 0.26955,-8.67188 c 0.26756,-8.60792 0.28791,-8.674 2.75704,-8.95977 4.71983,-0.54627 5.48127,2.13146 5.48127,19.27592 0,13.29049 0.20052,15.36651 1.53368,15.87809 2.62707,1.0081 4.48468,-1.04223 6.5995,-7.28418 1.44649,-4.26935 2.50705,-6.01943 3.64783,-6.01943 6.00883,0 1.89719,13.81013 -5.44432,18.2863 -8.23441,5.02058 -14.77419,0.0519 -14.77419,-11.22494 l 0,-4.71761 -6.05857,0 -6.05857,0 -0.26955,8.67186 c -0.26756,8.60793 -0.28791,8.674 -2.75704,8.95977 -1.65664,0.19174 -2.92696,-0.33955 -3.80327,-1.59066 -1.30561,-1.86402 -1.33715,-1.86448 -4.07502,-0.0597 -2.74026,1.80635 -7.30911,2.36481 -10.21723,1.24886 -0.83467,-0.3203 -2.1591,-1.822875 -2.94315,-3.33907 l -1.42554,-2.7567 -1.78926,2.27466 c -5.02902,6.39332 -15.54961,5.03177 -18.00353,-2.33 -0.22517,-0.67548 -1.26394,-0.5402 -3.10933,0.40494 -1.52416,0.78062 -4.66963,1.73158 -6.98994,2.11323 -2.32031,0.38166 -5.48438,1.5917 -7.03125,2.68899 -2.0083,1.42459 -4.21985,1.99506 -7.73438,1.99506 l -4.92187,0 0,17.54514 c 0,16.38689 -0.11971,17.60922 -1.81337,18.51564 -2.07785,1.11202 -4.15341,1.2537 -5.06163,0.34548 z M 747.56127,65.64972 c 1.63435,-1.47907 1.55075,-1.71337 -1.97654,-5.54002 -2.12116,-2.30119 -4.14694,-5.718413 -4.77693,-8.058 l -1.09389,-4.06235 -1.86507,3.6354 c -4.58612,8.93928 3.08762,20.02034 9.71243,14.02497 z m 69.92184,-0.48111 c 3.41741,-1.00782 4.19471,-1.73426 5.49288,-5.13346 2.14288,-5.61106 1.55152,-18.10675 -0.9898,-20.91488 -2.41261,-2.6659 -5.88943,-2.17462 -8.39108,1.18568 -1.71602,2.30501 -2.00749,4.207 -2.27866,14.86927 -0.25196,9.90757 -0.0742,12.12576 0.9375,11.69674 0.68664,-0.29119 3.03977,-1.0577 5.22916,-1.70335 z M 750.1969,40.8988 c -1.68192,-3.14268 -3.23606,-1.57045 -3.53848,3.57967 -0.2111,3.59516 0.25755,5.802875 1.875,8.83256 l 2.15647,4.03933 0.2736,-7.25397 c 0.15385,-4.07915 -0.18166,-8.10462 -0.76659,-9.19759 z M 740.17353,24.89962 c 1.17453,-9.30513 0.18984,-17.23676 -2.13989,-17.23676 -1.18816,0 -1.43272,2.47168 -1.57692,15.9375 -0.16074,15.00928 -0.0874,15.7478 1.26035,12.68037 0.78706,-1.79141 1.89247,-6.91292 2.45646,-11.38111 z M 15.56489,75.354725 C -0.63402982,69.427635 -5.2549258,39.152449 6.7960552,17.903049 10.335681,11.661649 16.60674,5.2088892 21.616663,2.6530192 c 7.880053,-4.0201 17.09688,-3.41328004 21.6421,1.42488 3.144057,3.3467 3.685404,11.8436198 1.079947,16.9507398 -3.936235,7.71566 -14.247537,14.99776 -22.644731,15.99229 -4.11474,0.48733 -4.667147,0.3172 -6.107377,-1.88087 -0.88965,-1.35777 -1.332737,-3.20658 -1.011251,-4.21949 0.474553,-1.49519 1.247761,-1.73527 4.53087,-1.40686 10.32313,1.03262 23.643408,-14.22862 17.650076,-20.2219498 -3.51312,-3.51312 -9.596416,-2.40112 -15.573418,2.8467598 -12.0519528,10.58176 -16.9289518,34.7162 -9.828017,48.63518 4.776507,9.362726 14.309039,10.969676 24.4781,4.12641 5.358192,-3.6058 7.020645,-3.59054 7.940105,0.0729 1.792943,7.143646 -17.575705,14.272086 -28.208177,10.381736 z m 79.754473,-0.13384 c -1.09102,-1.09101 -1.48397,-3.46239 -1.51466,-9.14062 l -0.0414,-7.667406 -1.96056,3.75 c -6.2439,11.942786 -14.50476,16.601656 -20.74022,11.696846 l -2.41152,-1.8969 -3.10554,1.89339 c -4.20111,2.56135 -8.478084,2.43021 -11.725139,-0.35952 L 51.18992,71.236755 50.72117,53.325039 c -0.257813,-9.85144 -0.328125,-18.32666 -0.15625,-18.83382 0.408495,-1.20537 3.548824,-1.17937 5.842882,0.0484 1.679537,0.89886 1.813367,2.10398 1.813367,16.32957 0,8.4475 0.25607,16.026406 0.56905,16.842016 1.554114,4.04993 6.578114,0.19036 8.002124,-6.147446 1.47497,-6.56463 3.49755,-7.87839 7.33952,-4.76736 2.00059,1.61999 2.01204,1.74122 0.42538,4.50582 -1.07841,1.87902 -1.41591,3.69619 -0.99669,5.366466 0.98304,3.91676 4.42996,3.3544 8.48632,-1.38455 3.99703,-4.669626 6.47651,-10.934356 8.45447,-21.361316 0.80418,-4.23929 1.69971,-8.09219 1.99007,-8.56199 0.71096,-1.15037 4.80084,-1.08282 7.04139,0.11629 1.651847,0.88404 1.813367,2.0698 1.813367,13.3125 0,6.84549 0.35473,11.94537 0.79652,11.45139 1.43434,-1.60382 4.11988,-9.17719 6.13353,-17.29688 1.83018,-7.37995 2.16327,-7.99034 4.50797,-8.26092 1.39246,-0.1607 3.39637,0.17055 4.45312,0.73611 1.81457,0.97113 1.92216,1.87316 1.93571,16.22967 0.008,8.36077 0.37486,15.770236 0.81547,16.465506 1.16473,1.8379 3.84793,0.98599 6.00559,-1.90675 1.4117,-1.892666 1.93202,-4.219866 2.09609,-9.374996 0.29126,-9.15188 1.91959,-14.10896 6.251,-19.0297 10.25652,-11.65201 23.422,-1.38963 16.81844,13.10983 -1.83046,4.01916 -8.02956,10.1879 -11.27231,11.21711 -2.67606,0.84935 -2.49518,1.77531 0.9058,4.637046 4.78591,4.02709 12.64721,2.76652 16.15751,-2.590876 0.82933,-1.26572 1.95108,-5.82244 2.49276,-10.12604 1.06272,-8.44305 3.22222,-17.52369 4.43285,-18.64004 1.39195,-1.28356 4.49153,-1.80422 5.81066,-0.97606 1.1103,0.69705 1.05836,1.79887 -0.34157,7.24422 -2.12845,8.27918 -2.99243,22.73386 -1.52296,25.479596 0.66605,1.24453 1.98827,2.03629 3.40055,2.03629 6.05582,0 9.23371,-9.082766 8.72997,-24.951226 l -0.33883,-10.67377 2.86607,0 c 4.85243,0 5.11606,0.89942 5.11606,17.45457 0,8.36252 0.25607,15.871886 0.56905,16.687496 0.85527,2.22881 3.7445,1.78532 5.85588,-0.89887 2.67415,-3.399626 3.99163,-10.716886 3.8755,-21.524446 -0.0554,-5.15625 -0.0754,-9.90235 -0.0444,-10.54688 0.0684,-1.42135 3.25476,-1.53308 5.74304,-0.20139 1.57358,0.84215 1.81337,2.01988 1.81337,8.90625 l 1e-5,7.93577 6.05857,0 6.05857,0 0.26955,-8.67188 c 0.26573,-8.54851 0.30404,-8.67588 2.69356,-8.95365 4.44791,-0.51704 5.03449,1.48636 5.54475,18.93772 0.45634,15.607166 0.52302,16.039276 2.51887,16.323366 2.99242,0.42594 4.72968,-2.97285 5.42033,-10.604306 0.68007,-7.51461 3.10874,-19.8417 4.38675,-22.26563 0.57848,-1.09718 1.97981,-1.64062 4.23047,-1.64062 3.1799,0 3.33509,0.14214 2.81478,2.57812 -0.30288,1.41797 -1.19204,5.53125 -1.97592,9.14063 -1.64652,7.58147 -1.89845,18.51861 -0.4873,21.155376 1.29557,2.42079 5.05449,2.31194 7.40826,-0.21454 3.36296,-3.609716 4.27751,-8.137046 4.27751,-21.175216 0,-12.36143 0.0106,-12.42187 2.17101,-12.42187 1.19405,0 2.98702,0.43671 3.98437,0.97048 1.67954,0.89886 1.81337,2.10398 1.81337,16.32957 0,8.4475 0.25607,16.026406 0.56905,16.842016 0.8551,2.22835 3.74435,1.78551 5.8547,-0.89737 1.23907,-1.57521 2.07325,-4.508256 2.46636,-8.671866 0.79018,-8.36927 3.31815,-20.52036 4.60681,-22.14333 1.40628,-1.77113 4.49971,-2.56538 6.09379,-1.56461 1.1103,0.69705 1.05836,1.79887 -0.34157,7.24422 -2.12845,8.27917 -2.99243,22.73386 -1.52296,25.479586 0.66605,1.24454 1.98827,2.0363 3.40055,2.0363 6.05582,0 9.23371,-9.082766 8.72997,-24.951236 l -0.33878,-10.67376 2.86607,0 c 4.85243,0 5.11606,0.89942 5.11606,17.45457 0,8.36252 0.25607,15.871886 0.56905,16.687496 0.76763,2.00041 3.47442,1.87346 5.39903,-0.25321 0.86415,-0.95487 2.30063,-4.008466 3.19218,-6.785756 1.85552,-5.78022 4.23608,-7.09089 5.96943,-3.28659 0.93903,2.06095 0.67118,3.23386 -1.95821,8.574906 -3.34761,6.79997 -6.98415,9.78674 -11.92293,9.79257 -4.28192,0.005 -5.82227,-0.80708 -7.43095,-3.91792 l -1.42554,-2.7567 -1.78926,2.27466 c -3.74918,4.76631 -11.8102,5.60908 -15.42675,1.61284 -1.62143,-1.79166 -1.69015,-1.78501 -5.03384,0.48708 -5.50262,3.73913 -11.41202,3.04756 -13.82461,-1.61788 l -1.42554,-2.7567 -1.78926,2.27466 c -3.73223,4.74477 -11.80833,5.61115 -15.39202,1.65122 -1.57503,-1.7404 -1.67986,-1.73007 -4.94703,0.48709 -8.33731,5.65785 -15.26375,0.74349 -15.26375,-10.829726 l 0,-4.71761 -6.05857,0 -6.05857,0 -0.26955,8.671866 c -0.26887,8.64953 -0.27608,8.67263 -2.80351,8.96426 -1.71493,0.19788 -2.90206,-0.29705 -3.67283,-1.53124 -1.1184,-1.79086 -1.19082,-1.79196 -4.02855,-0.0615 -2.88607,1.75991 -7.4808,2.28688 -10.34767,1.18676 -0.83468,-0.32029 -2.15909,-1.82287 -2.94315,-3.33906 l -1.42554,-2.75671 -1.78926,2.27466 c -3.90404,4.96319 -12.33052,5.61664 -15.65162,1.21375 l -1.63864,-2.17239 -3.32802,2.20238 c -3.79189,2.50936 -10.4326,3.69472 -15.43807,2.75568 -1.90963,-0.35824 -5.00559,-2.08244 -7.0408,-3.92112 -3.56691,-3.22249 -3.65159,-3.24601 -4.6914,-1.30311 -1.50464,2.81146 -6.51276,5.62066 -10.0276,5.62477 -1.81052,0.002 -4.02544,-0.88319 -5.60167,-2.239 -2.34898,-2.02051 -2.64301,-2.95423 -2.97011,-9.431806 l -0.36305,-7.1893 -4.58635,9.144686 c -2.52249,5.02959 -5.11181,9.47838 -5.75404,9.88621 -1.853687,1.17714 -4.192087,0.89313 -5.788207,-0.703 z M 141.18898,53.257559 c 2.20504,-2.30157 2.76744,-3.83203 3.10058,-8.4375 0.37737,-5.21718 0.26409,-5.62595 -1.55913,-5.62595 -2.66315,0 -4.47921,3.12338 -5.68738,9.78155 -0.55517,3.05954 -1.00941,5.9072 -1.00941,6.32813 0,1.65544 2.59614,0.62499 5.15534,-2.04623 z m 22.33376,-29.62973 c -0.33,-0.85997 -0.17047,-2.24452 0.3545,-3.07678 0.78732,-1.24817 2.82486,-1.51319 11.63358,-1.51319 l 10.67907,0 0,2.8125 0,2.8125 -11.03357,0.26428 c -9.58896,0.22968 -11.11213,0.0596 -11.63358,-1.29931 z m 112.5,0 c -0.33,-0.85997 -0.17047,-2.24452 0.3545,-3.07678 0.78732,-1.24817 2.82486,-1.51319 11.63358,-1.51319 l 10.67907,0 0,2.8125 0,2.8125 -11.03357,0.26428 c -9.58896,0.22968 -11.11213,0.0596 -11.63358,-1.29931 z M 51.822059,21.086809 c -2.542744,-2.70663 -2.602884,-5.70324 -0.163419,-8.1427 3.887105,-3.8871098 10.312503,-1.25854 10.312503,4.21875 0,5.6449 -6.258953,8.0648 -10.149084,3.92395 z m 325.312501,0 c -2.54275,-2.70663 -2.60289,-5.70324 -0.16342,-8.1427 3.8871,-3.8871098 10.3125,-1.25854 10.3125,4.21875 0,5.6449 -6.25895,8.0648 -10.14908,3.92395 z"
     id="path3346"
     inkscape:connector-curvature="0"
     sodipodi:nodetypes="ssssssssssssscccccssscsssssssscsssscscsscsssssscsccssscssscsccssssccsssssssscscssccssscssssscssscsssssssssssssscsssssssssssscsssssssssscsssscssssssssssssscssccssssscscscsscssssccssssscssssssscscssscssssscssssssssssssssssssscsssscsssssssssssssssssssscsscccsssssssscccsssssscscsssscssccssscssssssscsssscssssscscsssssssssssssccsscsscsscssssssssssscsssssscssssssssssssssscssssscsscccsssssssssssssssssssssssscssssssscscsssscsssscccsssssscsscsssscsscssssssssssssscccssssscccssssssssss" />
</svg>
