<?xml version="1.0" encoding="UTF-8" standalone="no"?>
<!-- Created with Inkscape (http://www.inkscape.org/) -->

<svg
   xmlns:dc="http://purl.org/dc/elements/1.1/"
   xmlns:cc="http://creativecommons.org/ns#"
   xmlns:rdf="http://www.w3.org/1999/02/22-rdf-syntax-ns#"
   xmlns:svg="http://www.w3.org/2000/svg"
   xmlns="http://www.w3.org/2000/svg"
   version="1.1"
   width="3837.2764"
   height="2804.4099"
   id="svg2">
  <defs
     id="defs4" />
  <metadata
     id="metadata7">
    <rdf:RDF>
      <cc:Work
         rdf:about="">
        <dc:format>image/svg+xml</dc:format>
        <dc:type
           rdf:resource="http://purl.org/dc/dcmitype/StillImage" />
        <dc:title></dc:title>
      </cc:Work>
    </rdf:RDF>
  </metadata>
  <g
     transform="translate(1828.9953,4471.7759)"
     id="layer1">
    <g
       transform="matrix(1.25,0,0,-1.25,-2310.3571,4530.4289)"
       id="g2993">
      <g
         transform="scale(0.542059,0.542059)"
         id="g2995">
        <g
           transform="translate(-591.91015,-28.759109)"
           id="g3701">
          <path
             d="m 1467.21,9280.62 c 0,13.56 -3.38,24.52 -10.13,32.86 -6.76,8.34 -17.97,12.5 -33.63,12.5 l -46.07,0 0,-93.53 46.53,0 c 8.29,0 15.2,1.24 20.73,3.71 5.53,2.47 9.98,5.94 13.36,10.43 3.38,4.46 5.76,9.64 7.14,15.51 1.38,5.85 2.07,12.03 2.07,18.52 z m -4.6,133.36 c 0,12.9 -3.46,23.03 -10.37,30.41 -6.91,7.36 -18.04,11.05 -33.4,11.05 l -41.46,0 0,-83.85 41.92,0 c 15.04,0 26.03,3.93 32.94,11.75 6.91,7.84 10.37,18.04 10.37,30.64 z m 56.2,-136.37 c 0,-30.71 -8.22,-54.22 -24.65,-70.48 -16.43,-16.29 -38.46,-24.42 -66.11,-24.42 l -103.19,0 0,320.64 98.13,0 c 30.4,0 53.21,-7.83 68.41,-23.49 15.2,-15.66 22.8,-37.02 22.8,-64.03 0,-13.53 -2.84,-25.96 -8.52,-37.32 -5.68,-11.37 -15.89,-20.44 -30.63,-27.19 l 0,-2.29 c 7.66,-2.48 14.27,-6.07 19.81,-10.83 5.52,-4.78 10.05,-10.37 13.59,-16.82 3.52,-6.45 6.14,-13.44 7.83,-20.96 1.68,-7.53 2.53,-15.13 2.53,-22.81"
             id="path3317"
             style="fill:#181210;fill-opacity:1;fill-rule:nonzero;stroke:none" />
          <path
             d="m 1639.23,9182.71 0,320.64 178.29,0 0,-48.83 -125.77,0 0,-85.7 108.27,0 0,-47.91 -108.27,0 0,-88.46 125.77,0 0,-49.74 -178.29,0"
             id="path3319"
             style="fill:#181210;fill-opacity:1;fill-rule:nonzero;stroke:none" />
          <path
             d="m 2044.41,9455.44 0,-272.73 -52.52,0 0,272.73 -70.49,0 0,47.91 193.96,0 0,-47.91 -70.95,0"
             id="path3321"
             style="fill:#181210;fill-opacity:1;fill-rule:nonzero;stroke:none" />
          <path
             d="m 2227.73,9182.71 0,320.64 178.28,0 0,-48.83 -125.78,0 0,-85.7 108.27,0 0,-47.91 -108.27,0 0,-88.46 125.78,0 0,-49.74 -178.28,0"
             id="path3323"
             style="fill:#181210;fill-opacity:1;fill-rule:nonzero;stroke:none" />
          <path
             d="m 2664.97,9405.46 c 0,15.88 -3.86,28.04 -11.53,36.45 -7.67,8.4 -19.35,12.61 -35.01,12.61 l -43.76,0 0,-99.06 44.22,0 c 15.66,0 27.26,4.51 34.79,13.53 7.53,9.02 11.29,21.18 11.29,36.47 z m 52.06,-1.16 c 0,-13.82 -2.01,-26.71 -5.99,-38.69 -4.01,-11.99 -9.91,-22.43 -17.75,-31.34 -7.83,-8.91 -17.73,-15.88 -29.7,-20.96 -11.98,-5.05 -25.96,-7.6 -41.94,-7.6 l -46.98,0 0,-123 -52.53,0 0,320.64 96.75,0 c 15.05,0 28.57,-1.99 40.55,-5.98 11.97,-4 22.26,-10.07 30.86,-18.21 8.59,-8.14 15.2,-18.43 19.81,-30.86 4.62,-12.44 6.92,-27.1 6.92,-44"
             id="path3325"
             style="fill:#181210;fill-opacity:1;fill-rule:nonzero;stroke:none" />
          <path
             d="m 2831.28,9182.71 0,320.64 52.06,0 0,-214.69 c 0.3,0 0.52,-0.07 0.68,-0.21 0.15,-0.17 0.39,-0.25 0.71,-0.25 7.04,13.21 13.72,26.42 20.03,39.63 6.29,13.19 12.67,26.4 19.11,39.61 11.68,22.73 23.19,45.31 34.56,67.72 11.36,22.43 22.72,45.16 34.09,68.19 l 48.83,0 0,-320.64 -52.52,0 0,209.15 -0.92,0 c -5.23,-10.13 -10.45,-20.42 -15.67,-30.86 -5.22,-10.44 -10.44,-20.73 -15.66,-30.86 l -75.54,-147.43 -49.76,0"
             id="path3327"
             style="fill:#181210;fill-opacity:1;fill-rule:nonzero;stroke:none" />
          <path
             d="m 3314.27,9182.71 0,138.67 -90.3,0 0,-138.67 -52.99,0 0,320.64 52.99,0 0,-134.53 90.3,0 0,134.53 52.51,0 0,-320.64 -52.51,0"
             id="path3329"
             style="fill:#181210;fill-opacity:1;fill-rule:nonzero;stroke:none" />
          <path
             d="m 3581.18,9363.3 -16.58,-64.49 65.41,0 -16.12,64.03 c -0.61,2.77 -1.6,7.37 -2.99,13.82 -1.38,6.46 -2.92,13.21 -4.61,20.28 -1.68,7.04 -3.3,13.74 -4.83,20.03 -1.53,6.29 -2.46,10.83 -2.77,13.6 l -2.31,0 -15.2,-67.27 z m 60.82,-111.5 -88.91,0 c -0.63,-2.74 -1.85,-7.35 -3.7,-13.81 -1.84,-6.44 -3.76,-13.36 -5.75,-20.74 -1.99,-7.36 -3.84,-14.28 -5.53,-20.71 -1.68,-6.46 -2.99,-11.08 -3.91,-13.83 l -54.83,0 92.61,320.64 50.67,0 93.06,-320.64 -55.74,0 -17.97,69.09"
             id="path3331"
             style="fill:#181210;fill-opacity:1;fill-rule:nonzero;stroke:none" />
          <path
             d="m 3971.34,9405.46 c 0,15.88 -3.84,28.04 -11.51,36.45 -7.67,8.4 -19.35,12.61 -35.01,12.61 l -43.77,0 0,-99.06 44.23,0 c 15.66,0 27.24,4.51 34.77,13.53 7.53,9.02 11.29,21.18 11.29,36.47 z m 52.06,-1.16 c 0,-13.82 -1.99,-26.71 -5.99,-38.69 -3.99,-11.99 -9.91,-22.43 -17.73,-31.34 -7.84,-8.91 -17.73,-15.88 -29.72,-20.96 -11.98,-5.05 -25.96,-7.6 -41.92,-7.6 l -46.99,0 0,-123 -52.51,0 0,320.64 96.74,0 c 15.03,0 28.56,-1.99 40.53,-5.98 11.99,-4 22.26,-10.07 30.88,-18.21 8.6,-8.14 15.2,-18.43 19.79,-30.86 4.62,-12.44 6.92,-27.1 6.92,-44"
             id="path3333"
             style="fill:#181210;fill-opacity:1;fill-rule:nonzero;stroke:none" />
          <path
             d="m 4281.16,9182.71 0,138.67 -90.28,0 0,-138.67 -52.99,0 0,320.64 52.99,0 0,-134.53 90.28,0 0,134.53 52.52,0 0,-320.64 -52.52,0"
             id="path3335"
             style="fill:#181210;fill-opacity:1;fill-rule:nonzero;stroke:none" />
          <path
             d="m 4548.09,9363.3 -16.59,-64.49 65.42,0 -16.12,64.03 c -0.63,2.77 -1.61,7.37 -2.99,13.82 -1.38,6.46 -2.93,13.21 -4.61,20.28 -1.7,7.04 -3.31,13.74 -4.84,20.03 -1.55,6.29 -2.47,10.83 -2.77,13.6 l -2.3,0 -15.2,-67.27 z m 60.8,-111.5 -88.9,0 c -0.63,-2.74 -1.84,-7.35 -3.69,-13.81 -1.84,-6.44 -3.76,-13.36 -5.75,-20.74 -2.01,-7.36 -3.86,-14.28 -5.54,-20.71 -1.7,-6.46 -2.99,-11.08 -3.91,-13.83 l -54.83,0 92.59,320.64 50.68,0 93.07,-320.64 -55.75,0 -17.97,69.09"
             id="path3337"
             style="fill:#181210;fill-opacity:1;fill-rule:nonzero;stroke:none" />
          <path
             d="m 4988.04,9182.71 0,320.64 52.98,0 0,-134.53 25.33,0 c 4.61,0 9.37,0.61 14.28,1.85 4.93,1.23 9.61,3.47 14.06,6.67 4.45,3.23 8.6,7.85 12.44,13.84 3.83,5.98 6.98,13.73 9.44,23.27 l 23.5,87.98 50.68,0 -24.89,-94.44 c -3.98,-15.67 -9.66,-28.65 -17.04,-38.93 -7.36,-10.29 -15.98,-17.12 -25.79,-20.49 12.89,-4.32 22.87,-11.61 29.94,-21.9 7.06,-10.29 12.43,-23.41 16.12,-39.39 l 26.73,-104.57 -53.9,0 -22.58,91.22 c -4.91,19.35 -11.68,32.17 -20.28,38.46 -8.6,6.29 -18.72,9.45 -30.4,9.45 l -27.64,0 0,-139.13 -52.98,0"
             id="path3339"
             style="fill:#181210;fill-opacity:1;fill-rule:nonzero;stroke:none" />
          <path
             d="m 5394.51,9335.65 c 0,-25.49 -1.31,-47.52 -3.91,-66.1 -2.62,-18.59 -7.23,-34.26 -13.82,-46.98 -6.62,-12.75 -15.44,-22.9 -26.49,-30.43 -11.07,-7.52 -24.89,-12.96 -41.47,-16.34 l -14.28,40.99 c 9.83,4 18.04,8.69 24.64,14.06 6.61,5.36 11.91,12.21 15.91,20.49 3.98,8.3 6.82,18.58 8.52,30.89 1.68,12.27 2.53,27.63 2.53,46.06 l 0,175.06 173.23,0 0,-320.64 -52.07,0 0,271.81 -72.79,0 0,-118.87"
             id="path3341"
             style="fill:#181210;fill-opacity:1;fill-rule:nonzero;stroke:none" />
          <path
             d="m 5651.16,9182.71 52.9844,0 0,320.633 -52.9844,0 0,-320.633 z"
             id="path3343"
             style="fill:#181210;fill-opacity:1;fill-rule:nonzero;stroke:none" />
          <path
             d="m 5977.93,9182.71 0,138.67 -90.3,0 0,-138.67 -52.99,0 0,320.64 52.99,0 0,-134.53 90.3,0 0,134.53 52.53,0 0,-320.64 -52.53,0"
             id="path3345"
             style="fill:#181210;fill-opacity:1;fill-rule:nonzero;stroke:none" />
          <path
             d="m 6161.42,9182.71 52.9844,0 0,320.633 -52.9844,0 0,-320.633 z"
             id="path3347"
             style="fill:#181210;fill-opacity:1;fill-rule:nonzero;stroke:none" />
          <path
             d="m 6344.68,9182.71 0,320.64 52.99,0 0,-134.53 25.33,0 c 4.61,0 9.37,0.61 14.27,1.85 4.93,1.23 9.62,3.47 14.06,6.67 4.45,3.23 8.6,7.85 12.44,13.84 3.84,5.98 6.99,13.73 9.44,23.27 l 23.5,87.98 50.68,0 -24.89,-94.44 c -3.98,-15.67 -9.66,-28.65 -17.04,-38.93 -7.36,-10.29 -15.96,-17.12 -25.79,-20.49 12.89,-4.32 22.87,-11.61 29.94,-21.9 7.07,-10.29 12.43,-23.41 16.12,-39.39 l 26.73,-104.57 -53.9,0 -22.58,91.22 c -4.91,19.35 -11.68,32.17 -20.28,38.46 -8.59,6.29 -18.72,9.45 -30.4,9.45 l -27.63,0 0,-139.13 -52.99,0"
             id="path3349"
             style="fill:#181210;fill-opacity:1;fill-rule:nonzero;stroke:none" />
          <path
             d="m 6756.26,9363.3 -16.58,-64.49 65.41,0 -16.12,64.03 c -0.61,2.77 -1.6,7.37 -2.99,13.82 -1.38,6.46 -2.91,13.21 -4.61,20.28 -1.68,7.04 -3.3,13.74 -4.83,20.03 -1.54,6.29 -2.46,10.83 -2.77,13.6 l -2.31,0 -15.2,-67.27 z m 60.83,-111.5 -88.93,0 c -0.62,-2.74 -1.84,-7.35 -3.68,-13.81 -1.85,-6.44 -3.77,-13.36 -5.76,-20.74 -2.01,-7.36 -3.84,-14.28 -5.53,-20.71 -1.68,-6.46 -2.99,-11.08 -3.92,-13.83 l -54.82,0 92.61,320.64 50.67,0 93.06,-320.64 -55.74,0 -17.96,69.09"
             id="path3351"
             style="fill:#181210;fill-opacity:1;fill-rule:nonzero;stroke:none" />
          <path
             d="m 4298.36,11951 c 0,-97.7 -79.22,-259.5 -176.92,-259.5 -97.54,0 -176.85,161.8 -176.85,259.5 0,97.6 79.31,63.4 176.85,63.4 97.7,0 176.92,34.2 176.92,-63.4"
             id="path3353"
             style="fill:#181210;fill-opacity:1;fill-rule:nonzero;stroke:none" />
          <path
             d="m 4269.59,11590.8 c -55.84,0 -108.69,12.6 -142.14,33.3 -41.4,25.4 -47.45,57.8 -47.45,74.8 0,23 18.63,41.5 41.44,41.5 22.28,0 40.34,-17.3 41.49,-39.4 4.85,-5.9 28.85,-20.6 76.96,-25.5 48.97,-5 99.47,2.7 134.91,20.6 20.5,10.4 45.61,2.1 55.88,-18.4 10.3,-20.6 2,-45.4 -18.35,-55.8 -43.17,-21.6 -94.2,-31.1 -142.74,-31.1"
             id="path3355"
             style="fill:#181210;fill-opacity:1;fill-rule:nonzero;stroke:none" />
          <path
             d="m 3973.34,11590.8 c -48.58,0 -99.57,9.5 -142.68,31.1 -20.41,10.4 -28.69,35.2 -18.36,55.8 10.33,20.5 35.33,28.8 55.83,18.4 35.49,-17.9 85.94,-25.6 134.91,-20.6 48.16,4.9 72.11,19.6 76.96,25.5 1.14,22.1 19.21,39.4 41.44,39.4 23.02,0 41.54,-18.5 41.54,-41.5 0,-17 -6.16,-49.4 -47.43,-74.8 -33.61,-20.7 -86.32,-33.3 -142.21,-33.3"
             id="path3357"
             style="fill:#181210;fill-opacity:1;fill-rule:nonzero;stroke:none" />
          <path
             d="m 4121.44,11563.7 c -57.19,0 -111.32,19.8 -148.16,54.5 -7.14,6.8 -7.4,17.9 -0.83,25.1 6.68,7.1 17.89,7.4 25.05,0.7 30.48,-28.5 75.62,-44.9 123.94,-44.9 49.16,0 94.82,16.9 125.44,46.3 7.01,6.8 18.29,6.6 25.11,-0.5 6.74,-7 6.53,-18.3 -0.63,-25.1 -36.84,-35.6 -91.63,-56.1 -149.92,-56.1"
             id="path3359"
             style="fill:#181210;fill-opacity:1;fill-rule:nonzero;stroke:none" />
          <path
             d="m 3335.47,11668.5 -103.94,0 0,1494.3 c 0,92.8 58.76,142.5 116.95,150.7 60.52,8.4 134.78,-27.4 159.31,-112.8 30.02,-104.3 205.55,-704.2 205.55,-704.2 l -108.32,0 c -0.26,1.1 -167.11,570.9 -197.11,675.5 -8.5,29.8 -28.87,40.8 -45.03,38.6 -17.17,-2.5 -27.41,-20.3 -27.41,-47.8 l 0,-1494.3"
             id="path3361"
             style="fill:#181210;fill-opacity:1;fill-rule:nonzero;stroke:none" />
          <path
             d="m 4907.55,11668.5 103.86,0 0,1494.3 c 0,92.8 -58.66,142.5 -116.85,150.7 -60.75,8.4 -134.89,-27.4 -159.31,-112.8 -30.06,-104.3 -205.61,-704.2 -205.61,-704.2 l 108.33,0 c 0.31,1.1 167.16,570.9 197.21,675.5 8.45,29.8 28.65,40.8 44.83,38.6 17.21,-2.5 27.54,-20.3 27.54,-47.8 l 0,-1494.3"
             id="path3363"
             style="fill:#181210;fill-opacity:1;fill-rule:nonzero;stroke:none" />
          <path
             d="m 1419.01,12428.4 485.32,0 0,103.8 -485.32,0 0,659.8 711.04,0 0,103.8 -762.96,0 c -28.65,0 -51.82,-23.2 -51.82,-51.9 l 0,-1575.4 103.74,0 0,759.9"
             id="path3365"
             style="fill:#38a6e3;fill-opacity:1;fill-rule:nonzero;stroke:none" />
          <path
             d="m 2903.96,11133.3 261.97,0 0,-1156.26 103.85,0 0,1156.26 262.02,0 0,103.8 -627.84,0 0,-103.8"
             id="path3367"
             style="fill:#38a6e3;fill-opacity:1;fill-rule:nonzero;stroke:none" />
          <path
             d="m 2228.78,11185.2 0,-1156.7 c 0,-28.64 23.21,-51.92 51.92,-51.92 l 522.08,0 0,103.82 -470.1,0 0,468 302.94,0 0,103.8 -302.94,0 0,481.1 470.1,0 0,103.8 -522.08,0 c -28.71,0 -51.92,-23.2 -51.92,-51.9"
             id="path3369"
             style="fill:#38a6e3;fill-opacity:1;fill-rule:nonzero;stroke:none" />
          <path
             d="m 1743.5,10299.7 -17.79,-138.1 c 0,-0.2 -0.26,-0.4 -0.26,-0.7 -0.16,-0.7 -0.42,-1.3 -0.74,-2 -0.26,-0.8 -0.52,-1.5 -1.04,-2.2 -0.31,-0.5 -0.78,-1 -1.3,-1.5 -0.47,-0.7 -1.2,-1.2 -1.94,-1.8 -0.47,-0.3 -0.88,-0.6 -1.51,-0.9 -0.83,-0.4 -1.67,-0.8 -2.66,-0.9 -0.37,0 -0.57,-0.4 -1.1,-0.4 -0.46,-0.1 -0.93,-0.1 -1.72,-0.1 l 0,0 c -0.52,0 -1.09,0 -1.62,0.1 -0.46,0 -0.73,0.4 -1.04,0.4 -0.99,0.1 -1.88,0.5 -2.77,0.9 -0.36,0.3 -0.99,0.6 -1.56,0.9 -0.68,0.6 -1.36,1.1 -1.93,1.8 -0.42,0.5 -0.79,1 -1.2,1.5 -0.42,0.7 -0.73,1.4 -1.1,2.2 -0.21,0.7 -0.47,1.3 -0.68,2 0,0.3 -0.15,0.5 -0.2,0.7 l -17.9,138.1 -273.04,937.4 -108.07,0 361.17,-1240.37 c 6.47,-22.12 26.82,-37.36 49.79,-37.47 l 0,0 c 23.16,0 43.41,15.35 49.78,37.47 l 362.79,1240.37 -108.18,0 -274.18,-937.4"
             id="path3371"
             style="fill:#38a6e3;fill-opacity:1;fill-rule:nonzero;stroke:none" />
          <path
             d="m 2486.26,12980 15.92,112.4 c 0.11,0.2 0.21,0.4 0.37,0.6 0.06,0.9 0.41,1.7 0.78,2.5 0.31,0.6 0.57,1.3 0.94,1.9 0.48,0.7 1.14,1.4 1.62,1.9 0.52,0.5 1,0.9 1.52,1.4 0.77,0.5 1.56,0.6 2.34,1.1 0.79,0.3 1.36,0.5 2.19,0.7 0,0 0.37,0.2 0.74,0.3 0.52,0.1 1.2,-0.1 1.61,-0.1 0.62,0 1.1,0.2 1.82,0.1 0.32,-0.1 0.43,-0.2 0.63,-0.3 0.79,-0.2 1.37,-0.4 2.14,-0.7 0.79,-0.4 1.68,-0.6 2.4,-1.1 0.48,-0.4 0.85,-0.8 1.25,-1.2 0.63,-0.7 1.42,-1.3 1.94,-2.2 0.41,-0.5 0.57,-1.1 0.77,-1.6 0.48,-0.9 0.85,-1.8 1,-2.7 0,-0.2 0.11,-0.4 0.31,-0.6 l 15.3,-108.6 226.17,-776.8 -507.47,0 225.71,773 z m -382.89,-1311.5 126.92,434.7 568.04,0 126.61,-435 108.38,0 -468.82,1609.1 c -6.47,22.1 -26.62,37.4 -49.73,37.4 l 0,0 c -23.12,0 -43.43,-15.2 -49.85,-37.3 l -469.67,-1608.9 108.12,0"
             id="path3373"
             style="fill:#38a6e3;fill-opacity:1;fill-rule:nonzero;stroke:none" />
          <path
             d="m 6541.43,11668.5 103.85,0 0,529.3 320.31,1097.9 -108.09,0.1 -237.96,-815.5 -13.5,-95.3 c -0.06,-0.2 -0.11,-0.5 -0.11,-0.5 -0.26,-0.9 -0.43,-1.5 -0.78,-2.2 -0.27,-0.7 -0.59,-1.5 -1.16,-2.2 -0.26,-0.5 -0.72,-1 -1.14,-1.5 -0.63,-0.7 -1.2,-1.2 -1.94,-1.7 -0.52,-0.4 -1.03,-0.7 -1.61,-1 -0.79,-0.4 -1.67,-0.7 -2.56,-0.8 -0.42,-0.2 -0.72,-0.5 -1.03,-0.5 -0.63,0 -1.16,-0.1 -1.79,-0.1 l 0,0 c -0.63,0 -1.2,0.1 -1.72,0.1 -0.42,0 -0.68,0.3 -1.14,0.5 -0.89,0.1 -1.68,0.4 -2.62,0.8 -0.52,0.3 -1.03,0.6 -1.61,1 -0.62,0.5 -1.31,1 -1.82,1.7 -0.48,0.5 -0.89,1 -1.2,1.5 -0.43,0.7 -0.85,1.5 -1.17,2.2 -0.19,0.7 -0.46,1.3 -0.57,2 -0.2,0.2 -0.2,0.5 -0.31,0.7 l -12.62,89.5 -238.39,821.4 -108.29,-0.1 318.97,-1097.9 0,-529.4"
             id="path3375"
             style="fill:#38a6e3;fill-opacity:1;fill-rule:nonzero;stroke:none" />
          <path
             d="m 5878.52,13295.8 -103.85,0 0,-1575.4 c 0,-28.6 23.32,-51.9 51.88,-51.9 l 509.22,0 0,103.8 -457.25,0 0,1523.5"
             id="path3377"
             style="fill:#38a6e3;fill-opacity:1;fill-rule:nonzero;stroke:none" />
          <path
             d="m 5829.63,10499.4 -168.31,0 0,633.9 168.31,0 c 115.43,0 230.12,-53.9 230.12,-316.9 0,-263.1 -114.69,-317 -230.12,-317 z m 282.05,31.8 c 35.39,66.2 51.93,156.8 51.93,285.2 0,128.2 -16.54,218.9 -51.93,285.1 -47.96,90 -167.88,135.6 -282.05,135.6 l -220.18,0 c -28.71,0 -51.97,-23.2 -51.97,-51.9 l 0,-1208.16 103.84,0 0,418.46 169.86,0 0,0.1 c 28.24,0.1 56.84,2.9 84.66,8.6 l 124.25,-427.16 108.12,0.11 -134.26,461.45 c 42.05,22.3 76.76,53.1 97.73,92.6"
             id="path3379"
             style="fill:#38a6e3;fill-opacity:1;fill-rule:nonzero;stroke:none" />
          <path
             d="m 6339.46,11185.2 0,-1156.7 c 0,-28.64 23.17,-51.92 51.82,-51.92 l 527.81,0 0,103.82 -475.88,0 0,468 303.05,0 0,103.8 -303.05,0 0,481.1 475.88,0 0,103.8 -527.81,0 c -28.65,0 -51.82,-23.2 -51.82,-51.9"
             id="path3381"
             style="fill:#38a6e3;fill-opacity:1;fill-rule:nonzero;stroke:none" />
          <path
             d="m 4336.34,11142 c 84.64,0 134.12,-18.2 182.12,-49.6 l 39.4,97.8 c -56.47,33.7 -121.7,55.7 -221.52,55.7 -94.82,0 -181.46,-27.9 -243.92,-78.4 -69.87,-56.3 -106.76,-136.1 -106.76,-230.8 l 0,-662 c 0,-94.7 36.89,-174.5 106.76,-230.9 62.46,-50.58 149.1,-78.33 243.92,-78.33 86.67,0 147.16,16.64 198.61,43.03 l -34.13,99.6 c -43,-24.7 -90.28,-38.8 -164.48,-38.8 -182.23,0 -246.95,110.6 -246.95,205.4 l 0,662 c 0,151.5 133.03,205.3 246.95,205.3"
             id="path3383"
             style="fill:#38a6e3;fill-opacity:1;fill-rule:nonzero;stroke:none" />
          <path
             d="m 5337.47,11668.5 103.844,0 0,1627.25 -103.844,0 0,-1627.25 z"
             id="path3385"
             style="fill:#38a6e3;fill-opacity:1;fill-rule:nonzero;stroke:none" />
          <path
             d="m 4842.43,10396.3 150.66,517.2 17.96,137.9 c 0.09,0.2 0.25,0.4 0.36,0.6 0,0.9 0.47,1.7 0.83,2.6 0.32,0.6 0.52,1.2 0.78,1.8 0.53,0.7 1.25,1.4 1.94,1.9 0.46,0.5 0.83,1.1 1.45,1.4 0.63,0.5 1.26,0.7 2,1 0.82,0.3 1.6,0.7 2.54,0.9 0.26,0 0.37,0.1 0.37,0.1 0.89,0.2 1.31,0 1.88,0 0.57,0 1.15,0.2 1.77,0.1 0.17,-0.1 0.32,-0.2 0.32,-0.2 1.05,-0.2 1.93,-0.6 2.82,-0.9 0.63,-0.3 1.35,-0.5 1.88,-1 0.63,-0.3 0.98,-0.9 1.46,-1.4 0.77,-0.6 1.35,-1.2 1.88,-1.9 0.31,-0.6 0.57,-1.2 0.83,-1.8 0.43,-0.9 0.74,-1.7 0.94,-2.6 0.11,-0.2 0.2,-0.4 0.2,-0.6 l 18.18,-137.6 150.65,-517.5 -361.7,0 z m 180.98,858.1 c -23.07,0 -43.41,-15.2 -49.83,-37.4 l -361.7,-1240.16 108.24,0.2 92.15,315.46 422.07,0 92,-315.46 108.18,0 -361.21,1239.96 c -6.48,22.2 -26.88,37.4 -49.9,37.4"
             id="path3387"
             style="fill:#38a6e3;fill-opacity:1;fill-rule:nonzero;stroke:none" />
        </g>
      </g>
    </g>
  </g>
</svg>
