<?xml version="1.0" encoding="UTF-8" standalone="no"?>
<svg
   xmlns:dc="http://purl.org/dc/elements/1.1/"
   xmlns:cc="http://creativecommons.org/ns#"
   xmlns:rdf="http://www.w3.org/1999/02/22-rdf-syntax-ns#"
   xmlns:svg="http://www.w3.org/2000/svg"
   xmlns="http://www.w3.org/2000/svg"
   xmlns:sodipodi="http://sodipodi.sourceforge.net/DTD/sodipodi-0.dtd"
   xmlns:inkscape="http://www.inkscape.org/namespaces/inkscape"
   id="dog-mind"
   viewBox="0 0 1024 1024"
   version="1.1"
   inkscape:version="0.91 r13725"
   sodipodi:docname="phyho.svg">
  <metadata
     id="metadata4161">
    <rdf:RDF>
      <cc:Work
         rdf:about="">
        <dc:format>image/svg+xml</dc:format>
        <dc:type
           rdf:resource="http://purl.org/dc/dcmitype/StillImage" />
      </cc:Work>
    </rdf:RDF>
  </metadata>
  <defs
     id="defs4159" />
  <sodipodi:namedview
     pagecolor="#ffffff"
     bordercolor="#666666"
     borderopacity="1"
     objecttolerance="10"
     gridtolerance="10"
     guidetolerance="10"
     inkscape:pageopacity="0"
     inkscape:pageshadow="2"
     inkscape:window-width="1366"
     inkscape:window-height="706"
     id="namedview4157"
     showgrid="false"
     inkscape:zoom="0.5"
     inkscape:cx="517.01785"
     inkscape:cy="486.24081"
     inkscape:window-x="-8"
     inkscape:window-y="-8"
     inkscape:window-maximized="1"
     inkscape:current-layer="text4171" />
  <title
     id="title4137">mind</title>
  <path
     class="mind fill-color4"
     d="M1023.99 512c0 282.768-229.232 512-512 512s-511.99-229.232-511.99-512c0-282.768 229.222-512 511.99-512s512 229.232 512 512z"
     id="path4139" />
  <path
     fill="#fff"
     class="path2 fill-color15"
     d="M652.375 717.316c-13.833 0-24.588 7.912-35.976 16.287-13.448 9.893-27.354 20.123-48.793 20.123-25.172 0-40.458-11.801-40.458-16.991v-11.489c6.423-2.889 15.954-7.532 25.56-13.523 24.587-15.332 37.053-31.598 37.053-48.348 0-34.102-28.791-55.289-75.136-55.289s-75.136 21.186-75.136 55.289c0 16.75 12.466 33.016 37.053 48.348 9.605 5.991 19.138 10.635 25.56 13.523v11.489c0 5.19-15.285 16.991-40.458 16.991-21.439 0-35.345-10.23-48.793-20.123-11.388-8.376-22.143-16.287-35.976-16.287-6.916 0-12.523 5.434-12.523 12.137s5.607 12.137 12.523 12.137c5.405 0 12.556 5.26 20.835 11.349 14.378 10.576 34.068 25.061 63.934 25.061 21.758 0 41.062-6.724 52.98-17.040 11.918 10.316 31.222 17.040 52.98 17.040 29.867 0 49.557-14.485 63.934-25.061 8.279-6.091 15.429-11.349 20.835-11.349 6.916 0 12.523-5.434 12.523-12.137s-5.607-12.137-12.523-12.137zM464.536 663.375c0-27.993 35.029-31.015 50.091-31.015 45.21 0 50.091 21.69 50.091 31.015 0 13.652-28.37 31.496-50.091 40.776-21.725-9.285-50.091-27.125-50.091-40.776z"
     id="path4141" />
  <path
     fill="#fff"
     class="path3 fill-color15"
     d="M426.968 507.959c0-26.769-22.47-48.547-50.091-48.547s-50.091 21.778-50.091 48.547c0 26.769 22.47 48.547 50.091 48.547s50.091-21.778 50.091-48.547zM351.832 507.959c0-13.384 11.236-24.273 25.045-24.273s25.045 10.89 25.045 24.273c0 13.384-11.236 24.273-25.045 24.273s-25.045-10.89-25.045-24.273z"
     id="path4143" />
  <path
     class="path4 fill-color15"
     d="M652.375 459.412c-27.62 0-50.091 21.778-50.091 48.547s22.47 48.547 50.091 48.547c27.62 0 50.091-21.778 50.091-48.547s-22.47-48.547-50.091-48.547zM652.375 532.232c-13.809 0-25.045-10.89-25.045-24.273s11.236-24.273 25.045-24.273c13.809 0 25.045 10.89 25.045 24.273s-11.236 24.273-25.045 24.273z"
     id="path4145"
     fill="#fff" />
  <path
     fill="#fff"
     class="path5 fill-color15"
     d="M861.103 293.736c-50.485-71.212-86.893-86.16-108.546-86.16-35.201 0-62.148 19.42-73.099 52.251-17.123 7.795-30.057 4.576-53.971-1.434-24.206-6.080-57.355-14.408-110.86-14.408s-86.654 8.327-110.86 14.408c-23.915 6.009-36.848 9.228-53.971 1.434-10.951-32.831-37.898-52.251-73.1-52.251-21.653 0-58.061 14.948-108.546 86.16-26.089 36.801-54.248 88.567-54.248 108.027 0 5.527 3.43 8.614 6.186 11.093 7.116 6.402 28.771 25.886 31.412 62.572 1.648 22.899 9.267 47.392 20.905 67.204 12.853 21.881 29.333 36.169 46.406 40.229 2.838 0.675 6.285 1.197 10.164 1.197 3.195 0 6.681-0.353 10.355-1.268 1.44 44.036 11.533 81.607 30.776 114.532 18.523 31.692 46.063 60.398 86.668 90.339 3.275 2.414 7.91 8.408 12.817 14.751 21.032 27.183 56.231 72.682 145.037 72.682s124.006-45.499 145.037-72.684c4.907-6.344 9.544-12.337 12.817-14.751 40.605-29.943 68.144-58.649 86.668-90.339 19.243-32.924 29.336-70.496 30.776-114.532 3.675 0.915 7.161 1.268 10.355 1.268 3.879 0 7.327-0.522 10.164-1.197 37.44-8.905 64.089-62.7 67.309-107.432 2.642-36.686 24.295-56.169 31.412-62.572 2.757-2.479 6.186-5.566 6.186-11.093 0.002-19.458-28.157-71.224-54.247-108.026zM852.769 473.738c-1.396 19.393-7.842 40.125-17.687 56.883-9.279 15.797-20.435 26.244-30.609 28.664-9.891 2.356-19.559-3.781-28.725-18.237-13.211-20.837-4.865-65.625 3.206-108.936 11.787-63.246 25.146-134.93-17.986-172.845-5.123-4.503-13.042-4.128-17.688 0.836s-4.259 12.64 0.862 17.143c32.841 28.869 21.314 90.728 10.165 150.549-9.317 49.997-18.119 97.221 0.102 125.958 3.664 5.78 7.432 10.504 11.217 14.368-0.353 1.127-0.548 2.32-0.548 3.555 0 97.268-43.079 148.966-107.764 196.664-6.053 4.463-11.446 11.436-17.691 19.507-19.399 25.077-48.716 62.973-124.998 62.973s-105.599-37.895-124.998-62.973c-6.246-8.071-11.638-15.043-17.691-19.507-64.684-47.699-107.764-99.396-107.764-196.664 0-1.236-0.194-2.429-0.548-3.552 3.785-3.864 7.553-8.588 11.217-14.368 18.22-28.737 9.419-75.962 0.102-125.958-11.148-59.823-22.677-121.682 10.165-150.549 5.122-4.503 5.51-12.178 0.863-17.143s-12.567-5.339-17.688-0.836c-43.131 37.913-29.773 109.597-17.986 172.845 8.071 43.311 16.417 88.097 3.206 108.936-9.165 14.455-18.829 20.594-28.725 18.237-10.175-2.42-21.329-12.866-30.608-28.664-9.844-16.758-16.29-37.49-17.687-56.883-2.129-29.571-14.498-55.22-36.774-76.291 3.694-13.698 20.72-49.959 49.083-89.966 33.575-47.36 66.436-75.634 87.904-75.634 14.891 0 41.251 5.128 50.496 39.475 0.008 0.039 0.024 0.078 0.032 0.117 0.064 0.223 0.139 0.443 0.216 0.663 0.056 0.164 0.108 0.332 0.17 0.493 0.072 0.191 0.166 0.378 0.252 0.567 0.082 0.178 0.157 0.36 0.244 0.532 0.084 0.162 0.181 0.317 0.274 0.476 0.106 0.186 0.208 0.375 0.324 0.554 0.1 0.156 0.216 0.303 0.325 0.455 0.122 0.17 0.238 0.344 0.368 0.507 0.132 0.165 0.279 0.32 0.421 0.479 0.122 0.137 0.238 0.279 0.365 0.411 0.153 0.158 0.321 0.305 0.483 0.455 0.132 0.121 0.258 0.249 0.394 0.364 0.155 0.13 0.322 0.252 0.485 0.376 0.161 0.123 0.32 0.25 0.487 0.366 0.15 0.103 0.31 0.197 0.467 0.294 0.194 0.123 0.388 0.246 0.589 0.357 0.040 0.022 0.072 0.047 0.112 0.067 13.452 7.277 25.131 9.917 36.732 9.917 12.718 0 25.344-3.172 40.112-6.883 24.177-6.074 54.265-13.633 104.577-13.633s80.4 7.558 104.575 13.631c14.771 3.711 27.393 6.883 40.112 6.883 11.601 0 23.281-2.64 36.732-9.917 0.032-0.018 0.072-0.044 0.108-0.065 0.21-0.115 0.41-0.244 0.614-0.372 0.147-0.093 0.3-0.182 0.442-0.279 0.178-0.124 0.348-0.258 0.52-0.391 0.152-0.117 0.308-0.227 0.452-0.349 0.152-0.129 0.294-0.27 0.44-0.405 0.147-0.138 0.3-0.27 0.44-0.413 0.145-0.15 0.277-0.311 0.417-0.469 0.124-0.141 0.254-0.278 0.371-0.423 0.145-0.179 0.272-0.37 0.406-0.558 0.096-0.135 0.199-0.265 0.29-0.405 0.124-0.19 0.232-0.39 0.344-0.589 0.084-0.147 0.175-0.291 0.254-0.443 0.092-0.178 0.169-0.366 0.252-0.549s0.172-0.366 0.246-0.552c0.064-0.162 0.114-0.331 0.172-0.496 0.072-0.22 0.152-0.439 0.214-0.66 0.008-0.039 0.032-0.078 0.032-0.117 9.243-34.344 35.604-39.472 50.495-39.472 21.469 0 54.33 28.274 87.903 75.633 28.362 40.007 45.388 76.268 49.083 89.966-22.276 21.069-34.645 46.719-36.773 76.29z"
     id="path4147" />
  <path
     fill="#fff"
     class="path6 fill-color15"
     d="M550.011 787.166c-23.48 3.972-47.29 3.972-70.77 0-6.815-1.155-13.301 3.266-14.489 9.87-1.19 6.604 3.37 12.891 10.183 14.042 13.169 2.229 26.431 3.342 39.691 3.342s26.523-1.113 39.691-3.342c6.814-1.151 11.372-7.438 10.182-14.042s-7.669-11.025-14.487-9.87z"
     id="path4149" />
  <g
     transform="scale(1.1511007,0.86873373)"
     style="font-style:normal;font-weight:normal;font-size:113.55606842px;line-height:125%;font-family:sans-serif;letter-spacing:0px;word-spacing:0px;fill:#000000;fill-opacity:1;stroke:none;stroke-width:1px;stroke-linecap:butt;stroke-linejoin:miter;stroke-opacity:1"
     id="text4171">
    <path
       d="m 538.30029,416.83333 q 0,16.80053 -4.99026,29.7752 -4.82392,12.80833 -13.80638,22.28982 -8.98246,9.48149 -21.62444,16.96687 -12.47565,7.48539 -28.27813,13.64004 l 0,37.92595 -58.55235,0 0,-56.05722 q 11.81028,-3.1605 21.29177,-6.48733 9.64783,-3.32684 20.12737,-10.81223 9.81417,-6.65367 15.30345,-15.4698 5.65563,-8.81612 5.65563,-19.96102 0,-16.63419 -10.81223,-23.62055 -10.64588,-7.1527 -30.10788,-7.1527 -11.97662,0 -27.11373,5.15659 -14.97077,5.1566 -27.44642,13.30736 l -6.65367,0 0,-50.73428 q 10.64588,-4.49123 32.76935,-9.31515 22.12348,-4.99026 44.91232,-4.99026 41.08645,0 65.20602,18.13127 24.11958,18.13127 24.11958,47.40744 z m -64.04163,187.13464 -67.20213,0 0,-43.91426 67.20213,0 0,43.91426 z"
       style="font-weight:bold;font-size:340.66821289px;fill:#ffffff;fill-opacity:1"
       id="path4930"
       inkscape:connector-curvature="0" />
  </g>
</svg>
